<?xml version="1.0" standalone="no"?>
<!DOCTYPE svg PUBLIC "-//W3C//DTD SVG 1.1//EN" "http://www.w3.org/Graphics/SVG/1.1/DTD/svg11.dtd" >
<svg xmlns="http://www.w3.org/2000/svg">
<metadata></metadata>
<defs>
<font id="fineliner_scriptregular" horiz-adv-x="675" >
<font-face units-per-em="2048" ascent="1536" descent="-512" />
<missing-glyph horiz-adv-x="604" />
<glyph horiz-adv-x="0" />
<glyph unicode="&#xd;" horiz-adv-x="604" />
<glyph horiz-adv-x="0" />
<glyph horiz-adv-x="0" />
<glyph unicode=" "  horiz-adv-x="604" />
<glyph unicode="&#x09;" horiz-adv-x="604" />
<glyph unicode="&#xa0;" horiz-adv-x="604" />
<glyph unicode="!" horiz-adv-x="391" d="M143 76q0 8 4 20q6 16 24.5 25.5t41.5 9.5t45.5 -13.5t22.5 -45.5q0 -29 -17.5 -59.5t-50.5 -30.5q-25 0 -47.5 29.5t-22.5 64.5zM158 1264q0 35 14 48t37 13q31 0 51.5 -15.5t20.5 -33.5q-4 -20 -7.5 -95t-6.5 -176.5t-5 -214t-4 -210t-3 -165t-1 -73.5v-33 q0 -23 -7 -35t-40 -12q-25 0 -26 13.5t-3 64.5q-2 47 -2 116.5t-1 151.5t-2 172t-2 177t-5 166.5t-8 140.5z" />
<glyph unicode="&#x22;" horiz-adv-x="452" d="M61 1139q0 27 15.5 38t29.5 11q29 0 50.5 -22.5t21.5 -98.5q0 -47 -12 -73.5t-45 -26.5q-14 0 -24.5 6t-10.5 16q0 8 11.5 22.5t11.5 41.5q-1 20 -11 26q-18 4 -27.5 11.5t-9.5 48.5zM236 1137q0 20 8 32.5t19 18.5t22.5 7t17.5 1q29 0 41 -22.5t12 -79.5 q0 -55 -11 -96.5t-34 -41.5q-16 0 -27.5 10.5t-11.5 26.5q0 12 10.5 25.5t10.5 25.5t-7.5 21.5t-13.5 13.5q-18 4 -27 11.5t-9 46.5z" />
<glyph unicode="#" horiz-adv-x="1159" d="M61 442q0 20 22.5 31.5t57.5 16t74 5.5t74 3q4 25 15 52.5t22 55.5l63 225q-43 0 -86 2.5t-84 2.5q-23 0 -22 26q0 16 10 30.5t26 14.5h181q18 66 40.5 135.5t51.5 147.5l14 31q6 18 35 18q18 0 35.5 -10t17.5 -27q0 -2 -29.5 -86t-72.5 -209q27 0 68.5 1t88 2t90.5 3 t76 7q27 98 43.5 159.5t29.5 94t28.5 44t40.5 11.5q35 0 35 -33q0 2 -18.5 -66.5t-59.5 -199.5q39 4 77.5 8t84.5 4q18 0 18 -24q0 -31 -22.5 -46.5t-55.5 -23.5t-69.5 -10t-63.5 -7l-104 -325q66 0 123 5t106 5q23 0 31 -10t8 -27q0 -29 -19.5 -45t-50 -25.5t-68.5 -12.5 t-75 -3q-23 0 -45.5 1t-38.5 1q-18 -78 -29.5 -139t-24 -103t-27.5 -63.5t-40 -21.5q-16 0 -29.5 13t-13.5 36q0 4 4 24l76 260q-84 4 -165 9.5t-167 7.5q-10 -39 -25.5 -99.5t-35 -117t-45 -97.5t-56.5 -41q-33 0 -32 27q16 90 44.5 166t63.5 162q-43 0 -86 -2t-88 -8 q-12 0 -19.5 10t-7.5 24zM371 502q29 2 57.5 2h56.5q57 0 114.5 -1t113.5 -1l35 119q12 43 26 96t31 108q-25 -2 -50.5 -2h-49.5q-57 0 -113.5 1t-114.5 3q-25 -72 -49.5 -143.5t-40.5 -128.5z" />
<glyph unicode="$" horiz-adv-x="940" d="M66 258q0 18 12 27.5t28 9.5q29 0 56 -21q53 -51 123.5 -87.5t148.5 -45.5q-2 27 -2 54.5v60.5q0 35 1 67.5t1 76.5t1 103.5t1 145.5q-84 31 -151.5 50.5t-114.5 45t-72.5 65.5t-25.5 112t37.5 125t93 90t119 57t116.5 29v77q0 25 10.5 36.5t26.5 11.5q18 0 35.5 -13.5 t17.5 -34.5q0 -10 -3 -28.5t-3 -46.5q76 -4 145.5 -39t133.5 -107q16 -18 16 -39q0 -16 -11 -26t-28 -10q-16 0 -28 12q-47 47 -104.5 77.5t-125.5 39.5v-196t2 -216l43 -12q47 -16 102.5 -44t102.5 -67t78 -89t31 -110q0 -72 -29 -133t-79 -107t-115.5 -72t-139.5 -26v-36 q0 -39 -4 -65t-37 -26q-35 0 -37 20.5t-4 82.5v24q-74 2 -141.5 20.5t-117.5 46.5t-79.5 61.5t-29.5 68.5zM174 924q0 -29 15.5 -52.5t50.5 -37.5q41 -20 95 -42t103 -38v379q-39 -4 -85 -20.5t-86 -44.5t-66.5 -64.5t-26.5 -79.5zM520 143q59 8 114.5 41t104.5 92 q23 29 33 55.5t10 51.5q0 37 -21.5 70.5t-57 62.5t-80.5 53.5t-95 44.5q0 -37 2 -74.5t2 -72.5q0 -96 -4 -179t-8 -145z" />
<glyph unicode="%" horiz-adv-x="878" d="M57 817q0 47 25 93t72 77q49 35 92 35q31 0 54.5 -16.5t39.5 -43t25.5 -61.5t9.5 -70q8 8 16 9q2 0 4 -1t4 -1h4q-6 -37 -18 -73t-31.5 -65.5t-48.5 -48t-67 -18.5q-39 0 -72 17.5t-57.5 45t-38 60t-13.5 61.5zM96 16q0 2 4 7q35 72 79 137t79 125q35 59 67.5 114.5 t67.5 114.5q41 59 85 134t85 145.5t74 127t53 76.5q14 16 32.5 23.5t33.5 7.5q27 0 26 -20q0 -4 -32.5 -64.5t-84 -147.5t-109.5 -185.5t-107 -178.5q-37 -59 -70 -115.5t-66.5 -110.5t-72.5 -107.5t-86 -106.5q-2 -4 -13 -4q-12 0 -28.5 9t-16.5 19zM131 831q0 -53 53 -92 q35 -27 74 -26q16 0 27.5 14t19.5 34.5t11 41t3 33.5q0 43 -20 77.5t-55 34.5q-25 0 -45.5 -12t-36 -30.5t-23.5 -39t-8 -35.5zM444 178q0 61 40 117.5t106 89.5q33 12 63 12q63 0 92 -48t29 -111q0 -39 -8 -70q8 8 18 8t11 -12q-14 -27 -32 -55.5t-41.5 -52t-52 -39 t-63.5 -15.5t-64.5 16.5t-51 43t-34 57.5t-12.5 59zM526 186q0 -36 25 -63q14 -16 27.5 -26.5t27.5 -18.5q49 23 80 77t31 101q0 27 -12.5 44t-38.5 17q-33 0 -58.5 -13t-44 -32.5t-28 -43t-9.5 -42.5z" />
<glyph unicode="&#x26;" horiz-adv-x="1062" d="M125 217q0 61 25.5 127t64.5 132.5t87 133t95 127.5q-31 59 -49 121t-18 119q0 86 50 156.5t169 111.5q18 6 31 6q20 0 35.5 -17t24.5 -42t13 -51.5t4 -46.5q0 -25 -7 -66t-24.5 -92t-45 -108.5t-68.5 -114.5q41 -84 96.5 -166t112.5 -160q51 68 89 123t62.5 95t39 61.5 t20.5 21.5q16 0 31.5 -15.5t15.5 -39.5q0 -23 -16.5 -57.5t-44 -77.5t-61.5 -92.5t-69 -98.5q35 -43 72 -82t70 -71.5t59.5 -57.5t42.5 -35q10 -14 10 -22q0 -23 -23.5 -37t-49.5 -14q-16 0 -85 55t-173 178q-45 -45 -90.5 -88t-90.5 -75.5t-91 -52t-91 -19.5 q-55 0 -97 23.5t-69.5 59t-42 75.5t-14.5 73zM219 217q0 -31 14 -47q27 -41 59 -57.5t66 -16.5q72 0 150 60.5t139 144.5q-55 72 -111.5 150.5t-103.5 158.5q-37 -51 -75 -104t-68.5 -105.5t-50 -99.5t-19.5 -84zM428 975q0 -35 8 -72t25 -78q41 66 69.5 131.5t36.5 137.5 q-6 16 -4 25.5t-10 23.5q-66 -23 -95.5 -66t-29.5 -102z" />
<glyph unicode="'" horiz-adv-x="178" d="M0 1149q0 35 23.5 66.5t70.5 31.5q41 0 60.5 -24.5t19.5 -92.5q0 -41 -20.5 -75.5t-44 -55t-44 -22.5t-20.5 22q0 8 10.5 25.5t20.5 34t15 29t-3 12.5q-16 0 -32.5 -1t-29 2t-19.5 14t-7 34z" />
<glyph unicode="(" horiz-adv-x="573" d="M100 623q0 211 82 409.5t248 360.5q12 12 31 12q16 0 29.5 -9.5t13.5 -23.5q0 -10 -8 -18q-61 -74 -112.5 -151t-90.5 -170t-60.5 -209.5t-21.5 -266.5q0 -102 21.5 -188t58.5 -165t87 -155t109 -155q23 -23 23 -48q0 -23 -15.5 -36t-31.5 -13q-25 0 -37 27 q-162 174 -244 380t-82 419z" />
<glyph unicode=")" horiz-adv-x="567" d="M104 -205q0 14 9 29q66 68 117 157t85.5 191t53 214t18.5 226q0 205 -60.5 398t-193.5 338q-8 8 -8 22q0 16 10 30.5t27 14.5q6 0 16 -6q166 -158 245 -364.5t79 -428.5q0 -117 -21.5 -232.5t-62.5 -223t-101.5 -203.5t-138.5 -176q-10 -25 -37 -25q-14 0 -25.5 10.5 t-11.5 28.5z" />
<glyph unicode="*" horiz-adv-x="1001" d="M-20 639q0 25 34.5 33t81.5 8q80 0 162 -7t166 9q-31 47 -57 90q-25 37 -50.5 75t-44.5 62q-10 14 -24.5 36t-27.5 45.5t-22.5 47t-9.5 45.5q0 16 9.5 36t25.5 20q14 0 31.5 -26t37 -59.5t38 -66.5t35.5 -47l127 -178q45 70 83 129q35 51 70 100.5t55 69.5 q25 0 45.5 -17.5t20.5 -29.5q0 -4 -6 -12.5t-15.5 -16.5t-17.5 -15t-14 -7q-14 -23 -38 -69t-48 -93q-29 -53 -60 -117q33 -2 68 -2h131q72 0 122 11.5t81 11.5q23 0 32 -13.5t9 -32.5q0 -47 -38 -61t-104 -14h-77t-94 1t-81.5 2t-40.5 3q31 -37 76 -93.5t88 -119t79 -125 t48 -107.5q-18 -20 -39 -20q-10 0 -36.5 24.5t-61.5 64.5t-73 88t-73.5 96t-65.5 90t-44 67q-45 -84 -86 -152q-35 -59 -70.5 -112t-52.5 -70q-29 -31 -49 -31q-35 0 -35 58q0 8 9.5 27.5t24.5 46t34.5 56.5t40.5 60q47 70 108 156q-55 0 -102 2q-41 2 -81 3t-56 1 q-51 0 -90 4q-35 4 -61.5 11.5t-26.5 23.5z" />
<glyph unicode="+" horiz-adv-x="1077" d="M59 502q0 35 45.5 44t171.5 9h205h13q10 70 10 154t3 155.5t13 119.5t41 48q12 0 19.5 -18.5t12.5 -49t6 -69.5t1 -82q0 -72 -2 -138.5t-2 -101.5q0 -23 2 -22l14 2q57 2 103.5 3t86.5 1t76.5 1t75.5 5q66 0 66 -41q0 -18 -15.5 -33.5t-41.5 -15.5h10l-36 -2t-90 -3 t-119.5 -4t-125.5 -5l-6 -381q-2 -41 -22.5 -60.5t-36.5 -19.5t-28.5 12.5t-12.5 34.5q0 98 -2 215t-9 209q-25 0 -63.5 -1t-83.5 -1q-49 0 -98.5 1t-89 5t-65.5 11.5t-26 17.5z" />
<glyph unicode="," horiz-adv-x="286" d="M61 -102q0 25 31 28q49 4 65.5 23.5t16.5 40.5t-8 33q0 -25 -29 -25q-31 0 -47 18.5t-16 46.5q0 47 16 69t72 22q55 0 74.5 -36t19.5 -81q0 -29 -10 -58.5t-29.5 -53t-50.5 -38t-74 -14.5q-16 0 -23.5 7t-7.5 18z" />
<glyph unicode="-" d="M59 557q0 33 29 38t82 5h79.5t124 1t118 2t61.5 1q45 0 45 -41q0 -14 -9 -26.5t-30 -12.5q-100 0 -164.5 -1t-104.5 -1t-60.5 -2t-36 -2t-31 -1t-43.5 -1q-59 0 -60 41z" />
<glyph unicode="." horiz-adv-x="247" d="M68 74q0 41 25.5 68.5t68.5 27.5q29 -4 40 -24.5t11 -45.5q0 -33 -21.5 -61.5t-62.5 -28.5q-31 0 -46 17.5t-15 46.5z" />
<glyph unicode="/" horiz-adv-x="935" d="M72 -102q2 20 15 49.5t30 64.5q6 14 24.5 53t42 91.5t51 114t54 121t51.5 111.5t41 87t50 106.5t76 161.5t87 187.5t84 183.5t67.5 149t38.5 86q12 29 43 29q23 0 42.5 -15.5t19.5 -31.5q0 -8 -2 -12q-4 -10 -25.5 -55.5t-51.5 -111t-66.5 -146.5t-73.5 -160.5 t-73 -151.5t-62 -123q-27 -51 -62 -124t-71.5 -152.5t-71.5 -159.5t-63.5 -144.5t-48 -108.5t-23.5 -52q-12 -27 -36 -54.5t-50 -27.5q-18 0 -27.5 10t-9.5 25z" />
<glyph unicode="0" horiz-adv-x="864" d="M39 588q0 57 7 128.5t24.5 146.5t46 146.5t71.5 128t102.5 90.5t137.5 34t162 -41q55 -27 93 -69t61.5 -92t33.5 -108.5t10 -120.5q0 -41 -3 -81.5t-11 -81.5q14 -8 17.5 -36t3.5 -59q0 -96 -13.5 -199.5t-53.5 -188.5t-110.5 -140t-185.5 -55q-111 0 -186.5 50 t-121.5 133t-65.5 190.5t-19.5 224.5zM135 573q0 -88 14.5 -176t48 -159.5t89 -116.5t135.5 -45q70 0 119 28.5t80.5 77.5t49 112.5t25.5 133.5l-23.5 -47t-27.5 -50.5t-27.5 -40t-23.5 -16.5q-12 0 -24.5 7.5t-12.5 23.5t18 41q37 53 68 123t47 154v2q0 31 9.5 72.5 t9.5 84.5q0 68 -16.5 134.5t-50.5 118.5t-88 85t-130 33q-84 0 -139.5 -59.5t-89 -147.5t-47 -189.5t-13.5 -183.5z" />
<glyph unicode="1" horiz-adv-x="569" d="M63 10q0 31 27 47.5t60.5 23.5t67.5 8t48 1h2q0 80 1 180.5t1 205t1 206.5t1 188q0 104 -1 172t-5 78q-16 -10 -33.5 -25.5t-36 -29.5t-36 -25.5t-31.5 -11.5q-20 0 -36.5 12.5t-16.5 30.5q0 23 24.5 47.5t56 47t63.5 43t48 32.5q41 35 72 35t31 -39q0 -123 -2 -272.5 t-4.5 -303t-4.5 -302t-2 -269.5h138q39 0 39 -33q0 -29 -43 -44t-154 -15q-10 -8 -29 -8q-14 0 -23.5 7t-21.5 7q-27 0 -48 -3t-42 -3h-70q-27 0 -34 2t-7 10z" />
<glyph unicode="2" horiz-adv-x="768" d="M72 55q0 12 7 24.5t21 29.5q72 82 159 184t162 213.5t126 226.5t51 225q0 63 -17.5 106.5t-45 70t-64.5 39t-76 12.5q-41 0 -81 -11.5t-71.5 -32t-51 -46t-19.5 -54.5q0 -45 47 -84q20 -18 21 -34q0 -23 -23.5 -39.5t-38.5 -16.5q-47 18 -75.5 67.5t-28.5 104.5 t28.5 99.5t72.5 76t99.5 48t110.5 16.5q63 0 119.5 -19.5t98.5 -58.5t66.5 -100.5t24.5 -143.5q0 -129 -51 -249.5t-122.5 -229t-146.5 -203t-124 -174.5q23 -2 42 -2h40q39 0 79 2t83 3t93 3.5t109 2.5q20 0 29.5 -14.5t9.5 -35.5q0 -23 -13 -44t-38 -21q-86 0 -152.5 1 t-127 2t-123 2t-138.5 1q-29 0 -50 14.5t-21 38.5z" />
<glyph unicode="3" horiz-adv-x="823" d="M102 1210q0 23 11.5 37.5t33.5 14.5q53 0 117 -1t130.5 -1t130 -1.5t116.5 -1.5q23 0 38 -9t15 -31q0 -10 -21.5 -35t-55 -57.5t-74.5 -70.5t-80 -77t-70 -78t-45 -70q84 -4 164 -38.5t142.5 -90t100.5 -127t38 -147.5q0 -92 -39 -172t-107.5 -138.5t-163 -91 t-204.5 -32.5h-48t-58 5t-48.5 16.5t-20.5 35.5q0 16 6.5 29.5t16.5 13.5q53 0 110.5 2t109.5 9.5t98.5 19.5t78.5 35q78 43 123 109.5t45 152.5q0 76 -37 133t-91 96t-115.5 58.5t-110.5 19.5q-47 0 -76 -19.5t-57 -19.5q-23 0 -38 13.5t-15 35.5q0 16 16 43q45 70 94 123 t96.5 98.5t91.5 83t78 78.5q-98 -2 -188 -3t-199 -1q-20 0 -29.5 15.5t-9.5 35.5z" />
<glyph unicode="4" horiz-adv-x="843" d="M43 487q20 76 39.5 178.5t37 209t33 208t25.5 177.5q39 18 68 18q37 0 37 -25q-10 -76 -24.5 -176t-31 -201.5t-32 -189.5t-25.5 -139q43 10 119 24.5t198 18.5q16 174 30 338t32 307q0 18 14.5 27.5t32.5 9.5q23 0 42 -12.5t19 -34.5q-18 -137 -36.5 -300t-34.5 -337 q20 -2 52 -2t59.5 -5.5t48 -19.5t20.5 -45q0 -16 -11.5 -27.5t-39.5 -11.5q-41 0 -69 5t-68 5q-10 -123 -16.5 -238.5t-6.5 -203.5q0 -37 -13.5 -51t-29.5 -14q-27 0 -50.5 21.5t-23.5 47.5q0 86 14.5 204t24.5 232q-55 -6 -98 -11t-86 -11t-89 -13.5t-106 -19.5q-4 0 -6 -1 t-4 -1q-16 0 -25.5 9t-13.5 20q-6 12 -6 30z" />
<glyph unicode="5" horiz-adv-x="792" d="M23 63q0 10 10 20.5t35 10.5q51 0 115.5 2t130 10.5t128 27t110.5 51t77.5 83.5t29.5 125q0 88 -24.5 152.5t-62 104.5t-86 59.5t-95.5 19.5q-59 0 -120.5 -25.5t-114.5 -70.5q-25 -25 -52 -25q-20 0 -34.5 9.5t-14.5 21.5q0 8 6 12q72 129 98.5 260t49.5 265h-45 q-12 0 -16.5 12t-4.5 29q0 18 4.5 31.5t16.5 13.5l61 6q0 29 15.5 39t27.5 10q29 0 35 -41q39 2 80 3t86 1q59 0 119 -1t121 -1q18 0 28.5 -13.5t10.5 -29.5q0 -18 -12.5 -35.5t-35.5 -17.5q-117 0 -209 -3t-192 -3q-10 -88 -19.5 -185.5t-48.5 -197.5q43 18 87 29.5 t88 11.5q66 0 129 -27t113 -81t81 -136t31 -195q0 -121 -52.5 -197.5t-138.5 -122.5t-199.5 -63.5t-236.5 -17.5q-20 0 -39.5 2t-35 9t-25.5 21.5t-10 36.5z" />
<glyph unicode="6" horiz-adv-x="731" d="M35 377q0 92 20.5 176t48.5 149q41 92 97.5 187.5t128 181.5t161.5 155.5t199 112.5q10 0 15.5 -17t5.5 -40t-5.5 -40t-15.5 -17q-78 -23 -158.5 -89.5t-153.5 -157.5t-131.5 -198.5t-88.5 -214.5q2 4 5 7t7 8q55 43 113.5 63.5t115.5 20.5t112.5 -23t98.5 -68t70 -109.5 t27 -150.5q0 -74 -29 -132t-76 -97t-107.5 -59.5t-123.5 -20.5q-96 0 -160 33t-103.5 85t-56 119.5t-16.5 135.5zM129 383q0 -72 20.5 -123t55.5 -85t82 -50t100 -16q45 0 87 12t75 34.5t53.5 55.5t20.5 74q0 123 -63.5 196.5t-153.5 73.5q-37 0 -76 -14t-78 -47 q-18 -18 -39 -19q-25 0 -43 21.5t-18 46.5q-23 -86 -23 -160z" />
<glyph unicode="7" horiz-adv-x="772" d="M37 1176q0 20 16.5 34.5t43 22.5t57 11t61.5 3q53 0 117.5 -5t142.5 -5q51 0 106.5 7t116.5 7q23 0 30 -8t7 -24t-6 -35t-12 -41q-31 -104 -66 -208t-71 -233q10 2 20 2.5t21 0.5q39 0 66.5 -9.5t45 -24t25.5 -28.5t8 -27q0 -16 -10.5 -26t-26.5 -10q-18 0 -37 18 q-37 0 -73.5 3t-71.5 3q-51 -166 -93 -306t-57 -292q-10 -10 -24.5 -18t-30.5 -8t-28.5 14t-12.5 49q0 33 11.5 91.5t30.5 132t44 158.5t53 173h-2q-25 -6 -65.5 -11t-79.5 -5h-27.5t-23.5 4q-23 4 -33 19.5t-10 31.5q0 23 14 43t35 20q14 0 41.5 -13t56.5 -13q31 0 61.5 6 t59.5 12q27 88 51.5 167t43 140.5t29.5 102.5t11 53q0 8 -35 9t-71 1q-80 0 -189.5 -7t-214.5 -28q-4 0 -5 -1t-5 -1q-20 0 -32.5 14.5t-12.5 33.5z" />
<glyph unicode="8" horiz-adv-x="737" d="M39 285q0 88 39 183t92 179q-51 59 -83 131t-32 158q0 68 39 130t101.5 110.5t140.5 78t156 29.5q63 0 106 -17.5t69.5 -47t39 -65.5t12.5 -73q0 -53 -17.5 -113.5t-44 -120t-56.5 -114.5t-56 -100q-23 -14 -47 -15q-25 0 -40.5 18.5t-15.5 51.5q6 18 34 64.5t58.5 103.5 t55 116.5t24.5 106.5q0 29 -13 48.5t-33.5 30.5t-44 15.5t-44.5 4.5q-47 0 -102 -22.5t-102.5 -59.5t-79 -82t-31.5 -90t21.5 -89t56.5 -90q16 23 29.5 39.5t27.5 32.5q8 6 20 6q23 0 34.5 -24.5t11.5 -55.5q0 -14 -2.5 -28.5t-8.5 -26.5l-32 -29q31 -31 53 -50t48 -39.5 t61.5 -47t90.5 -67.5q84 -61 121 -126t37 -118q0 -57 -31.5 -97t-77.5 -65.5t-98.5 -37t-93.5 -11.5q-98 0 -172 23.5t-123 62.5t-73.5 91t-24.5 108zM145 293q0 -63 29 -101t71 -57.5t90 -26t87 -6.5q27 0 59.5 5.5t59 19.5t45 35.5t18.5 56.5q0 33 -31 74 q-27 31 -64.5 62.5t-81.5 65.5t-91 70.5t-90 77.5q-45 -61 -73 -130.5t-28 -145.5z" />
<glyph unicode="9" horiz-adv-x="741" d="M47 848q0 86 31 165t82 138t116.5 95t133.5 36q100 0 180 -78q23 0 43 -9t49 -34q16 -88 24.5 -180t8.5 -184q0 -147 -28 -285.5t-93.5 -249t-177 -182.5t-277.5 -86q-35 0 -49 10t-14 31q0 14 8 26.5t18 12.5q106 12 186.5 52t137.5 97.5t94 126t57.5 138t28.5 136 t8 117.5q0 35 -2 60.5t-6 42.5q-12 -72 -49 -127q-31 -47 -90 -87t-160 -40q-45 0 -88 13t-79 39t-59.5 64t-29.5 87q-2 14 -3 27.5t-1 27.5zM139 881q0 -90 50.5 -132t119.5 -42q45 0 88 17t74 50q61 66 82.5 139.5t21.5 176.5q-35 47 -77.5 68.5t-89.5 21.5 q-49 0 -97.5 -22.5t-86.5 -62.5t-61.5 -95.5t-23.5 -118.5z" />
<glyph unicode=":" horiz-adv-x="299" d="M63 80q0 -82 78 -82q6 0 14.5 1t18.5 3q23 4 37 21.5t14 44.5q0 25 -9 43t-22.5 30.5t-27.5 18.5t-25 6q-27 0 -52.5 -23.5t-25.5 -62.5zM70 680q0 31 19.5 57.5t47.5 26.5q9 0 15 -2q35 -12 53 -38t18 -52q0 -25 -16.5 -44.5t-48.5 -19.5q-45 0 -66.5 21.5t-21.5 50.5z " />
<glyph unicode=";" horiz-adv-x="280" d="M51 -84q0 -14 15.5 -25.5t44.5 -11.5q55 0 87.5 47t32.5 107q0 37 -19 77t-58 40t-59.5 -22t-20.5 -48q0 -35 17.5 -60.5t49.5 -25.5q25 -1 25 26q-8 -6 -8 -14q0 -6 2 -13t2 -13q0 -12 -17.5 -19.5t-38 -12.5t-38 -11.5t-17.5 -20.5zM61 684q0 29 18.5 53.5t47.5 24.5 q10 0 16 -2q41 -12 60.5 -39t19.5 -53q0 -23 -16.5 -40.5t-48.5 -17.5q-49 0 -73 22.5t-24 51.5z" />
<glyph unicode="&#x3c;" horiz-adv-x="819" d="M61 592q0 29 29 53q27 20 79 60t115.5 88.5t132 97.5t129 91t105.5 70.5t60 32.5q18 6 32 7q37 0 37 -31q0 -33 -29.5 -61.5t-91.5 -67.5q-23 -14 -61.5 -41t-86.5 -61.5t-100.5 -72.5t-97.5 -71t-80.5 -58.5t-50.5 -33.5q14 -8 56.5 -39t100.5 -74t123.5 -92t124 -93 t104.5 -77t65 -43q23 -14 33 -30.5t10 -30.5q0 -39 -43 -39q-16 0 -25 4q-16 6 -49 25.5t-75 48t-89 62.5t-92 67.5t-84 64.5t-66 51q-12 10 -47.5 33t-72.5 50.5t-66 56t-29 53.5z" />
<glyph unicode="=" horiz-adv-x="929" d="M59 418q0 31 18.5 38t53.5 7q51 0 86 1t72 2t89 2t140 1q66 0 98.5 -2t53.5 -2q25 0 45 1t71 5q41 0 59.5 -17.5t18.5 -39.5q0 -12 -8 -21.5t-25 -9.5q-39 0 -85 -6t-93 -6q-66 0 -123 1t-108 1h-126t-82 -1t-49.5 -1h-27.5q-31 0 -54.5 7t-23.5 40zM59 719q0 29 13.5 35 t42.5 6q61 0 94 1t64.5 2t77.5 2t136 1q57 0 96.5 -1t67 -3t50 -3t49.5 -1h27.5t31.5 2q57 0 57 -37q0 -16 -12 -31.5t-35 -15.5q-18 0 -18 -2t2 -4q0 -4 -9.5 -5t-43.5 -1q-23 0 -70 2t-100.5 3t-104.5 3t-82 2q-98 0 -145 -4t-70 -4q-20 0 -40.5 1t-38 5t-29 15t-11.5 32z " />
<glyph unicode="&#x3e;" horiz-adv-x="839" d="M61 129q0 10 9.5 25.5t31.5 27.5q18 10 63.5 43t104 77t123 92t119.5 92t95 77t50 43q-23 14 -79 58.5t-122.5 94.5t-128 97t-94.5 68q-68 41 -110.5 69.5t-42.5 67.5q0 31 41 31h13t18 -5q14 -4 59 -33.5t105.5 -72.5t129 -94t132 -99.5t115.5 -89.5t79 -61 q20 -18 21 -33q0 -16 -27 -44t-60.5 -56.5t-65.5 -52t-42 -31.5q-41 -31 -108.5 -82t-138 -101.5t-131 -90.5t-85.5 -48q-8 -4 -15 -4h-14q-45 0 -45 35z" />
<glyph unicode="?" horiz-adv-x="782" d="M55 1044q0 39 18.5 91.5t60.5 99.5t109.5 80t166.5 33q109 0 175 -28t103 -72t50.5 -101t13.5 -119q0 -76 -28 -134t-69 -108.5t-89 -95.5t-89 -94t-68.5 -106.5t-27.5 -129.5q0 -16 1 -30.5t1 -26.5q0 -20 -7 -33.5t-30 -13.5q-35 0 -49 15.5t-14 58.5q0 92 27.5 160.5 t67.5 122t88 98.5t88 92t67.5 101t27.5 128q0 66 -20.5 108t-54 66.5t-76.5 33.5t-86 9q-72 0 -122 -19.5t-83 -49t-50.5 -66.5t-23.5 -72q-12 -66 -45 -65q-33 0 -33 67zM268 76q0 17 6 35q8 20 28 32.5t42 12.5q23 0 41 -18.5t18 -63.5q0 -31 -18 -52.5t-53 -21.5 q-29 0 -46.5 21.5t-17.5 54.5z" />
<glyph unicode="@" horiz-adv-x="1251" d="M45 408q0 150 50 277.5t134 221.5t193.5 147.5t226.5 53.5q119 0 221.5 -47t176 -132t115.5 -203t42 -259q0 -72 -19.5 -145.5t-54 -134t-82 -98.5t-102.5 -38q-61 0 -94 71t-43 173q-29 -57 -60.5 -108.5t-68.5 -89.5t-76 -60.5t-80 -22.5q-35 0 -69.5 18.5t-69.5 61.5 q-47 53 -67.5 127t-20.5 152q0 88 24.5 176t70.5 157.5t110.5 112.5t144.5 43q104 0 223 -86q2 0 4.5 1t6.5 1q23 0 32 -21.5t9 -58.5q0 -53 -16.5 -131t-16.5 -157q0 -29 1 -71t7 -82t20.5 -68.5t43.5 -28.5q12 0 38.5 14t54 50t48 98.5t20.5 158.5q0 98 -27.5 194.5 t-88 172.5t-153.5 123t-222 47q-123 0 -217.5 -62.5t-156.5 -154.5t-94 -198.5t-32 -196.5q0 -82 22.5 -176.5t72.5 -174.5t134 -132t207 -52q47 0 102.5 8t116.5 31q14 6 31 6q35 0 35 -25q0 -16 -24.5 -32.5t-64.5 -30.5t-92.5 -23.5t-107.5 -9.5q-84 0 -175 29t-167 99.5 t-126 188t-50 296.5zM391 381q0 -41 8.5 -86t24.5 -82t40.5 -61.5t57.5 -24.5q39 0 82 39t82 99.5t72 135t51 146.5q2 37 8 71.5t12 65.5v6q-51 45 -97 64.5t-87 19.5q-59 0 -106 -36t-80 -92t-50.5 -126.5t-17.5 -138.5z" />
<glyph unicode="A" horiz-adv-x="1241" d="M43 16q8 111 28.5 228.5t55.5 238.5h-6q-35 0 -50.5 12.5t-15.5 28.5t15.5 29.5t50.5 13.5h33q70 211 173 399.5t234 319.5q16 20 62 21q25 0 45 -10.5t20 -32.5q100 -129 159.5 -279.5t109 -306.5t102.5 -307.5t141 -284.5q8 -16 8 -29q0 -23 -13 -41t-36 -18 q-20 0 -42.5 26.5t-45 68.5t-44 95.5t-40 106.5t-35 101t-26.5 81q-66 -12 -130.5 -16t-129.5 -4q-106 0 -211 8t-205 12q-41 -123 -72 -239.5t-47 -221.5q0 -23 -14.5 -32t-30.5 -9t-29.5 9.5t-13.5 31.5zM281 567h618q-14 39 -22.5 78t-18.5 80q-27 119 -66.5 204 t-78.5 140t-70 81t-37 26q-14 0 -28 -11.5t-37 -34.5q-70 -115 -136.5 -261t-123.5 -302z" />
<glyph unicode="B" horiz-adv-x="1124" d="M16 1137q0 35 50.5 61.5t118 44t137 26.5t110.5 9q84 0 165 -21.5t144.5 -67.5t102.5 -117t39 -167q0 -102 -70 -176q76 -27 136.5 -71t101.5 -96t62.5 -108.5t21.5 -105.5q0 -98 -50.5 -168.5t-132.5 -117t-185 -69t-210 -22.5q-78 0 -156.5 11.5t-146.5 40t-119 76.5 t-74 122q-16 53 -24 113.5t-8 124.5q0 84 12 170t32.5 162.5t47 141t57.5 107.5q33 47 62 47q27 0 26 -32q0 -18 -8 -35q-66 -121 -104.5 -259t-38.5 -278q0 -150 33.5 -231.5t92 -120.5t137.5 -46t171 -7q49 0 128 6t154.5 32.5t130 80t54.5 145.5q0 113 -77 200t-194 134 q-51 -33 -112.5 -55.5t-124 -36t-119.5 -19.5t-102 -6q-16 0 -35 1t-34 8t-26.5 21.5t-11.5 41.5q0 25 27 33q66 49 165 77.5t210 28.5q31 0 62.5 -3t62.5 -7l10 8q55 61 55 137q0 57 -26.5 107.5t-75.5 86.5t-117 56.5t-147 20.5q-70 0 -129.5 -13.5t-104.5 -29 t-73.5 -28.5t-37.5 -13q-18 0 -31.5 13t-13.5 32zM356 655q66 0 136.5 11.5t130.5 40.5q-12 2 -24.5 2h-27.5q-53 0 -107.5 -12.5t-107.5 -41.5z" />
<glyph unicode="C" horiz-adv-x="1097" d="M27 580q0 133 39.5 244.5t85.5 179.5q84 129 220 203.5t296 74.5q88 0 178 -27t176 -84q25 -16 25 -41q0 -18 -15.5 -33.5t-38.5 -15.5t-41 19q-70 45 -142.5 66.5t-143.5 21.5q-88 0 -170 -30t-148.5 -82t-114 -124.5t-63.5 -160.5q-12 -61 -17.5 -115.5t-5.5 -104.5 q0 -133 37 -224t99.5 -147.5t145.5 -82t173 -25.5q111 0 220.5 31t203.5 84q6 2 14 2q29 0 29 -33q0 -37 -34 -73.5t-93 -65.5t-141 -46.5t-178 -17.5q-63 0 -128 11.5t-126.5 36t-115.5 64.5t-97 99q-72 98 -100.5 197.5t-28.5 198.5z" />
<glyph unicode="D" horiz-adv-x="1153" d="M-115 1163q0 45 105.5 86t320.5 41q217 0 370 -65.5t249 -164.5t141 -217t45 -225q0 -156 -59.5 -274.5t-153.5 -198t-207.5 -119.5t-224.5 -40q-127 0 -190 59q-2 0 -3.5 1t-5.5 1q-10 0 -29.5 -6t-39.5 -6q-23 0 -40.5 15.5t-19.5 64.5q0 113 1 255t3.5 287.5 t4.5 280.5t2 233q-47 -10 -85 -23t-67 -25.5t-46 -21.5t-19 -9q-18 0 -35 23.5t-17 47.5zM248 397q0 -80 2 -117.5t8 -56t19.5 -31t37.5 -38.5q16 -20 59.5 -30.5t96.5 -10.5q86 0 182.5 26.5t179 85t137 151.5t54.5 224q0 90 -31.5 175t-89 159t-139.5 131t-180 94 q-51 18 -107.5 25.5t-114.5 7.5q-29 0 -54 -1t-50 -3q0 -76 -2 -180.5t-4 -214t-3 -215t-1 -181.5z" />
<glyph unicode="E" horiz-adv-x="1036" d="M35 918q0 104 40 172.5t106.5 108.5t152.5 56.5t178 16.5q61 0 122.5 -6t115 -15.5t96.5 -21t72 -21.5q45 -18 45 -47q0 -12 -10.5 -21.5t-32.5 -9.5q-4 0 -34 7.5t-79 14.5t-116.5 14.5t-143.5 7.5q-82 0 -156 -10.5t-130 -37t-89 -72.5t-33 -116q0 -92 39 -140t98 -71 q43 14 91.5 20.5t95.5 6.5q43 0 94 -5.5t96 -15.5t75 -24.5t30 -32.5t-26.5 -28.5t-71 -15.5t-103.5 -6t-123 -1h-36.5t-35.5 2q-45 -12 -84.5 -35t-70.5 -55.5t-49.5 -77.5t-18.5 -103q0 -98 42 -151t104.5 -78t134.5 -30t133 -5q96 0 170 21.5t129 46t95 46t67 21.5 q11 0 11 -8q0 -4 -2 -9q-7 -17 -34.5 -43t-71 -56.5t-98.5 -56t-118.5 -43t-129.5 -17.5q-39 0 -92 2t-112.5 13t-116.5 35t-102.5 65t-74 104t-28.5 156q0 111 35 184.5t94 118.5q-61 31 -100 89t-39 157z" />
<glyph unicode="F" horiz-adv-x="905" d="M-16 524q0 35 23.5 45.5t66.5 24.5q0 43 -2 86t-2 84q0 98 20.5 190.5t95.5 182.5q84 98 188.5 136t205.5 38q59 0 114.5 -11.5t97.5 -28.5t66.5 -39t24.5 -42t-16.5 -36.5t-39.5 -16.5q-18 0 -32 12q-51 35 -105.5 54.5t-114.5 19.5q-70 0 -142.5 -32t-145.5 -104 q-74 -72 -96.5 -160.5t-22.5 -170.5q0 -45 3 -84t7 -68q51 6 111.5 9t126.5 3q76 0 150.5 -2t132 -10t93 -22t35.5 -35q0 -16 -12 -28.5t-39 -12.5q-4 0 -6 1t-6 1q-72 10 -144.5 15t-144.5 5t-142.5 -4t-144.5 -12q4 -76 13.5 -146.5t22 -131t24.5 -107.5t24 -72 q2 -4 2 -14q0 -18 -18 -33.5t-41 -15.5q-29 0 -52.5 53t-43 130t-31.5 165t-14 158l-62 -6q-29 0 -28 32z" />
<glyph unicode="G" horiz-adv-x="1230" d="M23 561q0 160 67.5 295t176 233.5t242.5 152.5t269 54q86 0 172 -27.5t164 -80.5q20 0 21 -27q0 -23 -19.5 -36t-32.5 -13q-6 0 -16 14q-68 37 -137.5 57.5t-141.5 20.5q-121 0 -241.5 -45t-217 -131t-157.5 -211t-61 -285q0 -102 30.5 -179t79.5 -130t109.5 -79.5 t118.5 -26.5q88 0 179 36.5t172 95t147.5 131.5t107.5 142q-35 -8 -64 -8q-12 0 -23.5 1t-25.5 1q-27 0 -69 -2t-93 -2q-63 0 -132.5 6t-135.5 29q-14 4 -23.5 21.5t-9.5 29.5q0 18 13.5 25.5t29.5 7.5q14 0 18.5 -4t15.5 -9.5t39 -9.5t89 -4q51 0 113.5 2t123 8.5 t112.5 15.5t81 25q16 8 35 9q16 0 27.5 -7.5t19.5 -17.5t12 -25q0 -59 -9 -120.5t-19.5 -120t-19.5 -109.5t-9 -90v-50.5t2 -33.5t8 -28.5t17 -34.5q0 -23 -18.5 -34t-39.5 -11q-35 0 -46 34.5t-11 92.5q0 94 14.5 166.5t36.5 158.5q-49 -82 -127 -159.5t-171 -137 t-193.5 -96.5t-192.5 -37q-80 0 -153.5 36t-130 106.5t-90 175t-33.5 239.5z" />
<glyph unicode="H" horiz-adv-x="1073" d="M-27 1223q0 25 39 51t109 26q57 0 92 -35.5t52.5 -109.5t22.5 -187.5t5 -269.5h14q47 -2 135 -3t187 -1h134t114 2q2 162 2 276.5t6 186.5t20.5 104.5t44.5 32.5q27 0 49.5 -15t22.5 -34q0 -25 -6 -119t-14.5 -221t-14.5 -268t-6 -260v-58t2 -88.5t8 -84t19 -46.5 q6 -4 13 -18t7 -31q0 -14 -13 -30.5t-54 -16.5q-33 0 -50.5 34t-25.5 106.5t-9 184t-1 269.5q-45 -2 -90.5 -4t-95.5 -3t-108.5 -1h-127.5h-168q-4 -135 -15.5 -278.5t-21.5 -284.5q-2 -25 -17.5 -36t-35.5 -11q-23 0 -44.5 16t-21.5 47q0 100 15.5 247.5t23.5 303.5 q-48 0 -68 8q-12 4 -18 18.5t-6 30.5q0 37 23.5 43t72.5 6q2 25 2 50.5v50.5q0 66 -4 133.5t-13 122.5t-22.5 90t-32.5 35q-12 0 -26.5 -6.5t-36.5 -6.5q-29 0 -48.5 15.5t-19.5 36.5z" />
<glyph unicode="I" horiz-adv-x="358" d="M139 86v72.5v163v217t1 231.5t1 208v146q0 88 15.5 128t37.5 48q6 2 12 2q16 0 32 -12q22 -18 37.5 -43.5t18.5 -50.5v-7q0 -19 -15 -24q-6 -2 -12.5 -69.5t-11.5 -171t-9 -226.5t-4 -236.5t3 -203.5t11 -125q4 -20 4 -38q0 -24 -8 -43q-14 -32 -39 -48t-53 -18h-9 q-23 0 -37 9q-15 10 -14 30q0 26 39 61z" />
<glyph unicode="J" horiz-adv-x="1210" d="M2 354q0 25 18.5 38.5t42.5 13.5q31 0 58 -23q111 -143 218 -201.5t230 -58.5q115 0 197 36t137 94t88 133t49.5 151.5t21.5 148.5t5 127q0 72 -4 138.5t-15.5 117.5t-31 82t-51.5 31q-90 0 -170 -6.5t-146 -6.5q-82 0 -137.5 4.5t-75.5 12.5q-16 6 -28.5 26.5 t-12.5 40.5t13.5 37t46.5 17q45 0 76.5 -5.5t62.5 -11.5t67.5 -11t92.5 -5q37 0 87 6t113 6q41 0 70 -6t47 -12q23 -8 37 -19q29 -39 44 -131t15 -209q0 -96 -9 -199.5t-27.5 -196.5t-46 -170t-62.5 -120q-80 -111 -196.5 -169t-254.5 -58q-72 0 -138 17.5t-131.5 53 t-132.5 92t-136 134.5q-31 33 -31 61z" />
<glyph unicode="K" horiz-adv-x="1046" d="M29 1055q0 86 3 136t12 75.5t23.5 33t38.5 7.5q20 0 39 -13.5t29 -44.5q-18 -135 -25.5 -268t-7.5 -268q104 76 182 154.5t152 155.5t154 151t186 137q66 0 66 -47q0 -20 -11 -41q-109 -90 -190.5 -164t-156 -138.5t-150.5 -124t-174 -116.5q137 -45 245.5 -105.5 t203.5 -134t183.5 -156.5t182.5 -175q4 -6 4 -23q0 -29 -26.5 -57.5t-59.5 -28.5q-27 0 -45 20q-86 82 -173 172.5t-179.5 171t-189.5 147.5t-202 103q4 -150 9.5 -293t5.5 -278q0 -23 -15.5 -33t-36.5 -10q-23 0 -41 12.5t-18 34.5q0 102 -3 234.5t-6 270.5t-6 270t-3 233z " />
<glyph unicode="L" horiz-adv-x="1015" d="M37 602q0 117 11 213t28.5 175t39 143.5t44.5 117.5q4 12 15 18.5t24 6.5q23 0 43 -14.5t20 -34.5q0 -10 -2 -15q-16 -35 -34.5 -106.5t-35 -163.5t-26.5 -193.5t-10 -193.5q0 -68 3 -131.5t11 -120.5q10 -80 55 -123t103.5 -62.5t121 -23.5t107.5 -4q104 0 200.5 24.5 t162.5 84.5q23 20 53 20q23 0 40 -11t17 -34t-16 -41q-31 -41 -83 -68.5t-115.5 -45t-133.5 -24.5t-137 -7q-78 0 -154 8t-139.5 30.5t-109.5 65.5t-66 115q-18 80 -27.5 184.5t-9.5 210.5z" />
<glyph unicode="M" horiz-adv-x="1443" d="M47 793q0 117 3 224t13 193q4 41 42 68t88 27q39 0 75.5 -18.5t65.5 -61.5q27 -43 58.5 -129t66.5 -192.5t71.5 -218.5t72.5 -203t71 -150.5t65 -59.5q23 0 55.5 63.5t69.5 160t76 213t75 224t64.5 189.5t46.5 113q23 39 59 58.5t72 19.5q49 0 77 -23.5t42.5 -61.5 t17.5 -88t3 -102q0 -150 -5.5 -300t-5.5 -306q0 -88 4 -178t15 -184q0 -35 -13.5 -49.5t-35.5 -14.5q-23 0 -37 15.5t-21.5 41t-9.5 59.5t-2 71q0 154 4 324.5t4 322.5q0 74 -2 137t-7 109.5t-14 72t-24 25.5q-27 0 -57.5 -60.5t-64 -153.5t-68.5 -207t-70 -222.5 t-69.5 -197.5t-67.5 -132q-29 -37 -62.5 -58.5t-70.5 -21.5q-55 0 -105 57q-27 31 -59.5 117t-68 198.5t-74.5 233.5t-77 223.5t-74 168t-66 65.5q-41 0 -41 -201q0 -84 4 -187.5t10 -211t10 -211.5t4 -188v-70.5t-4 -58.5t-21.5 -40.5t-37.5 -13.5q-23 0 -40.5 15.5 t-17.5 44.5q0 70 -2 154.5t-4 178t-4 192.5t-2 196z" />
<glyph unicode="N" horiz-adv-x="1005" d="M41 45q16 236 23.5 428.5t7.5 345.5q0 137 -4.5 237.5t-10.5 166.5q0 33 24.5 51t59.5 18q25 0 48.5 -12t39.5 -37q29 -47 83.5 -148.5t120 -224t135 -253t129 -238t101.5 -176t52 -68.5q2 27 2 67v89q0 106 -2 241.5t-6 264.5t-9.5 230t-9.5 140q-2 8 -2 18.5v20.5 q0 29 12.5 53.5t55.5 24.5t63.5 -26.5t20.5 -71.5q0 -23 -6 -39.5t-21 -16.5q-2 0 -4 -46t-4 -119.5t-4 -163.5t-3 -177t-1 -162v-116q0 -63 1 -120.5t1 -104.5q0 -72 -24.5 -101.5t-57.5 -29.5q-25 0 -47.5 14t-36.5 37q-41 66 -100.5 171t-126 226t-133 244t-119.5 225.5 t-87 170t-34 77.5q-4 0 -5 -42t-1 -112q0 -94 1 -223t1 -262t-2 -251.5t-8 -194.5q-4 -37 -21.5 -53.5t-38.5 -16.5q-18 0 -33.5 12.5t-19.5 32.5z" />
<glyph unicode="O" horiz-adv-x="1183" d="M25 664q0 158 54 311t167 270q49 0 65 -31q66 39 141.5 59.5t155.5 20.5q96 0 194.5 -37.5t178.5 -117.5t130 -201t50 -287q0 -143 -48 -262t-131 -205t-194.5 -134t-236.5 -48q-127 0 -224.5 55.5t-165 147.5t-102 211t-34.5 248zM150 651q0 -109 24.5 -211t73.5 -182 t122.5 -129t172.5 -49q98 0 192 41t168 114.5t120 176t46 225.5q0 119 -45 246q-35 94 -82 156.5t-102.5 99.5t-114.5 51t-119 14q-49 0 -97 -8t-89 -20.5t-74 -26.5t-53 -27q-72 -88 -107.5 -213t-35.5 -258z" />
<glyph unicode="P" horiz-adv-x="976" d="M27 791q0 150 28.5 251t80.5 162.5t123 87t157 25.5q133 0 234.5 -38t169 -99.5t102 -137t34.5 -151.5q0 -102 -48 -187.5t-130 -145.5t-191.5 -94t-234.5 -34q-100 0 -198 29q-2 0 -3 1t-4 1q10 -102 28 -206t28 -204q0 -49 -51 -49q-20 0 -39 12.5t-21 36.5 q-12 182 -38.5 371.5t-26.5 368.5zM123 856q0 -41 2 -83t4 -89q0 -29 2 -60.5t6 -66.5q2 0 3 1t5 1q10 0 39 -14q41 -6 85 -10.5t91 -4.5q70 0 156 15.5t162 56.5t127 111.5t51 179.5q0 76 -38 137.5t-101.5 104.5t-143 65.5t-163.5 22.5q-129 0 -208 -84t-79 -283z" />
<glyph unicode="Q" horiz-adv-x="1241" d="M33 614q0 137 40 242t104.5 177.5t147.5 116.5t171 62q-6 12 -7 31q0 20 19.5 32.5t46.5 20t56.5 10.5t47.5 3q113 0 216.5 -61.5t180.5 -164t123 -235.5t46 -277q0 -211 -138 -358q33 -31 55.5 -57.5t53.5 -71.5q20 -27 21 -53q0 -23 -14.5 -36t-35.5 -13 q-20 0 -41.5 15t-44 37.5t-44 48.5t-40.5 48q-82 -59 -182 -91t-213 -32q-143 0 -249.5 50.5t-177.5 133t-106.5 192.5t-35.5 230zM133 631q0 -82 26.5 -174t86 -171t153 -131.5t226.5 -52.5q86 0 161.5 28t141.5 75q-25 25 -67 59.5t-82 70.5t-69.5 67.5t-29.5 50.5 q0 14 13.5 22t33.5 8q29 0 63.5 -19.5t72.5 -49t76 -65.5t73 -68q53 59 83.5 136t30.5 156q0 55 -11 122t-32.5 131.5t-51 120.5t-66.5 95q-70 66 -128.5 100t-107.5 46q2 -6 2 -21q0 -27 -18.5 -48t-59.5 -21q-29 0 -59.5 5t-58.5 5q-72 0 -144 -27.5t-129 -85t-93 -148.5 t-36 -216z" />
<glyph unicode="R" horiz-adv-x="1241" d="M-2 442q0 37 27.5 59.5t68.5 26.5q-6 88 -6 177q0 98 9 191t34 173q18 66 55 110t84 71.5t102.5 38.5t110.5 11q86 0 168 -21.5t135 -53.5q51 -31 99.5 -74t87.5 -95t62.5 -109.5t23.5 -117.5q0 -74 -40 -136t-108.5 -112.5t-163 -87t-204.5 -59.5q115 -43 229.5 -96 t212.5 -103.5t168.5 -91.5t97.5 -59q25 -23 25 -41q0 -20 -19.5 -33.5t-42.5 -13.5q-18 0 -28 8q-37 25 -134.5 75t-222 109.5t-258 116.5t-241.5 96q-33 -4 -61.5 -6t-55.5 -4q6 -57 13 -111.5t13.5 -99.5t11.5 -76.5t7 -40.5q0 -23 -24.5 -45t-53.5 -22q-14 0 -24.5 8 t-12.5 27q-10 78 -19 168t-20 186q-49 0 -77.5 11.5t-28.5 45.5zM188 680q0 -27 2.5 -66t6.5 -86q45 -4 96 -16t104 -29q119 12 219.5 46t171 81t110.5 106.5t40 125.5q0 57 -37 120.5t-101.5 118t-154.5 89t-194 34.5q-90 0 -142.5 -45t-79 -118.5t-34 -168t-7.5 -192.5z " />
<glyph unicode="S" horiz-adv-x="1009" d="M6 227q0 20 9.5 27.5t24.5 6.5t31.5 -10t32.5 -24q31 -31 82.5 -56.5t110.5 -43.5t122.5 -28.5t119.5 -10.5q47 0 105 16.5t110.5 48t88.5 80t36 109.5q0 55 -37 101t-94.5 84t-128 67t-137 50.5t-123 35.5t-83.5 25q-49 16 -93 35.5t-76.5 47t-52 66.5t-19.5 94 q0 96 50 166t131 111q82 41 182 54q45 6 90 6q55 0 110 -9q100 -16 189.5 -60t146.5 -118q14 -20 9 -39t-20.5 -29t-36 -9t-32.5 19q-59 66 -156.5 111t-203.5 45q-59 0 -121 -13.5t-113 -41t-84 -70.5t-33 -100q0 -53 35 -89t91.5 -62.5t129 -48t149.5 -44t152.5 -50.5 t137 -70t102.5 -100t51 -142q2 -17 2 -33q1 -67 -33 -122q-42 -69 -111 -117t-155 -73.5t-164 -25.5q-92 0 -186 20.5t-169 54t-122 75.5t-47 83z" />
<glyph unicode="T" horiz-adv-x="1341" d="M-2 1161q0 16 9 26.5t32 10.5h130t146.5 1t143 1h123.5h18v27q0 23 17.5 34t39.5 11q23 0 40.5 -11.5t17.5 -33.5v-27q70 0 148.5 2t158.5 3t156.5 2t144.5 1q23 0 35 -13t12 -30q0 -16 -9 -26.5t-30 -12.5q-59 -6 -133 -10t-154.5 -7t-164.5 -6t-160 -5q4 -102 7 -211 t3 -217q0 -180 -6 -310.5t-22.5 -213.5t-45 -121.5t-75.5 -38.5q-27 0 -44.5 15t-17.5 38q0 29 33 55q37 29 49 148.5t12 283.5q0 139 -5 289t-7 279q-72 -4 -147.5 -6.5t-148.5 -4.5t-137.5 -3t-113.5 -1q-16 0 -35.5 28t-19.5 54z" />
<glyph unicode="U" horiz-adv-x="1153" d="M43 637q0 111 15.5 217.5t36 193.5t40 144t25.5 70q10 16 24.5 24t28.5 8q18 0 32.5 -12t14.5 -33q0 -10 -2 -16q-6 -18 -24.5 -71.5t-37 -130.5t-34 -173t-15.5 -201q0 -164 39 -270t102.5 -167.5t145.5 -86t166 -24.5q88 0 168 18t138.5 78.5t93 172t34.5 298.5 q0 96 -5 196.5t-12 183.5t-12.5 138t-5.5 63q0 23 20 37.5t36 14.5q8 0 17 -2t17.5 -11.5t14.5 -28t8 -50.5q2 -18 3 -77t2 -142t3 -183t2 -202.5t1 -201t2 -175t1 -126v-55.5q0 -25 -14 -43t-43 -18q-27 0 -41 17.5t-14 33.5v32.5t2 49.5q0 29 2 63q-33 -53 -88 -94 q-49 -35 -129 -63.5t-203 -28.5q-166 0 -273.5 54.5t-170 143.5t-87 202.5t-24.5 232.5z" />
<glyph unicode="V" horiz-adv-x="1316" d="M29 1266q0 25 15 36t38 11t44 -13.5t30 -37.5q47 -164 97 -324t107.5 -309.5t123 -280.5t145.5 -235l2 -2q8 0 36.5 39.5t65.5 100t76 131.5t70 134q61 129 110 250t86 222.5t62.5 182t42.5 129.5q8 18 37 19q23 0 46 -16.5t23 -45.5q0 -8 -4 -24q-57 -156 -128 -331 t-145.5 -341t-150.5 -306t-143 -222q-12 -16 -34 -23.5t-44 -7.5q-23 0 -41 6t-29 21q-86 109 -160.5 258t-141 314t-124 331t-106.5 307q-6 14 -6 27z" />
<glyph unicode="W" horiz-adv-x="1576" d="M31 1249q0 23 18.5 35t38.5 12q16 0 30.5 -11t16.5 -34q0 -25 4 -89t10.5 -149t16.5 -178.5t24 -175.5q14 -90 38 -190t55.5 -185t72.5 -141.5t90 -56.5t89 43t73 108.5t59.5 144.5t49.5 150l28 97q-23 92 -39 181t-16 173q0 35 4 76t17.5 74.5t39 56t66.5 22.5 q29 0 47.5 -15t29.5 -38.5t15 -52.5t4 -57q0 -111 -17 -208.5t-40 -193.5l27 -96q16 -59 41.5 -136t59.5 -144.5t74 -113.5t85 -46q57 0 100 79.5t75 200.5t51.5 263.5t31.5 268.5t16 216t4 104q0 20 20.5 31.5t45.5 11.5q23 0 40 -10t17 -33q0 -51 -19.5 -199.5 t-49.5 -384.5q-16 -117 -52.5 -235.5t-83.5 -213.5t-101 -155.5t-105 -60.5q-49 0 -98.5 44t-92.5 112.5t-80 155.5t-63 173q-18 -68 -47 -152.5t-71 -159.5t-100.5 -126t-134.5 -51q-78 0 -134 51t-97 131t-67.5 174t-45.5 180q-18 88 -32.5 205t-22.5 224.5t-12 190.5 t-4 103zM784 977q0 -35 3.5 -73t11.5 -75q12 68 16 116t4 87q0 53 -14 84q-20 -59 -21 -139z" />
<glyph unicode="X" horiz-adv-x="1265" d="M41 1253q0 23 24.5 35t49.5 12q20 0 28 -4q61 -39 126 -103.5t129.5 -138t127 -148.5t119.5 -134l12 -16q115 125 229.5 258t237.5 270q23 25 54 25q23 0 40 -14.5t17 -34.5q0 -18 -12 -33q-119 -145 -242 -281.5t-246 -271.5q78 -86 135.5 -158t109.5 -139.5t108.5 -136 t134.5 -148.5q14 -14 14 -29q0 -20 -20.5 -34.5t-45.5 -14.5q-27 0 -47 21q-80 80 -138 149.5t-109.5 136t-102.5 133t-115 140.5q-127 -139 -248.5 -277.5t-238.5 -281.5q-31 -37 -70 -37q-25 0 -42 15.5t-17 37.5q0 18 12 37q45 68 104.5 138.5t126 140t133 136 t124.5 128.5l43 43q-135 147 -259 286.5t-268 256.5q-18 20 -18 36z" />
<glyph unicode="Y" horiz-adv-x="1124" d="M37 1247q0 25 18.5 42.5t42.5 17.5q16 0 31.5 -9.5t26.5 -29.5q37 -72 80 -154t94 -165t110.5 -161.5t126.5 -144.5q111 162 230.5 319.5t230.5 319.5q20 29 53 29q25 0 45.5 -14.5t20.5 -34.5q0 -12 -6 -21q-109 -170 -237 -336t-245 -338q14 -12 15 -30 q0 -23 -14.5 -43.5t-36.5 -20.5q-12 0 -21 6q-70 -104 -124 -209.5t-93 -216.5q-10 -33 -29.5 -47t-38.5 -14q-20 0 -34.5 14t-14.5 37q0 16 4 27q43 131 104.5 250.5t133.5 234.5q-53 51 -106.5 115.5t-101.5 132t-91 135.5t-77 124t-56.5 97t-32.5 58q-8 14 -8 30z" />
<glyph unicode="Z" horiz-adv-x="1144" d="M23 109q0 29 22 51q98 119 205.5 252t217.5 269t219.5 271t215.5 260q-190 -4 -377.5 -10t-380.5 -6q-23 0 -38 18.5t-15 38.5q0 18 12.5 31.5t40.5 13.5h863q33 0 58.5 -17t25.5 -40q0 -18 -21 -37q-113 -100 -234.5 -237.5t-241.5 -287t-231.5 -295.5t-203.5 -265 q186 -12 362 -13q141 0 278.5 7.5t278.5 17.5q27 0 43.5 -20.5t16.5 -49.5q0 -18 -10.5 -31.5t-32.5 -13.5q-219 -18 -439 -18q-158 0 -307 8t-289 21q-12 12 -20 24q-8 10 -13 25.5t-5 32.5z" />
<glyph unicode="[" horiz-adv-x="411" d="M45 154q0 125 2 242.5t5 233t5 232.5t2 240q0 96 -2 197.5t-6 211.5q0 16 47 21.5t107 5.5q45 0 89 -1t75 -1q18 0 26 -12.5t8 -28.5t-9 -29.5t-27 -13.5q-74 0 -118 4t-99 4v-142t-1.5 -218t-1.5 -264.5t-1 -281.5t-1 -270t-1 -229.5t-1 -158.5v-60q33 0 65 -1t64 -1 q18 0 37 1t37 1q29 0 45.5 -17.5t16.5 -37.5q0 -41 -70 -41q-35 0 -76 5t-84 5q-18 0 -37.5 -2t-40.5 -6q-16 0 -32.5 15.5t-16.5 33.5q-6 193 -6 363z" />
<glyph unicode="\" horiz-adv-x="849" d="M70 1491q0 23 16 35t37 12q16 0 29.5 -7t19.5 -22q6 -18 38 -94t75 -179t89 -221t79 -218q23 -66 51 -149t61 -168t65 -167t58.5 -148.5t44 -111.5t21.5 -55q10 -27 24.5 -65.5t14.5 -69.5q0 -16 -8.5 -28.5t-28.5 -12.5q-16 0 -31.5 16.5t-29 42t-26 57t-24.5 60.5 q-45 113 -111.5 292t-144.5 384t-158.5 412.5t-154.5 377.5q-6 14 -6 27z" />
<glyph unicode="]" horiz-adv-x="446" d="M29 1505q0 31 31.5 38t84.5 7q39 0 80 -2t82 -2q10 0 21.5 1t21.5 1q16 0 26.5 -16t10.5 -35q6 -195 6 -362q0 -125 -2 -242t-5 -231.5t-5 -230.5t-2 -238q0 -96 2 -197.5t6 -212.5q0 -20 -16.5 -23.5t-32.5 -3.5h-268q-18 0 -27.5 12.5t-9.5 28.5t10 29.5t29 13.5 q72 0 116.5 -3t100.5 -3q0 47 1 141.5t1 217t1 264t3 282t3 269.5t1 228t1 158l1 60q-29 6 -65 6q-35 0 -73 -4t-73 -4q-29 0 -45 17.5t-16 35.5z" />
<glyph unicode="^" horiz-adv-x="813" d="M41 1047q0 12 37 54t88 96t101 108.5t79 91.5q18 25 53 24q18 0 40 -14t42.5 -33.5t35 -38t20.5 -24.5q27 -31 64.5 -68t72.5 -72.5t60.5 -64.5t25.5 -45q0 -23 -16.5 -42.5t-34.5 -19.5t-31 21q-12 18 -53 64t-87 95.5t-87 91.5t-52 52q-35 -41 -82 -95t-92 -103.5 t-84 -84t-59 -34.5q-16 0 -28.5 11t-12.5 30z" />
<glyph unicode="_" horiz-adv-x="706" d="M-49 -39q0 37 33.5 42t97.5 5q10 0 72.5 -1t141.5 -1t157.5 -1t119.5 -1h45.5t51.5 2q57 0 57 -37q0 -16 -14.5 -31.5t-36.5 -15.5q-12 0 -12 -2l16 -4q0 -2 -18 -2q-6 0 -46.5 2t-93.5 3t-109.5 3t-93.5 2q-86 0 -139 -2t-85 -3t-49 -3t-30 -2q-29 0 -47 7t-18 40z" />
<glyph unicode="`" horiz-adv-x="559" d="M190 1403q0 16 14.5 24.5t26.5 8.5q33 0 56 -37q23 -39 40 -56.5t29.5 -26.5t18.5 -16.5t6 -27.5t-15.5 -36.5t-33.5 -16.5q-11 0 -17 6q-10 8 -14 12t-10 13.5t-19.5 27.5t-42.5 57q-16 20 -27.5 37t-11.5 31z" />
<glyph unicode="a" horiz-adv-x="768" d="M49 197v19q1 59 11 118q12 69 42.5 126.5t82 93.5t126.5 36q43 0 82 -20.5t70 -53.5t54.5 -74t35.5 -82q16 59 16 117q0 59 -16 115.5t-44 100.5t-65.5 71t-78.5 27q-29 0 -62 -1.5t-64.5 -6.5t-61.5 -15.5t-48 -26.5t-39 -16q-29 0 -29 31q0 35 36 60.5t85 41.5 t101.5 24.5t87.5 8.5q61 0 112.5 -32t88 -86t58 -124.5t21.5 -148.5q0 -76 -14 -144.5t-35 -117.5l-4 -11q4 -16 11 -35.5t16.5 -37t23 -28.5t31.5 -11q6 0 12 1t13 1q18 0 28 -11.5t10 -27.5q0 -23 -18 -44.5t-57 -21.5q-53 0 -87 39t-51 107q-25 -33 -58.5 -61.5 t-72.5 -51t-82 -36t-86 -13.5q-96 0 -137 48t-45 153zM156 174q0 -29 7 -53.5t27 -30.5q14 -6 35 -6q33 0 72 15.5t77 40t69.5 56t50.5 66.5q-12 35 -31 76t-41.5 77t-50 59.5t-54.5 23.5q-55 0 -86.5 -42t-48 -96.5t-21.5 -107.5t-5 -78z" />
<glyph unicode="b" horiz-adv-x="878" d="M-45 160q0 16 20.5 46t48 65.5t57.5 72.5t50 68q-14 66 -20.5 133t-6.5 133q0 143 23 268t57.5 218t79.5 147.5t90 54.5q47 0 73 -35t26 -131q0 -68 -6.5 -156t-29 -189t-66.5 -213t-120 -224q12 -55 27.5 -111.5t39.5 -103.5t55.5 -77t76.5 -30q37 0 75 43t70.5 109.5 t58 147.5t38.5 157q-135 12 -135 119q0 37 13 76.5t35.5 71.5t50.5 52.5t56 20.5q25 0 40.5 -27.5t22.5 -67.5t9 -85t2 -78q35 4 68.5 8t56.5 4q31 0 31 -18t-48.5 -39t-115.5 -31q-10 -96 -40 -195.5t-73 -181.5t-98 -134t-119 -52q-68 0 -114 32.5t-76.5 82t-50 103.5 t-31.5 97q-31 -41 -69 -77.5t-77 -75.5q-10 -10 -20 -13.5t-17 -3.5q-18 0 -18 19zM201 690q0 -37 2 -72.5t6 -70.5q55 109 88 220.5t48 208.5q14 91 14 165v10q-1 78 -9 119q-47 -66 -75.5 -127.5t-45 -128t-22.5 -145t-6 -179.5zM625 684q0 -23 15 -34t38 -15q0 43 -1 82 t-9 74q-43 -74 -43 -107z" />
<glyph unicode="c" horiz-adv-x="700" d="M2 457q0 86 28.5 159.5t100.5 153.5q61 70 125 88.5t117 18.5q63 0 105 -25t61.5 -53.5t14.5 -53t-34 -24.5q-14 0 -26.5 10t-28.5 23.5t-40 23.5t-60 10q-59 0 -107.5 -31.5t-83.5 -80.5t-54.5 -110.5t-19.5 -119.5q0 -94 25 -159.5t63.5 -105.5t87 -58.5t97.5 -18.5 q43 0 74.5 9.5t56 25t45 37t43.5 45.5q23 27 45 17q15 -7 15 -25q0 -8 -3 -18q-4 -12 -19.5 -39t-46 -56.5t-77.5 -56.5t-113 -35q-13 -2 -30 -2q-33 0 -75 8q-66 12 -129 58.5t-110 137.5t-47 247z" />
<glyph unicode="d" horiz-adv-x="835" d="M14 317q0 82 24.5 179.5t73 179.5t120.5 134q61 44 139 43q15 0 30 -1q51 -4 87 -37t51 -59q0 -2 1 35.5t4 96t12 128t25.5 134t43 113t67.5 62.5q17 6 31 6q19 0 33 -10q24 -18 36.5 -64.5t14.5 -114.5v-29q0 -58 -6 -126q-8 -92 -20.5 -172t-29 -155.5t-40 -151.5 t-56.5 -156q2 -18 2 -48t2.5 -60.5t8.5 -58t19 -43t35.5 -14.5t57.5 30q34 26 52 12q9 -7 9 -19t-10 -30q-43 -85 -83 -109q-24 -14 -45 -14q-15 0 -29 8q-33 18 -55.5 70.5t-30.5 128.5q-47 -115 -127 -161t-174 -46q-72 0 -124 24.5t-85 67.5t-48.5 101.5t-15.5 125.5z M133 272q12 -78 54 -132t118 -54q86 0 138.5 49t77 124t24.5 163t-19.5 165t-54.5 129t-80 58q-9 1 -19 1q-55 0 -101 -41q-54 -48 -89 -125t-48 -168q-7 -47 -7 -91q0 -40 6 -78zM612 528q25 72 45.5 151t36 154.5t23.5 145.5t10 122q1 15 1 28q0 33 -4 55q-5 30 -19 30 q-10 0 -30 -39.5t-36 -122.5q-15 -84 -25 -214q-5 -71 -6 -156q0 -72 4 -154z" />
<glyph unicode="e" horiz-adv-x="636" d="M39 387q0 88 26.5 178t75.5 162t118 118t153 46q66 0 102 -43q28 -34 27 -101q0 -19 -2 -40q-6 -74 -44 -143.5t-93.5 -131t-121 -112t-126.5 -84.5l8 -17q29 -51 59.5 -87t93.5 -36q51 0 105.5 20.5t103.5 52.5t91 71t69 75q14 18 29 19q10 0 10 -14.5t-4 -30.5 q-16 -47 -58.5 -97.5t-98.5 -93.5t-118.5 -70.5t-117.5 -27.5q-156 0 -221.5 104.5t-65.5 282.5zM134 352v-17q0 -15 1 -24q47 31 102.5 79t102.5 105.5t78 120t31 123.5t-52 62q-35 0 -80 -32t-86 -87t-68.5 -130t-27.5 -161q0 -12 -1 -39z" />
<glyph unicode="f" horiz-adv-x="475" d="M15 440q0 18 13 34q15 18 44 18q57 2 80.5 11t48.5 29q-23 124 -23 239q0 31 2 63q8 143 36 248.5t69 160.5q31 41 62 41l20 -4q25 -12 44 -83q17 -64 17 -158v-21q-2 -107 -31.5 -238t-101.5 -262q-2 -2 1 -15.5t7 -29.5q4 -20 8 -43q8 6 23.5 14.5t32 15.5t32 11 t23.5 -2q14 -9 14 -22v-3q-2 -16 -15 -32.5t-38 -35t-51 -36.5q29 -135 36 -274q2 -38 2 -74q0 -95 -14 -176q-18 -111 -64 -181.5t-122 -70.5q-61 0 -92 50t-39 129q-3 32 -3 66q0 51 7 109q12 96 40 187.5t69 166t88 111.5q-4 6 -7.5 16.5t-4.5 20.5t-3 17l-2 7 q-35 -33 -77 -42t-70 -13q-29 -2 -44 13q-17 17 -17 38zM122 -232q11 -73 56 -83q47 0 71.5 45t34.5 112q10 62 10 133v13q-1 78 -6 145.5t-12.5 112.5t-9.5 45q-53 -61 -91 -159.5t-51 -195.5q-7 -52 -7 -97q0 -38 5 -71zM262 784v-44q0 -66 4 -124q35 74 55.5 163 t27.5 167q4 50 4 89q0 23 -1 42q-4 53 -20 53q-18 0 -32.5 -51t-25 -128t-12.5 -167z" />
<glyph unicode="g" horiz-adv-x="696" d="M-1 254v23q0 71 15 146q19 87 54.5 172t85 151.5t110.5 107.5t131 41q47 0 74 -35t27 -76q0 -23 -12.5 -39t-28.5 -16q-10 0 -12.5 8t-4.5 19.5t-10 20.5t-29 11h-10q-60 0 -112 -46q-56 -50 -99 -127.5t-66 -168.5q-19 -76 -19 -142q0 -12 1 -24q4 -75 39 -123 q30 -41 89 -41q9 0 20 1q61 6 111 73.5t86 159.5t55.5 192.5t23.5 176.5q2 27 20.5 43t41.5 16q39 0 45 -41q30 -195 30 -366v-11v-56.5t-2 -53.5l49 37q16 14 33 14q20 0 21 -22q0 -10 -4 -21.5t-15 -21.5l-110 -125q-6 -184 -45 -305t-91.5 -188t-110.5 -85q-26 -8 -50 -8 q-28 0 -51 11q-43 22 -61 79q-8 24 -8 53q0 39 14 88q26 84 104 188.5t229 223.5q8 80 11 129t3 83t-1 61.5t-1 64.5q-2 -23 -12 -67t-28.5 -97t-45 -110.5t-61.5 -106.5t-79 -83t-97 -42q-23 -3 -44 -3q-55 0 -94 23q-53 31 -79.5 91.5t-29.5 142.5zM311 -286 q-1 -10 -1 -19q0 -40 22 -53q9 -6 19 -6q22 0 49 24q40 35 81.5 129t61.5 260q-121 -104 -173.5 -192t-58.5 -143z" />
<glyph unicode="h" horiz-adv-x="835" d="M2 254q-4 6 -4 15q0 11 7 26q13 27 33.5 58.5t42 68.5t32.5 72q12 47 26.5 113.5t24.5 157.5t14 209q2 47 2 99q0 78 -4 168q-2 35 10.5 52.5t32.5 17.5q33 0 47.5 -49.5t15.5 -127.5v-14q0 -72 -8 -158q-10 -96 -22 -188t-24.5 -170t-18.5 -119q47 104 122 207t183 180 q14 8 45 9q59 0 71.5 -22.5t14.5 -61.5q1 -61 2 -119q0 -29 -1 -56q-1 -83 -5 -163t-9 -159t-7 -163q20 14 57 44t75 59.5t66.5 52t34.5 22.5q25 0 25 -26q0 -16 -29 -54t-72 -83.5t-93 -87t-91 -64.5q-10 -6 -18 -6q-18 0 -30.5 16.5t-14.5 34.5q-1 27 -1 56q0 43 2 91 q3 78 6 158t6 157q2 46 2 88q0 28 -1 54q-2 29 -4 53.5t-6 47.5q-164 -117 -246 -290t-100 -425q-4 -20 -18.5 -29.5t-31.5 -9.5q-39 0 -41 45q6 55 10.5 97t7.5 78t6 66.5t7 65.5q-16 -20 -36.5 -40.5t-39 -36t-34 -21.5t-21.5 4z" />
<glyph unicode="i" horiz-adv-x="397" d="M33 459q0 92 12 177t35 140q20 45 53 45q18 0 30.5 -14t12.5 -37q0 -14 -2 -22q-23 -74 -32 -160t-9 -170q0 -70 6 -129.5t20.5 -102.5t35 -66.5t49.5 -23.5q25 0 54.5 22.5t56 50.5t50 51.5t35.5 23.5q8 0 9 -15q0 -18 -17.5 -56t-48.5 -78t-73 -69.5t-91 -29.5t-84 41 t-58.5 106.5t-33.5 148.5t-10 167zM141 952q0 31 10.5 57.5t26 47t32.5 32t34 11.5q18 0 25 -14.5t7 -34.5t-6 -46t-17 -47.5t-28.5 -36t-40.5 -14.5q-10 0 -16 2q-27 6 -27 43z" />
<glyph unicode="j" horiz-adv-x="507" d="M0 -252q0 63 22.5 132t60.5 136.5t89 129t111 108.5l6 451q-53 -18 -100.5 -48t-100.5 -59q-12 -6 -22 -6q-18 0 -32 16.5t-14 36.5q0 25 42 53.5t96.5 53t106.5 41t75 16.5q31 0 37 -25.5t6 -68.5q0 -39 -1 -88t-3 -102.5t-4 -108t-2 -103.5q16 10 38.5 20.5t46 18.5 t45 13.5t38.5 5.5q16 0 23 -10.5t7 -24.5q0 -27 -19.5 -41t-49 -26.5t-65.5 -26t-70 -37.5q-2 -123 -16.5 -242t-43 -211t-73 -149.5t-101.5 -57.5q-37 0 -61.5 21.5t-41 53.5t-23.5 66.5t-7 61.5zM84 -254q0 -63 39 -86q4 -4 14 -4q20 0 40 28.5t36 74.5t28.5 102.5 t21.5 111t14.5 100.5t5.5 72q-31 -29 -66 -77t-64.5 -104t-49 -114.5t-19.5 -103.5zM283 971q0 66 28.5 106.5t57.5 40.5q23 0 38 -15.5t15 -37.5q0 -20 -8 -37.5t-18.5 -32t-21 -26t-14.5 -19.5q-6 -10 -19 -16t-26 -6q-16 0 -24 9t-8 34z" />
<glyph unicode="k" horiz-adv-x="622" d="M8 41q33 338 53.5 652.5t34.5 574.5q0 27 20 41q22 14 46 16h5q21 -1 37 -13q18 -14 13 -44q-6 -113 -15 -214.5t-20.5 -201.5t-23 -203.5t-17.5 -218.5q25 43 61 94t87 107.5t120.5 115t161.5 111.5q10 6 25.5 -1t25 -21.5t8.5 -29.5t-20 -24q-41 -23 -83 -55.5 t-78.5 -67t-68.5 -68.5t-52 -61q23 -55 57.5 -118.5t73.5 -126t81 -121t81 -103.5q12 -16 12 -28q0 -18 -16.5 -32.5t-36.5 -14.5q-25 0 -68 48t-90 115.5t-92 142.5t-76 128q-41 -57 -86 -156.5t-62 -230.5q-4 -20 -18 -30.5t-31 -10.5t-35 12q-14 10 -15 28q0 4 1 9z" />
<glyph unicode="l" horiz-adv-x="438" d="M-96 115q-4 4 -4 10q0 12 12 34q18 34 46 73.5t55.5 75.5t37.5 52q-25 68 -35 166q-7 70 -7 146q0 30 1 62q4 108 21.5 214.5t46 191.5t66.5 138t85 53q35 0 59 -47q22 -47 34 -127q9 -59 9 -132q0 -25 -1 -53q-4 -104 -25.5 -217.5t-60.5 -229t-101 -218.5 q8 -25 12.5 -58.5t13.5 -62t24.5 -49t46.5 -20.5q29 0 58.5 18.5t56 41t48 42t35.5 23.5q20 6 27.5 -3.5t8.5 -22.5v-5q0 -9 -3 -21q-4 -14 -6 -18q-49 -104 -112.5 -135t-125.5 -31q-51 0 -80.5 27.5t-46 65.5t-22.5 78t-10 63q0 -4 -21.5 -27t-51.5 -47.5t-56.5 -42 t-34.5 -8.5zM89 614q1 -106 17 -176q23 43 52.5 134.5t51.5 199.5q22 110 26 224q1 16 0 32q0 95 -23 174q-41 -59 -69 -160q-28 -100 -42 -212q-14 -104 -13 -203v-13z" />
<glyph unicode="m" horiz-adv-x="972" d="M-6 823q0 18 16.5 34.5t36.5 16.5q23 0 38 -33.5t25.5 -82.5t14.5 -103.5t4 -95.5q47 141 124 220t155 95q9 2 18 1q32 1 54 -23q28 -30 41.5 -79.5t18.5 -105t5 -96.5q16 51 41.5 99.5t58.5 88.5t70 67.5t78 39.5q21 6 39 6q28 0 48 -16q32 -26 49 -82.5t21 -138.5 q2 -47 2 -98q0 -39 -1 -81q-3 -96 -9 -202.5t-8 -210.5q0 -25 -16.5 -37t-34.5 -12q-16 0 -30.5 10t-14.5 33t6 90.5t12 155.5t10 183q2 48 2 91t-2 81q-4 77 -18 121t-45 29q-68 -31 -119 -114.5t-84 -191t-49 -226.5t-15 -221q0 -20 -18 -31.5t-37 -11.5q-16 0 -30.5 9 t-18.5 30q2 16 8 82.5t11.5 155.5t7.5 189q1 25 1 48q0 71 -5 130q-5 79 -21 126q-12 37 -34 37q-5 0 -11 -2q-70 -31 -119 -105t-80.5 -176t-47 -227t-15.5 -258q0 -18 -15.5 -27.5t-31.5 -9.5q-18 0 -34.5 12t-16.5 37q0 70 16 137.5t16 138.5q0 33 -1 67t-3 71 q-2 33 -2 82t-4 99t-14 94t-35 69q-8 8 -8 22z" />
<glyph unicode="n" horiz-adv-x="706" d="M-2 727q0 35 30.5 73t86.5 48q25 4 36 -2t17 -44t7 -117t5 -218q49 117 137.5 212t180.5 159q18 12 39 12q23 0 38 -13.5t19 -29.5q8 -53 10 -134t2 -171t-2 -182.5t-2 -165.5q80 44 105 44h1q17 -1 17 -13q0 -6 -3 -14q-11 -26 -46 -63.5t-73 -65.5t-67.5 -35t-29.5 30 q0 72 5 159t9 178t4 181t-8 170q-53 -31 -115.5 -92.5t-118 -147.5t-93 -194.5t-44.5 -233.5q0 -29 -20.5 -44t-40.5 -15q-33 0 -33 27q0 10 6 22q0 53 6.5 118.5t13.5 134.5t13 140.5t6 137.5q0 80 -6 145h-2q-31 -23 -60.5 -28t-29.5 32z" />
<glyph unicode="o" horiz-adv-x="720" d="M41 422q0 45 2 92t14.5 96t39 99.5t75.5 99.5q35 35 82 59.5t108 24.5q57 0 117 -23q8 12 25 13q18 0 26 -15l23 -30l6 -2q2 -4 10.5 -17.5t18.5 -31t20 -37t21 -37.5q23 10 52.5 25.5t49.5 15.5q27 0 27 -29q0 -16 -10.5 -31.5t-25.5 -30t-30.5 -25.5t-27.5 -20 q12 -41 19 -86t7 -94q0 -102 -25.5 -183t-71.5 -138.5t-110.5 -88t-140.5 -30.5q-49 0 -102.5 27.5t-97.5 81t-72.5 132t-28.5 183.5zM125 428q0 -51 13.5 -107.5t41 -104.5t72.5 -79t108 -31q57 0 101.5 30t75 77t47 108.5t16.5 124.5q0 76 -20 138q-16 -12 -40 -22.5 t-53 -10.5q-32 0 -57 18q-16 10 -22.5 35t-6.5 53q0 37 10.5 72t28.5 51q-39 23 -82 23q-51 0 -94 -33t-73.5 -86t-48 -119.5t-17.5 -136.5zM487 674q0 -31 25 -31q14 0 35 14q-6 14 -16.5 34t-26.5 38q-16 -33 -17 -55z" />
<glyph unicode="p" horiz-adv-x="632" d="M-111 623q0 47 20.5 86t54.5 68.5t80 50t95 30.5q2 14 13.5 20.5t27.5 6.5q33 0 49 -17h14q187 0 302 -102q119 -107 119 -313q0 -102 -35 -190.5t-98.5 -150t-152.5 -92.5q-68 -24 -147 -24q-25 0 -51 2q-6 -84 -7 -162t-6 -137t-20.5 -95t-48.5 -36q-16 0 -28.5 16.5 t-12.5 50.5q0 39 2 76t5.5 80t7.5 99.5t10 134.5q-4 4 -11.5 11t-7.5 23q0 25 12.5 32t16.5 11q6 123 12.5 217.5t11.5 171t9 142t8 131.5q-49 -16 -87 -52t-52 -112q-4 -16 -19.5 -26.5t-33.5 -10.5q-20 0 -36 13.5t-16 46.5zM184 100q30 -4 58 -4q83 0 146 35 q85 47 133 126t57 174q1 18 1 36q0 74 -29 140q-36 81 -117 130q-65 39 -162 39q-24 0 -50 -2q-4 -74 -7 -142.5t-8 -146t-10.5 -171t-11.5 -214.5z" />
<glyph unicode="q" horiz-adv-x="681" d="M8 338q0 113 39 208t106.5 163.5t161 106.5t203.5 38q45 0 92 -6q23 -4 34 -19.5t11 -35.5q0 -16 -6 -29l22.5 -9t8.5 -30q-29 -219 -63.5 -434t-49.5 -453q16 27 50 54q32 24 68 24h5q16 0 22.5 -10t6.5 -22.5t-6 -26t-15 -21.5q-47 -53 -73.5 -98t-43 -79t-29.5 -53.5 t-34 -19.5q-16 0 -24.5 37t-10.5 93q-1 27 -1 57.5t1 64.5q2 66 5.5 126.5t7.5 106.5t6 60q-53 -66 -111.5 -100.5t-130.5 -34.5q-53 0 -99 19.5t-80 61.5t-53.5 106.5t-19.5 154.5zM94 336q0 -70 15.5 -117t38 -76.5t51 -43t53.5 -13.5q80 0 132 41t86 104.5t51.5 140.5 t26.5 150.5t13 134t10 91.5q-16 2 -37.5 3t-37.5 1q-90 0 -164 -36t-127 -95.5t-82 -134t-29 -150.5z" />
<glyph unicode="r" horiz-adv-x="540" d="M-6 698q-2 5 -2 11q0 5 2 13q4 16 12 32q6 20 24.5 37.5t39 22.5t38 -6t23.5 -50q41 41 100.5 72.5t145.5 33.5h6q68 0 110 -45q37 -39 37 -101q0 -13 -2 -26q-8 -86 -47 -148.5t-92 -80.5q-18 -6 -31.5 1t-20.5 19.5t-7 26.5t8 22q14 14 33.5 28.5t36 34t27.5 47.5 t11 69q0 27 -14 46t-55 19q-37 0 -78 -11t-77 -33.5t-58.5 -55.5t-22.5 -78q0 -12 -2 -47t-5 -84t-7 -106.5t-7 -112.5t-5 -101.5t-2 -72.5q0 -88 -54 -88q-18 0 -33.5 13t-15.5 40q0 33 4 99.5t10.5 155.5t14.5 193.5t16 212.5q-29 -12 -43 -12t-18 10z" />
<glyph unicode="s" horiz-adv-x="671" d="M8 250q0 25 7.5 56.5t19.5 60t28.5 47t34.5 14.5t20.5 -17.5t-0.5 -33t-9.5 -47t-6.5 -58.5q0 -86 63.5 -133t151.5 -47q59 0 102.5 14.5t71 39t41 54t13.5 60.5q0 27 -2 48.5t-12.5 43t-35 45t-67.5 54.5q-37 27 -85 48t-92 46.5t-79 58.5t-45 80q-6 24 -6 46q0 25 8 47 q14 40 46 65.5t76 39t91 13.5q115 0 162 -40t48 -97q0 -20 -11 -41t-26 -35t-32.5 -20.5t-31.5 4.5q-10 6 -7.5 12t10 15t13.5 22.5t0 36.5q-6 27 -39 43t-92 16q-37 0 -78 -19.5t-41 -60.5q0 -23 19.5 -55.5t85.5 -61.5q47 -23 111.5 -54.5t115.5 -76.5q66 -57 85 -113.5 t19 -113.5q0 -39 -15 -84t-52 -83t-101.5 -62.5t-162.5 -24.5q-63 0 -120 15.5t-100 46t-68.5 76.5t-25.5 110z" />
<glyph unicode="t" horiz-adv-x="468" d="M-16 798q60 15 145 19q23 188 40 297t52 119q12 3 23 3q16 0 26 -7q18 -12 20.5 -31.5t-4.5 -43.5t-26 -40q-6 -31 -10 -57.5t-8 -59t-7.5 -74.5t-9.5 -106q86 2 153.5 2t139.5 -4q14 0 28.5 -12t14.5 -27q2 -16 -11 -31.5t-46 -17.5l-285 -8q-4 -39 -10 -100.5t-10 -132 t-4 -141.5t6 -128t21.5 -93t41.5 -36q47 0 90 27.5t78 58.5t61.5 50.5t41.5 2.5q8 -8 8 -21q-1 -17 -15 -40q-24 -41 -68 -81t-99.5 -70.5t-98.5 -30.5q-57 0 -92 38.5t-52.5 102t-20.5 143.5q-2 40 -1.5 80.5t1.5 81.5q3 82 9.5 157t8.5 130q-115 2 -156 14q-39 11 -39 27 q0 24 64 40z" />
<glyph unicode="u" horiz-adv-x="731" d="M31 334q0 72 7 145.5t19.5 139t26 120.5t25.5 90q6 16 18 23.5t29 7.5q51 0 51 -53q-16 -47 -31.5 -107.5t-28 -127t-19.5 -133t-7 -126.5q0 -92 20.5 -150.5t67.5 -58.5t97 66t93 170t75 235.5t40 262.5q2 20 16.5 29.5t32.5 9.5q25 0 40 -14.5t15 -39.5l-4 -20 q-4 -18 -9 -71.5t-9 -122t-6 -144.5t-2 -140.5t4 -111.5t12 -55q12 -12 27.5 0t32 30.5t31 34t24.5 8.5q8 -8 8 -25q0 -12 -4 -29q-10 -40 -35 -81q-26 -42 -62 -72q-30 -25 -61 -25q-6 0 -12 1q-41 6 -53 52q-12 43 -12 98v8q1 60 8.5 123t7.5 100q-14 -53 -40 -119.5 t-65 -126t-90 -100.5t-116 -41q-47 0 -78 29.5t-49.5 78t-26.5 108.5t-8 124z" />
<glyph unicode="v" horiz-adv-x="720" d="M8 784q0 39 17.5 57.5t37.5 18.5q27 0 42.5 -23.5t25.5 -65.5t18.5 -101.5t24.5 -128.5q16 -78 41 -154t50.5 -134t48 -94t34.5 -36q8 6 31.5 42t53.5 93t60.5 133t55.5 162q-31 29 -58.5 72t-27.5 96q0 23 5 48.5t19.5 48t39 36.5t63.5 14q27 0 52.5 -15t25.5 -50 q0 -109 -19 -209q23 0 38 10t26.5 22.5t19.5 22.5t19 10q10 0 17 -9t7 -25t-9 -38t-25.5 -41.5t-38 -32.5t-46.5 -13q-14 0 -26 6q-20 -82 -55 -172t-76 -165t-83 -123t-79 -48q-16 0 -30.5 7t-31.5 26q-23 27 -50 82t-56 125.5t-55.5 148.5t-49 150.5t-37 133t-18.5 95.5 q-2 6 -2 18zM545 733q4 -45 24 -82q6 33 10.5 66t6.5 67q-16 -6 -28.5 -12t-12.5 -39z" />
<glyph unicode="w" horiz-adv-x="1265" d="M-49 705q0 14 11 25t30.5 27.5t45 42t56.5 68.5q12 12 35 13q23 0 44.5 -14.5t21.5 -32.5q-20 -104 -36 -191.5t-16 -181.5q0 -16 5.5 -74.5t23.5 -124t52 -117t93 -51.5q49 0 87 40t64 99.5t40 125t16 118.5q-4 59 -6 111.5t-2 99.5q0 41 10.5 70.5t46.5 29.5 q20 0 36 -10t16 -35q0 -47 -1 -109.5t-6 -127.5q6 -74 21.5 -147.5t40.5 -132t59.5 -94.5t83.5 -36q57 0 97.5 40t64 103.5t33.5 144.5t10 163q-53 10 -87 51t-34 102q0 33 10.5 67t29 61.5t43 46t54.5 18.5q33 0 49.5 -27.5t23.5 -67.5t8 -86t3 -83q63 16 117.5 43.5 t77.5 52.5q14 16 29 16q16 0 16 -18q0 -6 -15.5 -30.5t-46 -54.5t-75.5 -57.5t-103 -37.5q-4 -109 -22.5 -207t-53 -173t-88 -120t-124.5 -45q-100 0 -165 71.5t-100 174.5q-14 -43 -37.5 -88t-55 -82t-72.5 -60.5t-91 -23.5q-41 0 -76.5 20.5t-63 52t-49 68.5t-36.5 70 q-23 51 -32 115.5t-9 142.5q0 119 19 241q-14 -10 -41 -16t-41 -6q-39 0 -39 27zM983 696q0 -16 10.5 -32.5t34.5 -34.5q0 39 -2 73.5t-4 69.5q-16 -16 -27.5 -34.5t-11.5 -41.5z" />
<glyph unicode="x" horiz-adv-x="681" d="M18 39q0 12 11 33q25 47 57.5 96t65 99t63.5 100.5t49 103.5q4 4 7 11t8 12q-59 78 -119 151t-117 143q-16 16 -16 39t15 37.5t36 14.5q20 0 58 -37t80 -89.5t82 -107.5t67 -90q63 86 127.5 167t130.5 159q14 12 28 12q20 0 32.5 -16.5t12.5 -38.5q0 -14 -6 -27 q-123 -135 -272 -326q74 -98 142.5 -195t131.5 -186l-2 -2q8 -12 13.5 -22t5.5 -23q0 -23 -17.5 -40t-38.5 -17q-12 0 -27.5 12.5t-19.5 28.5h-4l-4 10q-59 88 -121.5 173t-124.5 171q-135 -178 -243 -362q-20 -33 -50 -33q-16 0 -28.5 11.5t-12.5 27.5z" />
<glyph unicode="y" horiz-adv-x="706" d="M10 365q0 57 8.5 119.5t26.5 123t48 111.5t73 86q20 14 40.5 13t35 -12t16.5 -28.5t-14 -34.5q-31 -29 -55.5 -72.5t-42 -96t-26.5 -108.5t-9 -108q0 -74 17 -126t43 -83.5t54.5 -45t50.5 -9.5q61 12 106.5 55.5t75 105.5t47 136t27 147.5t13.5 139t6 110.5 q2 25 17.5 40.5t35.5 15.5q29 0 44.5 -51.5t23.5 -124t9 -151.5t1 -136v-78t-2 -76l45 33q20 14 35 14q14 0 14 -16q0 -20 -31 -63l-65 -86q-18 -166 -55 -287t-82 -199t-96.5 -114.5t-98.5 -36.5t-73.5 18t-39 44t-15.5 53.5t-3 45.5q0 59 29.5 123t81 128.5t120 131 t146.5 134.5q6 61 7 123.5t1 129.5q-23 -84 -52.5 -156.5t-69.5 -125.5t-93 -85t-121 -32q-66 0 -114 35t-78.5 88t-46 116.5t-15.5 121.5zM309 -365q0 -29 11.5 -47t46.5 -26q37 18 69.5 62t59 106.5t46 136.5t31.5 149q-53 -49 -101 -98t-84 -98t-57.5 -96.5t-21.5 -88.5z " />
<glyph unicode="z" horiz-adv-x="638" d="M-90 142q-1 6 -1 12q0 12 4 24q7 20 26 35q74 63 146.5 126.5t140 130.5t128 137.5t109.5 150.5q-62 -12 -128 -12q-29 0 -59 2q-96 8 -192 14q-23 0 -33 13t-10 30q0 18 13.5 34.5t35.5 16.5q112 -10 226 -11h7q110 0 218 27q4 1 9.5 1t13.5 -1q14 -2 24 -9t14 -21.5 t-6 -38.5q-47 -106 -113.5 -197.5t-137.5 -168.5t-137.5 -138t-113.5 -109h20q64 0 116 -11q58 -13 109.5 -30.5t98.5 -33t103 -15.5q29 0 60.5 9.5t57.5 9.5q33 0 33 -29q0 -23 -18.5 -40t-46 -27.5t-58 -15.5t-55.5 -5q-31 0 -80 15.5t-116.5 35t-156.5 34.5t-202 15 q-18 0 -31.5 12t-17.5 28z" />
<glyph unicode="{" horiz-adv-x="591" d="M76 627q0 16 16 28q92 59 121 152.5t29 200.5q0 80 -7.5 160.5t-7.5 152.5q0 104 49 171t168 67q18 0 27.5 -11.5t9.5 -27.5t-10 -28.5t-27 -12.5q-43 0 -70.5 -13.5t-43 -37t-21.5 -55.5t-6 -66q0 -98 13.5 -186.5t13.5 -153.5q0 -90 -24.5 -176t-96.5 -156 q37 -31 58.5 -72t32.5 -87t13 -93t2 -92q0 -63 -6 -130t-6 -126q0 -72 14.5 -113t41 -62.5t64.5 -28.5t83 -11q16 -2 25.5 -14.5t9.5 -26.5q0 -23 -14.5 -29t-45.5 -6q-86 0 -136 30.5t-76.5 81t-35 117t-8.5 140.5q0 47 2 94t2 94q0 51 -4 99.5t-16 86t-35.5 66.5t-60.5 41 t-37 33z" />
<glyph unicode="|" horiz-adv-x="319" d="M119 -78v210t1 213t1 255v338v152.5t-1 143t-1 118v80.5t11 41t28 12q20 0 38.5 -15.5t18.5 -37.5q-2 -16 -2 -55.5v-96.5q0 -115 5 -275.5t5 -328.5q0 -111 -4 -235t-8 -230.5t-8 -181t-4 -88.5q0 -20 2 -46t2 -49t-6.5 -39t-26.5 -16q-35 0 -43 38t-8 93z" />
<glyph unicode="}" horiz-adv-x="571" d="M43 -219q0 16 9 28.5t26 14.5q49 4 87 20.5t62.5 49t38 86t13.5 133.5q0 59 -1.5 116.5t-1.5 118.5q0 37 3.5 77t12.5 79t28.5 73.5t54.5 61.5q-72 72 -100.5 165t-28.5 185q0 68 15 155t15 185q0 63 -27.5 108.5t-109.5 45.5q-16 0 -26.5 12t-10.5 29q0 16 9.5 27.5 t27.5 11.5q59 0 101.5 -20.5t68 -56.5t37.5 -82t12 -97q0 -66 -5 -135.5t-5 -139.5q0 -53 6 -105.5t23.5 -99.5t48.5 -88t82 -73q16 -12 16 -35q0 -10 -7 -20.5t-25 -16.5q-55 -18 -82 -64.5t-37.5 -109t-11.5 -137t-3 -149.5t-12 -144.5t-38.5 -122.5t-83 -86t-146.5 -33 q-18 0 -26.5 10.5t-8.5 22.5z" />
<glyph unicode="~" horiz-adv-x="806" d="M70 604q0 31 22.5 57.5t54 47t68.5 32t66 11.5q55 0 92 -32t66.5 -71t58 -70.5t67.5 -31.5q25 0 41.5 18.5t28.5 41t24.5 41t28.5 18.5q14 0 25.5 -11.5t11.5 -33.5q0 -35 -14.5 -64t-39 -51.5t-56 -34.5t-64.5 -12q-10 0 -19.5 1t-19.5 3q-45 0 -74.5 28.5t-54.5 63.5 t-48.5 63.5t-55.5 28.5q-31 0 -63.5 -18t-61.5 -51q-16 -25 -39 -25q-18 0 -31.5 15.5t-13.5 35.5z" />
<glyph unicode="&#xa1;" horiz-adv-x="391" d="M143 76q0 8 4 20q6 16 24.5 25.5t41.5 9.5t45.5 -13.5t22.5 -45.5q0 -29 -17.5 -59.5t-50.5 -30.5q-25 0 -47.5 29.5t-22.5 64.5zM158 1264q0 35 14 48t37 13q31 0 51.5 -15.5t20.5 -33.5q-4 -20 -7.5 -95t-6.5 -176.5t-5 -214t-4 -210t-3 -165t-1 -73.5v-33 q0 -23 -7 -35t-40 -12q-25 0 -26 13.5t-3 64.5q-2 47 -2 116.5t-1 151.5t-2 172t-2 177t-5 166.5t-8 140.5z" />
<glyph unicode="&#xa2;" horiz-adv-x="821" d="M70 588q0 59 18 128.5t55 134t93.5 115t130.5 70.5q0 63 -1 116.5t-1 90.5q0 29 11 41t27 12q20 0 39 -15t19 -38q-2 -16 -3 -29.5t-1 -35.5q0 -23 1 -53.5t3 -80.5q63 -6 98 -24.5t51 -38.5q20 -23 23 -51q0 -51 -45 -51q-16 0 -25.5 7t-22 17t-29.5 21.5t-48 17.5 l4 -74q2 -29 2 -58.5v-61.5q0 -121 -5 -254.5t-9 -243.5q96 4 179 54t118 116q8 20 26 20q14 0 26.5 -13t12.5 -32q0 -14 -6 -26q-25 -43 -59.5 -83t-79.5 -73t-100.5 -52.5t-120.5 -21.5q-4 -55 -5.5 -91t-1.5 -46q0 -20 2.5 -40.5t2.5 -37.5q0 -16 -6.5 -26.5t-26.5 -10.5 q-43 0 -47 37t-4 107v114q-41 6 -92.5 30t-96.5 74t-75.5 133t-30.5 206zM174 575q0 -53 9.5 -100t25.5 -78q25 -49 66.5 -83.5t89.5 -51.5q-2 51 -2.5 105.5t-0.5 107.5q0 70 1.5 127t1.5 110.5t1 105.5t1 114q-53 -25 -90 -65t-59.5 -89t-33 -101t-10.5 -102z" />
<glyph unicode="&#xa3;" horiz-adv-x="788" d="M61 641q0 10 12.5 18.5t30 14.5t37 10t33.5 8q-10 59 -19.5 135t-9.5 146q0 59 13.5 114.5t46.5 97.5t86 67.5t131 25.5q51 0 100 -13.5t90 -35t69 -50t38 -59.5q0 -16 -11.5 -31.5t-27.5 -15.5q-12 0 -29 17q-53 49 -110.5 74.5t-110.5 25.5q-82 0 -138 -59.5 t-56 -184.5q0 -72 7 -131t13 -104q29 4 55.5 6t55.5 2q59 0 121.5 -8.5t136.5 -18.5q25 0 37 -14t12 -31q0 -18 -13.5 -33.5t-39.5 -15.5q-96 14 -151.5 20.5t-104.5 6.5q-23 0 -45.5 -1t-51.5 -3q8 -47 13.5 -88t5.5 -89q0 -29 -2 -94t-13 -135q18 -4 41 -15.5t52 -27.5 q31 -18 48 -30.5t34.5 -21.5t42 -17.5t71.5 -16.5q27 -6 51 -6q35 0 59.5 12t43 27.5t35 28t36.5 12.5t32.5 -15.5t12.5 -35.5q0 -33 -26.5 -55.5t-64.5 -38t-77.5 -22.5t-66.5 -7q-80 0 -132 21.5t-89 48t-64.5 51t-58.5 30.5q-16 -51 -44 -84t-73 -33q-35 0 -53.5 23 t-18.5 47q0 31 26 58.5t56 44.5q18 100 28.5 179t10.5 156v40t-2 42l-67 -10q-29 0 -41.5 13.5t-12.5 27.5z" />
<glyph unicode="&#xa4;" horiz-adv-x="1245" d="M154 160q0 27 21.5 59.5t46 62t46 52t21.5 31.5q-53 66 -81 147.5t-28 171.5q0 82 23.5 162t72.5 151q2 2 3 7q0 12 -17.5 33.5t-37 48t-37 55t-17.5 55.5q0 22 18 45q14 16 37 16q31 0 64 -25.5t61.5 -57t48 -60.5t23.5 -33q59 31 121.5 48.5t128.5 17.5q106 0 202 -55 q6 0 26 25.5t44.5 57t53 57t57.5 25.5q18 0 39.5 -21.5t21.5 -53.5q0 -27 -19.5 -49.5t-42 -43t-42 -38t-19.5 -35.5q0 -6 4 -15q55 -96 80 -183t25 -165q0 -94 -32 -169.5t-85 -133.5q-2 -2 -2 -4q0 -10 22.5 -32.5l50 -50t50 -58.5t22.5 -55q0 -16 -9 -27.5t-21.5 -19 t-25.5 -11.5t-21 -4q-35 0 -64 24.5t-52.5 53.5t-42 53.5t-30.5 24.5q-123 -39 -225 -39q-141 0 -244 67l-2 2q-6 0 -23.5 -25.5t-43 -56t-55 -56t-58.5 -25.5q-16 0 -36.5 12t-20.5 37zM309 696q0 -72 23.5 -141.5t67.5 -123.5t107.5 -88t143.5 -34q27 0 54.5 3t56.5 14 q31 8 73 32.5t79.5 65.5t65.5 98.5t28 128.5q0 35 -7.5 74t-25.5 82q-27 63 -66 106t-83 70t-92 39t-95 12q-90 0 -153.5 -29.5t-102.5 -77.5t-56.5 -108.5t-17.5 -122.5z" />
<glyph unicode="&#xa5;" horiz-adv-x="1085" d="M53 1247q0 25 19.5 41.5t44.5 16.5q33 0 57 -37q45 -74 89 -131.5t88 -106.5t90 -95t100 -95q29 45 69.5 96t87.5 107.5t97.5 115t97.5 117.5q20 27 55 27q27 0 47.5 -14.5t20.5 -35.5q0 -12 -6 -20q-74 -88 -146.5 -165t-130 -142.5t-93.5 -117.5t-36 -91h88t73 1 t66.5 2t71.5 3q35 0 52.5 -17.5t17.5 -39.5q0 -14 -4 -25.5t-20.5 -19t-50.5 -11.5t-93 -4q-31 0 -84 3t-119 3v-131q78 0 133.5 -3t108.5 -3h32.5t34.5 2q35 0 49.5 -13t14.5 -34q0 -14 -4 -25.5t-21.5 -18.5t-51.5 -11t-93 -4q-31 0 -84 3t-117 3q0 -96 4 -180t4 -131 q0 -41 -19.5 -58.5t-45.5 -17.5q-25 0 -45.5 15t-20.5 44v-4q2 0 5 89t3 243q-125 0 -188 -7.5t-90 -7.5q-41 0 -70.5 6.5t-29.5 47.5q0 35 20.5 43t67.5 8q43 0 69.5 2t54 5t64.5 6t102 5v127q-125 0 -188 -7t-90 -7q-41 0 -70.5 6t-29.5 47q0 29 20.5 42.5t66.5 18.5 t117.5 5t173.5 4q0 4 1.5 8t1.5 8q-88 76 -168 162t-139.5 160t-95.5 126t-36 62z" />
<glyph unicode="&#xa6;" horiz-adv-x="385" d="M145 221q0 6 2 10q6 20 6.5 41t1.5 37.5t7 26.5t26 12q45 0 54.5 -34.5t13.5 -106.5q0 -61 -4 -126t-4 -116v-66.5t-1 -32.5t-1 -11v-2v-11.5t4 -44.5q0 -39 -13.5 -56t-35.5 -17q-12 0 -19.5 7t-11.5 17t-4 25q-2 0 -4 -6.5t-4 -6.5t-3 12.5t-1 47.5q0 25 1 83t1 107 q0 68 -2 107t-3 60.5t-3.5 29.5t-2.5 14zM145 1143q0 6 2 10q6 20 6.5 40.5t1.5 37t7 27t26 12.5q45 0 54.5 -35t13.5 -107q0 -61 -4 -125.5t-4 -115.5v-66.5t-1 -33t-1 -11.5v-2v-11t4 -44q0 -39 -13.5 -56.5t-35.5 -17.5q-12 0 -19.5 7t-11.5 18q-4 10 -4 24q-2 0 -4 -6 t-4 -6t-3 12.5t-1 46.5q0 25 1 83.5t1 107.5q0 68 -2 106.5t-3 60t-3.5 30t-2.5 14.5z" />
<glyph unicode="&#xa7;" horiz-adv-x="860" d="M86 512q0 70 32 123t81 90t106 55.5t109 20.5q-66 25 -120 46t-92 49t-59.5 68t-21.5 101t29.5 107.5t75.5 78t101.5 47t104.5 15.5q86 0 159 -41t120 -121q12 -18 12 -35q0 -16 -11.5 -26.5t-23.5 -10.5q-16 0 -24 15q-41 53 -98.5 94t-129.5 41q-25 0 -61.5 -11.5 t-70.5 -32t-57.5 -50t-23.5 -66.5q0 -27 14.5 -52.5t47.5 -41.5q29 -14 68.5 -33.5t80.5 -38t77 -35t58 -24.5q37 -16 78 -44t77 -65t58.5 -83t22.5 -101q0 -49 -16.5 -93t-43 -81t-61.5 -64.5t-72 -44.5q33 -20 64 -46.5t55.5 -58.5t38.5 -71t14 -82q0 -74 -30.5 -133 t-80.5 -99t-113.5 -61.5t-127.5 -21.5q-61 0 -115.5 19.5t-96.5 50t-66.5 65.5t-24.5 66q0 18 10.5 26t26.5 8q31 0 59 -24q45 -51 100.5 -82t114.5 -31q27 0 68 14.5t79 42t64.5 66.5t26.5 88q0 45 -33 83t-80 67.5t-103 52t-102 39.5q-141 29 -207.5 104.5t-66.5 161.5z M197 522q0 -29 13 -55.5t34.5 -48t48 -37.5t51.5 -27l96 -22q25 0 69 14t85 42t71.5 69t30.5 96q0 33 -28.5 61.5t-68.5 50t-84 33t-75 11.5t-71.5 -10.5t-79.5 -33t-65.5 -57.5t-26.5 -86z" />
<glyph unicode="&#xa8;" horiz-adv-x="649" d="M84 1268q0 27 17.5 51t45.5 24q13 0 19 -2q29 -12 45 -33.5t16 -43.5q0 -23 -17 -38.5t-54 -15.5q-39 0 -55.5 16.5t-16.5 41.5zM412 1270q0 27 18 49.5t51 26.5q35 0 55.5 -20.5t20.5 -53.5q0 -25 -16.5 -44.5t-51.5 -19.5q-41 0 -59 19.5t-18 42.5z" />
<glyph unicode="&#xa9;" horiz-adv-x="1095" d="M115 831q0 104 48 201.5t156 165.5q-14 14 -14 31q0 25 24.5 43t61.5 30.5t78 18.5t76 6q94 0 181 -29.5t152.5 -89t105.5 -148.5t40 -210q0 -68 -16.5 -135.5t-50 -126t-84.5 -105t-123 -75.5q-100 -41 -195 -41q-98 0 -180 39.5t-139.5 105.5t-89 148.5t-31.5 170.5z M190 813q0 -74 30 -142.5t81 -119.5t119.5 -82t146.5 -31q76 0 144.5 30t120 84t81 132t29.5 174q0 111 -38 182.5t-97 114.5t-135 60.5t-152 17.5q-49 0 -88 -7t-59 -18l-11 -12q0 -12 -2 -28.5t-2 -39.5q-90 -72 -129 -153.5t-39 -161.5zM324 834q0 39 16 83t47 81.5 t75 62t99 24.5q63 0 111.5 -22.5t56.5 -30.5q14 -23 14 -39q0 -20 -32 -20q-14 0 -26.5 5t-29 10t-39 10.5t-59.5 5.5t-65.5 -16.5t-49 -43t-31 -60.5t-10.5 -67q0 -23 10.5 -49.5t31 -50t51 -38.5t69.5 -15q47 0 74 15t44 34.5t32.5 35t42.5 15.5q33 0 32 -23 q0 -25 -22.5 -54.5t-57 -54t-75.5 -41t-80 -16.5t-79 20.5t-73.5 55.5t-55 82t-21.5 101z" />
<glyph unicode="&#xaa;" horiz-adv-x="565" d="M74 887q0 25 7 65.5t25.5 80.5t50 70t81.5 30q47 0 80.5 -32t58.5 -73q0 37 -8.5 74t-23.5 67.5t-36.5 49t-50.5 18.5q-25 0 -49 -15t-51 -38q-14 -10 -29 -10q-18 0 -32.5 12t-14.5 28q0 18 20.5 38t50 35.5t61.5 24.5t54 9q43 0 78 -23.5t59.5 -62.5t38 -90t13.5 -107 q0 -35 -3 -69.5t-12 -67.5q23 -12 37.5 -42t14.5 -58q0 -23 -8.5 -37t-24.5 -14q-35 0 -55.5 27.5t-34.5 56.5q-35 -33 -80 -51.5t-90 -18.5q-37 0 -61.5 11t-39 28.5t-20.5 39t-6 44.5zM174 913q0 -16 6 -30.5t29 -18.5q12 -6 27 -6q35 0 62.5 30t43.5 52 q-16 31 -39.5 56.5t-46.5 25.5q-49 0 -65.5 -30.5t-16.5 -78.5z" />
<glyph unicode="&#xab;" horiz-adv-x="931" d="M84 600q0 18 18.5 47t43 56.5t49 52.5t36.5 35q37 35 69 72.5t58.5 69.5t49 52.5t38.5 20.5q23 0 35.5 -18.5t12.5 -39.5q0 -33 -23 -43q-20 -14 -59 -58t-81 -94.5t-78 -93.5t-48 -57q39 -61 88 -113.5t93 -96.5t75 -77.5t31 -56.5q0 -25 -16.5 -45t-35.5 -20 q-2 0 -29.5 26.5t-67.5 67.5t-85 90t-84 94t-64.5 80t-25.5 49zM426 598q0 18 22.5 49t51 62.5t58.5 60.5t42 41q37 33 64.5 64.5t50 57t41 42t37.5 16.5q18 0 29.5 -16.5t11.5 -38.5q0 -33 -25 -51q-20 -14 -61 -54t-84 -85.5t-80 -86.5t-49 -57q39 -63 92 -115.5t99 -95.5 t79 -77.5t33 -61.5q0 -23 -18.5 -37t-41.5 -14q-16 0 -28 12q-18 18 -58.5 63.5t-87.5 96.5t-91 100t-71 78q-16 18 -16 47z" />
<glyph unicode="&#xac;" horiz-adv-x="1191" d="M160 889q0 45 36.5 52t108.5 11q25 0 93.5 -1t157.5 -3t185.5 -3t176.5 -1q35 0 63.5 1t50.5 1q10 -4 14.5 -47t4.5 -106q0 -59 -3.5 -128t-9.5 -130q-6 -41 -20 -41q-20 0 -32.5 18t-20 47t-9.5 66t-2 73q0 33 1 63t1 52q0 47 -6 47q-61 0 -120.5 -1t-127.5 -1h-60.5 t-67 1t-65.5 1h-56q-57 0 -87 -2t-43.5 -3t-16.5 -3t-5 -2q-12 0 -26.5 4t-28.5 4q-10 0 -18.5 -1t-18.5 -1q-20 0 -34.5 5t-14.5 28z" />
<glyph unicode="&#xad;" horiz-adv-x="761" d="M57 700q0 33 28 43.5t85 10.5q20 0 27.5 -1t13.5 -3t16.5 -3.5t38.5 -1.5q10 0 25.5 1.5t34.5 1.5q66 0 110.5 -1.5t83.5 -1.5q29 0 55.5 1.5t57.5 3.5q59 0 59 -39q0 -10 -3 -17.5t-24.5 -11.5t-70.5 -7t-141 -3q-35 0 -86.5 1t-87.5 1q-47 0 -72 -1t-36 -3t-12 -3 t-3 -1q-33 0 -66 6t-33 28z" />
<glyph unicode="&#xae;" horiz-adv-x="1030" d="M76 813q0 104 49 200.5t160 164.5q-23 18 -23 55q0 27 24.5 44t61.5 28.5t78 16.5t74 5q98 0 186 -27.5t154.5 -85t106.5 -145.5t40 -209q0 -76 -17.5 -151.5t-52 -140t-89 -113t-128.5 -68.5q-86 -25 -163 -25q-104 0 -190.5 39t-146 102.5t-92 144.5t-32.5 165z M164 819q0 -72 29.5 -139.5t82 -119.5t122 -83t149.5 -31q45 0 105.5 17.5t115.5 61.5t94 121t39 198q0 106 -30.5 179t-82 119t-115 66.5t-128.5 20.5q-68 0 -124 -14.5t-81 -28.5v-27q0 -2 1 -3t1 -3q0 -8 -8 -18.5t-8 -30.5q-86 -59 -124 -134t-38 -151zM352 866 q0 70 2 118t16.5 79t43 45t82.5 14q47 0 91 -11t77.5 -35.5t54 -63.5t20.5 -94q0 -31 -11 -62t-40 -51q-10 -8 -29.5 -12.5t-42 -5.5t-44 -2t-33.5 -3q20 -12 44.5 -28.5t48 -31.5t42 -27.5t26.5 -14.5q20 -14 21 -43q0 -20 -11.5 -36.5t-33.5 -16.5q-12 0 -40 19.5 t-62.5 48t-71.5 60t-66 58.5q2 -25 3 -55.5t2 -56t2 -44t1 -20.5q0 -8 -15 -13.5t-34 -5.5q-12 0 -21 3.5t-12 11.5q-4 45 -7 121.5t-3 154.5zM430 938q0 -6 1 -12t1 -15l4 -65q33 0 70 1t68.5 9t53 27.5t21.5 56.5q0 43 -43 71.5t-100 28.5q-76 0 -76 -102z" />
<glyph unicode="&#xaf;" horiz-adv-x="1705" />
<glyph unicode="&#xb0;" horiz-adv-x="417" d="M70 1196q0 29 14 55.5t45 44.5q0 2 -1 4.5t-1 6.5q0 23 20.5 28.5t42.5 5.5q59 0 101.5 -34.5t42.5 -104.5q0 -41 -17.5 -76t-56.5 -47q-35 -10 -59 -10q-61 0 -96 40t-35 87zM131 1200q0 -25 18.5 -45t51.5 -20q70 0 69 67v18.5t-2 18.5q-12 27 -32.5 36t-42.5 9 q-14 0 -31 -4q12 -12 12 -18q-43 -23 -43 -62z" />
<glyph unicode="&#xb1;" horiz-adv-x="821" d="M84 211q0 18 10 26.5t26.5 10.5t40 1t52.5 1h166q80 0 135 -2t104 -2h43.5t43.5 2q45 0 45 -31q0 -25 -25 -34t-63 -9q-10 0 -46 1t-80 3t-88.5 3t-74.5 1q-66 0 -107 -1t-65.5 -3t-39 -3t-24.5 -1q-23 0 -38 6t-15 31zM84 741q0 18 10 26.5t26.5 10.5t40 1t52.5 1h174 q0 100 -2 155.5t-2 78.5q0 33 3 51t36 18q23 0 33 -9t15 -39.5t5 -89t2 -157.5v-10q41 -2 74 -2h63q23 0 45.5 1t45.5 1q45 0 45 -30q0 -35 -41 -40.5t-105 -5.5q-25 0 -57.5 2.5t-71.5 6.5q-2 -61 -4 -110.5t-2 -96.5v-27.5t2 -27.5q0 -29 -14.5 -41.5t-32.5 -12.5 q-35 0 -40 23.5t-5 77.5q0 25 3 78t3 139q-72 0 -115 -1t-69.5 -3t-40 -3t-23.5 -1q-23 0 -38 6t-15 30z" />
<glyph unicode="&#xb2;" horiz-adv-x="370" d="M59 967q0 35 26 66.5t57.5 62t57 62.5t25.5 67q0 23 -15 33t-34 10q-20 0 -36.5 -8.5t-16.5 -24.5q0 -6 6 -14q2 -2 2 -7q0 -8 -19.5 -14t-23.5 -6q-29 6 -29 37q0 33 33 64.5t86 31.5q47 0 83 -27.5t36 -82.5q0 -37 -15.5 -67t-40 -56.5t-52 -52t-52.5 -56.5 q47 4 100.5 9t90.5 5q8 0 11 -10t3 -22q0 -29 -21.5 -36t-46.5 -7t-61.5 -1t-70 2t-58.5 12t-25 30z" />
<glyph unicode="&#xb3;" horiz-adv-x="352" d="M47 954q0 12 7 22.5t22 10.5q16 0 33.5 -11t46.5 -11q49 0 70.5 21.5t21.5 49.5q0 33 -23.5 53.5t-54.5 20.5q-16 0 -27.5 -9t-21.5 -9q-16 0 -29.5 14t-13.5 31q0 12 11 28.5t26.5 32.5t32 30.5t28.5 24.5q-23 -2 -47.5 -4t-44.5 -2q-10 0 -15.5 12.5t-5.5 24.5 q0 25 15 25q37 0 92 1t92 1q4 0 9 -13.5t5 -27.5q0 -23 -31.5 -51.5t-60.5 -57.5q59 -4 92 -43t33 -80q0 -57 -45 -96t-108 -39q-10 0 -28.5 3t-36 9.5t-31 15.5t-13.5 23z" />
<glyph unicode="&#xb4;" horiz-adv-x="319" d="M74 1266q0 10 4 16q6 8 7 13t7 14.5t21.5 27t50.5 52.5q16 16 35.5 28.5t36.5 12.5q16 0 25 -12.5t9 -22.5q0 -4 -12 -31t-32.5 -59.5t-47 -58t-55.5 -25.5q-18 0 -33.5 14t-15.5 31z" />
<glyph unicode="&#xb5;" horiz-adv-x="747" d="M22.5 -95q-2.5 118 0 260t4.5 276t5 245t3 168q0 18 25.5 35.5t41.5 17.5q27 0 52.5 -18.5t25.5 -42.5q-16 -47 -24.5 -119t-12.5 -150.5t-5 -156.5t-1 -137q0 -45 13.5 -77t34 -51.5t45 -27.5t49.5 -8q47 0 91 63.5t78.5 163.5t56 225t21.5 248q0 59 19.5 75.5 t38.5 16.5q25 0 39 -18.5t14 -42.5v-82q0 -18 -1 -69.5t-3 -116t-2 -135t1 -132t6 -105.5t13 -52q12 -12 27.5 0t32 30.5t31 34t24.5 8.5q14 -14 4 -54t-35.5 -81t-61.5 -71.5t-73 -24.5q-41 6 -55.5 43t-14.5 86t6.5 101.5t6.5 88.5q-10 -35 -27.5 -80.5t-44.5 -90 t-60.5 -81t-75.5 -56t-91 -15.5t-107 45q-2 -35 -2 -91t-1 -117.5t-5 -118t-14 -91.5q-6 -18 -12.5 -24.5t-13.5 -4t-16.5 10.5t-19.5 14q-14 8 -21 88t-9.5 198z" />
<glyph unicode="&#xb6;" horiz-adv-x="1132" d="M100 1006q0 102 78 170.5t194.5 110.5t251 59.5t248.5 17.5q133 0 195.5 -16.5t62.5 -44.5q0 -23 -29.5 -29t-64.5 -6q-27 0 -49 2t-35 2q-4 0 -6 -38t-3 -101.5t-2 -146.5t-2 -171t-1 -178v-166q0 -78 2 -128t5 -87t6 -68.5t6.5 -71.5t5.5 -95.5t2 -139.5q0 -55 -2 -87 t-7.5 -48t-13.5 -20.5t-18 -4.5q-16 0 -28.5 12.5t-16.5 33.5q-2 12 -6.5 88.5t-7.5 183t-5 223.5t-2 213q0 41 2 96.5t5 120t6 135t3 138.5q0 61 -4 117.5t-16 97.5t-31.5 65.5t-50.5 24.5q-57 0 -89 -15.5t-47 -42t-18.5 -65.5t-3.5 -84q0 -25 2 -102.5t5.5 -185 t5.5 -236.5t2 -254q0 -111 -2 -212.5t-8.5 -178t-16.5 -122.5t-24 -46q-39 0 -50.5 17t-11.5 52q0 25 3 56.5t3 72.5v66t-1 92t-2 108.5t-1 114.5q-2 131 -2 285q-117 10 -209 59q-39 20 -75.5 51t-66.5 74t-47.5 100.5t-17.5 131.5z" />
<glyph unicode="&#xb7;" horiz-adv-x="288" d="M49 645q0 39 23.5 73t70.5 40q27 0 44.5 -17.5t25.5 -42t11 -49t3 -37.5v-8v4q0 -47 -30.5 -74.5t-61.5 -27.5q-20 0 -30.5 6t-16.5 17.5t-11 27.5t-16 37q-12 25 -12 51z" />
<glyph unicode="&#xb8;" horiz-adv-x="886" d="M311 -289q0 18 11.5 31.5t21.5 13.5q14 0 31.5 -13t36 -28.5t39 -29t38.5 -13.5q14 0 34 16.5t20 45.5q0 31 -25.5 61.5t-56.5 64.5t-56.5 70.5t-25.5 79.5q0 29 12 52.5t35 23.5q16 0 32.5 -19.5t20.5 -60.5q2 -23 27.5 -53.5t56.5 -67.5t56.5 -77.5t25.5 -83.5 q0 -27 -12 -52.5t-33.5 -45t-48.5 -32t-57 -12.5q-35 0 -67 11.5t-58.5 30t-42 42t-15.5 45.5z" />
<glyph unicode="&#xb9;" horiz-adv-x="366" d="M84 1227q0 8 14.5 25.5t36 35t45 30.5t39.5 13q29 0 29 -26q0 -70 -1 -105t-3 -57.5t-3 -47t-1 -73.5h26q14 0 21.5 -11.5t7.5 -25.5q0 -23 -23.5 -28t-52.5 -5q-6 0 -6 -1t-3 -1t-14.5 3t-37.5 14h-21q-12 0 -12 20q0 10 12.5 23.5t48.5 13.5h2q0 39 -1 63.5t-2 45 t-1 42v56.5q-10 -6 -31.5 -20.5t-37.5 -14.5q-12 0 -21.5 9t-9.5 22z" />
<glyph unicode="&#xba;" horiz-adv-x="624" d="M119 1110q0 16 5 54t24.5 78t58.5 70.5t108 30.5q31 0 72 -12q6 6 16 6q8 0 15 -6l14 -16h4q0 -4 14.5 -20.5t24.5 -30.5q4 2 12 2q18 0 31.5 -21.5t13.5 -32.5q0 -10 -8 -10q-6 0 -10 5t-16 5q10 -25 16 -54.5t6 -61.5q0 -47 -16.5 -83t-43 -59.5t-60 -36t-70.5 -12.5 q-31 0 -68 9.5t-68.5 33t-53 62.5t-21.5 100zM201 1128q0 -53 30.5 -99t98.5 -46q66 0 93.5 47t27.5 107q0 29 -7 57q-16 -6 -26 -11t-21 -5q-4 0 -8 4q-27 8 -27 41q0 8 1.5 17t3.5 20q-29 14 -58 14q-51 0 -79.5 -45t-28.5 -101zM406 1243q0 -10 6 -11t14 -1q-4 6 -9 12 t-9 12q-2 -4 -2 -12z" />
<glyph unicode="&#xbb;" horiz-adv-x="905" d="M74 297q0 20 18 33q16 12 65.5 56t102.5 95t97 94t55 56q-33 43 -85.5 80t-86.5 71q-25 25 -53.5 52.5t-54.5 52t-42 44t-16 27.5q0 16 16 29.5t35 13.5q12 0 25 -8q14 -14 64 -59t108.5 -97.5t111.5 -101.5t78 -71q16 -20 16 -39q0 -16 -16 -37t-37.5 -40.5t-41 -37 t-27.5 -23.5q-39 -35 -86.5 -76.5t-89.5 -78.5t-72.5 -61.5t-36.5 -24.5q-20 0 -33.5 16.5t-13.5 34.5zM416 958q0 16 16.5 29.5t34.5 13.5q12 0 25 -8q14 -14 64 -59t107.5 -97.5t110.5 -101.5t78 -71q16 -20 16 -39q0 -14 -16 -35t-36.5 -41.5t-41.5 -38t-29 -23.5 q-39 -35 -81.5 -77.5l-81.5 -81.5t-69 -65.5t-40 -26.5q-20 0 -32.5 16t-12.5 35q0 23 18 32q10 8 37 32t61 55.5t70.5 66.5t68.5 65.5t55.5 54t29.5 32.5q-16 20 -39.5 41.5t-50.5 41t-51.5 38t-42.5 36.5q-25 25 -54.5 52.5t-54 52t-42 44t-17.5 27.5z" />
<glyph unicode="&#xbc;" horiz-adv-x="884" d="M66 967q0 8 14 25.5t35.5 34.5t45 30.5t40.5 13.5q29 0 28 -27v-104.5t1 -58t2 -48t1 -71.5h15q14 0 21 -11.5t7 -25.5q0 -25 -24.5 -30t-50.5 -5q-8 0 -6 -1t1 -1t-12.5 4t-44.5 15h-20q-12 0 -13 20q0 10 12.5 23.5t49.5 13.5h2q0 39 -1 63.5t-2 45t-1 42v56.5 q-10 -6 -31.5 -20.5t-38.5 -14.5q-12 0 -21 9t-9 22zM86 -10q0 6 20.5 56t55.5 131t82 186.5t104 222.5q25 51 57.5 119.5t63.5 136t57.5 126t40.5 91.5q6 16 17.5 23.5t21.5 7.5q16 0 30.5 -13.5t14.5 -29.5q-20 -47 -49 -111q-25 -53 -59.5 -129t-81.5 -174 q-88 -182 -146.5 -310t-97.5 -210t-61.5 -120t-36.5 -38q-16 0 -24.5 11t-8.5 24zM436 217q0 23 2 52.5t5 59t8.5 56.5t9.5 45q25 12 47 12q39 0 39 -24q-8 -61 -12.5 -85t-6.5 -34t-4 -15t-4 -30q23 -4 47.5 -6t59.5 -2q4 33 8 74t12 94q0 16 13.5 23t29.5 7q18 0 34.5 -9 t16.5 -25l-18 -160l78 10q10 0 17 -14.5t7 -30.5t-9 -28.5t-36 -12.5h-65q-4 -47 -4 -83t-3 -59.5t-14.5 -35.5t-38.5 -12q-16 0 -29.5 8t-13.5 24q0 41 2 74t7 88q-23 2 -52.5 3t-93.5 1q-27 0 -33 13.5t-6 21.5z" />
<glyph unicode="&#xbd;" horiz-adv-x="792" d="M74 995q0 8 14 25.5t35.5 35t45.5 31t40 13.5q29 0 29 -27v-104.5t1 -58t2 -48t1 -71.5h14q14 0 21.5 -11.5t7.5 -25.5q0 -25 -24.5 -30t-51.5 -5q-8 0 -6 -1t1 -1t-12.5 4t-44.5 14h-20q-12 0 -12 21q0 10 12 23.5t49 13.5h2q0 39 -1 63.5t-2 45t-1 42v55.5 q-10 -6 -31.5 -20t-38.5 -14q-12 0 -21 9t-9 21zM76 -14q0 6 20.5 56t55 131t82 186.5t104.5 222.5q25 51 59.5 121.5t68.5 141t62.5 131t42.5 93.5q6 16 17.5 23.5t21.5 7.5q16 0 30.5 -13.5t14.5 -29.5q0 -2 -55 -118t-149 -310q-88 -182 -146.5 -310.5t-97.5 -210 t-61.5 -119.5t-36.5 -38q-16 0 -24.5 11t-8.5 24zM416 41q0 35 27.5 68.5t60.5 68.5t60.5 71t27.5 73q0 23 -13.5 30.5t-29.5 7.5q-23 0 -37 -10t-14 -24q2 -2 2 -7q0 -8 -19.5 -14t-23.5 -6q-29 6 -29 37t32 62.5t85 31.5q47 0 87 -25.5t44 -74.5q0 -45 -19.5 -82t-47 -69 t-59.5 -60.5t-56 -59.5q47 4 100 9.5t90 5.5q8 0 11 -10.5t3 -22.5q0 -29 -21.5 -36t-45.5 -7q-25 0 -62 -1t-70.5 2t-58 12t-24.5 30z" />
<glyph unicode="&#xbe;" horiz-adv-x="894" d="M76 674q0 12 7 22.5t21 10.5q16 0 34 -11.5t46 -11.5q49 0 70.5 21.5t21.5 50.5q0 33 -23.5 53t-53.5 20q-16 0 -27.5 -9t-21.5 -9q-16 0 -30 14.5t-14 30.5q0 12 11.5 28.5t27 33t32 31t28.5 24.5q-23 -2 -47.5 -4t-44.5 -2q-10 0 -15.5 12t-5.5 25q0 25 14 24 q37 0 92.5 1t92.5 1q4 0 9 -13t5 -28q0 -23 -31.5 -51.5t-60.5 -56.5q59 -4 92 -43t33 -80q0 -57 -45 -96t-109 -39q-10 0 -28.5 3t-36 9t-30.5 15t-13 24zM129 20q0 6 19.5 56.5t54.5 131.5t83 186.5t105 221.5q25 51 55.5 111.5t59.5 118t54.5 108.5t39.5 84 q6 16 17.5 23.5t21.5 7.5q16 0 30.5 -13.5t14.5 -29.5q0 -6 -4 -14q-141 -268 -233.5 -463t-148.5 -320t-87 -184t-49 -59q-16 0 -24.5 11t-8.5 23zM467 252q0 47 7 106.5t18 96.5q25 12 47 12q39 0 39 -25q-8 -61 -12.5 -83.5t-6.5 -29.5t-4 -11.5t-4 -28.5q25 -4 48.5 -6 t57.5 -2q4 31 9.5 69.5t11.5 87.5q0 16 13.5 23.5t29.5 7.5q18 0 34.5 -9t16.5 -26l-18 -149l77 10q10 0 17.5 -14.5t7.5 -30.5t-9 -28.5t-36 -12.5h-63q-6 -59 -5.5 -99t-2.5 -67t-14 -38t-40 -11q-16 0 -29.5 8t-13.5 25q0 45 2 82.5t6 103.5q-23 2 -51.5 3t-93.5 1 q-27 0 -33 13.5t-6 21.5z" />
<glyph unicode="&#xbf;" horiz-adv-x="950" d="M111 150q0 76 26.5 133t65.5 106t86 92t88 89t70.5 98.5t33.5 119.5q2 23 1 40.5t4.5 29.5t16.5 19.5t38 7.5q23 0 31 -8.5t8 -36.5q0 -10 -1 -22.5t-1 -29.5q0 -78 -28 -137t-67 -108t-85 -92t-85 -89.5t-65.5 -97.5t-26.5 -119q0 -76 24.5 -127t62.5 -82.5t85 -46 t92 -14.5q74 0 122 18.5t77 48t42 64.5t19 66q6 29 22.5 42t37.5 13q23 0 41 -18.5t18 -51.5q0 -37 -20.5 -88t-66.5 -97t-119.5 -78t-182.5 -32q-111 0 -181.5 36t-111.5 92.5t-56 125t-15 134.5zM457 1073q0 35 15 59.5t56 24.5q29 0 46.5 -20.5t17.5 -53.5q0 -20 -6 -34 q-10 -20 -28.5 -34t-41.5 -14q-18 0 -38.5 16.5t-20.5 55.5z" />
<glyph unicode="&#xc0;" horiz-adv-x="1169" d="M6 16q0 -23 13.5 -32t29.5 -9t30.5 9.5t14.5 31.5q16 104 47 221t72 240q100 -4 204.5 -12t211.5 -8q66 0 130 4t130 16q10 -33 26.5 -81t35 -101t40 -106.5t44 -95.5t45 -68.5t42.5 -26.5q23 0 36 18.5t13 40.5q0 12 -8 29q-88 133 -141 284.5t-102.5 307.5 t-108.5 306.5t-160 279.5q0 23 -20.5 33t-44.5 10q-45 0 -62 -21q-131 -131 -234.5 -319.5t-172.5 -399.5h-33q-35 0 -50.5 -13t-15.5 -30q0 -16 15.5 -28.5t50.5 -12.5h6q-35 -121 -55.5 -238.5t-28.5 -228.5zM244 567q57 156 123.5 302t136.5 261q23 23 37 34.5t28 11.5 q6 0 37 -26t70 -81t79 -140t66 -204q10 -41 18.5 -80t22.5 -78h-618zM432 1585q0 14 12.5 28.5t34.5 14.5q31 0 71 -19.5t77 -33.5q59 -25 97 -48.5t38 -49.5q0 -15 -12 -29q-16 -23 -41 -23q-29 0 -58.5 20.5t-64.5 37.5q-27 12 -54.5 23.5t-49 23.5t-36 25.5t-14.5 29.5z " />
<glyph unicode="&#xc1;" horiz-adv-x="1165" d="M2 16q0 -23 13.5 -32t29.5 -9t30.5 9.5t14.5 31.5q16 104 47 221t72 240q100 -4 204.5 -12t211.5 -8q66 0 130 4t130 16q10 -33 26.5 -81t35 -101t40 -106.5t44 -95.5t45 -68.5t42.5 -26.5q23 0 36 18.5t13 40.5q0 12 -8 29q-88 133 -141 284.5t-102.5 307.5 t-108.5 306.5t-160 279.5q0 23 -20.5 33t-44.5 10q-45 0 -62 -21q-131 -131 -234.5 -319.5t-172.5 -399.5h-33q-35 0 -50.5 -13t-15.5 -30q0 -16 15.5 -28.5t50.5 -12.5h6q-35 -121 -55.5 -238.5t-28.5 -228.5zM240 567q57 156 123.5 302t136.5 261q23 23 37 34.5t28 11.5 q6 0 37 -26t70 -81t79 -140t66 -204q10 -41 18.5 -80t22.5 -78h-618zM385 1481q0 18 11.5 31.5t29.5 23.5t40.5 18.5t45.5 20.5q43 23 84 47.5t70 24.5q12 0 24 -10.5t12 -32.5q0 -25 -37.5 -55.5t-87 -56.5t-93.5 -43t-56 -17q-33 -1 -41 32q-2 6 -2 17z" />
<glyph unicode="&#xc2;" horiz-adv-x="1171" d="M-2 16q0 -23 13.5 -32t29.5 -9t30.5 9.5t14.5 31.5q16 104 47 221t72 240q100 -4 204.5 -12t211.5 -8q66 0 130 4t130 16q10 -33 26.5 -81t35 -101t40 -106.5t44 -95.5t45 -68.5t42.5 -26.5q23 0 36 18.5t13 40.5q0 12 -8 29q-88 133 -141 284.5t-102.5 307.5t-109 306.5 t-159.5 279.5q0 23 -20.5 33t-44.5 10q-45 0 -62 -21q-131 -131 -234.5 -319.5t-172.5 -399.5h-33q-35 0 -50.5 -13t-15.5 -30q0 -16 15.5 -28.5t50.5 -12.5h6q-35 -121 -55.5 -238.5t-28.5 -228.5zM236 567q57 156 123.5 302t136.5 261q23 23 37 34.5t28 11.5q6 0 37 -26 t70 -81t78.5 -140t66.5 -204q10 -41 18.5 -80t22.5 -78h-618zM258 1491q0 18 28.5 39.5t65.5 40t72 31t45 12.5q16 0 28.5 -11.5t12.5 -33.5q0 -8 -29.5 -28.5t-66.5 -42t-73 -39t-48 -17.5q-25 0 -33 31q-2 6 -2 18zM580 1573q0 8 2 12q8 29 32 29q25 0 56.5 -19.5 t66.5 -35.5q51 -23 71.5 -40.5t20.5 -35.5q0 -12 -11 -26.5t-27 -14.5q-20 0 -45 13t-52 32q-53 35 -83.5 49t-30.5 37z" />
<glyph unicode="&#xc3;" horiz-adv-x="1161" d="M6 16q8 111 28.5 228.5t55.5 238.5h-6q-35 0 -50.5 12.5t-15.5 28.5t15.5 29.5t50.5 13.5h33q70 211 173 399.5t234 319.5q16 20 62 21q25 0 45 -10.5t20 -32.5q100 -129 159.5 -279.5t109 -306.5t102.5 -307.5t141 -284.5q8 -16 8 -29q0 -23 -13 -41t-36 -18 q-20 0 -42.5 26.5t-45 68.5t-44 95.5t-40 106.5t-35 101t-26.5 81q-66 -12 -130.5 -16t-129.5 -4q-106 0 -211 8t-205 12q-41 -123 -71.5 -239.5t-47.5 -221.5q0 -23 -14 -32t-31 -9q-16 0 -29.5 9.5t-13.5 31.5zM244 567h618q-14 39 -22.5 78t-18.5 80q-27 119 -66.5 204 t-78.5 140t-70 81t-37 26q-14 0 -28 -11.5t-37 -34.5q-70 -115 -136.5 -261t-123.5 -302zM252 1536q0 29 20.5 53.5t50 43t62.5 28.5t59 10q49 0 83 -28.5t61.5 -64.5t53.5 -64.5t60 -28.5q20 0 36 17.5t27 37t22.5 36.5t25.5 17q12 0 22.5 -11t10.5 -30q0 -31 -13.5 -57.5 t-35 -47t-49 -31.5t-56.5 -11h-19t-20 4q-41 0 -67.5 26.5t-49 57.5t-44 57.5t-52.5 26.5q-29 0 -58 -17.5t-56 -46.5q-16 -25 -37 -24q-16 0 -26.5 14.5t-10.5 32.5z" />
<glyph unicode="&#xc4;" horiz-adv-x="1165" d="M10 16q8 111 28.5 228.5t55.5 238.5h-6q-35 0 -50 12.5t-15 28.5t15 29.5t50 13.5h33q70 211 173 399.5t234 319.5q16 20 62 21q25 0 45 -10.5t20 -32.5q100 -129 159.5 -279.5t109 -306.5t102.5 -307.5t141 -284.5q8 -16 9 -29q0 -23 -13.5 -41t-36.5 -18 q-20 0 -42.5 26.5t-45 68.5t-44 95.5t-40 106.5t-35 101t-26.5 81q-66 -12 -130.5 -16t-129.5 -4q-106 0 -211 8t-205 12q-41 -123 -71.5 -239.5t-47.5 -221.5q0 -23 -14 -32t-31 -9q-16 0 -29.5 9.5t-13.5 31.5zM248 567h618q-14 39 -22 78t-19 80q-27 119 -66.5 204 t-78.5 140t-69.5 81t-37.5 26q-14 0 -28 -11.5t-37 -34.5q-70 -115 -136.5 -261t-123.5 -302zM360 1544q0 29 15.5 48.5t50.5 23.5q41 0 67.5 -27.5t26.5 -56.5q0 -31 -25.5 -52.5t-50.5 -21.5q-84 0 -84 86zM690 1536q0 31 28.5 56.5t65.5 29.5q18 0 34 -10t26 -25.5 t15 -32t5 -28.5q0 -16 -11 -30.5t-26.5 -25t-31 -16.5t-23.5 -6q-31 0 -56.5 28.5t-25.5 59.5z" />
<glyph unicode="&#xc5;" horiz-adv-x="1165" d="M2 16q8 111 28.5 228.5t55.5 238.5h-6q-35 0 -50.5 12.5t-15.5 28.5t15.5 29.5t50.5 13.5h33q70 211 173 399.5t234 319.5q16 20 62 21q25 0 45 -10.5t20 -32.5q100 -129 159.5 -279.5t109 -306.5t102.5 -307.5t141 -284.5q8 -16 8 -29q0 -23 -13 -41t-36 -18 q-20 0 -42.5 26.5t-45 68.5t-44 95.5t-40 106.5t-35 101t-26.5 81q-66 -12 -130.5 -16t-129.5 -4q-106 0 -211 8t-205 12q-41 -123 -72 -239.5t-47 -221.5q0 -23 -14.5 -32t-30.5 -9t-29.5 9.5t-13.5 31.5zM240 567h618q-14 39 -22.5 78t-18.5 80q-27 119 -66.5 204 t-78.5 140t-70 81t-37 26q-14 0 -28 -11.5t-37 -34.5q-70 -115 -136.5 -261t-123.5 -302zM375 1372q0 35 16.5 65.5t50.5 53.5q0 4 -1 5t-1 5q0 29 23.5 36t52.5 7q66 0 116 -39t50 -123q0 -47 -19.5 -89t-66.5 -56q-37 -12 -68 -12q-72 0 -112.5 46t-40.5 101zM446 1378 q0 -29 21.5 -52t58.5 -23q84 0 84 79q0 10 -1 19.5t-3 21.5q-14 31 -38.5 42.5t-49.5 11.5q-16 0 -37 -4q4 -6 9.5 -12.5t5.5 -10.5q-27 -12 -38.5 -31.5t-11.5 -40.5z" />
<glyph unicode="&#xc6;" horiz-adv-x="1906" d="M-2 16q8 111 28.5 228.5t55.5 238.5h-6q-35 0 -50.5 12.5t-15.5 28.5t15.5 29.5t50.5 13.5h33q70 211 173 399.5t234 319.5q16 20 62 21q25 0 45 -10.5t20 -32.5q59 -78 103.5 -162t79 -173t63.5 -180.5t57 -183.5q16 49 42 86t61 66q-59 31 -98.5 91t-39.5 165 q0 106 40 176t104.5 110.5t148.5 57t172 16.5q61 0 120.5 -6t112 -15t94.5 -21.5t69 -22.5q23 -10 34 -24.5t11 -26.5q0 -29 -41 -29q-4 0 -33 7t-77 14.5t-113.5 14.5t-139.5 7q-80 0 -152.5 -10.5t-127 -37t-87 -73.5t-32.5 -119q0 -94 38 -145t95 -74q43 16 89 22.5 t93 6.5q43 0 93.5 -6.5t93.5 -16.5t71.5 -24.5t28.5 -32.5t-25.5 -29.5t-68.5 -16.5t-100.5 -6t-121.5 -1h-34.5t-34.5 2q-43 -12 -82 -35t-69.5 -56.5t-48 -79.5t-17.5 -106q0 -20 8 -45.5t19.5 -53.5t24.5 -53.5t24 -45.5q33 -27 73.5 -42.5t84.5 -22.5t88 -8t81 -1 q70 0 138.5 16.5t127 41t100.5 52t56 50.5q14 25 39 24q16 0 28.5 -11t12.5 -32q0 -20 -14 -41q-37 -53 -96.5 -91t-125 -62.5t-131 -36t-116.5 -11.5q-47 0 -122 5.5t-153 29.5q-2 -23 -14 -40t-33 -17q-31 0 -62.5 52t-58.5 116q-29 35 -46 78t-23 102l-43 131 q-66 -12 -130.5 -16t-129.5 -4q-106 0 -211 8t-205 12q-41 -123 -72 -239.5t-47 -221.5q0 -23 -14.5 -32t-30.5 -9t-29.5 9.5t-13.5 31.5zM236 567h618q-14 39 -22.5 78t-18.5 80q-27 119 -66.5 204t-78.5 140t-70 81t-37 26q-14 0 -28 -11.5t-37 -34.5 q-70 -115 -136.5 -261t-123.5 -302z" />
<glyph unicode="&#xc7;" horiz-adv-x="1081" d="M10 590q0 133 40 244.5t85 179.5q84 129 220.5 203.5t295.5 74.5q88 0 178.5 -26.5t176.5 -83.5q25 -16 24 -41q0 -18 -15.5 -33.5t-37.5 -15.5q-23 0 -41 18q-70 45 -142.5 66.5t-144.5 21.5q-88 0 -170 -29.5t-148.5 -82t-113.5 -125t-63 -160.5q-12 -61 -17.5 -115.5 t-5.5 -103.5q0 -133 37 -224.5t99.5 -147.5t145.5 -82t173 -26q111 0 220 31t204 84q6 2 14 2q29 0 29 -33q0 -37 -32 -72.5t-88 -63t-134 -45t-170 -19.5q18 -29 45.5 -46.5t55.5 -38t47.5 -47t19.5 -73.5q0 -33 -13.5 -62.5t-36 -51t-53 -35t-65.5 -13.5q-33 0 -61.5 12.5 t-50 29.5t-34 36.5t-12.5 34.5q0 16 10.5 26.5t24.5 10.5q8 0 21.5 -8.5t29.5 -18.5t36.5 -18.5t47.5 -8.5q23 0 46.5 14.5t23.5 37.5q0 18 -28 35.5t-63.5 42t-70.5 59.5t-47 88q-104 14 -199.5 61t-163.5 142q-72 98 -100.5 197.5t-28.5 197.5z" />
<glyph unicode="&#xc8;" horiz-adv-x="1019" d="M10 918q0 -98 39 -157t101 -89q-59 -45 -94.5 -119t-35.5 -184q0 -92 29 -155.5t74 -104.5t102.5 -65t116.5 -35t112.5 -13t92.5 -2q66 0 129 17.5t118.5 43t98.5 56t70.5 56.5t35 43t-9.5 17q-27 0 -66.5 -21.5t-95 -46t-129 -46t-170.5 -21.5q-61 0 -132.5 5t-134 30 t-104.5 78t-42 151q0 57 18.5 102.5t49 78t70.5 55t85 35.5q16 -2 34.5 -2h37.5q63 0 122.5 1t103.5 6t70.5 15t26.5 29q0 18 -29.5 32.5t-74.5 24.5t-96.5 15.5t-94.5 5.5q-47 0 -95 -6.5t-91 -20.5q-59 23 -98 71t-39 140q0 70 32.5 116t89 72.5t130 37t155.5 10.5 q76 0 143.5 -7.5t116.5 -14.5t79 -14.5t34 -7.5q23 0 33 9.5t10 21.5q0 29 -45 47q-29 10 -72 21.5t-96 21t-114.5 15.5t-123.5 6q-92 0 -178 -16.5t-152.5 -56.5t-106.5 -108.5t-40 -172.5zM293 1589q0 18 26.5 29.5t40.5 11.5q10 0 51.5 -17.5t85.5 -43t79.5 -54 t35.5 -53.5q0 -18 -20 -30q-25 -16 -49 -17q-31 0 -54.5 21.5t-52.5 40.5q-16 10 -40.5 23t-47 28.5t-39 31t-16.5 29.5z" />
<glyph unicode="&#xc9;" horiz-adv-x="1011" d="M10 918q0 -98 39 -157t101 -89q-59 -45 -94.5 -119t-35.5 -184q0 -92 29 -155.5t74 -104.5t102.5 -65t116.5 -35t112.5 -13t92.5 -2q66 0 129 17.5t118.5 43t98.5 56t70.5 56.5t35 43t-9.5 17q-27 0 -66.5 -21.5t-95 -46t-129 -46t-170.5 -21.5q-61 0 -132.5 5t-134 30 t-104.5 78t-42 151q0 57 18.5 102.5t49 78t70.5 55t85 35.5q16 -2 34.5 -2h37.5q63 0 122.5 1t103.5 6t70.5 15t26.5 29q0 18 -29.5 32.5t-74.5 24.5t-96.5 15.5t-94.5 5.5q-47 0 -95 -6.5t-91 -20.5q-59 23 -98 71t-39 140q0 70 32.5 116t89 72.5t130 37t155.5 10.5 q76 0 143.5 -7.5t116.5 -14.5t79 -14.5t34 -7.5q23 0 33 9.5t10 21.5q0 29 -45 47q-29 10 -72 21.5t-96 21t-114.5 15.5t-123.5 6q-92 0 -178 -16.5t-152.5 -56.5t-106.5 -108.5t-40 -172.5zM387 1460q0 8 28.5 36t67.5 57.5t78 53t60 23.5q16 0 26 -13t10 -34 q0 -25 -18 -43q-12 -12 -36.5 -32.5t-52.5 -39t-56.5 -32t-53.5 -13.5q-14 1 -26 7q-27 14 -27 30z" />
<glyph unicode="&#xca;" horiz-adv-x="1034" d="M10 918q0 -98 39 -157t101 -89q-59 -45 -94.5 -119t-35.5 -184q0 -92 29 -155.5t74 -104.5t102.5 -65t116.5 -35t112.5 -13t92.5 -2q66 0 129 17.5t118.5 43t98.5 56t70.5 56.5t35 43t-9.5 17q-27 0 -66.5 -21.5t-95 -46t-129 -46t-170.5 -21.5q-61 0 -132.5 5t-134 30 t-104.5 78t-42 151q0 57 18.5 102.5t49 78t70.5 55t85 35.5q16 -2 34.5 -2h37.5q63 0 122.5 1t103.5 6t70.5 15t26.5 29q0 18 -29.5 32.5t-74.5 24.5t-96.5 15.5t-94.5 5.5q-47 0 -95 -6.5t-91 -20.5q-59 23 -98 71t-39 140q0 70 32.5 116t89 72.5t130 37t155.5 10.5 q76 0 143.5 -7.5t116.5 -14.5t79 -14.5t34 -7.5q23 0 33 9.5t10 21.5q0 29 -45 47q-29 10 -72 21.5t-96 21t-114.5 15.5t-123.5 6q-92 0 -178 -16.5t-152.5 -56.5t-106.5 -108.5t-40 -172.5zM188 1448q0 25 30 54.5t69 57t75.5 46t51.5 18.5q27 0 26 -29q0 -20 -22.5 -49.5 t-54 -57.5t-67.5 -47.5t-60 -19.5q-11 0 -27 4q-20 6 -21 23zM551 1567q0 -29 29.5 -43.5t54.5 -34.5q23 -20 54.5 -51t55.5 -31q6 0 21.5 5t31 13.5t28 16.5t12.5 14q0 23 -31 50.5t-72 51t-83 39t-66 15.5q-21 -1 -29 -21q-6 -12 -6 -24z" />
<glyph unicode="&#xcb;" horiz-adv-x="1038" d="M15 918q0 104 40 172.5t106.5 108.5t152.5 56.5t178 16.5q61 0 122.5 -6t115 -15.5t96.5 -21t72 -21.5q45 -18 45 -47q0 -12 -10.5 -21.5t-32.5 -9.5q-4 0 -34 7.5t-79 14.5t-116.5 14.5t-143.5 7.5q-82 0 -156 -10.5t-130 -37t-89 -72.5t-33 -116q0 -92 39 -140t98 -71 q43 14 91.5 20.5t95.5 6.5q43 0 94 -5.5t96 -15.5t75 -24.5t30 -32.5t-26.5 -28.5t-71 -15.5t-103.5 -6t-123 -1h-36.5t-35.5 2q-45 -12 -84.5 -35t-70.5 -55.5t-49.5 -77.5t-18.5 -103q0 -98 42 -151t104.5 -78t134.5 -30t133 -5q96 0 170 21.5t129 46t95 46t67 21.5 q16 0 9 -17t-34.5 -43t-71 -56.5t-98.5 -56t-118.5 -43t-129.5 -17.5q-39 0 -92 2t-112.5 13t-116.5 35t-102.5 65t-74 104t-28.5 156q0 111 35 184.5t94 118.5q-61 31 -100 89t-39 157zM258 1436q0 30 19 56t50 26q14 0 20 -2q32 -13 49.5 -36.5t17.5 -47.5 q0 -25 -18.5 -42t-59.5 -17q-42 0 -60 18t-18 45zM616 1439q0 29 19.5 53.5t55.5 29.5q39 0 61 -22.5t22 -58.5q0 -28 -18 -49t-56 -21q-45 0 -64.5 21t-19.5 47z" />
<glyph unicode="&#xcc;" horiz-adv-x="450" d="M108 1655q0 16 14.5 24.5t26.5 8.5q33 0 56 -37q23 -39 40 -56.5t29.5 -26.5t18.5 -16.5t6 -27.5t-15.5 -36.5t-33.5 -16.5q-11 0 -17 6q-10 8 -14 12t-10 13.5t-19.5 27.5t-42.5 57q-16 20 -27.5 37t-11.5 31zM129 37.5q2 23.5 39 56.5v72.5v163v217t1 231.5t1 208v146 q0 88 15.5 128t37 47.5t44 -10t38 -43t18.5 -50.5t-15 -31q-6 -2 -12.5 -69.5t-11.5 -171t-9 -226.5t-4 -236.5t3 -203.5t11 -125q10 -49 -4 -81t-39 -48t-53.5 -18t-45 9t-14.5 34.5z" />
<glyph unicode="&#xcd;" horiz-adv-x="464" d="M125 39.5q2 23.5 39 56.5v72.5v163v217t1 231.5t1 208v146q0 88 15.5 128t37 47.5t44 -10t38 -43t18.5 -50.5t-15 -31q-6 -2 -12.5 -69.5t-11.5 -171t-9 -226.5t-4 -236.5t3 -203.5t11 -125q10 -49 -4 -81t-39 -48t-53.5 -18t-45 9t-14.5 34.5zM168 1477q0 10 4 16 q6 8 7 13t7 14.5t21.5 27t50.5 52.5q16 16 35.5 28.5t36.5 12.5q16 0 25 -12.5t9 -22.5q0 -4 -12 -31t-32.5 -59.5t-47 -58t-55.5 -25.5q-18 0 -33.5 14t-15.5 31z" />
<glyph unicode="&#xce;" horiz-adv-x="534" d="M75 1384q0 9 5 19q11 15 41 51.5t63.5 74t62 65.5t37.5 28q11 0 27 -14.5t31 -31.5t27.5 -34t17.5 -23q43 -50 76 -81t33 -56q0 -16 -12.5 -27.5t-26.5 -11.5q-4 0 -26 22.5t-49.5 52.5t-56 59.5t-45.5 45.5q-26 -23 -51 -55t-48.5 -61t-42.5 -48.5t-30 -19.5 q-14 0 -23.5 15t-9.5 30zM151 35.5q2 23.5 39 56.5v72.5v163v217t1 231.5t1 208v146q0 88 15.5 128t37 47.5t44 -10t38 -43t18.5 -50.5t-15 -31q-6 -2 -12.5 -69.5t-11.5 -171t-9 -226.5t-4 -236.5t3 -203.5t11 -125q10 -49 -4 -81t-39 -48t-53.5 -18t-45 9t-14.5 34.5z" />
<glyph unicode="&#xcf;" horiz-adv-x="505" d="M55 1425q0 26 16 48t42 22q12 0 18 -2q27 -11 41.5 -31t14.5 -40q0 -22 -15.5 -36t-50.5 -14q-36 0 -51 15t-15 38zM151 27.5q2 23.5 39 56.5v72.5v163v217t1 231.5t1 208v146q0 88 15.5 128t37 47.5t44 -10t38 -43t18.5 -50.5t-15 -31q-6 -2 -12.5 -69.5t-11.5 -171 t-9 -226.5t-4 -236.5t3 -203.5t11 -125q10 -49 -4 -81t-39 -48t-53.5 -18t-45 9t-14.5 34.5zM359 1427q0 25 16.5 46t47.5 25q32 0 51 -19t19 -50q0 -23 -15.5 -41t-47.5 -18q-38 0 -54.5 18t-16.5 39z" />
<glyph unicode="&#xd0;" horiz-adv-x="1249" d="M-6 1180q0 45 105.5 86t320.5 41q217 0 369.5 -65.5t249 -165t141.5 -217.5t45 -224q0 -156 -59.5 -274.5t-153.5 -198.5t-208 -120t-224 -40q-127 0 -191 59q-2 0 -3 1t-5 1q-10 0 -29.5 -6t-40.5 -6q-23 0 -40 15.5t-19 64.5q0 29 -1 62.5t-1 68.5q0 84 1 177t3 190 q-16 0 -29.5 -2t-25.5 -2q-76 0 -76 47q0 39 32.5 45t96.5 6h4l6 465q-47 -10 -85 -23.5t-66.5 -26t-46 -21.5t-19.5 -9q-18 0 -34.5 23.5t-16.5 48.5zM356 414q0 -80 2 -118t9.5 -56.5t20.5 -30.5t36 -39q16 -20 59 -30.5t97 -10.5q86 0 182 26.5t179 85t137.5 151.5 t54.5 224q0 111 -49.5 216.5t-137.5 189.5t-210 135t-265 51q-29 0 -54.5 -1t-49.5 -3l-9 -481h80h76t60.5 1t33.5 3q27 0 40.5 -13.5t13.5 -33.5q0 -18 -11.5 -32.5t-36.5 -14.5q-53 0 -91 -1t-67.5 -1t-53 -1t-46.5 -1v-215z" />
<glyph unicode="&#xd1;" horiz-adv-x="1015" d="M41 45q16 236 23.5 428.5t7.5 345.5q0 137 -4.5 237.5t-10.5 166.5q0 33 24.5 51t59.5 18q25 0 48.5 -12t39.5 -37q29 -47 83.5 -148.5t120 -224t135 -253t129 -238t101.5 -176t52 -68.5q2 27 2 67v89q0 106 -2 241.5t-6 264.5t-9.5 230t-9.5 140q-2 8 -2 18.5v20.5 q0 29 12.5 53.5t55.5 24.5t63.5 -26.5t20.5 -71.5q0 -23 -6 -39.5t-21 -16.5q-2 0 -4 -46t-4 -119.5t-4 -163.5t-3 -177t-1 -162v-116q0 -63 1 -120.5t1 -104.5q0 -72 -24.5 -101.5t-57.5 -29.5q-25 0 -47.5 14t-36.5 37q-41 66 -100.5 171t-126 226t-133 244t-119.5 225.5 t-87 170t-34 77.5q-4 0 -5 -42t-1 -112q0 -94 1 -223t1 -262t-2 -251.5t-8 -194.5q-4 -37 -21.5 -53.5t-38.5 -16.5q-18 0 -33.5 12.5t-19.5 32.5zM224 1474q0 30 22 55t52.5 45t65.5 30.5t63 10.5q53 0 88.5 -30.5t64 -67.5t56 -68t65.5 -31q24 0 39.5 18t27 39.5t23.5 39 t27 17.5q14 0 25 -10.5t11 -32.5q0 -33 -13.5 -60.5t-37.5 -49t-54.5 -33.5t-62.5 -12q-9 0 -17.5 1t-19.5 3q-43 0 -71.5 27.5t-52 61t-46 61t-54.5 27.5q-30 0 -61 -17.5t-59 -49.5q-15 -24 -37 -23q-18 0 -31 14.5t-13 34.5z" />
<glyph unicode="&#xd2;" horiz-adv-x="1163" d="M25 664q0 158 54 311t167 270q49 0 65 -31q66 39 141.5 59.5t155.5 20.5q96 0 194.5 -37.5t178.5 -117.5t130 -201t50 -287q0 -143 -48 -262t-131 -205t-194.5 -134t-236.5 -48q-127 0 -224.5 55.5t-165 147.5t-102 211t-34.5 248zM150 651q0 -109 24.5 -211t73.5 -182 t122.5 -129t172.5 -49q98 0 192 41t168 114.5t120 176t46 225.5q0 119 -45 246q-35 94 -82 156.5t-102.5 99.5t-114.5 51t-119 14q-49 0 -97 -8t-89 -20.5t-74 -26.5t-53 -27q-72 -88 -107.5 -213t-35.5 -258zM493 1612q0 16 14.5 24.5t26.5 8.5q33 0 56 -37 q23 -39 40 -56.5t29.5 -26.5t18.5 -16.5t6 -27.5t-15.5 -36.5t-33.5 -16.5q-11 0 -17 6q-10 8 -14 12t-10 13.5t-19.5 27.5t-42.5 57q-16 20 -27.5 37t-11.5 31z" />
<glyph unicode="&#xd3;" horiz-adv-x="1167" d="M25 664q0 158 54 311t167 270q49 0 65 -31q66 39 141.5 59.5t155.5 20.5q96 0 194.5 -37.5t178.5 -117.5t130 -201t50 -287q0 -143 -48 -262t-131 -205t-194.5 -134t-236.5 -48q-127 0 -224.5 55.5t-165 147.5t-102 211t-34.5 248zM150 651q0 -109 24.5 -211t73.5 -182 t122.5 -129t172.5 -49q98 0 192 41t168 114.5t120 176t46 225.5q0 119 -45 246q-35 94 -82 156.5t-102.5 99.5t-114.5 51t-119 14q-49 0 -97 -8t-89 -20.5t-74 -26.5t-53 -27q-72 -88 -107.5 -213t-35.5 -258zM533 1469q0 10 4 16q6 8 7 13t7 14.5t21.5 27t50.5 52.5 q16 16 35.5 28.5t36.5 12.5q16 0 25 -12.5t9 -22.5q0 -4 -12 -31t-32.5 -59.5t-47 -58t-55.5 -25.5q-18 0 -33.5 14t-15.5 31z" />
<glyph unicode="&#xd4;" horiz-adv-x="1163" d="M25 664q0 158 54 311t167 270q49 0 65 -31q66 39 141.5 59.5t155.5 20.5q96 0 194.5 -37.5t178.5 -117.5t130 -201t50 -287q0 -143 -48 -262t-131 -205t-194.5 -134t-236.5 -48q-127 0 -224.5 55.5t-165 147.5t-102 211t-34.5 248zM150 651q0 -109 24.5 -211t73.5 -182 t122.5 -129t172.5 -49q98 0 192 41t168 114.5t120 176t46 225.5q0 119 -45 246q-35 94 -82 156.5t-102.5 99.5t-114.5 51t-119 14q-49 0 -97 -8t-89 -20.5t-74 -26.5t-53 -27q-72 -88 -107.5 -213t-35.5 -258zM389 1433q0 10 6 21q12 16 45 56t69.5 81t67.5 71.5t41 30.5 q12 0 29.5 -15.5t34 -34.5t30 -37.5t19.5 -24.5q47 -55 83 -89t36 -61q0 -18 -13.5 -30.5t-29.5 -12.5q-4 0 -28 24.5t-54.5 57.5t-61.5 65.5t-49 49.5q-29 -25 -56.5 -60t-53 -66.5t-46 -53t-32.5 -21.5q-16 0 -26.5 16.5t-10.5 32.5z" />
<glyph unicode="&#xd5;" horiz-adv-x="1175" d="M25 664q0 158 54 311t167 270q49 0 65 -31q66 39 141.5 59.5t155.5 20.5q96 0 194.5 -37.5t178.5 -117.5t130 -201t50 -287q0 -143 -48 -262t-131 -205t-194.5 -134t-236.5 -48q-127 0 -224.5 55.5t-165 147.5t-102 211t-34.5 248zM150 651q0 -109 24.5 -211t73.5 -182 t122.5 -129t172.5 -49q98 0 192 41t168 114.5t120 176t46 225.5q0 119 -45 246q-35 94 -82 156.5t-102.5 99.5t-114.5 51t-119 14q-49 0 -97 -8t-89 -20.5t-74 -26.5t-53 -27q-72 -88 -107.5 -213t-35.5 -258zM268 1565q0 31 22.5 57.5t54.5 47t68.5 31.5t65.5 11 q55 0 92 -31.5t66.5 -70.5t58.5 -71t68 -32q25 0 41 18.5t28 41t24.5 41t28.5 18.5q14 0 25.5 -11t11.5 -34q0 -35 -14 -63.5t-39 -51t-56.5 -35t-64.5 -12.5q-10 0 -19 1t-20 3q-45 0 -74.5 29t-54 63.5t-48 63.5t-56.5 29q-31 0 -63.5 -18.5t-61.5 -51.5q-16 -25 -39 -24 q-18 0 -31.5 15t-13.5 36z" />
<glyph unicode="&#xd6;" horiz-adv-x="1179" d="M25 664q0 158 54 311t167 270q49 0 65 -31q66 39 141.5 59.5t155.5 20.5q96 0 194.5 -37.5t178.5 -117.5t130 -201t50 -287q0 -143 -48 -262t-131 -205t-194.5 -134t-236.5 -48q-127 0 -224.5 55.5t-165 147.5t-102 211t-34.5 248zM150 651q0 -109 24.5 -211t73.5 -182 t122.5 -129t172.5 -49q98 0 192 41t168 114.5t120 176t46 225.5q0 119 -45 246q-35 94 -82 156.5t-102.5 99.5t-114.5 51t-119 14q-49 0 -97 -8t-89 -20.5t-74 -26.5t-53 -27q-72 -88 -107.5 -213t-35.5 -258zM348 1524q0 27 17.5 51t45.5 24q13 0 19 -2q29 -12 45 -33.5 t16 -43.5q0 -23 -17 -38.5t-54 -15.5q-39 0 -55.5 16.5t-16.5 41.5zM676 1526q0 27 18 49.5t51 26.5q35 0 55.5 -20.5t20.5 -53.5q0 -25 -16.5 -44.5t-51.5 -19.5q-41 0 -59 19.5t-18 42.5z" />
<glyph unicode="&#xd7;" horiz-adv-x="1013" d="M78 324q2 12 25.5 36.5t59.5 55t77 65.5t74.5 67t57 56.5t23.5 38.5q0 8 -16.5 30.5t-43 52.5t-58 63.5t-62.5 65.5t-57.5 57.5t-40.5 37.5q-18 14 -19 35q0 25 24.5 43.5t47.5 18.5q12 -1 18 -7q16 -14 60.5 -62t93.5 -100.5t94 -93.5t64 -41q8 0 33.5 20.5t58.5 52.5 t69.5 70t69.5 71.5t57.5 60t32.5 35.5q10 10 23 10q23 0 38 -27.5t15 -58.5q-2 -14 -24.5 -42t-55.5 -62.5t-70.5 -72.5t-69.5 -71t-53.5 -56.5t-21.5 -31.5q0 -10 21.5 -38t53.5 -62.5t69.5 -73.5t69.5 -72t53.5 -57.5t21.5 -30.5q0 -12 -10.5 -21.5t-23.5 -15.5t-28.5 -9 t-27.5 -3q-4 0 -7 1t-6 1q-8 2 -31.5 23.5t-53 54.5t-61.5 69.5t-60.5 68.5t-50 53.5t-27.5 21.5q-12 0 -37 -18.5t-55.5 -47t-65.5 -64.5t-67.5 -69t-59 -59.5t-43.5 -38.5q-25 -18 -43 -18q-31 0 -43 29.5t-12 58.5z" />
<glyph unicode="&#xd8;" horiz-adv-x="1191" d="M27 664q0 158 53 310t166 271q49 0 65 -31q66 39 142.5 59.5t154.5 20.5q41 0 81 -5t79 -17l88 192q12 29 43 29q23 0 42.5 -15.5t19.5 -31.5q0 4 -19.5 -44t-75.5 -171q63 -35 116.5 -95.5t93.5 -137t62.5 -166t22.5 -181.5q0 -143 -49 -262t-132 -205t-194.5 -134 t-236.5 -48q-129 0 -232 59q-23 -49 -37 -85.5t-28 -61.5t-30.5 -38t-41.5 -13q-18 0 -27.5 10t-9.5 25q0 18 6.5 36.5t18.5 42t29.5 57.5t40.5 87q-104 92 -157.5 237.5t-53.5 305.5zM150 651q0 -125 32.5 -241.5t98.5 -198.5q39 90 71.5 160.5t62 135t60.5 129t68 143.5 t83 177.5t105 231.5q-66 16 -123 16q-51 0 -98 -9t-89 -21.5t-75 -27t-53 -24.5q-72 -90 -107.5 -214t-35.5 -257zM352 141q84 -61 193 -61q96 0 190 41t168 114.5t120 176t46 225.5q0 119 -45 246q-37 100 -87 163.5t-110 98.5q-72 -156 -130 -276.5t-113.5 -233.5 t-111.5 -229.5t-120 -264.5z" />
<glyph unicode="&#xd9;" horiz-adv-x="1153" d="M20 637q0 111 15.5 217.5t36 193.5t40 144t25.5 70q10 16 24.5 24t28.5 8q18 0 32.5 -12t14.5 -33q0 -10 -2 -16q-6 -18 -24.5 -71.5t-37 -130.5t-34 -173t-15.5 -201q0 -164 39 -270t102.5 -167.5t145.5 -86t166 -24.5q88 0 168 18t138.5 78.5t93 172t34.5 298.5 q0 96 -5 196.5t-12 183.5t-12.5 138t-5.5 63q0 23 20 37.5t36 14.5q8 0 17 -2t17.5 -11.5t14.5 -28t8 -50.5q2 -18 3 -77t2 -142t3 -183t2 -202.5t1 -201t2 -175t1 -126v-55.5q0 -25 -14 -43t-43 -18q-27 0 -41 17.5t-14 33.5v32.5t2 49.5q0 29 2 63q-33 -53 -88 -94 q-49 -35 -129 -63.5t-203 -28.5q-166 0 -273.5 54.5t-170 143.5t-87 202.5t-24.5 232.5zM509 1622q0 16 14.5 24.5t26.5 8.5q33 0 56 -37q23 -39 40 -56.5t29.5 -26.5t18.5 -16.5t6 -27.5t-15.5 -36.5t-33.5 -16.5q-11 0 -17 6q-10 8 -14 12t-10 13.5t-19.5 27.5t-42.5 57 q-16 20 -27.5 37t-11.5 31z" />
<glyph unicode="&#xda;" horiz-adv-x="1153" d="M33 637q0 111 15.5 217.5t36 193.5t40 144t25.5 70q10 16 24.5 24t28.5 8q18 0 32.5 -12t14.5 -33q0 -10 -2 -16q-6 -18 -24.5 -71.5t-37 -130.5t-34 -173t-15.5 -201q0 -164 39 -270t102.5 -167.5t145.5 -86t166 -24.5q88 0 168 18t138.5 78.5t93 172t34.5 298.5 q0 96 -5 196.5t-12 183.5t-12.5 138t-5.5 63q0 23 20 37.5t36 14.5q8 0 17 -2t17.5 -11.5t14.5 -28t8 -50.5q2 -18 3 -77t2 -142t3 -183t2 -202.5t1 -201t2 -175t1 -126v-55.5q0 -25 -14 -43t-43 -18q-27 0 -41 17.5t-14 33.5v32.5t2 49.5q0 29 2 63q-33 -53 -88 -94 q-49 -35 -129 -63.5t-203 -28.5q-166 0 -273.5 54.5t-170 143.5t-87 202.5t-24.5 232.5zM510 1475q0 10 4 16q6 8 7 13t7 14.5t21.5 27t50.5 52.5q16 16 35.5 28.5t36.5 12.5q16 0 25 -12.5t9 -22.5q0 -4 -12 -31t-32.5 -59.5t-47 -58t-55.5 -25.5q-18 0 -33.5 14t-15.5 31z " />
<glyph unicode="&#xdb;" horiz-adv-x="1187" d="M43 637q0 111 15.5 217.5t36 193.5t40 144t25.5 70q10 16 24.5 24t28.5 8q18 0 32.5 -12t14.5 -33q0 -10 -2 -16q-6 -18 -24.5 -71.5t-37 -130.5t-34 -173t-15.5 -201q0 -164 39 -270t102.5 -167.5t145.5 -86t166 -24.5q88 0 168 18t138.5 78.5t93 172t34.5 298.5 q0 96 -5 196.5t-12 183.5t-12.5 138t-5.5 63q0 23 20 37.5t36 14.5q8 0 17 -2t17.5 -11.5t14.5 -28t8 -50.5q2 -18 3 -77t2 -142t3 -183t2 -202.5t1 -201t2 -175t1 -126v-55.5q0 -25 -14 -43t-43 -18q-27 0 -41 17.5t-14 33.5v32.5t2 49.5q0 29 2 63q-33 -53 -88 -94 q-49 -35 -129 -63.5t-203 -28.5q-166 0 -273.5 54.5t-170 143.5t-87 202.5t-24.5 232.5zM311 1466q0 14 12.5 25.5t29 23t36 20.5t31.5 19q27 20 60.5 44t58.5 24q16 0 31.5 -21.5t15.5 -33.5q0 -10 -12.5 -22.5t-45.5 -28.5q-25 -12 -49 -29t-45.5 -32t-40 -25.5 t-35.5 -10.5q-16 1 -28 13q-18 18 -19 34zM711 1602q0 8 6 18q2 6 14 6q20 0 56 -17.5t71 -41t60.5 -48t25.5 -40.5t-14.5 -34t-24.5 -18q-12 0 -30.5 10.5t-38 26t-38 31.5t-30.5 27q-23 18 -40 39.5t-17 40.5z" />
<glyph unicode="&#xdc;" horiz-adv-x="1173" d="M43 637q0 111 15.5 217.5t36 193.5t40 144t25.5 70q10 16 24.5 24t28.5 8q18 0 32.5 -12t14.5 -33q0 -10 -2 -16q-6 -18 -24.5 -71.5t-37 -130.5t-34 -173t-15.5 -201q0 -164 39 -270t102.5 -167.5t145.5 -86t166 -24.5q88 0 168 18t138.5 78.5t93 172t34.5 298.5 q0 96 -5 196.5t-12 183.5t-12.5 138t-5.5 63q0 23 20 37.5t36 14.5q8 0 17 -2t17.5 -11.5t14.5 -28t8 -50.5q2 -18 3 -77t2 -142t3 -183t2 -202.5t1 -201t2 -175t1 -126v-55.5q0 -25 -14 -43t-43 -18q-27 0 -41 17.5t-14 33.5v32.5t2 49.5q0 29 2 63q-33 -53 -88 -94 q-49 -35 -129 -63.5t-203 -28.5q-166 0 -273.5 54.5t-170 143.5t-87 202.5t-24.5 232.5zM406 1520q0 27 17.5 51t45.5 24q13 0 19 -2q29 -12 45 -33.5t16 -43.5q0 -23 -17 -38.5t-54 -15.5q-39 0 -55.5 16.5t-16.5 41.5zM734 1522q0 27 18 49.5t51 26.5q35 0 55.5 -20.5 t20.5 -53.5q0 -25 -16.5 -44.5t-51.5 -19.5q-41 0 -59 19.5t-18 42.5z" />
<glyph unicode="&#xdd;" horiz-adv-x="950" d="M-59 1247q0 25 18.5 42.5t42.5 17.5q16 0 31.5 -9.5t26.5 -29.5q37 -72 80 -154t94 -165t110.5 -161.5t126.5 -144.5q111 162 230.5 319.5t230.5 319.5q20 29 53 29q25 0 45.5 -14.5t20.5 -34.5q0 -12 -6 -21q-109 -170 -237 -336t-245 -338q14 -12 15 -30 q0 -23 -14.5 -43.5t-36.5 -20.5q-12 0 -21 6q-70 -104 -124 -209.5t-93 -216.5q-10 -33 -29.5 -47t-38.5 -14q-20 0 -34.5 14t-14.5 37q0 16 4 27q43 131 104.5 250.5t133.5 234.5q-53 51 -106.5 115.5t-101.5 132t-91 135.5t-77 124t-56.5 97t-32.5 58q-8 14 -8 30z M416 1422q0 10 4 16q6 8 7 13t7 14.5t21.5 27t50.5 52.5q16 16 35.5 28.5t36.5 12.5q16 0 25 -12.5t9 -22.5q0 -4 -12 -31t-32.5 -59.5t-47 -58t-55.5 -25.5q-18 0 -33.5 14t-15.5 31z" />
<glyph unicode="&#xde;" horiz-adv-x="1062" d="M147 23v133t1.5 150t1.5 202v289v138.5t-1.5 129.5t-1.5 109.5v76.5q0 29 14.5 41.5t37.5 12.5q49 0 60 -30t11 -69q0 -59 -1 -129.5t-1 -167.5q16 23 33 47.5t37 47.5q37 0 49 -23q41 23 85 34t91 11q72 0 144.5 -26.5t131 -78t94.5 -123t36 -163.5q0 -76 -30 -145.5 t-88 -124t-144 -86t-201 -31.5q-74 0 -132.5 20.5t-99.5 57.5q-4 -135 -4 -227.5t-3 -148.5t-12 -81t-32 -25q-43 0 -59.5 54.5t-16.5 124.5zM297 614q0 -104 66.5 -174.5t183.5 -70.5q8 0 58 5t107.5 29.5t104.5 75.5t47 142q0 14 -2 30.5t-6 32.5q-14 66 -45 110t-70 69.5 t-84 35.5t-88 10q-53 0 -99 -11t-73 -26q-53 -66 -76.5 -132t-23.5 -126z" />
<glyph unicode="&#xdf;" horiz-adv-x="1036" d="M27 549q0 193 42 330t110.5 224t159.5 128t189 41q84 0 160 -30t132.5 -81t90 -118.5t33.5 -143.5q0 -74 -37 -149.5t-121 -143.5q33 -16 75 -51t80 -83t64.5 -108.5t26.5 -127.5q0 -63 -29.5 -111.5t-80 -80.5t-116 -48t-136.5 -16q-35 0 -77 4t-81 15t-64.5 29.5 t-25.5 47.5q0 18 12 30.5t29 12.5q4 0 16 -4q39 -16 78 -24.5t76 -8.5q96 0 153.5 22.5t88 53t40 64.5t9.5 57q0 43 -20.5 83.5t-54.5 77.5t-75 70t-84 57l-10 8q-55 -10 -102.5 -16t-88.5 -6q-29 0 -68.5 7t-75.5 23.5t-61.5 40t-25.5 58.5q0 31 13.5 47t33 22.5t42 6.5 h40.5q68 0 153 -19.5t179 -79.5q53 23 94 89.5t41 152.5q0 57 -30.5 104.5t-80 81t-114 52t-131.5 18.5q-59 0 -125 -20.5t-121 -82t-91 -176t-36 -303.5q0 -129 25.5 -255.5t80.5 -229.5q4 -10 6.5 -17t2.5 -16q0 -25 -14.5 -43t-37.5 -18q-28 0 -53 37t-45 93t-34.5 123.5 t-21.5 144.5t-7 155zM403 668q47 -25 73 -34t56 -9q14 0 28.5 1t35.5 3q-31 14 -52.5 22t-41 11.5t-43 4.5t-56.5 1z" />
<glyph unicode="&#xe0;" horiz-adv-x="677" d="M2 189q-2 68 10.5 137t43 126.5t82 93.5t126.5 36q43 0 82 -20.5t70 -53.5t54.5 -74t35.5 -82q16 59 16 117q0 59 -16 115.5t-44 100.5t-65.5 71t-78.5 27q-29 0 -62 -1.5t-64.5 -6.5t-61.5 -15.5t-48 -26.5t-39 -16q-29 0 -29 31q0 35 36 60.5t85 41.5t101.5 24.5 t87.5 8.5q61 0 112.5 -32t88 -86t58 -124.5t21.5 -148.5q0 -76 -14 -144.5t-35 -117.5l-4 -11q4 -16 11 -35.5t16.5 -37t23 -28.5t31.5 -11q6 0 12 1t13 1q18 0 28 -11.5t10 -27.5q0 -23 -18 -44.5t-57 -21.5q-53 0 -87 39t-51 107q-25 -33 -58.5 -61.5t-72.5 -51t-82 -36 t-86 -13.5q-96 0 -137 48t-45 153zM109 166q0 -29 7 -53.5t27 -30.5q14 -6 35 -6q33 0 72 15.5t77 40t69.5 56t50.5 66.5q-12 35 -31 76t-41.5 77t-50 59.5t-54.5 23.5q-55 0 -86.5 -42t-48 -96.5t-21.5 -107.5t-5 -78zM206 1133q0 16 14.5 24.5t26.5 8.5q33 0 56 -37 q23 -39 40 -56.5t29.5 -26.5t18.5 -16.5t6 -27.5t-15.5 -36.5t-33.5 -16.5q-11 0 -17 6q-10 8 -14 12t-10 13.5t-19.5 27.5t-42.5 57q-16 20 -27.5 37t-11.5 31z" />
<glyph unicode="&#xe1;" horiz-adv-x="677" d="M2 189q-2 68 10.5 137t43 126.5t82 93.5t126.5 36q43 0 82 -20.5t70 -53.5t54.5 -74t35.5 -82q16 59 16 117q0 59 -16 115.5t-44 100.5t-65.5 71t-78.5 27q-29 0 -62 -1.5t-64.5 -6.5t-61.5 -15.5t-48 -26.5t-39 -16q-29 0 -29 31q0 35 36 60.5t85 41.5t101.5 24.5 t87.5 8.5q61 0 112.5 -32t88 -86t58 -124.5t21.5 -148.5q0 -76 -14 -144.5t-35 -117.5l-4 -11q4 -16 11 -35.5t16.5 -37t23 -28.5t31.5 -11q6 0 12 1t13 1q18 0 28 -11.5t10 -27.5q0 -23 -18 -44.5t-57 -21.5q-53 0 -87 39t-51 107q-25 -33 -58.5 -61.5t-72.5 -51t-82 -36 t-86 -13.5q-96 0 -137 48t-45 153zM109 166q0 -29 7 -53.5t27 -30.5q14 -6 35 -6q33 0 72 15.5t77 40t69.5 56t50.5 66.5q-12 35 -31 76t-41.5 77t-50 59.5t-54.5 23.5q-55 0 -86.5 -42t-48 -96.5t-21.5 -107.5t-5 -78zM170 1043q0 10 4 16q6 8 7 13t7 14.5t21.5 27 t50.5 52.5q16 16 35.5 28.5t36.5 12.5q16 0 25 -12.5t9 -22.5q0 -4 -12 -31t-32.5 -59.5t-47 -58t-55.5 -25.5q-18 0 -33.5 14t-15.5 31z" />
<glyph unicode="&#xe2;" horiz-adv-x="681" d="M2 189q-2 68 10.5 137t43 126.5t82 93.5t126.5 36q43 0 82 -20.5t70 -53.5t54.5 -74t35.5 -82q16 59 16 117q0 59 -16 115.5t-44 100.5t-65.5 71t-78.5 27q-29 0 -62 -1.5t-64.5 -6.5t-61.5 -15.5t-48 -26.5t-39 -16q-29 0 -29 31q0 35 36 60.5t85 41.5t101.5 24.5 t87.5 8.5q61 0 112.5 -32t88 -86t58 -124.5t21.5 -148.5q0 -76 -14 -144.5t-35 -117.5l-4 -11q4 -16 11 -35.5t16.5 -37t23 -28.5t31.5 -11q6 0 12 1t13 1q18 0 28 -11.5t10 -27.5q0 -23 -18 -44.5t-57 -21.5q-53 0 -87 39t-51 107q-25 -33 -58.5 -61.5t-72.5 -51t-82 -36 t-86 -13.5q-96 0 -137 48t-45 153zM88 1014q0 10 6 21q12 16 45 56t69.5 81t67.5 71.5t41 30.5q12 0 29.5 -15.5t34 -34.5t30 -37.5t19.5 -24.5q47 -55 83 -89t36 -61q0 -18 -13.5 -30.5t-29.5 -12.5q-4 0 -28 24.5t-54.5 57.5t-61.5 65.5t-49 49.5q-29 -25 -56.5 -60 t-53 -66.5t-46 -53t-32.5 -21.5q-16 0 -26.5 16.5t-10.5 32.5zM109 166q0 -29 7 -53.5t27 -30.5q14 -6 35 -6q33 0 72 15.5t77 40t69.5 56t50.5 66.5q-12 35 -31 76t-41.5 77t-50 59.5t-54.5 23.5q-55 0 -86.5 -42t-48 -96.5t-21.5 -107.5t-5 -78z" />
<glyph unicode="&#xe3;" horiz-adv-x="673" d="M4 197q-2 68 10.5 137t43 126.5t82 93.5t126.5 36q43 0 82 -20.5t70 -53.5t54.5 -74t35.5 -82q16 59 16 117q0 59 -16 115.5t-44 100.5t-65.5 71t-78.5 27q-29 0 -62 -1.5t-64.5 -6.5t-61.5 -15.5t-48 -26.5t-39 -16q-29 0 -29 31q0 35 36 60.5t85 41.5t101.5 24.5 t87.5 8.5q61 0 112.5 -32t88 -86t58 -124.5t21.5 -148.5q0 -76 -14 -144.5t-35 -117.5l-4 -11q4 -16 11 -35.5t16.5 -37t23 -28.5t31.5 -11q6 0 12 1t13 1q18 0 28 -11.5t10 -27.5q0 -23 -18 -44.5t-57 -21.5q-53 0 -87 39t-51 107q-25 -33 -58.5 -61.5t-72.5 -51t-82 -36 t-86 -13.5q-96 0 -137 48t-45 153zM45 1071q0 27 19.5 49t47 39.5t59 27t56.5 9.5q48 0 80 -27t57.5 -60t51 -60t58.5 -27q22 0 36 16t24.5 35t21 34.5t24.5 15.5q12 0 22 -9.5t10 -28.5q0 -30 -12 -54t-33.5 -43t-49 -29.5t-56.5 -10.5q-8 0 -16 1t-17 2q-39 0 -65 24.5 t-47 54t-41.5 54t-48.5 24.5q-27 0 -55.5 -16t-53.5 -43q-14 -22 -33 -21q-16 0 -27.5 13t-11.5 30zM111 174q0 -29 7 -53.5t27 -30.5q14 -6 35 -6q33 0 72 15.5t77 40t69.5 56t50.5 66.5q-12 35 -31 76t-41.5 77t-50 59.5t-54.5 23.5q-55 0 -86.5 -42t-48 -96.5 t-21.5 -107.5t-5 -78z" />
<glyph unicode="&#xe4;" horiz-adv-x="669" d="M0 197q-2 68 10.5 137t43 126.5t82 93.5t126.5 36q43 0 82 -20.5t70 -53.5t54.5 -74t35.5 -82q16 59 16 117q0 59 -16 115.5t-44 100.5t-65.5 71t-78.5 27q-29 0 -62 -1.5t-64.5 -6.5t-61.5 -15.5t-48 -26.5t-39 -16q-29 0 -29 31q0 35 36 60.5t85 41.5t101.5 24.5 t87.5 8.5q61 0 112.5 -32t88 -86t58 -124.5t21.5 -148.5q0 -76 -14 -144.5t-35 -117.5l-4 -11q4 -16 11 -35.5t16.5 -37t23 -28.5t31.5 -11q6 0 12 1t13 1q18 0 28 -11.5t10 -27.5q0 -23 -18 -44.5t-57 -21.5q-53 0 -87 39t-51 107q-25 -33 -58.5 -61.5t-72.5 -51t-82 -36 t-86 -13.5q-96 0 -137 48t-45 153zM84 1075q0 27 17.5 51t45.5 24q13 0 19 -2q29 -12 45 -33.5t16 -43.5q0 -23 -17 -38.5t-54 -15.5q-39 0 -55.5 16.5t-16.5 41.5zM107 174q0 -29 7 -53.5t27 -30.5q14 -6 35 -6q33 0 72 15.5t77 40t69.5 56t50.5 66.5q-12 35 -31 76 t-41.5 77t-50 59.5t-54.5 23.5q-55 0 -86.5 -42t-48 -96.5t-21.5 -107.5t-5 -78zM412 1077q0 27 18 49.5t51 26.5q35 0 55.5 -20.5t20.5 -53.5q0 -25 -16.5 -44.5t-51.5 -19.5q-41 0 -59 19.5t-18 42.5z" />
<glyph unicode="&#xe5;" horiz-adv-x="665" d="M6 197q-2 68 10.5 137t43 126.5t82 93.5t126.5 36q43 0 82 -20.5t70 -53.5t54.5 -74t35.5 -82q16 59 16 117q0 59 -16 115.5t-44 100.5t-66 71t-78 27q-29 0 -62 -1.5t-64.5 -6.5t-61.5 -15.5t-48 -26.5t-39 -16q-29 0 -29 31q0 35 36 60.5t85 41.5t101.5 24.5t87.5 8.5 q61 0 112.5 -32t88 -86t58 -124.5t21.5 -148.5q0 -76 -14 -144.5t-35 -117.5l-4 -11q4 -16 11 -35.5t16.5 -37t22.5 -28.5t32 -11q6 0 12 1t13 1q18 0 28 -11.5t10 -27.5q0 -23 -18 -44.5t-57 -21.5q-53 0 -87 39t-51 107q-25 -33 -58.5 -61.5t-72.5 -51t-82 -36t-86 -13.5 q-96 0 -137 48t-45 153zM113 174q0 -29 7 -53.5t27 -30.5q14 -6 35 -6q33 0 72 15.5t77 40t69.5 56t50.5 66.5q-12 35 -31 76t-41.5 77t-50 59.5t-54.5 23.5q-55 0 -86.5 -42t-48 -96.5t-21.5 -107.5t-5 -78zM186 1130q0 33 15.5 64t50.5 53q0 4 -1 5t-1 5q0 27 23.5 34 t50.5 7q68 0 115.5 -38.5t47.5 -120.5q0 -45 -19.5 -87.5t-64.5 -54.5q-37 -12 -67 -12q-72 0 -111 45t-39 100zM256 1135q0 -29 21.5 -51.5t58.5 -22.5q80 0 80 80v20.5t-2 20.5q-16 29 -41 40t-49 11q-10 0 -17.5 -1t-15.5 -3q4 -6 9 -12.5t5 -10.5q-27 -12 -38 -31.5 t-11 -39.5z" />
<glyph unicode="&#xe6;" horiz-adv-x="1118" d="M27 184q0 23 4 61t14 83t27.5 91t44 85t63.5 62.5t88 23.5q43 0 79 -20.5t66.5 -53.5t54.5 -74t42 -82l4 27q0 43 6 86q0 88 -19.5 148.5t-48 98.5t-62.5 54.5t-60 16.5q-37 0 -72 -18.5t-65.5 -40t-58.5 -40t-48 -18.5q-23 0 -37 11t-14 30q0 31 34.5 61.5t83 55 t99.5 40t84 15.5q74 0 140.5 -51.5t103.5 -169.5q47 92 123.5 157.5t175.5 65.5q66 0 105.5 -39t39.5 -137q0 -35 -8.5 -77t-28.5 -85q-31 -66 -79 -119t-98 -94t-95 -68.5t-72 -40.5l8 -16q29 -51 79 -87t114 -36q102 0 175 55.5t128 133.5q10 16 29 16q16 0 29.5 -14.5 t13.5 -34.5q0 -18 -13 -33q-25 -37 -61.5 -76t-81.5 -70.5t-98.5 -52t-110.5 -20.5q-51 0 -98 11t-88 38q-20 -10 -56 -10q-27 0 -44 10t-30.5 27.5t-23.5 41t-20 50.5q-29 -27 -66 -55.5t-78 -53t-85 -40t-87 -15.5q-45 0 -73.5 16.5t-46 42t-24.5 59.5t-7 68zM113 174 q0 -29 7 -53.5t27 -30.5q8 -4 27 -4q31 0 70 19.5t76.5 49t70.5 61.5t55 56q-16 35 -36.5 74t-43 73t-46 56.5t-48.5 22.5q-35 0 -59.5 -22.5t-41.5 -53.5t-27.5 -63.5t-12.5 -53.5q-4 -16 -11 -54t-7 -77zM610 385q0 -12 1 -25.5t3 -27.5q31 16 69 41.5t78 59.5t77.5 76 t68.5 89q20 47 28.5 81t8.5 58q0 61 -51 62q-35 0 -83 -32t-93 -88t-76 -132t-31 -162z" />
<glyph unicode="&#xe7;" horiz-adv-x="679" d="M2 457q0 86 27.5 174t101.5 166q63 68 124.5 93t115.5 25q39 0 72.5 -10t59 -24.5t40 -29t18.5 -22.5q4 -10 4 -30q0 -51 -45 -51q-14 0 -26.5 10t-28.5 23.5t-40 23.5t-60 10q-59 0 -106.5 -36t-81.5 -91t-52.5 -120.5t-18.5 -123.5q0 -86 25 -148.5t65 -101t88 -57 t97 -18.5t95 14t87 38t72 54.5t49 63.5q8 20 27 20q14 0 26.5 -13t12.5 -32q0 -14 -7 -26q-25 -43 -60.5 -84t-81.5 -74t-103.5 -52.5t-124.5 -19.5q-16 0 -50 3t-76 17.5t-85 43t-79 78t-58.5 124t-22.5 183.5zM203 -211q0 4 1 5t1 5q6 27 31 27q14 0 26 -16.5t26.5 -36 t35 -36t51.5 -16.5q25 0 38 13.5t13 23.5q0 16 -16.5 37t-35 46.5t-34.5 58t-16 75.5t13 75t34 32q27 0 55 -59q0 -31 6 -58q4 -23 12.5 -46t24.5 -38q18 -16 30.5 -42.5t12.5 -57.5q0 -55 -44 -98t-106 -43q-35 0 -64.5 15t-51 37.5t-32.5 48.5t-11 48z" />
<glyph unicode="&#xe8;" horiz-adv-x="606" d="M55 387q0 88 26.5 178t75.5 162t118 118t153 46q66 0 101.5 -43t25.5 -141q-6 -74 -44 -143.5t-93.5 -131t-121 -112t-126.5 -84.5l8 -17q29 -51 59.5 -87t93.5 -36q51 0 105.5 20.5t103.5 52.5t91 71t69 75q14 18 29 19q10 0 10 -14.5t-4 -30.5q-16 -47 -58.5 -97.5 t-98.5 -93.5t-118.5 -70.5t-117.5 -27.5q-156 0 -221.5 104.5t-65.5 282.5zM150 352q-1 -27 1 -41q47 31 102.5 79t102.5 105.5t78 120t31 123.5t-52 62q-35 0 -80 -32t-86 -87t-68.5 -130t-27.5 -161q0 -12 -1 -39zM159 1403q0 16 14.5 24.5t26.5 8.5q33 0 56 -37 q23 -39 40 -56.5t29.5 -26.5t18.5 -16.5t6 -27.5t-15.5 -36.5t-33.5 -16.5q-11 0 -17 6q-10 8 -14 12t-10 13.5t-19.5 27.5t-42.5 57q-16 20 -27.5 37t-11.5 31z" />
<glyph unicode="&#xe9;" horiz-adv-x="618" d="M55 387q0 88 26.5 178t75.5 162t118 118t153 46q66 0 101.5 -43t25.5 -141q-6 -74 -44 -143.5t-93.5 -131t-121 -112t-126.5 -84.5l8 -17q29 -51 59.5 -87t93.5 -36q51 0 105.5 20.5t103.5 52.5t91 71t69 75q14 18 29 19q10 0 10 -14.5t-4 -30.5q-16 -47 -58.5 -97.5 t-98.5 -93.5t-118.5 -70.5t-117.5 -27.5q-156 0 -221.5 104.5t-65.5 282.5zM92 1266q0 10 4 16q6 8 7 13t7 14.5t21.5 27t50.5 52.5q16 16 35.5 28.5t36.5 12.5q16 0 25 -12.5t9 -22.5q0 -4 -12 -31t-32.5 -59.5t-47 -58t-55.5 -25.5q-18 0 -33.5 14t-15.5 31zM150 352 q-1 -27 1 -41q47 31 102.5 79t102.5 105.5t78 120t31 123.5t-52 62q-35 0 -80 -32t-86 -87t-68.5 -130t-27.5 -161q0 -12 -1 -39z" />
<glyph unicode="&#xea;" horiz-adv-x="624" d="M55 387q0 88 26.5 178t75.5 162t118 118t153 46q66 0 101.5 -43t25.5 -141q-6 -74 -44 -143.5t-93.5 -131t-121 -112t-126.5 -84.5l8 -17q29 -51 59.5 -87t93.5 -36q51 0 105.5 20.5t103.5 52.5t91 71t69 75q14 18 29 19q10 0 10 -14.5t-4 -30.5q-16 -47 -58.5 -97.5 t-98.5 -93.5t-118.5 -70.5t-117.5 -27.5q-156 0 -221.5 104.5t-65.5 282.5zM121 989q0 10 6 21q12 16 45 56t69.5 81t67.5 71.5t41 30.5q12 0 29.5 -15.5t34 -34.5t30 -37.5t19.5 -24.5q47 -55 83 -89t36 -61q0 -18 -13.5 -30.5t-29.5 -12.5q-4 0 -28 24.5t-54.5 57.5 t-61.5 65.5t-49 49.5q-29 -25 -56.5 -60t-53 -66.5t-46 -53t-32.5 -21.5q-16 0 -26.5 16.5t-10.5 32.5zM150 352q-1 -27 1 -41q47 31 102.5 79t102.5 105.5t78 120t31 123.5t-52 62q-35 0 -80 -32t-86 -87t-68.5 -130t-27.5 -161q0 -12 -1 -39z" />
<glyph unicode="&#xeb;" horiz-adv-x="622" d="M25 1268q0 27 17.5 51t45.5 24q13 0 19 -2q29 -12 45 -33.5t16 -43.5q0 -23 -17 -38.5t-54 -15.5q-39 0 -55.5 16.5t-16.5 41.5zM55 387q0 88 26.5 178t75.5 162t118 118t153 46q66 0 101.5 -43t25.5 -141q-6 -74 -44 -143.5t-93.5 -131t-121 -112t-126.5 -84.5l8 -17 q29 -51 59.5 -87t93.5 -36q51 0 105.5 20.5t103.5 52.5t91 71t69 75q14 18 29 19q10 0 10 -14.5t-4 -30.5q-16 -47 -58.5 -97.5t-98.5 -93.5t-118.5 -70.5t-117.5 -27.5q-156 0 -221.5 104.5t-65.5 282.5zM150 352q-1 -27 1 -41q47 31 102.5 79t102.5 105.5t78 120t31 123.5 t-52 62q-35 0 -80 -32t-86 -87t-68.5 -130t-27.5 -161q0 -12 -1 -39zM353 1270q0 27 18 49.5t51 26.5q35 0 55.5 -20.5t20.5 -53.5q0 -25 -16.5 -44.5t-51.5 -19.5q-41 0 -59 19.5t-18 42.5z" />
<glyph unicode="&#xec;" horiz-adv-x="466" d="M111 330q0 74 11 152.5t38 156.5q27 49 63 49q35 0 35 -43q0 -23 -8 -41q-23 -57 -33 -120.5t-10 -125.5q0 -92 16.5 -163.5t36.5 -92.5q14 4 31.5 3t38 2.5t42 14.5t44.5 40q10 12 21.5 18t21.5 6q25 0 24 -24q0 -12 -19.5 -40t-52 -54.5t-74.5 -47t-85 -20.5 q-33 0 -58.5 26.5t-44 70.5t-28.5 104.5t-10 128.5zM131 1059q0 16 14.5 24.5t26.5 8.5q33 0 55 -37q23 -39 40.5 -56.5t29.5 -26.5t18.5 -16.5t6.5 -27.5t-15.5 -37t-34.5 -17q-10 1 -16 7q-10 8 -14 12t-10.5 13t-19.5 27.5t-42 57.5q-16 20 -27.5 36.5t-11.5 31.5z" />
<glyph unicode="&#xed;" horiz-adv-x="389" d="M111 330q0 74 11 152.5t38 156.5q27 49 63 49q35 0 35 -43q0 -23 -8 -41q-23 -57 -33 -120.5t-10 -125.5q0 -92 16.5 -163.5t36.5 -92.5q14 4 31.5 3t38 2.5t42 14.5t44.5 40q10 12 21.5 18t21.5 6q25 0 24 -24q0 -12 -19.5 -40t-52 -54.5t-74.5 -47t-85 -20.5 q-33 0 -58.5 26.5t-44 70.5t-28.5 104.5t-10 128.5zM135 897q0 10 4 16q6 8 7 13.5t7.5 14.5t21.5 26.5t50 52.5q16 16 36 28.5t36 12.5t25.5 -12.5t9.5 -22.5q0 -4 -12.5 -30.5t-33 -59.5t-47 -58.5t-55.5 -25.5q-18 0 -33.5 14.5t-15.5 30.5z" />
<glyph unicode="&#xee;" horiz-adv-x="389" d="M-29 782q0 10 6 21q12 16 45 56t70 81t67.5 71.5t41.5 30.5q12 0 29.5 -15t34 -34.5t29.5 -38t19 -24.5q47 -55 83 -89t36 -61q0 -18 -13 -30.5t-30 -12.5q-4 0 -27.5 24.5t-54.5 57.5t-61.5 66t-48.5 49q-29 -25 -56.5 -59.5t-53.5 -66.5t-46.5 -53.5t-32.5 -21.5 q-16 0 -26.5 16.5t-10.5 32.5zM111 330q0 74 11 152.5t38 156.5q27 49 63 49q35 0 35 -43q0 -23 -8 -41q-23 -57 -33 -120.5t-10 -125.5q0 -92 16.5 -163.5t36.5 -92.5q14 4 31.5 3t38 2.5t42 14.5t44.5 40q10 12 21.5 18t21.5 6q25 0 24 -24q0 -12 -19.5 -40t-52 -54.5 t-74.5 -47t-85 -20.5q-33 0 -58.5 26.5t-44 70.5t-28.5 104.5t-10 128.5z" />
<glyph unicode="&#xef;" horiz-adv-x="389" d="M2 905q0 29 16.5 54.5t38.5 25.5q11 0 17 -2q53 -31 53 -82q0 -23 -15.5 -38t-48.5 -15t-47 16.5t-14 40.5zM111 330q0 -68 10 -128.5t28.5 -104.5t44 -70.5t58.5 -26.5q43 0 85 20.5t74.5 47t52 54.5t19.5 40q0 25 -24 24q-10 0 -21.5 -6t-21.5 -18q-23 -29 -44.5 -40 t-42 -14.5t-38 -2.5t-31.5 -3q-20 20 -36.5 92t-16.5 164q0 61 10 125t33 121q8 18 8 41q0 43 -35 43q-36 0 -63 -49q-27 -78 -38 -157t-11 -152zM285 909q0 27 15 50.5t44 27.5q31 0 48.5 -21.5t17.5 -54.5q0 -27 -13.5 -46t-44.5 -19q-35 0 -51 19.5t-16 43.5z" />
<glyph unicode="&#xf0;" horiz-adv-x="714" d="M12 438q0 68 23.5 119t63.5 87t95.5 54.5t118.5 18.5q100 0 158.5 -40t89.5 -87q37 -55 49 -127q4 16 6 42.5t2 61.5q0 63 -13 149.5t-51 171.5t-105.5 159.5t-176.5 117.5l-10 -37q-8 -29 -26.5 -60.5t-28.5 -35.5q-8 0 -23.5 9.5t-15.5 37.5q0 35 15.5 61.5t15.5 33.5 l-2 2v4q0 6 2 10q-12 2 -32 4t-38 7t-30.5 15.5t-12.5 28.5q0 16 11.5 28.5t39.5 12.5q23 0 44.5 -3t43.5 -7q18 51 36 79.5t46 28.5q29 0 29 -32q0 -16 -6 -35l-23 -62q119 -37 198 -111.5t127 -173t68.5 -216t20.5 -240.5q0 -92 -9.5 -185t-25.5 -184q-29 -25 -49.5 -34 t-42.5 -9q-47 -45 -100.5 -66.5t-108.5 -21.5q-70 0 -137.5 31t-119.5 87t-84 134t-32 172zM106 426q0 -68 26 -123t67 -95t93 -62.5t105 -22.5q51 0 99.5 22.5t83.5 71.5q0 102 -22 175.5t-83 139.5q-31 31 -77 47.5t-93 16.5q-80 0 -139.5 -42t-59.5 -128z" />
<glyph unicode="&#xf1;" horiz-adv-x="716" d="M-2 739q0 35 31 74t88 49q26 4 37 -2t17.5 -45t7.5 -119t5 -221q50 119 140 215.5t184 161.5q19 12 40 12q24 0 39 -14t19 -30q8 -54 10 -136t2 -173.5t-2 -185.5t-2 -168q84 45 109 44t14 -27.5t-47 -64.5t-74.5 -66.5t-69 -35.5t-30.5 31q0 73 5.5 161.5t9.5 181t4 184 t-8 172.5q-54 -32 -118 -94.5t-120.5 -149.5t-95 -197.5t-45.5 -237.5q0 -30 -21 -45t-41 -15q-34 0 -34 27q0 11 6 23q0 54 6.5 120.5t14 136.5t13.5 142.5t6 139.5q0 82 -6 148h-2q-32 -24 -62 -29t-30 33zM98 1056q0 24 17.5 45t43 37.5t54.5 25t52 8.5q44 0 73 -25 t52.5 -55.5t46.5 -56t54 -25.5q20 0 33 14.5t22.5 32.5t19.5 32.5t22 14.5q11 0 20.5 -8.5t9.5 -27.5q0 -27 -11.5 -49.5t-31 -40.5t-44.5 -28t-52 -10q-7 0 -14.5 1t-16.5 2q-35 0 -58.5 23t-43 50.5t-38 50.5t-45.5 23q-24 0 -50 -14.5t-49 -41.5q-12 -19 -31 -19 q-14 0 -24.5 12t-10.5 29z" />
<glyph unicode="&#xf2;" horiz-adv-x="716" d="M41 422q0 45 2 92t14.5 96t39 99.5t75.5 99.5q35 35 82 59.5t108 24.5q57 0 117 -23q8 12 25 13q18 0 26 -15l23 -30l6 -2q2 -4 10.5 -17.5t18.5 -31t20 -37t21 -37.5q23 10 52.5 25.5t49.5 15.5q27 0 27 -29q0 -16 -10.5 -31.5t-25.5 -30t-30.5 -25.5t-27.5 -20 q12 -41 19 -86t7 -94q0 -102 -25.5 -183t-71.5 -138.5t-110.5 -88t-140.5 -30.5q-49 0 -102.5 27.5t-97.5 81t-72.5 132t-28.5 183.5zM125 428q0 -51 13.5 -107.5t41 -104.5t72.5 -79t108 -31q57 0 101.5 30t75 77t47 108.5t16.5 124.5q0 76 -20 138q-16 -12 -40 -22.5 t-53 -10.5q-32 0 -57 18q-16 10 -22.5 35t-6.5 53q0 37 10.5 72t28.5 51q-39 23 -82 23q-51 0 -94 -33t-73.5 -86t-48 -119.5t-17.5 -136.5zM249 1184q0 16 14.5 24.5t26.5 8.5q33 0 56 -37q23 -39 40 -56.5t29.5 -26.5t18.5 -16.5t6 -27.5t-15.5 -36.5t-33.5 -16.5 q-11 0 -17 6q-10 8 -14 12t-10 13.5t-19.5 27.5t-42.5 57q-16 20 -27.5 37t-11.5 31zM487 674q0 -31 25 -31q14 0 35 14q-6 14 -16.5 34t-26.5 38q-16 -33 -17 -55z" />
<glyph unicode="&#xf3;" horiz-adv-x="712" d="M41 422q0 45 2 92t14.5 96t39 99.5t75.5 99.5q35 35 82 59.5t108 24.5q57 0 117 -23q8 12 25 13q18 0 26 -15l23 -30l6 -2q2 -4 10.5 -17.5t18.5 -31t20 -37t21 -37.5q23 10 52.5 25.5t49.5 15.5q27 0 27 -29q0 -16 -10.5 -31.5t-25.5 -30t-30.5 -25.5t-27.5 -20 q12 -41 19 -86t7 -94q0 -102 -25.5 -183t-71.5 -138.5t-110.5 -88t-140.5 -30.5q-49 0 -102.5 27.5t-97.5 81t-72.5 132t-28.5 183.5zM125 428q0 -51 13.5 -107.5t41 -104.5t72.5 -79t108 -31q57 0 101.5 30t75 77t47 108.5t16.5 124.5q0 76 -20 138q-16 -12 -40 -22.5 t-53 -10.5q-32 0 -57 18q-16 10 -22.5 35t-6.5 53q0 37 10.5 72t28.5 51q-39 23 -82 23q-51 0 -94 -33t-73.5 -86t-48 -119.5t-17.5 -136.5zM258 1047q0 10 4 16q6 8 7 13t7 14.5t21.5 27t50.5 52.5q16 16 35.5 28.5t36.5 12.5q16 0 25 -12.5t9 -22.5q0 -4 -12 -31 t-32.5 -59.5t-47 -58t-55.5 -25.5q-18 0 -33.5 14t-15.5 31zM487 674q0 -31 25 -31q14 0 35 14q-6 14 -16.5 34t-26.5 38q-16 -33 -17 -55z" />
<glyph unicode="&#xf4;" horiz-adv-x="727" d="M41 422q0 45 2 92t14.5 96t39 99.5t75.5 99.5q35 35 82 59.5t108 24.5q57 0 117 -23q8 12 25 13q18 0 26 -15l23 -30l6 -2q2 -4 10.5 -17.5t18.5 -31t20 -37t21 -37.5q23 10 52.5 25.5t49.5 15.5q27 0 27 -29q0 -16 -10.5 -31.5t-25.5 -30t-30.5 -25.5t-27.5 -20 q12 -41 19 -86t7 -94q0 -102 -25.5 -183t-71.5 -138.5t-110.5 -88t-140.5 -30.5q-49 0 -102.5 27.5t-97.5 81t-72.5 132t-28.5 183.5zM105 1001q0 10 6 21q12 16 45 56t69.5 81t67.5 71.5t41 30.5q12 0 29.5 -15.5t34 -34.5t30 -37.5t19.5 -24.5q47 -55 83 -89t36 -61 q0 -18 -13.5 -30.5t-29.5 -12.5q-4 0 -28 24.5t-54.5 57.5t-61.5 65.5t-49 49.5q-29 -25 -56.5 -60t-53 -66.5t-46 -53t-32.5 -21.5q-16 0 -26.5 16.5t-10.5 32.5zM125 428q0 -51 13.5 -107.5t41 -104.5t72.5 -79t108 -31q57 0 101.5 30t75 77t47 108.5t16.5 124.5 q0 76 -20 138q-16 -12 -40 -22.5t-53 -10.5q-32 0 -57 18q-16 10 -22.5 35t-6.5 53q0 37 10.5 72t28.5 51q-39 23 -82 23q-51 0 -94 -33t-73.5 -86t-48 -119.5t-17.5 -136.5zM487 674q0 -31 25 -31q14 0 35 14q-6 14 -16.5 34t-26.5 38q-16 -33 -17 -55z" />
<glyph unicode="&#xf5;" horiz-adv-x="729" d="M41 422q0 45 2 92t14.5 96t39 99.5t75.5 99.5q35 35 82 59.5t108 24.5q57 0 117 -23q8 12 25 13q18 0 26 -15l23 -30l6 -2q2 -4 10.5 -17.5t18.5 -31t20 -37t21 -37.5q23 10 52.5 25.5t49.5 15.5q27 0 27 -29q0 -16 -10.5 -31.5t-25.5 -30t-30.5 -25.5t-27.5 -20 q12 -41 19 -86t7 -94q0 -102 -25.5 -183t-71.5 -138.5t-110.5 -88t-140.5 -30.5q-49 0 -102.5 27.5t-97.5 81t-72.5 132t-28.5 183.5zM82 1065q0 25 19.5 45.5t47 37t58.5 25t56 8.5q47 0 79 -25t57 -55.5t50 -55.5t59 -25q21 0 34.5 14.5t24 32t21 32t24.5 14.5 q12 0 22 -8.5t10 -26.5q0 -27 -12 -49.5t-33.5 -40.5t-48.5 -27.5t-55 -9.5q-9 0 -16.5 0.5t-17.5 2.5q-38 0 -63.5 22.5t-46.5 50t-41 50t-49 22.5q-26 0 -54 -14.5t-53 -40.5q-14 -19 -33 -19q-16 0 -27.5 12t-11.5 28zM125 428q0 -51 13.5 -107.5t41 -104.5t72.5 -79 t108 -31q57 0 101.5 30t75 77t47 108.5t16.5 124.5q0 76 -20 138q-16 -12 -40 -22.5t-53 -10.5q-32 0 -57 18q-16 10 -22.5 35t-6.5 53q0 37 10.5 72t28.5 51q-39 23 -82 23q-51 0 -94 -33t-73.5 -86t-48 -119.5t-17.5 -136.5zM487 674q0 -31 25 -31q14 0 35 14 q-6 14 -16.5 34t-26.5 38q-16 -33 -17 -55z" />
<glyph unicode="&#xf6;" horiz-adv-x="735" d="M41 422q0 45 2 92t14.5 96t39 99.5t75.5 99.5q35 35 82 59.5t108 24.5q57 0 117 -23q8 12 25 13q18 0 26 -15l23 -30l6 -2q2 -4 10.5 -17.5t18.5 -31t20 -37t21 -37.5q23 10 52.5 25.5t49.5 15.5q27 0 27 -29q0 -16 -10.5 -31.5t-25.5 -30t-30.5 -25.5t-27.5 -20 q12 -41 19 -86t7 -94q0 -102 -25.5 -183t-71.5 -138.5t-110.5 -88t-140.5 -30.5q-49 0 -102.5 27.5t-97.5 81t-72.5 132t-28.5 183.5zM111 1063q0 27 17.5 51t45.5 24q13 0 19 -2q29 -12 45 -33.5t16 -43.5q0 -23 -17 -38.5t-54 -15.5q-39 0 -55.5 16.5t-16.5 41.5zM125 428 q0 -51 13.5 -107.5t41 -104.5t72.5 -79t108 -31q57 0 101.5 30t75 77t47 108.5t16.5 124.5q0 76 -20 138q-16 -12 -40 -22.5t-53 -10.5q-32 0 -57 18q-16 10 -22.5 35t-6.5 53q0 37 10.5 72t28.5 51q-39 23 -82 23q-51 0 -94 -33t-73.5 -86t-48 -119.5t-17.5 -136.5z M439 1065q0 27 18 49.5t51 26.5q35 0 55.5 -20.5t20.5 -53.5q0 -25 -16.5 -44.5t-51.5 -19.5q-41 0 -59 19.5t-18 42.5zM487 674q0 -31 25 -31q14 0 35 14q-6 14 -16.5 34t-26.5 38q-16 -33 -17 -55z" />
<glyph unicode="&#xf7;" horiz-adv-x="720" d="M41 372q0 33 28 43.5t85 10.5q20 0 27.5 -1t13.5 -3t16.5 -3.5t38.5 -1.5q10 0 25.5 1.5t34.5 1.5q66 0 110.5 -1.5t83.5 -1.5q29 0 55.5 1.5t57.5 3.5q59 0 59 -39q0 -10 -3 -17.5t-24.5 -11.5t-70.5 -7t-141 -3q-35 0 -86.5 1t-87.5 1q-47 0 -72 -1t-36 -3t-12 -3 t-3 -1q-33 0 -66 6t-33 28zM282 86q0 -82 78 -82q6 0 14.5 1t18.5 3q23 4 37 21.5t14 44.5q0 25 -9 43t-22.5 30.5t-27.5 18.5t-25 6q-27 0 -52.5 -23.5t-25.5 -62.5zM289 686q0 31 19.5 57.5t47.5 26.5q9 0 15 -2q35 -12 53 -38t18 -52q0 -25 -16.5 -44.5t-48.5 -19.5 q-45 0 -66.5 21.5t-21.5 50.5z" />
<glyph unicode="&#xf8;" horiz-adv-x="774" d="M14 -72q0 14 8.5 34t22.5 44l105 182q-29 55 -40.5 121t-11.5 146q0 43 4 87t17.5 89t39 91t70.5 91q35 35 82 59.5t109 24.5q47 0 92 -14l55 110q12 20 39 21q29 0 54.5 -16.5t25.5 -34.5q-6 -12 -14 -33q-8 -16 -21.5 -41t-29.5 -58q12 -27 32.5 -58.5t36.5 -63.5 q18 8 34.5 13t33.5 5q20 0 32.5 -14.5t12.5 -36.5q0 -23 -12.5 -40.5t-30.5 -17.5q-10 0 -19.5 8.5t-21.5 8.5q12 -41 19 -89t7 -102q0 -104 -25.5 -186t-71.5 -138.5t-109.5 -87t-139.5 -30.5q-49 0 -95 20.5t-89 67.5l-86 -168q-18 -33 -53 -33q-20 0 -41 10.5t-21 28.5z M174 420q0 -78 25 -141q16 31 31.5 59t29.5 51q14 27 39 72t53.5 100t58 115.5t58.5 116.5q-23 8 -49 8q-51 0 -96 -34t-78 -87t-52.5 -122t-19.5 -138zM262 180q29 -29 69 -49t85 -20q55 0 99 29.5t75 78.5t46 110.5t15 127.5q0 37 -5 72.5t-15 70.5q-27 -12 -53.5 -21.5 t-42.5 -9.5q-15 0 -19 4q-14 6 -20 19q-31 -59 -59.5 -108.5t-57.5 -96.5t-57.5 -97t-59.5 -110zM567 700q0 -20 8.5 -24t24.5 -4q-6 14 -14.5 26.5t-16.5 22.5q-2 -8 -2 -21z" />
<glyph unicode="&#xf9;" horiz-adv-x="745" d="M64 344q0 72 7 145.5t19.5 139t26 120.5t25.5 90q6 16 18 23.5t29 7.5q51 0 51 -53q-16 -47 -31.5 -107.5t-28 -127t-19.5 -133t-7 -126.5q0 -92 20.5 -150.5t67.5 -58.5t97 66t93 170t75 235.5t40 262.5q2 20 16.5 29.5t32.5 9.5q25 0 40 -14.5t15 -39.5l-4 -20 q-4 -18 -9 -71.5t-9 -122t-6 -144.5t-2 -140.5t4 -111.5t12 -55q12 -12 27.5 0t32 30.5t31 34t24.5 8.5q14 -14 4 -54t-35.5 -81t-61.5 -71.5t-73 -24.5q-41 6 -53.5 52t-11.5 106.5t8.5 123t7.5 99.5q-14 -53 -40 -119.5t-65 -126t-90 -100.5t-116 -41q-47 0 -78 29.5 t-49.5 78t-26.5 108.5t-8 124zM200 1133q0 16 14.5 24.5t26.5 8.5q33 0 56 -37q23 -39 40 -56.5t29.5 -26.5t18.5 -16.5t6 -27.5t-15.5 -36.5t-33.5 -16.5q-11 0 -17 6q-10 8 -14 12t-10 13.5t-19.5 27.5t-42.5 57q-16 20 -27.5 37t-11.5 31z" />
<glyph unicode="&#xfa;" horiz-adv-x="776" d="M68 336q0 72 7 145.5t19.5 139t26 120.5t25.5 90q6 16 18 23.5t29 7.5q51 0 51 -53q-16 -47 -31.5 -107.5t-28 -127t-19.5 -133t-7 -126.5q0 -92 20.5 -150.5t67.5 -58.5t97 66t93 170t75 235.5t40 262.5q2 20 16.5 29.5t32.5 9.5q25 0 40 -14.5t15 -39.5l-4 -20 q-4 -18 -9 -71.5t-9 -122t-6 -144.5t-2 -140.5t4 -111.5t12 -55q12 -12 27.5 0t32 30.5t31 34t24.5 8.5q14 -14 4 -54t-35.5 -81t-61.5 -71.5t-73 -24.5q-41 6 -53.5 52t-11.5 106.5t8.5 123t7.5 99.5q-14 -53 -40 -119.5t-65 -126t-90 -100.5t-116 -41q-47 0 -78 29.5 t-49.5 78t-26.5 108.5t-8 124zM232 1020q0 10 4 16q6 8 7 13t7 14.5t21.5 27t50.5 52.5q16 16 35.5 28.5t36.5 12.5q16 0 25 -12.5t9 -22.5q0 -4 -12 -31t-32.5 -59.5t-47 -58t-55.5 -25.5q-18 0 -33.5 14t-15.5 31z" />
<glyph unicode="&#xfb;" horiz-adv-x="753" d="M49 336q0 72 7 145.5t19.5 139t26 120.5t25.5 90q6 16 18 23.5t29 7.5q51 0 51 -53q-16 -47 -31.5 -107.5t-28 -127t-19.5 -133t-7 -126.5q0 -92 20.5 -150.5t67.5 -58.5t97 66t93 170t75 235.5t40 262.5q2 20 16.5 29.5t32.5 9.5q25 0 40 -14.5t15 -39.5l-4 -20 q-4 -18 -9 -71.5t-9 -122t-6 -144.5t-2 -140.5t4 -111.5t12 -55q12 -12 27.5 0t32 30.5t31 34t24.5 8.5q14 -14 4 -54t-35.5 -81t-61.5 -71.5t-73 -24.5q-41 6 -53.5 52t-11.5 106.5t8.5 123t7.5 99.5q-14 -53 -40 -119.5t-65 -126t-90 -100.5t-116 -41q-47 0 -78 29.5 t-49.5 78t-26.5 108.5t-8 124zM125 991q0 10 6 21q12 16 45 56t69.5 81t67.5 71.5t41 30.5q12 0 29.5 -15.5t34 -34.5t30 -37.5t19.5 -24.5q47 -55 83 -89t36 -61q0 -18 -13.5 -30.5t-29.5 -12.5q-4 0 -28 24.5t-54.5 57.5t-61.5 65.5t-49 49.5q-29 -25 -56.5 -60t-53 -66.5 t-46 -53t-32.5 -21.5q-16 0 -26.5 16.5t-10.5 32.5z" />
<glyph unicode="&#xfc;" horiz-adv-x="735" d="M35 344q0 72 7 145.5t19.5 139t26 120.5t25.5 90q6 16 18 23.5t29 7.5q51 0 51 -53q-16 -47 -31.5 -107.5t-28 -127t-19.5 -133t-7 -126.5q0 -92 20.5 -150.5t67.5 -58.5t97 66t93 170t75 235.5t40 262.5q2 20 16.5 29.5t32.5 9.5q25 0 40 -14.5t15 -39.5l-4 -20 q-4 -18 -9 -71.5t-9 -122t-6 -144.5t-2 -140.5t4 -111.5t12 -55q12 -12 27.5 0t32 30.5t31 34t24.5 8.5q14 -14 4 -54t-35.5 -81t-61.5 -71.5t-73 -24.5q-41 6 -53.5 52t-11.5 106.5t8.5 123t7.5 99.5q-14 -53 -40 -119.5t-65 -126t-90 -100.5t-116 -41q-47 0 -78 29.5 t-49.5 78t-26.5 108.5t-8 124zM109 1043q0 27 17.5 51t45.5 24q13 0 19 -2q29 -12 45 -33.5t16 -43.5q0 -23 -17 -38.5t-54 -15.5q-39 0 -55.5 16.5t-16.5 41.5zM437 1045q0 27 18 49.5t51 26.5q35 0 55.5 -20.5t20.5 -53.5q0 -25 -16.5 -44.5t-51.5 -19.5q-41 0 -59 19.5 t-18 42.5z" />
<glyph unicode="&#xfd;" horiz-adv-x="813" d="M55 347q0 57 8.5 119.5t26.5 123t48 111.5t73 86q20 14 40.5 13t35 -12t16.5 -28.5t-14 -34.5q-31 -29 -55.5 -72.5t-42 -96t-26.5 -108.5t-9 -108q0 -74 17 -126t43 -83.5t54.5 -45t50.5 -9.5q61 12 106.5 55.5t75 105.5t47 136t27 147.5t13.5 139t6 110.5 q2 25 17.5 40.5t35.5 15.5q29 0 44.5 -51.5t23.5 -124t9 -151.5t1 -136v-78t-2 -76l45 33q20 14 35 14q14 0 14 -16q0 -20 -31 -63l-65 -86q-18 -166 -55 -287t-82 -199t-96.5 -114.5t-98.5 -36.5t-73.5 18t-39 44t-15.5 53.5t-3 45.5q0 59 29.5 123t81 128.5t120 131 t146.5 134.5q6 61 7 123.5t1 129.5q-23 -84 -52.5 -156.5t-69.5 -125.5t-93 -85t-121 -32q-66 0 -114 35t-78.5 88t-46 116.5t-15.5 121.5zM354 -383q0 -29 11.5 -47t46.5 -26q37 18 69.5 62t59 106.5t46 136.5t31.5 149q-53 -49 -101 -98t-84 -98t-57.5 -96.5t-21.5 -88.5z M420 1094q0 10 4 16q6 8 7 13t7 14.5t21.5 27t50.5 52.5q16 16 35.5 28.5t36.5 12.5q16 0 25 -12.5t9 -22.5q0 -4 -12 -31t-32.5 -59.5t-47 -58t-55.5 -25.5q-18 0 -33.5 14t-15.5 31z" />
<glyph unicode="&#xfe;" horiz-adv-x="999" d="M70 96q0 94 1 205t1 247v320v153t-1 143.5t-1 117.5v80t14 41t37 12q47 0 58 -26.5t11 -65.5q0 -53 -1 -121.5t-1 -154.5q0 -51 1 -107.5t4 -116.5q16 23 32.5 45.5t36.5 42.5q37 0 49 -22q96 59 221 59q72 0 146 -28.5t133 -88t97 -149.5t38 -215q0 -106 -36 -195.5 t-98 -154t-145 -100t-178 -35.5q-98 0 -171.5 44t-124.5 115q0 -35 -1.5 -67.5t-1.5 -61.5q0 -18 1.5 -35.5t1.5 -33.5q0 -115 -7.5 -168.5t-40.5 -53.5q-43 0 -59 54.5t-16 124.5v196zM209 432q0 -68 15.5 -131t48 -111.5t81.5 -77t115 -28.5q61 0 129 23.5t124 67.5 t92 106.5t36 138.5q0 90 -45 201q-27 63 -59.5 104t-69.5 65.5t-76 35t-76 10.5q-63 0 -117.5 -19.5t-84.5 -36.5q-55 -70 -84 -162t-29 -186z" />
<glyph unicode="&#xff;" horiz-adv-x="813" d="M90 369q0 57 8.5 119.5t26.5 123t48 111.5t73 86q20 14 40.5 13t35 -12t16.5 -28.5t-14 -34.5q-31 -29 -55.5 -72.5t-42 -96t-26.5 -108.5t-9 -108q0 -74 17 -126t43 -83.5t54.5 -45t50.5 -9.5q61 12 106.5 55.5t75 105.5t47 136t27 147.5t13.5 139t6 110.5 q2 25 17.5 40.5t35.5 15.5q29 0 44.5 -51.5t23.5 -124t9 -151.5t1 -136v-78t-2 -76l45 33q20 14 35 14q14 0 14 -16q0 -20 -31 -63l-65 -86q-18 -166 -55 -287t-82 -199t-96.5 -114.5t-98.5 -36.5t-73.5 18t-39 44t-15.5 53.5t-3 45.5q0 59 29.5 123t81 128.5t120 131 t146.5 134.5q6 61 7 123.5t1 129.5q-23 -84 -52.5 -156.5t-69.5 -125.5t-93 -85t-121 -32q-66 0 -114 35t-78.5 88t-46 116.5t-15.5 121.5zM178 1088q0 27 17.5 51t45.5 24q13 0 19 -2q29 -12 45 -33.5t16 -43.5q0 -23 -17 -38.5t-54 -15.5q-39 0 -55.5 16.5t-16.5 41.5z M389 -361q0 -29 11.5 -47t46.5 -26q37 18 69.5 62t59 106.5t46 136.5t31.5 149q-53 -49 -101 -98t-84 -98t-57.5 -96.5t-21.5 -88.5zM506 1090q0 27 18 49.5t51 26.5q35 0 55.5 -20.5t20.5 -53.5q0 -25 -16.5 -44.5t-51.5 -19.5q-41 0 -59 19.5t-18 42.5z" />
<glyph unicode="&#x152;" horiz-adv-x="1832" d="M55 664q0 156 47.5 308t147.5 269q43 0 59 -31q57 39 124 59.5t138 20.5q111 0 217.5 -58t178.5 -190q18 68 58 112t94.5 69.5t116.5 37t126 11.5q53 0 105.5 -6t98.5 -15.5t82.5 -21t61.5 -21.5q39 -18 39 -47q0 -12 -10 -21.5t-27 -9.5q-4 0 -29.5 7.5t-68.5 14.5 t-99.5 14.5t-121.5 7.5q-70 0 -133.5 -10.5t-111.5 -37t-77 -71.5t-29 -115q0 -92 34 -141t85 -72q37 14 77 20.5t81 6.5q39 0 83 -5.5t82 -15.5t63.5 -24.5t25.5 -32.5t-22.5 -28.5t-61.5 -15.5t-88 -6t-105 -1h-30.5t-30.5 2q-39 -12 -74 -35t-61.5 -55.5t-42 -77.5 t-15.5 -105q0 -96 36 -149t90.5 -78t116 -30t114.5 -5q61 0 121.5 16.5t111.5 40t88 50t49 49.5q6 12 15.5 17t19.5 5q14 0 24.5 -10t10.5 -29q0 -10 -2 -20t-10 -21q-33 -53 -85 -90t-110.5 -60.5t-116 -34.5t-102.5 -11q-43 0 -111.5 5t-137 32.5t-125 85t-70.5 162.5 q-39 -70 -90.5 -122.5t-110.5 -86t-122.5 -51t-125.5 -17.5q-111 0 -197.5 55.5t-146 147.5t-90.5 211t-31 248zM166 649q0 -109 21.5 -211t64.5 -182t108.5 -128t153.5 -48q86 0 170 41t149.5 114.5t105.5 175t40 224.5q0 119 -39 244q-31 94 -73 155.5t-91 98t-102 51 t-105 14.5q-45 0 -87 -8t-77.5 -20.5t-64.5 -26t-47 -25.5q-63 -88 -95 -212t-32 -257zM1061 662q4 2 12 10l-12 6v-16z" />
<glyph unicode="&#x153;" horiz-adv-x="1255" d="M2 428q0 45 2 92t14.5 96.5t39 99.5t75.5 99q35 35 82 59.5t109 24.5q57 0 116 -22q8 12 25 12q18 0 27 -15l22 -30l6 -2q2 -4 10.5 -18.5t19.5 -33t22.5 -40t21.5 -39.5q33 14 63 18q47 68 116 114t147 46q66 0 105.5 -39t39.5 -137q0 -35 -8.5 -77t-28.5 -85 q-31 -66 -79 -119t-98 -94t-95 -68.5t-72 -40.5l8 -16q29 -51 79 -87t114 -36q102 0 175 55.5t128 133.5q10 16 29 16q16 0 29.5 -14.5t13.5 -34.5q0 -18 -13 -33q-25 -37 -61.5 -76t-81.5 -70.5t-98.5 -52t-110.5 -20.5q-47 0 -94 11t-88 34.5t-73 58.5t-46 82 q-47 -94 -123 -135t-168 -41q-49 0 -102.5 27.5t-97.5 81t-72.5 132.5t-28.5 183zM78 424q0 -49 13 -104.5t43 -101.5t75 -75.5t110 -29.5q55 0 99.5 29.5t75 78.5t46 110.5t15.5 127.5q0 37 -5 72.5t-15 70.5q-27 -12 -53.5 -21.5t-43.5 -9.5q-14 0 -18 4q-16 6 -21.5 21.5 t-5.5 36.5q0 31 8.5 68.5t12.5 74.5q-47 29 -90 29q-51 0 -96.5 -34t-78 -88t-52 -121.5t-19.5 -137.5zM471 702q0 -20 8 -24t25 -4q-6 14 -14.5 26.5t-16.5 22.5q-2 -8 -2 -21zM651 385q0 -12 1 -25.5t3 -27.5q31 16 69 41.5t78 59.5t77.5 76t68.5 89q20 47 28.5 81t8.5 58 q0 61 -51 62q-35 0 -83 -32t-93 -88t-76 -132t-31 -162z" />
<glyph unicode="&#x178;" horiz-adv-x="1146" d="M37 1247q0 25 18.5 42.5t42.5 17.5q16 0 31.5 -9.5t26.5 -29.5q37 -72 80 -154t94 -165t110.5 -161.5t126.5 -144.5q111 162 230.5 319.5t230.5 319.5q20 29 53 29q25 0 45.5 -14.5t20.5 -34.5q0 -12 -6 -21q-109 -170 -237 -336t-245 -338q14 -12 15 -30 q0 -23 -14.5 -43.5t-36.5 -20.5q-12 0 -21 6q-70 -104 -124 -209.5t-93 -216.5q-10 -33 -29.5 -47t-38.5 -14q-20 0 -34.5 14t-14.5 37q0 16 4 27q43 131 104.5 250.5t133.5 234.5q-53 51 -106.5 115.5t-101.5 132t-91 135.5t-77 124t-56.5 97t-32.5 58q-8 14 -8 30z M360 1501q0 27 17.5 51t45.5 24q13 0 19 -2q29 -12 45 -33.5t16 -43.5q0 -23 -17 -38.5t-54 -15.5q-39 0 -55.5 16.5t-16.5 41.5zM688 1503q0 27 18 49.5t51 26.5q35 0 55.5 -20.5t20.5 -53.5q0 -25 -16.5 -44.5t-51.5 -19.5q-41 0 -59 19.5t-18 42.5z" />
<glyph unicode="&#x2c6;" horiz-adv-x="595" d="M74 1114q0 10 6 21q12 16 45 56t69.5 81t67.5 71.5t41 30.5q12 0 29.5 -15.5t34 -34.5t30 -37.5t19.5 -24.5q47 -55 83 -89t36 -61q0 -18 -13.5 -30.5t-29.5 -12.5q-4 0 -28 24.5t-54.5 57.5t-61.5 65.5t-49 49.5q-29 -25 -56.5 -60t-53 -66.5t-46 -53t-32.5 -21.5 q-16 0 -26.5 16.5t-10.5 32.5z" />
<glyph unicode="&#x2dc;" horiz-adv-x="765" d="M41 1225q0 31 22.5 57.5t54.5 47t68.5 31.5t65.5 11q55 0 92 -31.5t66.5 -70.5t58.5 -71t68 -32q25 0 41 18.5t28 41t24.5 41t28.5 18.5q14 0 25.5 -11t11.5 -34q0 -35 -14 -63.5t-39 -51t-56.5 -35t-64.5 -12.5q-10 0 -19 1t-20 3q-45 0 -74.5 29t-54 63.5t-48 63.5 t-56.5 29q-31 0 -63.5 -18.5t-61.5 -51.5q-16 -25 -39 -24q-18 0 -31.5 15t-13.5 36z" />
<glyph unicode="&#x2000;" horiz-adv-x="856" />
<glyph unicode="&#x2001;" horiz-adv-x="1712" />
<glyph unicode="&#x2002;" horiz-adv-x="856" />
<glyph unicode="&#x2003;" horiz-adv-x="1712" />
<glyph unicode="&#x2004;" horiz-adv-x="570" />
<glyph unicode="&#x2005;" horiz-adv-x="428" />
<glyph unicode="&#x2006;" horiz-adv-x="285" />
<glyph unicode="&#x2007;" horiz-adv-x="285" />
<glyph unicode="&#x2008;" horiz-adv-x="214" />
<glyph unicode="&#x2009;" horiz-adv-x="342" />
<glyph unicode="&#x200a;" horiz-adv-x="95" />
<glyph unicode="&#x2010;" d="M59 557q0 33 29 38t82 5h79.5t124 1t118 2t61.5 1q45 0 45 -41q0 -14 -9 -26.5t-30 -12.5q-100 0 -164.5 -1t-104.5 -1t-60.5 -2t-36 -2t-31 -1t-43.5 -1q-59 0 -60 41z" />
<glyph unicode="&#x2011;" d="M59 557q0 33 29 38t82 5h79.5t124 1t118 2t61.5 1q45 0 45 -41q0 -14 -9 -26.5t-30 -12.5q-100 0 -164.5 -1t-104.5 -1t-60.5 -2t-36 -2t-31 -1t-43.5 -1q-59 0 -60 41z" />
<glyph unicode="&#x2012;" d="M59 557q0 33 29 38t82 5h79.5t124 1t118 2t61.5 1q45 0 45 -41q0 -14 -9 -26.5t-30 -12.5q-100 0 -164.5 -1t-104.5 -1t-60.5 -2t-36 -2t-31 -1t-43.5 -1q-59 0 -60 41z" />
<glyph unicode="&#x2013;" d="M-33 539q0 45 35 54t107 13q25 0 44 -2t39.5 -3t47 -3t67.5 -2q18 0 39 1t47 1h67.5t39 -1t19.5 -1h11h19.5t50.5 4q37 0 55.5 -13.5t18.5 -35.5q0 -8 -3 -16.5t-15.5 -15.5t-39 -11t-75.5 -4q-29 0 -86.5 1t-108.5 1q-68 0 -112 -2t-71.5 -3t-42 -3t-22.5 -2 q-10 0 -14 2q-20 6 -40.5 6t-37 1t-27 7t-12.5 27z" />
<glyph unicode="&#x2014;" horiz-adv-x="1036" d="M-25 547q0 45 34 54t106 13q27 0 39 -2t24 -3t32.5 -3t61.5 -2q14 0 30.5 1t37.5 1q53 0 117.5 -1t132 -3t133 -3t121.5 -1q37 0 67.5 1t53.5 3q35 0 51 -15.5t16 -35.5q0 -16 -2 -24.5t-15.5 -12.5t-41 -5t-76.5 -1t-123 1t-160 2t-180 2t-184 1q-57 0 -87 -2t-43.5 -3 t-16.5 -3t-5 -2q-4 0 -8 2q-18 6 -38.5 6t-38 1t-28 7t-10.5 27z" />
<glyph unicode="&#x2018;" horiz-adv-x="335" d="M59 1176q0 66 43 120t131 60q39 0 39 -31q0 -10 -9 -20.5t-27 -14.5q-47 -8 -68 -21.5t-28 -29.5t-7 -31.5t-6 -25.5q0 33 39 32q35 0 56.5 -19t21.5 -52q0 -39 -30 -69t-71 -30q-20 0 -35.5 13.5t-26.5 33t-16.5 43t-5.5 42.5z" />
<glyph unicode="&#x2019;" horiz-adv-x="368" d="M104 1249q0 37 31 68t72 31q20 0 36.5 -14.5t29 -36t18.5 -46t6 -45.5q0 -59 -32 -107t-118 -75q-37 0 -36 23q0 27 36 45q55 27 67.5 48t12.5 44q0 16 -6 26q0 -33 -39 -32q-33 0 -55.5 19.5t-22.5 51.5z" />
<glyph unicode="&#x201a;" horiz-adv-x="401" d="M121 -100q0 10 8 19t25 11q41 12 61.5 37t20.5 43q-1 9 -5 17q0 -29 -32 -29q-29 0 -51.5 19.5t-22.5 50.5q0 41 26.5 62.5t55.5 21.5q47 0 71.5 -39t24.5 -82q0 -25 -10 -52.5t-28.5 -51t-47.5 -39t-65 -15.5q-31 0 -31 27z" />
<glyph unicode="&#x201c;" horiz-adv-x="567" d="M55 1196q0 29 10.5 57.5t34 52t59.5 38t87 14.5q16 0 24.5 -9.5t8.5 -19.5q0 -12 -9.5 -22.5t-27.5 -14.5q-72 -12 -94.5 -35.5t-22.5 -46.5q0 -16 6 -24q0 33 39 33q35 0 61.5 -28t26.5 -61q0 -39 -37 -59t-78 -20q-20 0 -36.5 15t-27.5 36.5t-17.5 47.5t-6.5 46z M293 1200q0 51 46 96t142 45q43 0 43 -30q0 -12 -9 -22.5t-28 -12.5q-74 -6 -99.5 -26.5t-25.5 -37.5q1 -12 7 -18q0 16 10 22.5t27 6.5q35 0 66.5 -23.5t31.5 -50.5q0 -12 -11.5 -28.5t-29 -32t-39 -26.5t-41.5 -11q-18 0 -34.5 16t-29 39.5t-19.5 49.5t-7 44z" />
<glyph unicode="&#x201d;" horiz-adv-x="565" d="M53 1077q0 10 9.5 20.5t29.5 14.5q53 8 79 28.5t26 39.5q0 8 -2 12q0 -16 -10.5 -22.5t-24.5 -6.5q-18 0 -37 10.5t-32 25.5t-22.5 34.5t-9.5 36.5q0 33 40 55.5t77 22.5q16 0 31.5 -15.5t28 -37t20.5 -47t8 -46.5q0 -51 -41 -99t-129 -54q-41 0 -41 28zM297 1067 q0 33 45 43q57 12 76.5 28.5t19.5 32.5q0 13 -6 23q0 -33 -39 -33q-33 0 -61.5 24.5t-28.5 57.5q0 43 34 66.5t71 23.5q20 0 37.5 -14t30.5 -35.5t20.5 -45.5t7.5 -42q0 -57 -40 -104.5t-126 -53.5q-41 2 -41 29z" />
<glyph unicode="&#x201e;" horiz-adv-x="565" d="M88 -111q0 12 8 22.5t25 10.5q41 12 60.5 39t19.5 47q0 9 -4 17q0 -16 -9.5 -22.5t-21.5 -6.5q-29 0 -47.5 18.5t-18.5 46.5q0 39 25 60.5t53 21.5q20 0 36.5 -12t27 -31.5t16.5 -42t6 -41.5q0 -23 -9 -48t-27.5 -48.5t-47 -39t-67.5 -15.5q-12 0 -18.5 7t-6.5 17z M324 51q0 33 19 55.5t48 22.5q25 0 43.5 -12.5t30.5 -31.5t18 -42t6 -41q0 -20 -8 -46t-23.5 -49.5t-39 -38.5t-53.5 -15q-16 0 -25.5 10t-9.5 22q0 8 6 15.5t20 9.5q45 23 60.5 43t15.5 37q0 16 -10 26q0 -29 -35 -28q-63 0 -63 63z" />
<glyph unicode="&#x2022;" horiz-adv-x="579" d="M82 676q0 37 16.5 69.5t45 58t66.5 41t79 15.5q51 0 94 -19.5t74.5 -48t49 -61.5t17.5 -59q0 -39 -17.5 -80t-46 -74t-63.5 -53.5t-71 -20.5q-17 0 -27 2q-41 6 -76 10.5t-35 22.5q0 2 1 3t1 3q-27 8 -47 29t-33.5 48.5t-20.5 57t-7 56.5zM178 678q0 -41 25.5 -80 t91.5 -55q16 0 34.5 15t28.5 28q-49 0 -84.5 24.5t-35.5 61.5q0 29 35.5 49t74.5 20q25 0 47 -14q-6 29 -44 45t-77 16q-51 0 -73.5 -31.5t-22.5 -78.5zM295 676q29 -5 41 -23q4 8 4 11q0 8 -14.5 10t-30.5 2z" />
<glyph unicode="&#x2026;" horiz-adv-x="899" d="M86 39q0 23 21.5 46.5t60.5 27.5q33 0 51.5 -16.5t18.5 -45.5q0 -23 -17.5 -42t-58.5 -19t-58.5 14t-17.5 35zM375 37q0 29 21.5 54.5t49.5 25.5q9 0 21 -4q29 -10 42 -30t13 -40q0 -23 -18.5 -40t-59.5 -17q-37 0 -53 14t-16 37zM672 41q0 29 22.5 55.5t57.5 26.5 q14 0 20 -2q29 -6 42 -24.5t13 -41.5q0 -27 -21.5 -48t-64.5 -21q-37 0 -53 16t-16 39z" />
<glyph unicode="&#x202f;" horiz-adv-x="342" />
<glyph unicode="&#x2039;" horiz-adv-x="755" d="M152 514q0 25 14 53q12 20 42 60.5t66.5 86.5t76.5 94t74 89t59.5 68.5t33.5 31.5q10 6 25.5 11.5t27.5 5.5q27 0 27 -19q0 -35 -14.5 -55t-42.5 -55q-16 -20 -60.5 -74.5t-93.5 -116t-91 -113t-52 -65.5q6 -8 30.5 -40t57.5 -77t70.5 -97t71.5 -98t59.5 -81t33.5 -47 q18 -29 19 -47q0 -16 -12.5 -25.5t-26.5 -9.5q-18 0 -29 8q-12 8 -44 43t-67.5 80t-69.5 92t-54 78q-10 14 -32 39.5t-43.5 56.5t-38.5 62.5t-17 60.5z" />
<glyph unicode="&#x203a;" horiz-adv-x="761" d="M193 117q0 18 14 26q10 6 39.5 35t67.5 69t81 85t80 85t62.5 68.5t31.5 34.5q-45 57 -107.5 110.5t-118.5 98.5t-95 78t-39 49q0 18 25.5 35.5t48.5 17.5q10 0 18 -4q8 -8 37 -33.5t67.5 -60.5t81.5 -75t83 -76.5t73 -65.5t47 -41q14 -14 15 -31q0 -12 -16.5 -31.5 t-38 -38t-42 -35t-28.5 -22.5q-23 -18 -69 -68.5t-95 -105.5t-89 -101t-53 -54q-10 -8 -26 -9q-23 0 -39 19.5t-16 40.5z" />
<glyph unicode="&#x205f;" horiz-adv-x="428" />
<glyph unicode="&#x20ac;" horiz-adv-x="1216" d="M23 549q0 39 35.5 49t93.5 12q0 29 2 56.5t6 54.5q-39 0 -70 7t-31 44q0 45 29 52t98 10q31 113 87.5 199.5t128 145t155.5 89t172 30.5q182 0 371 -124q25 -16 24 -41q0 -18 -15 -34t-38 -16t-41 19q-143 92 -287 92q-82 0 -155.5 -28.5t-132 -79t-99.5 -118t-57 -143.5 q10 -2 22.5 -2h26.5q37 0 86 1t105.5 2t115 2t111.5 1q29 0 41 -13t12 -32q0 -23 -15.5 -43t-37.5 -20h-44t-60.5 1t-90 1h-133.5q-47 0 -86 -1t-71 -1q-4 -31 -6.5 -57.5t-2.5 -55.5q18 0 77 1t138.5 2t169.5 3t170 4q29 0 41.5 -13t12.5 -32q0 -23 -6.5 -36t-29 -20 t-65.5 -9t-118 -2q-66 0 -160 1t-223 1q12 -106 54 -180t103.5 -120t138 -67.5t160.5 -21.5q109 0 217.5 29.5t200.5 80.5q6 2 14 2q29 0 29 -32q0 -39 -34 -75t-93 -64.5t-141 -46t-178 -17.5q-104 0 -200.5 30.5t-176.5 93t-136.5 159t-76.5 229.5h-37q-37 0 -68.5 6 t-31.5 35z" />
<glyph unicode="&#x2122;" horiz-adv-x="1200" d="M55 1227q0 16 27 20t61 4q25 0 49.5 -1t40.5 -1v8q0 20 33 21q27 0 43 -12l23 -17h182q10 0 14 -11t4 -26q0 -37 -21.5 -47t-45.5 -10q-35 0 -65.5 3t-67.5 5q2 -53 4 -107.5t2 -105.5q0 -68 -2 -112.5t-9.5 -70.5t-21.5 -36t-37 -10t-44 10t-21 25q0 6 12 16 q16 12 21.5 71.5t5.5 137.5q0 45 -1 91t-3 89q-33 0 -62 -3t-57 -3q-27 0 -45.5 13.5t-18.5 58.5zM582 754q0 47 1 113.5t1 137t1 138t1 117.5q6 10 30.5 17t53.5 7q45 0 65 -16q20 -25 39 -66t33 -84t25.5 -82t21.5 -59q12 16 25.5 58t28 90.5t29.5 90t32 58.5q14 10 53 10 q29 0 53.5 -9t28.5 -34q0 -106 -3 -213.5t-3 -218.5v-37q0 -20 -7.5 -33.5t-35.5 -13.5q-23 0 -33 19.5t-12 48t0 60.5t2 54v172v53.5t-2 43.5q-14 -29 -33 -85.5t-39 -111.5t-39.5 -97t-36.5 -42q-16 0 -33.5 9t-27.5 25q-18 49 -38 101.5t-36 96.5t-28.5 73t-18.5 29 q-4 0 -5 -46.5t-2 -113t-2 -138t-5 -120.5q-2 -10 -17.5 -17.5t-32.5 -7.5q-14 0 -24 5t-10 18z" />
<glyph unicode="&#x25fc;" horiz-adv-x="890" d="M0 0v891h891v-891h-891z" />
<glyph unicode="&#xfb01;" horiz-adv-x="690" d="M-5 437.5q-1 19.5 13.5 37t42.5 17.5q57 2 81 11t48 29q-29 158 -20.5 301.5t36 249t68.5 160.5t82 37q25 -12 44.5 -83t17.5 -178.5t-32 -238.5t-102 -262q-2 -2 1.5 -15.5t7.5 -29.5q4 -20 8 -43q8 6 23.5 14.5t31.5 15.5t31.5 11t23.5 -2q16 -10 14.5 -25.5t-15 -32 t-38 -35t-51.5 -36.5q29 -135 36 -273.5t-11.5 -250t-64.5 -182t-121 -70.5q-59 0 -91 50t-40.5 129t4 175t40 187.5t68.5 166t88 111.5q-4 6 -7 16.5t-4 20.5t-3 17l-2 7q-35 -33 -77 -42t-71 -13q-29 -2 -44 13.5t-16 35zM101.5 -232.5q11.5 -72.5 56.5 -82.5 q47 0 71.5 45t34.5 112.5t9 145.5t-6 145.5t-12 112.5t-9 45q-53 -61 -91 -159.5t-51.5 -195t-2 -169zM242 784q-2 -90 4 -168q35 74 55.5 163t27.5 167t2.5 131t-20.5 53q-18 0 -32.5 -51t-24.5 -128t-12 -167zM391 459q0 92 12 177t35 140q20 45 54 45q18 0 30.5 -14 t12.5 -37q0 -14 -3 -22q-23 -74 -31.5 -160t-8.5 -170q0 -70 6 -129.5t20 -102.5t34.5 -66.5t49.5 -23.5q25 0 54.5 22.5t56 50.5t50 51.5t36.5 23.5q8 0 8 -15q0 -18 -17.5 -56t-48 -78t-72.5 -69.5t-91 -29.5t-84 41t-58.5 106.5t-34 148.5t-10.5 167zM500 952 q0 31 10 57.5t25.5 47t33 32t33.5 11.5q18 0 25.5 -14.5t7.5 -34.5t-6 -46t-17.5 -47.5t-29 -36t-39.5 -14.5q-11 0 -17 2q-27 6 -26 43z" />
<glyph unicode="&#xfb02;" horiz-adv-x="798" d="M-1 437.5q-1 19.5 13.5 37t42.5 17.5q57 2 81 11t48 29q-29 158 -20.5 301.5t36 249t68.5 160.5t82 37q25 -12 44.5 -83t17.5 -178.5t-31.5 -238.5t-101.5 -262q-2 -2 1 -15.5t7 -29.5q4 -20 8 -43q8 6 23.5 14.5t32 15.5t31.5 11t24 -2q16 -10 14 -25.5t-15.5 -32 t-38 -35t-51.5 -36.5q29 -135 36 -273.5t-11 -250t-64.5 -182t-121.5 -70.5q-59 0 -91 50t-40.5 129t4 175t40 187.5t68.5 166t88 111.5q-4 6 -7 16.5t-4 20.5t-3 17l-2 7q-35 -33 -77 -42t-71 -13q-29 -2 -44 13.5t-16 35zM105.5 -232.5q11.5 -72.5 56.5 -82.5 q47 0 71.5 45t35 112.5t9 145.5t-6.5 145.5t-12 112.5t-9 45q-53 -61 -91 -159.5t-51.5 -195t-2 -169zM246 784q-2 -90 4 -168q35 74 55.5 163t27.5 167t2.5 131t-20.5 53q-18 0 -32.5 -51t-24.5 -128t-12 -167zM330 61q-10 10 5 47t38.5 80t47 82t34.5 56q-27 68 -36 166 t-5 206.5t22.5 215t46 191.5t65.5 138t85 53q35 0 58.5 -47t34.5 -127t7 -184t-25.5 -218t-60.5 -229.5t-100 -218.5q8 -25 12 -58.5t13.5 -62t24.5 -49t46 -20.5q29 0 58.5 18.5t56 41t48 42t36.5 23.5q20 6 27.5 -3t8.5 -22.5t-3.5 -27t-6.5 -17.5q-49 -104 -112.5 -135 t-124.5 -31q-51 0 -80 24.5t-44 59.5t-21.5 71.5t-10.5 59.5q0 -4 -19.5 -26.5t-44 -47t-49 -42t-32.5 -9.5zM493 578.5q1 -105.5 17 -175.5q23 43 52.5 134.5t51 200t25.5 223t-23 206.5q-41 -59 -68.5 -159.5t-41.5 -212t-13 -217z" />
<glyph unicode="&#xfb03;" horiz-adv-x="1230" d="M3 437.5q-1 19.5 13.5 37t42.5 17.5q57 2 81 11t48 29q-29 158 -20.5 301.5t36 249t68.5 160.5t82 37q25 -12 44.5 -83t17.5 -178.5t-31.5 -238.5t-101.5 -262q-2 -2 1 -15.5t7 -29.5q4 -20 8 -43q8 6 23.5 14.5t32 15.5t31.5 11t24 -2q16 -10 14 -25.5t-15.5 -32 t-38 -35t-51.5 -36.5q29 -135 36 -273.5t-11 -250t-64.5 -182t-121.5 -70.5q-59 0 -91 50t-40.5 129t4 175t40 187.5t68.5 166t88 111.5q-4 6 -7 16.5t-4 20.5t-3 17l-2 7q-35 -33 -77 -42t-71 -13q-29 -2 -44 13.5t-16 35zM109.5 -232.5q11.5 -72.5 56.5 -82.5 q47 0 71.5 45t35 112.5t9.5 145.5t-6.5 145.5t-12.5 112.5t-9 45q-53 -61 -91 -159.5t-51.5 -195t-2 -169zM250 784q-2 -90 4 -168q35 74 55.5 163t27.5 167t2.5 131t-20.5 53q-18 0 -32.5 -51t-24.5 -128t-12 -167zM376 437.5q-1 19.5 13 37t43 17.5q57 2 81 11t48 29 q-29 158 -20.5 301.5t36 249t68.5 160.5t82 37q25 -12 44.5 -83t17 -178.5t-32 -238.5t-101.5 -262q-2 -2 1 -15.5t8 -29.5q4 -20 8 -43q8 6 23.5 14.5t31.5 15.5t31.5 11t23.5 -2q16 -10 14.5 -25.5t-15 -32t-38 -35t-51.5 -36.5q29 -135 36 -273.5t-11.5 -250t-64.5 -182 t-122 -70.5q-59 0 -90.5 50t-40 129t4 175t40 187.5t68.5 166t88 111.5q-4 6 -7 16.5t-4 20.5t-3 17l-2 7q-35 -33 -77 -42t-71 -13q-29 -2 -44 13.5t-16 35zM482.5 -232.5q11.5 -72.5 56.5 -82.5q47 0 71.5 45t34.5 112.5t9 145.5t-6 145.5t-12 112.5t-9 45 q-53 -61 -91 -159.5t-51.5 -195t-2 -169zM623 784q-2 -90 4 -168q35 74 55 163t27.5 167t3 131t-20.5 53q-18 0 -32.5 -51t-24.5 -128t-12 -167zM784 459q0 92 12 177t35 140q20 45 54 45q18 0 30.5 -14t12.5 -37q0 -14 -2 -22q-23 -74 -32 -160t-9 -170q0 -70 6 -129.5 t20.5 -102.5t35 -66.5t48.5 -23.5q25 0 54.5 22.5t56.5 50.5t50.5 51.5t35.5 23.5q8 0 8 -15q0 -18 -17.5 -56t-48 -78t-72.5 -69.5t-91 -29.5t-84 41t-58.5 106.5t-34 148.5t-10.5 167zM893 952q0 31 10 57.5t25.5 47t33 32t33.5 11.5q18 0 25.5 -14.5t7.5 -34.5t-6 -46 t-17.5 -47.5t-29 -36t-39.5 -14.5q-10 0 -16 2q-27 6 -27 43z" />
<glyph unicode="&#xfb04;" horiz-adv-x="1239" d="M3 437.5q-1 19.5 13.5 37t42.5 17.5q57 2 81 11t48 29q-29 158 -20.5 301.5t36 249t68.5 160.5t82 37q25 -12 44.5 -83t17.5 -178.5t-31.5 -238.5t-101.5 -262q-2 -2 1 -15.5t7 -29.5q4 -20 8 -43q8 6 23.5 14.5t32 15.5t31.5 11t24 -2q16 -10 14 -25.5t-15.5 -32 t-38 -35t-51.5 -36.5q29 -135 36 -273.5t-11 -250t-64.5 -182t-121.5 -70.5q-59 0 -91 50t-40.5 129t4 175t40 187.5t68.5 166t88 111.5q-4 6 -7 16.5t-4 20.5t-3 17l-2 7q-35 -33 -77 -42t-71 -13q-29 -2 -44 13.5t-16 35zM109.5 -232.5q11.5 -72.5 56.5 -82.5 q47 0 71.5 45t35 112.5t9.5 145.5t-6.5 145.5t-12.5 112.5t-9 45q-53 -61 -91 -159.5t-51.5 -195t-2 -169zM250 784q-2 -90 4 -168q35 74 55.5 163t27.5 167t2.5 131t-20.5 53q-18 0 -32.5 -51t-24.5 -128t-12 -167zM376 437.5q-1 19.5 13 37t43 17.5q57 2 81 11t48 29 q-29 158 -20.5 301.5t36 249t68.5 160.5t82 37q25 -12 44.5 -83t17 -178.5t-32 -238.5t-101.5 -262q-2 -2 1 -15.5t8 -29.5q4 -20 8 -43q8 6 23.5 14.5t31.5 15.5t31.5 11t23.5 -2q16 -10 14.5 -25.5t-15 -32t-38 -35t-51.5 -36.5q29 -135 36 -273.5t-11.5 -250t-64.5 -182 t-122 -70.5q-59 0 -90.5 50t-40 129t4 175t40 187.5t68.5 166t88 111.5q-4 6 -7 16.5t-4 20.5t-3 17l-2 7q-35 -33 -77 -42t-71 -13q-29 -2 -44 13.5t-16 35zM482.5 -232.5q11.5 -72.5 56.5 -82.5q47 0 71.5 45t34.5 112.5t9 145.5t-6 145.5t-12 112.5t-9 45 q-53 -61 -91 -159.5t-51.5 -195t-2 -169zM623 784q-2 -90 4 -168q35 74 55 163t27.5 167t3 131t-20.5 53q-18 0 -32.5 -51t-24.5 -128t-12 -167zM760 61q-10 10 5 47t38.5 80t47 82t34.5 56q-27 68 -36 166t-5 206.5t22.5 215t46 191.5t65.5 138t85 53q35 0 58.5 -47 t34.5 -127t7 -184t-25.5 -218t-60.5 -229.5t-100 -218.5q8 -25 12 -58.5t13.5 -62t24.5 -49t46 -20.5q29 0 58.5 18.5t56 41t48 42t36.5 23.5q20 6 27.5 -3t8.5 -22.5t-3.5 -27t-6.5 -17.5q-49 -104 -112.5 -135t-124.5 -31q-51 0 -80 24.5t-44 59.5t-21.5 71.5t-10.5 59.5 q0 -4 -19.5 -26.5t-44 -47t-49 -42t-32.5 -9.5zM923 578.5q1 -105.5 17 -175.5q23 43 52.5 134.5t51 200t25.5 223t-22 206.5q-41 -59 -69 -159.5t-42 -212t-13 -217z" />
</font>
</defs>
</svg>
