<?xml version="1.0" standalone="no"?>
<!DOCTYPE svg PUBLIC "-//W3C//DTD SVG 1.1//EN" "http://www.w3.org/Graphics/SVG/1.1/DTD/svg11.dtd" >
<svg xmlns="http://www.w3.org/2000/svg">
<metadata></metadata>
<defs>
<font id="fineliner_scriptregular" horiz-adv-x="675" >
<font-face units-per-em="2048" ascent="1536" descent="-512" />
<missing-glyph horiz-adv-x="604" />
<glyph unicode="&#xfb01;" horiz-adv-x="782" d="M582 1212q6 -12 6 -22q0 -13 -10.5 -22t-24.5 -9q-33 0 -55 35q-54 80 -109 80q-58 0 -96.5 -89t-38.5 -233q0 -42 2 -65h31q190 0 223 -47q7 16 26 28.5t33 12.5q15 0 22 -16.5t7 -26.5q0 1 -1 -4q-28 -107 -73 -107q-15 0 -23.5 12.5t-8.5 22.5q0 8 2 12q-16 -8 -25 -8 q-6 0 -10 2q-51 31 -121 31q-22 0 -76 -4q-4 -172 -4 -258q0 -256 25 -449v-10q0 -24 -12.5 -39.5t-30.5 -15.5q-15 0 -28 14t-19 43q-62 285 -96 397q-43 142 -113 301q-7 14 -7 21q0 54 187 80q1 6 7.5 122t18.5 179q18 91 67 135.5t114 44.5q61 0 120 -40t91 -108z M444 625q14 34 48 34q16 0 28 -10t12 -26q0 -11 -8 -27q-45 -83 -45 -211q0 -98 24.5 -189.5t49.5 -115.5q102 33 170 145q9 17 27 17q15 0 26.5 -12.5t11.5 -30.5q0 -14 -21 -46t-53.5 -66.5t-79 -60.5t-89.5 -26q-55 0 -98.5 112.5t-43.5 252.5q0 133 41 260zM170 528 q0 25 1 85t1 89q0 58 -2 78q-17 0 -40.5 -5.5t-35.5 -6.5q7 -15 14 -31t11.5 -27.5t10.5 -31.5t9 -28t9 -32t7 -28.5t8 -32t7 -29.5z" />
<glyph unicode="&#xfb02;" horiz-adv-x="909" d="M584 1202q6 -12 6 -22q0 -13 -10.5 -22t-24.5 -9q-33 0 -55 35q-54 80 -109 80q-58 0 -96.5 -89t-38.5 -233q0 -42 2 -65q154 0 227 -29q94 319 183 319q37 0 62 -15.5t36.5 -44t15.5 -56t4 -64.5q0 -214 -44 -380t-138 -318q23 -59 58.5 -114.5t60.5 -55.5q23 0 51 35.5 t53 70.5t39 35t26.5 -15t12.5 -32q0 -12 -4 -18q-31 -51 -61 -89t-50.5 -56t-40.5 -28.5t-28 -12t-14 -1.5q-32 0 -84 68.5t-80 126.5q-42 -60 -125 -121.5t-174 -87.5q-4 -2 -11 -2q-14 0 -24.5 23t-13.5 55q-62 285 -96 397q-43 142 -113 301q-6 12 -6 20q0 54 186 80 q3 22 6.5 77.5t6.5 103t15.5 105.5t31.5 99t57 69t90 28q61 0 120 -40t91 -108zM512 289q-63 148 -63 311q0 85 14 156l-2 2q-49 30 -121 30q-22 0 -76 -4q-4 -176 -4 -264q0 -247 21 -416q69 26 133.5 78.5t97.5 106.5zM541 518q6 -61 28 -133q136 269 136 573q0 31 -9 80 t-22 49q-10 0 -21 -28q-67 -165 -92.5 -253.5t-25.5 -184.5q0 -47 6 -103zM172 518q0 25 1 85t1 89q0 58 -2 78q-17 0 -40.5 -5.5t-35.5 -6.5q7 -15 14 -31t11.5 -27.5t10.5 -31.5t9 -28t9 -32t7 -28.5t8 -32t7 -29.5z" />
<glyph unicode="&#xfb03;" horiz-adv-x="1230" d="M985 1192q6 -12 6 -23q0 -13 -10.5 -21.5t-24.5 -8.5q-33 0 -55 35q-53 79 -108 79q-58 0 -97 -88.5t-39 -232.5q0 -43 2 -66h31q35 0 70 -2.5t74 -9.5t63.5 -21.5t24.5 -35.5q0 -19 -15.5 -35.5t-36.5 -16.5q-1 0 -4 1.5t-4 1.5q-49 30 -121 30q-21 0 -75 -4 q-4 -172 -4 -258q0 -263 24 -448v-11q0 -24 -12.5 -39.5t-30.5 -15.5q-15 0 -28 14t-19 43q-62 285 -95 396q-43 143 -114 303l-6 10q-29 10 -72 10q-19 0 -73 -4q-5 -215 -5 -258q0 -255 25 -448v-11q0 -24 -12.5 -39.5t-30.5 -15.5q-15 0 -28 14t-19 43q-62 285 -95 396 q-43 143 -114 303q-6 12 -6 20q0 54 186 80q1 6 8 122t19 179q18 91 66.5 135.5t113.5 44.5q62 0 121 -40t90 -107q6 -12 6 -23q0 -13 -10.5 -21.5t-24.5 -8.5q-33 0 -55 35q-53 79 -109 79q-58 0 -96.5 -88.5t-38.5 -232.5q0 -43 2 -66h31q128 0 199 -30q27 8 108 22 q1 6 8 122t19 179q18 91 66.5 135.5t113.5 44.5q62 0 121 -40t90 -107zM958 649q10 13 23 13q18 0 33.5 -13.5t15.5 -30.5q0 -6 -2 -10q-59 -121 -59 -250q0 -151 73 -264q40 16 55.5 36.5t27.5 54t32 59.5q8 14 27 14q15 0 28 -12t13 -27q0 -13 -8 -24q-14 -17 -31.5 -53.5 t-31.5 -63t-46.5 -48.5t-79.5 -22q-18 0 -39 5.5t-24 11.5q-101 182 -101 321q0 134 94 303zM1049 793l6 8l-2 -3q-2 10 20 57q22 48 39 48q13 0 23 -8t10 -21q0 -40 -30.5 -93.5t-57.5 -53.5q-9 0 -17 8.5t-8 20.5l6 14l-2 -2q0 8 13 25zM143 508q0 25 1 85t1 89 q0 58 -2 78q-17 0 -39.5 -5t-35.5 -7q9 -19 18 -41t14 -37t13 -43t10 -36.5t10.5 -43.5t9.5 -39zM573 508q0 25 1 85t1 89q0 58 -2 78q-17 0 -39.5 -5t-35.5 -7q9 -19 18 -41t14 -37t13 -43t10 -36.5t10.5 -43t9.5 -39.5z" />
<glyph unicode="&#xfb04;" horiz-adv-x="1417" d="M999 1192q7 -14 7 -23q0 -13 -10.5 -21.5t-24.5 -8.5q-34 0 -56 35q-53 79 -108 79q-58 0 -96.5 -88.5t-38.5 -232.5q0 -43 2 -66h31q35 0 70 -2.5t74 -9.5t63 -21.5t24 -35.5q0 -20 -15 -36t-36 -16q-1 0 -4 1.5t-4 1.5q-49 30 -121 30q-22 0 -76 -4q-4 -176 -4 -264 q0 -248 22 -434q153 121 277 260q-19 97 -19 180q0 296 220 602q13 19 32 19q2 0 6 -1t5 -1q14 -9 48.5 -18t50 -27t15.5 -62q-15 -232 -79 -409.5t-191 -327.5q15 -61 40 -116.5t52 -55.5q25 0 61 26t65 57t55.5 57t35.5 26q14 0 26.5 -11t12.5 -24q0 -11 -8 -19 q-22 -26 -46.5 -58t-37.5 -48t-47 -48t-90 -77q-6 -6 -27 -6q-42 0 -55 16q-57 104 -94 215q-129 -129 -297 -239q-12 -9 -21 -9q-17 0 -43.5 23t-34.5 59q-62 285 -95 396q-43 143 -114 303l-6 12q-31 8 -69 8q-20 0 -70 -4q-4 -172 -4 -258q0 -263 24 -448v-11 q0 -24 -12.5 -39.5t-30.5 -15.5q-15 0 -28 14t-19 43q-62 285 -95 396q-43 143 -114 303q-6 12 -6 20q0 54 187 80q1 6 7.5 122t18.5 179q18 91 67 135.5t114 44.5q62 0 120 -40t90 -107q7 -14 7 -23q0 -13 -10.5 -21.5t-24.5 -8.5q-33 0 -55 35q-53 79 -109 79 q-58 0 -96.5 -88.5t-38.5 -232.5q0 -43 2 -66h31q127 0 196 -28q25 6 105 20q1 6 7.5 122t18.5 179q18 91 66.5 135.5t113.5 44.5q62 0 121 -40t90 -107zM1040 510q0 -30 4 -92q110 145 159.5 277.5t49.5 297.5q0 72 -14 72q-10 0 -25 -27q-95 -168 -134.5 -286t-39.5 -242z M164 508q0 25 1 85t1 89q0 58 -2 78q-17 0 -40.5 -5.5t-35.5 -6.5q7 -15 14 -31t11.5 -27.5t10.5 -31.5t9 -28t9 -32t7 -28.5t8 -32t7 -29.5zM588 508q0 25 1 85t1 89q0 58 -2 78q-17 0 -40.5 -5.5t-35.5 -6.5q7 -15 14 -31t11.5 -27.5t10.5 -31.5t9 -28t9 -32t7 -28.5 t8 -32t7 -29.5z" />
<glyph horiz-adv-x="0" />
<glyph horiz-adv-x="682" />
<glyph unicode=" "  horiz-adv-x="604" />
<glyph unicode="&#x09;" horiz-adv-x="604" />
<glyph unicode="&#xa0;" horiz-adv-x="604" />
<glyph unicode="!" horiz-adv-x="391" d="M158 1264v8q0 53 51 53q27 0 49.5 -14t22.5 -31v-4q-9 -49 -18 -449t-9 -485v-37q0 -24 -9 -33.5t-38 -9.5q-5 0 -8.5 0.5l-7 1t-5 2.5t-3 3.5t-2.5 6t-1.5 7.5t-0.5 10v12.5t-0.5 15.5t-0.5 19q-1 18 -4.5 397.5t-15.5 526.5zM147 96q6 15 25 25t41 10q27 0 47.5 -14.5 t20.5 -44.5q0 -33 -19 -61.5t-49 -28.5q-25 0 -47.5 30t-22.5 64q0 8 4 20z" />
<glyph unicode="&#x22;" horiz-adv-x="452" d="M98 1079q-13 3 -17 4.5t-10.5 7.5t-8 17.5t-1.5 30.5q0 24 14.5 36.5t30.5 12.5q34 0 53 -26t19 -95q0 -100 -57 -100q-14 0 -24.5 6t-10.5 16q0 2 11.5 22.5t11.5 41.5q0 19 -11 26zM272 1079q-16 4 -21.5 6.5t-10 14.5t-4.5 37q0 59 71 59q26 0 37.5 -24t11.5 -78 q0 -60 -11.5 -99t-33.5 -39q-15 0 -27 11t-12 26q0 8 10.5 25.5t10.5 25.5q0 24 -21 35z" />
<glyph unicode="#" horiz-adv-x="1159" d="M219 836q-22 0 -22 26q0 17 10 31t26 14h181q44 155 92 283l14 31q6 18 35 18q19 0 36 -11t17 -26q0 -1 -12.5 -36.5t-39 -112.5t-50.5 -146q183 0 323 13q59 217 70 246q20 51 48 60q10 3 24 3q35 0 35 -33q0 1 -7.5 -26.5t-27.5 -95.5t-43 -144q102 12 162 12 q18 0 18 -24q0 -23 -13.5 -38.5t-41 -24t-48.5 -12.5t-59 -7.5t-49 -4.5l-104 -325q45 0 122 5t107 5q39 0 39 -37q0 -16 -7 -29t-20 -22t-28.5 -15.5t-37.5 -10t-41 -5.5t-44.5 -2.5t-42.5 -0.5t-41 0.5t-35 0.5q-9 -38 -18.5 -83.5t-15 -73.5t-13 -59t-14 -48.5 t-15.5 -33.5t-20 -22.5t-25 -6.5q-18 0 -30.5 13.5t-12.5 35.5q0 4 4 24l76 260q-46 2 -158 9t-174 8q-2 -6 -13 -51t-17 -66.5t-19 -64.5t-24 -67.5t-25.5 -52t-30.5 -40.5t-33 -13q-14 0 -23 7.5t-9 19.5q5 25 10.5 48.5t13.5 50t13.5 43t17 48t16 42.5t19.5 49t18 47 q-100 0 -174 -10q-12 0 -19.5 10t-7.5 24q0 12 7.5 21t23 14.5t30.5 9t40 5.5t41.5 3t45 1.5t40.5 1.5q5 16 18 52t19 56l63 225q-29 0 -86.5 2.5t-83.5 2.5zM387 555l-16 -53q37 2 114 2q38 0 114.5 -1t113.5 -1l35 119q50 179 57 204q-33 -2 -100 -2q-76 0 -228 4 q-64 -187 -90 -272z" />
<glyph unicode="$" horiz-adv-x="940" d="M438 1300q0 24 10.5 36t26.5 12q20 0 36.5 -14t16.5 -34q0 -3 -3 -28t-3 -47q157 -9 279 -146q16 -19 16 -39q0 -16 -11.5 -26t-27.5 -10t-28 12q-99 102 -230 117q0 -269 2 -412l43 -12q53 -18 103.5 -45t100 -65.5t80 -90.5t30.5 -109q0 -141 -107 -239.5t-256 -98.5 v-36q0 -62 -10 -77q-9 -14 -31 -14q-8 0 -13.5 0.5t-10 3t-7.5 4.5t-5 8t-2.5 10.5t-1 14t-0.5 16.5t-0.5 21t-0.5 25v24q-146 6 -257 67t-111 130q0 37 40 37q28 0 56 -21q55 -54 126 -90t146 -43q-2 35 -2 115q0 29 2 144.5t2 248.5q-38 14 -90 30.5t-81.5 26.5t-65.5 25 t-55.5 30t-38 37.5t-26 53t-7.5 70.5q0 67 37 123.5t95 91.5t117.5 56.5t116.5 29.5v77zM739 276q43 51 43 107q0 123 -254 231q0 -25 2 -74.5t2 -72.5q0 -160 -12 -324q122 16 219 133zM240 834q77 -38 198 -80v379q-88 -9 -176 -69.5t-88 -139.5q0 -64 66 -90z" />
<glyph unicode="%" horiz-adv-x="878" d="M690 997q28 31 66 31q26 0 26 -20q1 -4 -54 -102t-136 -236.5t-143 -237.5q-23 -38 -67.5 -112.5t-70.5 -116.5t-69 -101.5t-88 -109.5q-2 -4 -13 -4q-13 0 -29 9.5t-16 18.5q0 3 4 7q28 57 88.5 152t69.5 110q18 31 135 229q55 78 162.5 266.5t134.5 216.5zM590 385 q34 12 63 12q60 0 90.5 -45.5t30.5 -113.5q0 -39 -8 -70q8 8 18 8q11 0 11 -12q-83 -162 -189 -162q-67 0 -114.5 57t-47.5 119q0 61 40.5 117.5t105.5 89.5zM154 987q49 35 92 35q57 0 92 -57.5t37 -133.5q9 9 16 9l12 -2q-12 -84 -53.5 -144.5t-111.5 -60.5 q-72 0 -126.5 60.5t-54.5 123.5q0 48 26 94t71 76zM184 739q36 -26 74 -26q28 0 44.5 44t16.5 79q0 45 -20.5 78.5t-54.5 33.5q-44 0 -78.5 -41t-34.5 -76q0 -52 53 -92zM551 123q20 -26 55 -45q47 21 79 75t32 103q0 28 -13 44.5t-38 16.5q-60 0 -100 -43.5t-40 -87.5 q0 -35 25 -63z" />
<glyph unicode="&#x26;" horiz-adv-x="1062" d="M1032 61q10 -13 10 -22q0 -21 -23 -36t-50 -15q-11 0 -43.5 23t-91.5 79t-123 131q-111 -113 -196 -174t-167 -61q-52 0 -96.5 24t-71 59.5t-41 74.5t-14.5 73q0 47 18.5 103.5t39.5 99.5t67.5 112.5t69 100.5t77.5 104q-67 131 -67 240q0 195 219 268q18 6 31 6 q25 0 43.5 -29t26 -63.5t7.5 -64.5q0 -99 -94 -291q-26 -53 -51 -90q60 -127 209 -326q59 75 109.5 153.5t72.5 113t29 34.5q16 0 31.5 -16t15.5 -39q0 -9 -3 -21t-11 -28.5t-15 -30.5t-21 -36.5t-23 -37t-28 -42t-28.5 -42t-31 -45t-30.5 -43.5q63 -78 135.5 -149.5 t108.5 -96.5zM233 170q49 -74 125 -74q69 0 146.5 57.5t142.5 147.5q-138 176 -215 309q-98 -132 -155.5 -229.5t-57.5 -163.5q0 -30 14 -47zM553 1143q-125 -41 -125 -168q0 -63 33 -150q93 145 106 269q-3 8 -4 23.5t-10 25.5z" />
<glyph unicode="'" horiz-adv-x="227" d="M70 1200q-60 12 -60 66q0 32 23.5 55.5t62.5 26.5q48 3 70 -22t22 -95q0 -65 -43 -111.5t-67 -46.5q-19 0 -19 27q0 13 11.5 43t11.5 41q0 13 -12 16z" />
<glyph unicode="(" horiz-adv-x="573" d="M430 1393q12 12 31 12q16 0 29.5 -10t13.5 -23q0 -10 -8 -18q-68 -82 -114 -152.5t-88 -166t-62.5 -214.5t-20.5 -264q0 -79 15 -154t36 -133.5t61.5 -129.5t73.5 -119.5t90 -126.5q23 -23 23 -48q0 -21 -14.5 -35t-32.5 -14q-25 0 -37 27q-160 171 -243 377.5t-83 421.5 q0 213 83.5 412.5t246.5 357.5z" />
<glyph unicode=")" horiz-adv-x="567" d="M133 1348q-8 8 -8 22q0 17 11 31t26 14q7 0 16 -6q161 -152 242.5 -359t81.5 -434q0 -235 -85 -455.5t-239 -379.5q-11 -25 -37 -25q-15 0 -26 10.5t-11 28.5q0 14 9 29q129 133 201.5 344.5t72.5 443.5q0 211 -63.5 403.5t-190.5 332.5z" />
<glyph unicode="*" horiz-adv-x="1001" d="M684 1288q20 0 37.5 -14.5t17.5 -26.5q0 -10 -16 -10q0 -19 -38 -85.5t-76 -123.5l-38 -57q64 -4 138 -4q46 0 119 8t85 8q35 0 35 -37q0 -18 -6.5 -31t-21.5 -20t-31 -10t-44 -3.5t-52 0t-62.5 2t-68.5 1.5q-78 0 -84 2q6 -7 16.5 -19t37.5 -45t47 -60t37 -55t17 -40 q33 -32 62.5 -82.5t29.5 -79.5q-17 -17 -32 -17q-25 0 -141 139t-160 212q-140 -232 -181 -269q-23 -26 -41 -26q-13 0 -21.5 13.5t-8.5 35.5q0 18 42.5 91.5t85.5 137.5l42 64h-156q-184 4 -184 41q0 35 98 35q16 0 47 -1t47 -1l139 4l27 34q-68 105 -109 160 q-71 94 -71 148q0 16 8 31.5t20 15.5q14 0 34 -28t42.5 -65.5t36.5 -50.5l117 -178q133 211 178 256z" />
<glyph unicode="+" horiz-adv-x="1077" d="M602 459l-6 -381q-1 -39 -19 -59.5t-40 -20.5q-18 0 -29.5 12.5t-11.5 34.5q0 255 -11 424q-13 0 -63.5 -1t-83.5 -1q-279 0 -279 35q0 34 37 43.5t150 9.5h235h13q10 66 10.5 198.5t10.5 205.5t46 73q39 0 39 -219q0 -53 -2 -138.5t-2 -101.5q0 -22 2 -22l14 2 q63 2 174.5 4t167.5 6q66 0 66 -41q0 -20 -16 -34.5t-41 -14.5h10q0 -1 -57 -2.5t-152 -5t-162 -6.5z" />
<glyph unicode="," horiz-adv-x="286" d="M166 23q0 -25 -29 -25q-30 0 -46.5 18t-16.5 47q0 49 17.5 70t70.5 21q94 0 94 -117q0 -65 -42.5 -114.5t-121.5 -49.5q-14 0 -22.5 7.5t-8.5 17.5q0 25 31 28q82 7 82 64q0 21 -8 33z" />
<glyph unicode="-" d="M553 604h6q19 0 29 -12t10 -29q0 -15 -10 -27t-29 -12q-54 0 -116.5 -1t-104.5 -2t-47 -1h-80q-20 0 -50.5 -2t-41.5 -2q-60 0 -60 41q0 16 6.5 25t24 13t32.5 4.5t48 0.5q337 0 383 4z" />
<glyph unicode="." horiz-adv-x="284" d="M172 168q29 -4 44 -26t15 -52q0 -40 -25.5 -71t-68.5 -31q-34 0 -51.5 19.5t-17.5 51.5q0 41 26 75t66 34h12z" />
<glyph unicode="/" horiz-adv-x="935" d="M784 1464q12 29 43 29q22 0 42 -15t20 -32q0 -8 -2 -12q-5 -9 -71.5 -157t-149.5 -324.5t-131 -266.5q-49 -92 -129 -267t-145 -323t-66 -151q-14 -31 -38 -56.5t-48 -25.5q-18 0 -27.5 10t-9.5 25q2 30 45 114q11 22 118.5 261.5t145.5 316.5q45 90 203 434t200 440z " />
<glyph unicode="0" horiz-adv-x="864" d="M590 1221q104 -51 151 -154t47 -236q0 -89 -14 -163q5 -2 9 -8t6 -16t3.5 -18t2 -22.5t0.5 -22.5v-23.5v-20.5q0 -80 -10 -153.5t-36 -146.5t-66 -126.5t-104.5 -87t-146.5 -33.5q-86 0 -154 33t-112 88.5t-73 133t-41.5 162.5t-12.5 181q0 76 10 158t37.5 176.5 t69.5 168t112.5 122.5t159.5 49q79 0 162 -41zM690 625v10q0 18 8 29q11 68 11 118q0 71 -16.5 135t-49.5 118t-89.5 86t-129.5 32q-64 0 -115.5 -39.5t-83 -101t-52.5 -141t-29.5 -153.5t-8.5 -145q0 -73 9 -141.5t30.5 -134t53.5 -114t82 -78t112 -29.5q236 0 274 352 q-2 -5 -9.5 -19t-11.5 -22t-11.5 -22t-12.5 -23t-12 -21t-12.5 -19t-11.5 -14t-11.5 -10.5t-9.5 -3.5q-13 0 -25 8.5t-12 22.5q0 17 18 41q82 117 115 277v2z" />
<glyph unicode="1" horiz-adv-x="569" d="M174 -2h-70q-26 0 -33.5 2t-7.5 10q0 80 203 80h2q0 106 2 385t2 395q0 232 -6 250q-14 -9 -42.5 -33.5t-53 -41.5t-41.5 -17q-21 0 -37 12.5t-16 30.5q0 26 37 59t91 67.5t64 43.5q44 35 72 35q31 0 31 -39q0 -165 -6.5 -576t-6.5 -571h138q18 0 28.5 -9.5t10.5 -23.5 q0 -59 -197 -59q-11 -8 -29 -8q-9 0 -23 7t-22 7q-18 0 -48 -3t-42 -3z" />
<glyph unicode="2" horiz-adv-x="768" d="M219 958q21 -18 21 -34q0 -21 -23 -38.5t-39 -17.5q-47 18 -75.5 67t-28.5 105q0 70 48 126.5t118.5 85t144.5 28.5q136 0 222.5 -82t86.5 -240q0 -98 -32.5 -199.5t-88 -193t-110.5 -168t-119 -161t-94 -134.5q29 -2 82 -2q46 0 161.5 5.5t202.5 5.5q19 0 29 -14t10 -36 q0 -25 -14 -45t-37 -20q-116 0 -279 3t-262 3q-30 0 -50.5 14.5t-20.5 38.5q0 18 28 54q182 209 255 305q243 322 243 544q0 117 -58 172.5t-145 55.5q-84 0 -153.5 -44t-69.5 -100q0 -46 47 -84z" />
<glyph unicode="3" horiz-adv-x="823" d="M193 1159q-19 0 -29 14.5t-10 36.5q0 24 12.5 43t32.5 19q71 0 221 -2t221 -2q23 0 38 -14.5t15 -36.5q0 -15 -38 -62.5t-86 -100.5t-98 -117.5t-69 -107.5q165 -6 277.5 -126.5t112.5 -276.5q0 -185 -146 -309.5t-368 -124.5h-12q-32 0 -51.5 1t-49.5 5.5t-46 17.5 t-16 33q0 18 6.5 30.5t16.5 12.5q297 0 397 66q79 44 123.5 111t44.5 151q0 72 -28.5 132t-73 97t-96 57.5t-101.5 20.5q-33 0 -75 -19.5t-58 -19.5q-23 0 -38 13.5t-15 35.5q0 17 16 43q42 65 87.5 126t72.5 93t78 88.5t67 75.5q-258 -4 -335 -4z" />
<glyph unicode="4" horiz-adv-x="843" d="M549 1235q0 18 13.5 27.5t33.5 9.5q24 0 42.5 -12.5t18.5 -34.5q-42 -307 -71 -637q9 -1 32.5 -1.5t40 -1t38.5 -5t35.5 -11.5t23.5 -20.5t10 -32.5q0 -39 -51 -39q-25 0 -61.5 5t-57.5 5h-18q-23 -314 -23 -442q0 -65 -43 -65q-27 0 -50.5 21.5t-23.5 47.5 q0 66 17.5 228t21.5 208q-221 -24 -379 -55q-2 0 -5.5 -1t-4.5 -1q-20 0 -31 15t-13 29l-1 15q50 185 135 773q40 18 68 18q17 0 27 -7t10 -18q-19 -150 -55 -376t-58 -330q150 37 317 43q6 63 26.5 299t35.5 346z" />
<glyph unicode="5" horiz-adv-x="792" d="M709 1278q18 0 28.5 -12.5t10.5 -30.5q0 -20 -13 -36.5t-35 -16.5q-80 0 -208.5 -3t-192.5 -3q-1 -14 -6 -69t-8.5 -81t-10.5 -71.5t-17.5 -84.5t-25.5 -77q93 41 175 41q67 0 129 -27.5t113 -79.5t81.5 -138t30.5 -194q0 -401 -627 -401q-50 0 -80 14t-30 55 q0 12 11 21.5t34 9.5q60 0 99.5 1t107.5 7t114.5 17t101.5 33t88.5 52.5t56.5 79t23 109.5q0 85 -24 152t-63.5 106t-85.5 58.5t-95 19.5q-121 0 -235 -96q-25 -25 -52 -25q-20 0 -34.5 9.5t-14.5 21.5q0 8 6 12q44 79 75.5 182.5t41 156t31.5 186.5h-45q-21 0 -21 41 q0 45 21 45l61 6q0 25 14 37t29 12q29 0 35 -41q102 4 166 4q39 0 119 -1t121 -1z" />
<glyph unicode="6" horiz-adv-x="731" d="M690 1339q21 0 21 -57t-21 -57q-101 -30 -210 -133t-195 -244.5t-127 -282.5q1 3 5.5 8t6.5 7q109 84 229 84q125 0 216.5 -94.5t91.5 -256.5q0 -142 -100 -225.5t-236 -83.5q-74 0 -132.5 21.5t-96 57t-62 84.5t-35 101t-10.5 109q0 165 69 325q44 99 98 189t126 178 t165 158.5t197 111.5zM252 494q-19 -19 -39 -19q-24 0 -42.5 21.5t-18.5 46.5q-23 -90 -23 -160q0 -136 72.5 -205t185.5 -69q95 0 165.5 48t70.5 128q0 119 -63 194.5t-154 75.5q-82 0 -154 -61z" />
<glyph unicode="7" horiz-adv-x="772" d="M242 586q-43 8 -43 51q0 24 14.5 43.5t34.5 19.5q6 0 41 -13t57 -13q38 0 121 18q9 30 23.5 76.5t23.5 74.5t21 66.5t19 62.5t16 53.5t14 47.5t9.5 36t6.5 29t2 17q0 10 -106 10q-226 0 -404 -35q-2 0 -5 -1t-5 -1q-20 0 -32.5 14.5t-12.5 33.5q0 38 53 54.5t125 16.5 q32 0 118.5 -5t141.5 -5q32 0 106 7t117 7q37 0 37 -32q0 -11 -18 -76q-18 -60 -64 -204.5t-73 -236.5q21 3 41 3q69 0 107 -30t38 -59q0 -15 -11 -25.5t-26 -10.5q-19 0 -37 18q-25 0 -73.5 3t-71.5 3q-9 -31 -32.5 -105t-33 -105.5t-26.5 -93t-26 -101t-18 -92t-14 -101.5 q-26 -26 -55 -26q-41 0 -41 63q0 117 139 555h-2q-66 -16 -145 -16q-37 0 -51 4z" />
<glyph unicode="8" horiz-adv-x="737" d="M299 817q9 6 20 6q21 0 33.5 -24t12.5 -56q0 -33 -11 -55l-32 -29q16 -15 29 -27.5t23 -22t25.5 -22t22.5 -18.5t29.5 -22.5t31.5 -23.5t42 -31.5t50 -36.5q79 -59 118.5 -123t39.5 -121q0 -54 -31 -97t-79 -66.5t-97.5 -35.5t-93.5 -12q-186 0 -289.5 82.5t-103.5 202.5 q0 154 131 362q-115 135 -115 289q0 86 65.5 168t167 131t204.5 49q116 0 171.5 -59.5t55.5 -143.5q0 -152 -174 -448q-24 -15 -47 -15q-25 0 -40.5 19t-15.5 51q5 13 34 64t59 104t54.5 117t24.5 106q0 28 -13 48.5t-34 30.5t-43 15t-45 5q-63 0 -137 -38t-126 -98.5 t-52 -117.5q0 -81 78 -179q26 37 57 72zM573 293q-37 44 -155 134.5t-172 141.5q-101 -140 -101 -276q0 -59 27.5 -100t73.5 -59t87.5 -25t88.5 -7q42 0 80.5 9.5t70 37.5t31.5 70q0 32 -31 74z" />
<glyph unicode="9" horiz-adv-x="741" d="M51 793q-4 36 -4 55q0 111 52.5 212.5t136.5 161.5t174 60q99 0 180 -78h8q38 0 84 -43q33 -193 33 -364q0 -124 -17 -231.5t-58.5 -209.5t-105.5 -177t-165 -124.5t-230 -60.5h-12q-26 0 -38.5 12t-12.5 29q0 14 8 26.5t18 12.5q89 11 163.5 42.5t126 75.5t92 101 t64.5 114.5t39.5 120t21 113.5t5.5 100q0 63 -8 103q-1 -5 -2.5 -14.5t-10.5 -35.5t-21 -50t-36 -53.5t-53.5 -50.5t-75.5 -35.5t-100 -14.5q-96 0 -170.5 54t-85.5 149zM471 774q59 63 81.5 136t22.5 180q-64 90 -167 90q-102 0 -185.5 -87t-83.5 -212q0 -85 48 -129.5 t122 -44.5q98 0 162 67z" />
<glyph unicode=":" horiz-adv-x="299" d="M152 762q34 -11 52.5 -36.5t18.5 -53.5q0 -26 -17 -45t-48 -19q-42 0 -65 20.5t-23 51.5q0 32 19.5 58t47.5 26q9 0 15 -2zM174 2q-24 -4 -33 -4q-37 0 -57.5 21.5t-20.5 60.5q0 36 25 61t53 25q26 0 55 -26t29 -72q0 -26 -14.5 -44.5t-36.5 -21.5z" />
<glyph unicode=";" horiz-adv-x="280" d="M143 760q38 -11 59 -37.5t21 -54.5q0 -25 -17 -41.5t-48 -16.5q-47 0 -72 22t-25 52t19.5 54t46.5 24q10 0 16 -2zM166 20q0 -26 -25 -26q-31 0 -49 25t-18 61q0 28 22 49t58 21q35 0 56 -37.5t21 -79.5q0 -62 -33.5 -108t-86.5 -46q-26 0 -43 11.5t-17 25.5q0 15 28 24 t55.5 17t27.5 23q0 4 -2 13t-2 13q0 9 8 14z" />
<glyph unicode="&#x3c;" horiz-adv-x="819" d="M276 399q-6 5 -47 32.5t-74.5 51.5t-63.5 55.5t-30 53.5q0 27 29 53q93 77 337 252.5t284 187.5q21 7 32 7q17 0 27 -8.5t10 -22.5q0 -31 -28 -60t-93 -69q-47 -29 -249.5 -175.5t-227.5 -162.5q26 -15 280.5 -205.5t293.5 -212.5q43 -25 43 -61q0 -18 -11.5 -28.5 t-31.5 -10.5q-17 0 -25 4q-45 15 -194 122.5t-261 196.5z" />
<glyph unicode="=" horiz-adv-x="929" d="M809 760h8q24 0 36.5 -11t12.5 -26q0 -18 -13 -32.5t-34 -14.5q-18 0 -18 -2l2 -4q0 -6 -53 -6q-26 0 -170 5t-187 5q-77 0 -144.5 -4t-70.5 -4h-28t-25.5 1.5t-26.5 4.5t-19 8.5t-15.5 15.5t-4.5 23q0 26 12 33.5t44 7.5h67q35 0 113 3t192 3q89 0 163 -4t100 -4 q36 0 59 2zM786 471q38 0 58 -16.5t20 -40.5q0 -13 -8.5 -22t-24.5 -9q-24 0 -85 -6t-93 -6q-45 0 -122 1t-109 1q-89 0 -153 -0.5t-95 -1t-37 -0.5q-25 0 -39.5 2.5t-26.5 13.5t-12 31q0 29 16 37t56 8q57 0 157 3t230 3q50 0 98 -2t54 -2q14 0 116 6z" />
<glyph unicode="&#x3e;" horiz-adv-x="839" d="M598 420q-107 -85 -262.5 -196t-200.5 -126q-10 -4 -29 -4q-20 0 -32.5 10t-12.5 25q0 30 41 53q54 31 288.5 211t266.5 213q-25 16 -201 152.5t-223 165.5q-11 6 -29 17l-27 16.5t-23.5 15t-21.5 15t-17.5 13.5t-15.5 14.5t-10 14t-7 15.5t-2 16q0 31 41 31q16 0 31 -5 q40 -12 279.5 -189t340.5 -261q21 -18 21 -33q0 -13 -16.5 -33.5t-44.5 -44.5t-52 -43.5t-51.5 -40t-30.5 -22.5z" />
<glyph unicode="?" horiz-adv-x="782" d="M133 1042q-6 -31 -18.5 -48t-26.5 -17t-23.5 17.5t-9.5 49.5q0 33 11.5 71.5t38.5 80.5t66.5 75t101.5 55t137 22q84 0 146.5 -18t99 -47.5t59 -72.5t30 -86t7.5 -96q0 -70 -27.5 -133.5t-68.5 -108.5t-89.5 -95.5t-89.5 -95t-68.5 -106.5t-27.5 -129q0 -10 1 -30t1 -27 q0 -47 -37 -47q-36 0 -49.5 16t-13.5 58q0 76 20 140.5t52.5 111t71.5 88.5t78 81t71.5 78.5t52.5 91.5t20 111q0 217 -237 217q-69 0 -122 -19t-84 -51t-48.5 -65.5t-24.5 -71.5zM274 111q7 20 27.5 32.5t42.5 12.5q25 0 42 -20t17 -62q0 -32 -18.5 -53t-52.5 -21 q-28 0 -46 22t-18 54q0 17 6 35z" />
<glyph unicode="@" horiz-adv-x="1251" d="M385 94q-88 104 -88 279q0 120 42 231t124 184.5t184 73.5q103 0 223 -86q1 0 5 1t6 1q41 0 41 -80q0 -32 -16.5 -131.5t-16.5 -156.5q0 -149 20 -202q18 -48 52 -48q12 0 29.5 8.5t41 31.5t43.5 57t33.5 93t13.5 131q0 81 -17.5 156.5t-56 145.5t-94.5 121.5 t-139.5 82.5t-183.5 31q-80 0 -151.5 -28.5t-125 -77t-97 -110.5t-70.5 -131t-41.5 -136.5t-14.5 -128.5q0 -70 13.5 -140t46 -142.5t81 -127.5t125 -90t170.5 -35q109 0 219 39q15 6 31 6q35 0 35 -25q0 -32 -90.5 -64t-198.5 -32q-71 0 -139 17.5t-138 62t-122.5 112 t-85.5 176t-33 245.5q0 145 50.5 276t134 223.5t193.5 146.5t226 54q240 0 397.5 -180.5t157.5 -460.5q0 -96 -33 -191.5t-94 -160t-131 -64.5q-58 0 -92 67t-45 177q-60 -125 -134 -203t-151 -78q-73 0 -139 80zM809 547q2 44 20 137v6q-97 84 -184 84q-76 0 -136 -61 t-89 -149.5t-29 -182.5q0 -58 14 -115t45 -98t72 -41q50 0 108.5 66t105.5 161.5t73 192.5z" />
<glyph unicode="A" horiz-adv-x="1241" d="M121 483q-32 0 -49 12t-17 29q0 18 17 30.5t49 12.5h33q72 217 176 404.5t231 314.5q17 21 62 21q27 0 46 -10.5t19 -32.5q74 -96 132 -219t97.5 -245.5t76.5 -243.5t89.5 -247t116.5 -223q8 -16 8 -29q0 -23 -14 -41t-35 -18q-27 0 -58.5 45.5t-63.5 124.5t-54 140 t-46 135q-8 24 -11 34q-108 -20 -260 -20q-84 0 -242.5 9.5t-173.5 10.5q-86 -264 -119 -461q0 -20 -13 -30.5t-32 -10.5q-17 0 -30 10.5t-13 30.5q15 223 84 467h-6zM541 1130q-135 -224 -260 -563h618q-15 41 -41 158q-20 89 -52 167.5t-63 128t-61 86.5t-49.5 53 t-26.5 16q-19 0 -65 -46z" />
<glyph unicode="B" horiz-adv-x="1124" d="M178 1040q33 47 62 47q26 0 26 -32q0 -19 -8 -35q-143 -266 -143 -537q0 -85 13.5 -150t31 -108t55.5 -72t67 -43.5t87 -22t92 -8.5t105 -1h20q51 0 102 5.5t112.5 23.5t107.5 45.5t77 76.5t31 113q0 109 -75 198t-196 136q-93 -60 -222 -88.5t-236 -28.5q-22 0 -35 1.5 t-32.5 7.5t-29.5 22t-10 41q0 24 27 33q66 49 166 77.5t209 28.5q57 0 125 -10l10 8q55 61 55 137q0 118 -103 194.5t-263 76.5q-82 0 -162.5 -21t-129 -42t-53.5 -21q-19 0 -32 13t-13 32q0 42 83.5 76.5t176.5 49.5t156 15q87 0 166 -22.5t143.5 -66.5t103 -117.5 t38.5 -166.5q0 -103 -70 -176q97 -33 165.5 -103.5t97 -144t28.5 -143.5q0 -94 -45 -166.5t-122.5 -115t-173.5 -64t-206 -21.5q-84 0 -157.5 12t-144 38.5t-121.5 77.5t-73 122q-32 100 -32 238q0 164 43.5 328t105.5 253zM356 655q160 0 267 52q-16 2 -52 2 q-118 0 -215 -54z" />
<glyph unicode="C" horiz-adv-x="1097" d="M1022 1171q25 -17 25 -41q0 -19 -16 -34t-38 -15t-41 19q-137 88 -286 88q-179 0 -321 -112t-175 -285q-23 -118 -23 -220q0 -128 36.5 -223t101 -149.5t143.5 -80.5t174 -26q219 0 424 115q6 2 14 2q29 0 29 -33q0 -78 -129.5 -140.5t-316.5 -62.5q-140 0 -263 50 t-204 161q-129 177 -129 396q0 122 37 235t88 189q84 128 222 203t294 75q186 0 354 -111z" />
<glyph unicode="D" horiz-adv-x="1153" d="M143 115v84q0 176 5.5 545.5t5.5 426.5q-54 -12 -106.5 -32t-80.5 -33.5t-30 -13.5q-19 0 -35.5 23t-16.5 48q0 31 45.5 59t145.5 48t235 20q140 0 260 -30t206 -81.5t152.5 -118t106.5 -142.5t60 -151.5t20 -148.5q0 -120 -39 -224.5t-104 -178t-148.5 -126.5t-174 -78 t-179.5 -25q-128 0 -190 59q-1 0 -4 1t-5 1q-5 0 -29.5 -6t-39.5 -6q-58 0 -60 80zM584 1159q-90 33 -222 33q-38 0 -104 -4q-1 -55 -5.5 -363.5t-4.5 -427.5v-100t6.5 -56.5t9 -30t21.5 -23.5t30 -33q35 -41 156 -41q71 0 145 16.5t148 54.5t131 93t93 138.5t36 184.5 q0 180 -121 333.5t-319 225.5z" />
<glyph unicode="E" horiz-adv-x="1036" d="M918 1208q45 -17 45 -47q0 -13 -11 -22t-32 -9q-1 0 -21.5 4.5t-55 11t-78 13t-102.5 11t-116 4.5q-408 0 -408 -236q0 -161 137 -211q86 27 187 27q97 0 196 -22.5t99 -55.5t-80.5 -42t-243.5 -9q-49 0 -72 2q-99 -29 -161 -95.5t-62 -175.5q0 -42 9.5 -77.5t24 -61 t38.5 -45.5t47 -33t56.5 -22.5t59 -14t62.5 -7t59.5 -3t57.5 -0.5q134 0 267.5 53.5t166.5 102.5q14 22 39 22q18 0 30.5 -11.5t12.5 -29.5q0 -19 -14 -39q-70 -95 -215 -145.5t-269 -50.5q-45 0 -78.5 1.5t-92 9t-102 21.5t-94 42t-83 66t-54.5 98.5t-22 136.5 q0 205 129 303q-139 70 -139 246q0 354 477 354q115 0 229 -19.5t177 -44.5z" />
<glyph unicode="F" horiz-adv-x="905" d="M12 492h-4q-24 0 -24 32q0 8 1 14t4 11.5t5.5 9.5t8.5 8t9.5 6t13 5.5t14 5t17 5t17.5 5.5q0 29 -2 86t-2 84q0 114 23.5 202.5t92.5 170.5q147 174 394 174q117 0 210 -38.5t93 -82.5q0 -21 -16.5 -37t-39.5 -16q-17 0 -32 12q-107 74 -220 74q-146 0 -288 -136 q-119 -114 -119 -331q0 -60 10 -152q102 12 238 12q411 0 411 -69q0 -17 -13 -29t-38 -12q-2 0 -6 1t-6 1q-137 20 -289 20q-130 0 -287 -16q7 -141 32.5 -270.5t51.5 -186.5q2 -4 2 -14q0 -19 -18.5 -34t-40.5 -15q-35 0 -67 89t-51 203.5t-23 213.5z" />
<glyph unicode="G" horiz-adv-x="1230" d="M512 547q-13 3 -23 20.5t-10 30.5q0 33 43 33q11 0 18.5 -4t15 -9.5t40.5 -9.5t88 -4q333 0 430 51q18 9 35 9q20 0 34.5 -12.5t19.5 -25.5l5 -12q0 -85 -28.5 -240.5t-28.5 -199.5v-37q0 -38 5 -57t22 -53q0 -20 -18 -32.5t-40 -12.5q-57 0 -57 127q0 59 8 118t16 95.5 t27 111.5q-100 -169 -301.5 -299.5t-382.5 -130.5q-82 0 -154.5 37t-129.5 105.5t-90 175.5t-33 239q0 125 44 240.5t119 203.5t171 154.5t205 101.5t216 35q183 0 336 -108q21 0 21 -27q0 -20 -18.5 -34.5t-33.5 -14.5q-7 0 -16 14q-143 78 -279 78q-96 0 -192.5 -28.5 t-183.5 -86.5t-154.5 -137t-107 -188t-39.5 -232q0 -97 31 -178t80.5 -131.5t108.5 -78t118 -27.5q167 0 341.5 126t264.5 279q-36 -8 -64 -8q-8 0 -24 1t-25 1q-13 0 -68.5 -2t-93.5 -2q-164 0 -268 35z" />
<glyph unicode="H" horiz-adv-x="1073" d="M102 604q-24 6 -24 49q0 34 19.5 41.5t76.5 7.5q2 33 2 101q0 148 -19 264.5t-53 116.5q-6 0 -26.5 -6.5t-36.5 -6.5q-29 0 -48.5 15.5t-19.5 36.5q0 27 42 52t106 25q42 0 72 -20t49.5 -57.5t30.5 -102.5t15.5 -143.5t4.5 -190.5v-88h14q126 -4 322 -4q182 0 248 2 q1 56 1 155q1 271 12.5 358t59.5 87q27 0 49.5 -15t22.5 -34q0 -2 -20.5 -340t-20.5 -528v-24.5v-33v-36t1 -40t2.5 -38t3.5 -37t5 -30.5t7.5 -24.5t9.5 -13.5q20 -15 20 -49q0 -17 -15.5 -32t-51.5 -15q-60 0 -73 113t-13 454v27q-159 -8 -422 -8h-168q-4 -128 -37 -563 q-3 -47 -53 -47q-25 0 -45.5 17t-20.5 46q0 71 17.5 264.5t21.5 286.5q-48 0 -68 8z" />
<glyph unicode="I" horiz-adv-x="421" d="M281 78q46 -3 68 -20t22 -38q0 -13 -8 -22.5t-19 -9.5q-7 0 -37 -0.5t-49.5 0t-51.5 1t-53.5 4t-43 8.5t-32.5 13.5t-11 20.5q0 37 79 51q5 0 5 154v338q0 127 7 328t7 233q0 30 -8.5 43t-18 13.5t-18 12.5t-8.5 41q0 19 42 27t78 8q58 0 99 -18t41 -43q0 -32 -70 -58 q-29 -11 -39 -155.5t-10 -425.5q0 -121 9.5 -313t19.5 -193z" />
<glyph unicode="J" horiz-adv-x="1234" d="M461 1186q-17 6 -29 26t-12 41q0 23 14.5 38.5t44.5 15.5q56 0 139.5 -16.5t159.5 -16.5q20 0 87.5 6t113.5 6q48 0 86.5 -9t52.5 -19l15 -9q59 -77 59 -340q0 -206 -39 -405t-106 -281q-79 -109 -196.5 -168t-254.5 -59q-149 0 -300 73.5t-286 223.5q-30 30 -30 61 q0 24 17.5 38t43.5 14q31 0 57 -23q104 -135 233.5 -197.5t262.5 -62.5q95 0 172.5 27.5t128 70.5t88.5 106t58.5 123t32.5 132t15 123.5t3 107.5q0 369 -103 369q-63 0 -169 -6.5t-146 -6.5q-167 0 -213 17z" />
<glyph unicode="K" horiz-adv-x="1046" d="M815 1311q66 0 66 -47q0 -19 -11 -41q-102 -83 -232.5 -201t-226.5 -195t-212 -147q126 -42 231 -95.5t210 -137t164 -137t178 -170.5q21 -21 32 -31q4 -6 4 -23q0 -30 -27 -58t-59 -28q-28 0 -45 20q-38 37 -112.5 112t-120 120t-117.5 109.5t-128.5 106t-127 82 t-138.5 64.5q1 -70 8 -270t7 -301q0 -21 -15 -32t-37 -11q-24 0 -41.5 12.5t-17.5 34.5q0 136 -9 505.5t-9 502.5q0 117 7 169t21.5 67.5t48.5 15.5q51 0 68 -58q-33 -235 -33 -536q75 55 147 122t129 127.5t115.5 121t131 120.5t151.5 107z" />
<glyph unicode="L" horiz-adv-x="1015" d="M160 1251q9 25 39 25q24 0 43.5 -14.5t19.5 -34.5q0 -11 -2 -15q-35 -76 -70.5 -279.5t-35.5 -377.5q0 -146 14 -252q6 -44 24.5 -78.5t42.5 -56.5t60 -37.5t65.5 -23t71.5 -12t65 -5t58 -0.5q240 0 363 109q23 20 53 20q24 0 40.5 -12t16.5 -33q0 -22 -16 -41 q-58 -76 -187 -110.5t-282 -34.5q-69 0 -124.5 4.5t-115 18.5t-102.5 37.5t-77.5 63.5t-49.5 95q-37 157 -37 395q0 211 33.5 362.5t89.5 286.5z" />
<glyph unicode="M" horiz-adv-x="1443" d="M176 66q-3 -25 -20 -39.5t-39 -14.5q-23 0 -40.5 16t-17.5 44v8q-1 53 -6.5 309.5t-5.5 403.5q0 264 16 417q4 41 42 68t88 27q89 0 141 -80q34 -53 90.5 -218t106 -323t108 -285t100.5 -127q31 0 88.5 135t111.5 300.5t109 328t78 199.5t58 57.5t73 20.5 q34 0 59.5 -10.5t40 -37.5t23.5 -48t12.5 -67.5t4 -68.5t0.5 -77v-33q0 -87 -5.5 -266.5t-5.5 -272.5q0 -192 19 -362v-9q0 -27 -14 -41t-35 -14q-18 0 -31 9.5t-20 30t-11.5 41t-5.5 54t-1.5 57t0.5 62t1 57.5q0 87 3 266t3 257q0 168 -10 256t-37 88q-36 0 -89 -129 t-100.5 -291t-106.5 -329t-101 -224q-60 -80 -133 -80q-57 0 -105 57q-34 40 -92 208t-110.5 342t-113.5 315t-103 141q-41 0 -41 -201q0 -110 14 -398t14 -400q0 -94 -4 -129z" />
<glyph unicode="N" horiz-adv-x="1005" d="M154 70q-3 -34 -20.5 -52t-39.5 -18q-19 0 -34 12.5t-19 32.5q31 422 31 774q0 243 -15 404q0 31 24 50t60 19q58 0 88 -49q39 -66 194 -357t282.5 -521.5t144.5 -229.5q2 35 2 156q0 213 -9 506.5t-18 369.5q-2 10 -2 39q0 78 68 78q42 0 63 -26t21 -72q0 -56 -27 -56 q-7 0 -11.5 -300.5t-4.5 -483.5q0 -45 1 -120.5t1 -104.5q0 -67 -23 -99t-59 -32q-54 0 -84 51q-79 130 -228.5 401t-265.5 492t-106 221q-6 0 -6 -154q0 -56 1 -223.5t1 -261.5q0 -321 -10 -446z" />
<glyph unicode="O" horiz-adv-x="1183" d="M246 1245q50 0 65 -31q135 80 297 80q79 0 156 -24t149 -75.5t127 -125.5t88 -182t33 -236q0 -140 -48.5 -261.5t-131 -206t-194.5 -133t-236 -48.5q-98 0 -183.5 36t-147.5 98.5t-106.5 146.5t-66.5 181t-22 200q0 162 56 314.5t165 266.5zM1024 883q-117 321 -418 321 q-89 0 -174 -26t-139 -56q-69 -86 -106 -211t-37 -260q0 -111 25 -211.5t72.5 -182t124 -129.5t171.5 -48q97 0 191.5 41.5t169 113.5t120 177.5t45.5 224.5q0 121 -45 246z" />
<glyph unicode="P" horiz-adv-x="976" d="M203 51v-6q0 -21 -14.5 -32t-36.5 -11t-40.5 13t-19.5 36q-5 81 -35 343t-30 397q0 146 28 250t81.5 163.5t122 86t157.5 26.5q128 0 233.5 -37.5t171 -99.5t100.5 -136.5t35 -152.5q0 -134 -81.5 -240t-219 -163.5t-303.5 -57.5q-97 0 -198 29q-1 0 -3.5 1t-3.5 1 q7 -68 28 -206t28 -204zM129 684q0 -67 8 -127q1 0 3.5 1t4.5 1q11 0 39 -14q99 -15 176 -15q50 0 101.5 7t109.5 22t107.5 43.5t90 67t64 96t23.5 127.5q0 98 -65.5 175t-166 116t-214.5 39q-136 0 -211.5 -88.5t-75.5 -278.5q0 -32 3 -94.5t3 -77.5z" />
<glyph unicode="Q" horiz-adv-x="1241" d="M1196 84q21 -27 21 -53q0 -21 -14.5 -35t-35.5 -14q-15 0 -31.5 8.5t-38 28.5t-32.5 32.5t-37 43t-31 36.5q-172 -123 -395 -123q-138 0 -248.5 49.5t-179.5 134.5t-105 192.5t-36 229.5q0 132 39 240.5t106 179.5t147 115.5t171 62.5q-7 14 -7 31q0 19 19 32.5 t47.5 20.5t55 10t48.5 3q148 0 279.5 -104.5t209 -275t77.5 -358.5q0 -211 -138 -358q57 -55 109 -129zM965 1042q-124 119 -236 146q2 -6 2 -21q0 -29 -20.5 -49t-57.5 -20q-18 0 -58 5t-60 5q-60 0 -116.5 -17t-108.5 -54.5t-91 -92t-62.5 -135.5t-23.5 -178 q0 -68 16.5 -138.5t55 -141.5t94 -125.5t140 -89t186.5 -34.5q162 0 303 103q-19 18 -89.5 78t-114.5 104.5t-44 65.5q0 13 13.5 21.5t33.5 8.5q27 0 61 -17t79.5 -54.5t69.5 -60t75 -70.5q114 127 114 292q0 117 -45.5 256t-115.5 213z" />
<glyph unicode="R" horiz-adv-x="1241" d="M1237 84q25 -22 25 -41q0 -20 -19 -33.5t-43 -13.5q-18 0 -29 8q-87 56 -372.5 191.5t-483.5 205.5q-41 -6 -116 -10q14 -137 45 -328v-6q0 -21 -26.5 -41t-51.5 -20q-34 0 -37 35q-31 266 -39 354q-53 0 -79.5 12.5t-26.5 44.5q0 35 27 58t69 28q-6 88 -6 177 q0 226 43 364q24 83 81 136.5t124 74t147 20.5q84 0 165.5 -21t137.5 -54q110 -65 191 -174.5t81 -221.5q0 -96 -69 -176.5t-182.5 -134t-264.5 -84.5q205 -77 423 -189t286 -161zM182 528q76 -5 201 -45q237 25 389 127t152 232q0 58 -37.5 121.5t-100.5 117t-156 88.5 t-194 35q-59 0 -103.5 -19.5t-72.5 -59t-46 -83.5t-26 -109.5t-11 -121t-3 -131.5q0 -30 8 -152z" />
<glyph unicode="S" horiz-adv-x="1159" d="M1047 1094q20 -23 20 -41q0 -13 -12 -22t-29 -9q-27 0 -45 18q-72 68 -186 112t-236 44q-60 0 -127.5 -16t-129 -44.5t-102 -75.5t-40.5 -102q0 -73 84 -106q68 -26 252 -75.5t209 -57.5q53 -17 105 -38t112.5 -55t105.5 -71t75 -87t30 -103q0 -111 -82 -198t-201.5 -130 t-247.5 -43q-140 0 -276 35t-219.5 89.5t-83.5 108.5q0 39 49 39q34 0 65 -22q77 -66 203.5 -111t255.5 -45q57 0 126.5 17t134.5 47.5t109 80.5t44 109q0 42 -32.5 82.5t-89 73.5t-121 61t-141.5 52t-136.5 40.5t-120.5 32t-80 21.5q-63 18 -105 37t-77.5 47t-52.5 67.5 t-17 93.5q0 81 51 148.5t130.5 108.5t168 63t170.5 22q142 0 271 -51.5t219 -146.5z" />
<glyph unicode="T" horiz-adv-x="1341" d="M600 1227q0 22 16.5 33.5t40.5 11.5t41 -11.5t17 -33.5v-27q55 1 280 4.5t328 3.5q22 0 34.5 -13t12.5 -30q0 -36 -39 -39q-138 -14 -612 -28q10 -225 10 -428q0 -381 -29.5 -532.5t-119.5 -151.5q-26 0 -44 15t-18 38q0 29 33 55q61 46 61 432q0 102 -5.5 301t-6.5 267 q-356 -15 -547 -15q-17 0 -36 28t-19 54q0 37 41 37q79 0 276.5 1t266.5 1h18v27z" />
<glyph unicode="U" horiz-adv-x="1153" d="M1055 1309q10 0 17 -2.5t16.5 -11t15.5 -28.5t8 -50q5 -61 9.5 -552.5t4.5 -609.5q0 -26 -15 -43.5t-42 -17.5q-25 0 -40 16t-15 35l4 145q-4 -8 -12.5 -20.5t-42.5 -44.5t-77 -56.5t-120 -44.5t-168 -20q-128 0 -227 36t-160 95.5t-99.5 143.5t-53.5 170.5t-15 187.5 q0 134 26.5 284t52 233.5t38.5 107.5q19 32 53 32q19 0 33 -12.5t14 -32.5q0 -10 -2 -16l-11 -31q-11 -32 -18.5 -56.5t-20.5 -70t-22.5 -90.5t-19 -98.5t-14.5 -112.5t-5 -117q0 -106 17.5 -192t50 -145t74 -101t94 -65.5t105.5 -34t112 -10.5q55 0 99 5t90.5 20.5 t81.5 41.5t67 69t52 101.5t32 142t12 187.5q0 114 -9 253.5t-17.5 232.5t-8.5 95q0 21 19.5 36.5t36.5 15.5z" />
<glyph unicode="V" horiz-adv-x="1316" d="M35 1239q-6 15 -6 27q0 23 15 35t38 12q25 0 46 -13.5t28 -37.5q56 -193 99 -329.5t103 -297.5t127.5 -291.5t143.5 -230.5q0 -2 2 -2q18 0 102.5 138t145.5 267q166 346 301 784q10 19 37 19q26 0 47.5 -17.5t21.5 -44.5q0 -8 -4 -24q-142 -382 -293.5 -716t-273.5 -484 q-25 -31 -78 -31q-49 0 -70 27q-41 53 -83.5 123t-76 131.5t-75.5 159t-66 155t-66 172.5t-57.5 158.5t-57.5 165.5t-50 145z" />
<glyph unicode="W" horiz-adv-x="1576" d="M31 1249q0 21 17.5 34t39.5 13q44 0 47 -45q2 -53 6.5 -135t17.5 -220t31 -237q18 -103 39.5 -193t53 -181.5t74 -145t89.5 -53.5q149 0 281 446l29 97q-56 222 -56 354q0 45 3 77t13.5 71t36 60t64.5 21q27 0 45 -14t26.5 -40t11.5 -51t3 -58q0 -168 -57 -402l26 -96 q19 -68 45.5 -137.5t62 -141t79 -116.5t84.5 -45q55 0 100.5 78.5t74.5 202.5t50.5 261.5t32 270.5t15.5 213.5t5 105.5q0 19 20 31t46 12q24 0 40.5 -10.5t16.5 -32.5q0 -57 -69 -584q-20 -156 -75 -309.5t-128 -254.5t-139 -101q-63 0 -129.5 75.5t-117 181t-87.5 228.5 q-14 -48 -25 -84.5t-31 -90.5t-40 -94t-48 -83.5t-58 -71.5t-69.5 -46.5t-81.5 -18.5q-50 0 -93.5 23t-77 66t-60.5 92.5t-48.5 115t-36 119.5t-28.5 120q-33 151 -52 394t-19 329zM805 1116q-21 -62 -21 -139q0 -75 15 -148q20 113 20 203q0 52 -14 84z" />
<glyph unicode="X" horiz-adv-x="1265" d="M172 35q-32 -37 -70 -37q-25 0 -42 15t-17 38q0 19 12 37q54 82 132 170.5t201.5 214t154.5 158.5l43 43q-32 35 -125.5 139.5t-138.5 152.5t-120.5 122t-142.5 129q-18 21 -18 36q0 22 23 34.5t51 12.5q20 0 28 -4q73 -45 160 -136.5t189.5 -214t152.5 -173.5l12 -16 q81 89 237 267.5t230 260.5q22 25 54 25q23 0 40 -14.5t17 -34.5q0 -18 -12 -33q-140 -171 -488 -553q96 -105 238 -287t250 -295q14 -14 14 -29q0 -20 -20.5 -34.5t-45.5 -14.5q-26 0 -47 21q-120 120 -262.5 305.5t-202.5 253.5q-278 -305 -487 -559z" />
<glyph unicode="Y" horiz-adv-x="1124" d="M1028 1282q20 29 53 29q25 0 45.5 -14.5t20.5 -34.5q0 -12 -6 -21q-78 -123 -247.5 -351t-234.5 -323q15 -12 15 -30q0 -23 -15 -43.5t-36 -20.5q-12 0 -21 6q-143 -213 -217 -426q-10 -30 -29 -45.5t-39 -15.5q-21 0 -35 14t-14 37q0 17 4 27q70 213 238 485 q-51 49 -107 117t-100 129.5t-92.5 138t-75 121t-58 100t-32.5 56.5q-8 13 -8 30q0 25 18 42.5t43 17.5q38 0 58 -39q52 -102 82.5 -158.5t87.5 -153.5t117 -174t124 -139q72 107 230 319.5t231 319.5z" />
<glyph unicode="Z" horiz-adv-x="1144" d="M145 1196q-22 0 -37.5 18t-15.5 39q0 45 53 45h863q33 0 58.5 -17t25.5 -40q0 -19 -21 -37q-72 -64 -158 -156t-153.5 -169t-168.5 -203.5t-149.5 -189t-153.5 -200.5t-128 -167q203 -13 362 -13q221 0 557 25q26 0 43 -21t17 -49q0 -45 -43 -45q-218 -18 -439 -18 q-263 0 -596 29q-38 39 -38 82q0 29 22 51q107 129 404 498.5t454 553.5q-83 -1 -348 -8.5t-410 -7.5z" />
<glyph unicode="[" horiz-adv-x="411" d="M369 1536q34 0 34 -41q0 -17 -9.5 -30t-26.5 -13q-52 0 -117.5 4t-99.5 4v-122.5t-0.5 -185t-1 -226t-1.5 -248t-1.5 -248t-1 -229.5t-1 -188.5t-0.5 -128.5v-48q21 0 64 -1t65 -1q12 0 37 1t37 1q28 0 45 -16.5t17 -38.5q0 -41 -70 -41q-21 0 -75.5 5t-84.5 5 q-42 0 -78 -8q-18 0 -33.5 15.5t-15.5 33.5q-6 193 -6 363q0 169 7 476.5t7 471.5q0 213 -8 409q0 11 22.5 17.5t64 8t77.5 1.5t86 -1t68 -1z" />
<glyph unicode="\" horiz-adv-x="849" d="M76 1464q-6 15 -6 27q0 22 15.5 34.5t37.5 12.5q36 0 49 -29q5 -16 57 -138.5t118.5 -289t105.5 -284.5q20 -63 51 -149t61.5 -167t64.5 -168.5t58 -148t44.5 -112t21.5 -54.5q3 -8 11 -29.5t13.5 -36.5t10 -35t4.5 -34q0 -41 -37 -41q-15 0 -29 13t-28 39.5t-23.5 49 t-23.5 56.5q-5 12 -7 18q-15 38 -234 617.5t-335 848.5z" />
<glyph unicode="]" horiz-adv-x="446" d="M70 -244q-18 0 -27.5 12.5t-9.5 28.5t10.5 29.5t28.5 13.5q51 0 117 -3t100 -3q0 40 0.5 121.5t1 184.5t1.5 225t2 247.5t2 248t2 229t1.5 188t0.5 128.5l1 48q-27 6 -65 6q-22 0 -72 -4t-74 -4q-26 0 -43.5 16.5t-17.5 36.5q0 28 27 36.5t89 8.5q25 0 80 -2t82 -2 q7 0 21.5 1t21.5 1q16 0 26.5 -15.5t10.5 -35.5q6 -193 6 -362q0 -168 -7 -473.5t-7 -468.5q0 -214 8 -410q0 -13 -8.5 -19t-16.5 -7t-24 -1h-268z" />
<glyph unicode="^" horiz-adv-x="813" d="M537 1311q26 -31 85.5 -88.5t98.5 -100t39 -61.5q0 -23 -16 -42.5t-35 -19.5t-31 21q-20 32 -120 138t-159 165q-17 -19 -62.5 -72t-76 -87t-69.5 -75t-66.5 -62t-42.5 -21q-16 0 -28.5 11.5t-12.5 29.5q0 13 59 78.5t138 149.5t108 122q18 24 53 24q22 0 55 -26t51 -46 t32 -38z" />
<glyph unicode="_" horiz-adv-x="706" d="M670 6h8q24 0 36.5 -11t12.5 -26q0 -18 -14.5 -32.5t-36.5 -14.5q-12 0 -12 -2l16 -4q0 -2 -18 -2q-4 0 -69.5 2.5t-147.5 5t-126 2.5q-101 0 -168 -2.5t-96.5 -5t-38.5 -2.5q-34 0 -49.5 8.5t-15.5 38.5t22.5 38.5t75.5 8.5h33h237q74 0 152.5 -2t101.5 -2q60 0 97 2z " />
<glyph unicode="`" horiz-adv-x="559" d="M315 1225q-10 9 -12.5 11t-8 9t-9.5 13.5t-20 28t-36 48.5q-39 53 -39 68q0 14 13.5 23.5t27.5 9.5q35 0 56 -37q20 -34 40 -55.5t30.5 -27.5t17 -16t6.5 -28q0 -20 -15 -36.5t-34 -16.5q-11 0 -17 6z" />
<glyph unicode="a" horiz-adv-x="768" d="M119 694q-19 -16 -39 -16q-13 0 -21 8.5t-8 22.5q0 44 51 88t115.5 69t110.5 25q119 0 199.5 -116t80.5 -275q0 -142 -49 -262l-4 -11q31 -112 82 -112q4 0 12.5 1t12.5 1q18 0 28 -11.5t10 -27.5q0 -25 -20 -45.5t-55 -20.5q-101 0 -138 146q-49 -67 -133 -114.5 t-166 -47.5q-161 0 -161 188q0 32 5.5 76t22 103.5t41.5 108.5t70 83.5t102 34.5q82 0 147.5 -69t94.5 -161q16 59 16 117q0 121 -61 217.5t-143 96.5q-93 0 -203 -97zM147 90q15 -6 35 -6q65 0 148.5 55.5t120.5 122.5q-18 52 -43 102.5t-62.5 92t-71.5 41.5 q-33 0 -60.5 -21t-44 -54t-25.5 -62.5t-13 -55.5q-18 -60 -18 -131q0 -74 34 -84z" />
<glyph unicode="b" horiz-adv-x="894" d="M10 158q-20 -17 -37 -17q-18 0 -18 19q0 20 31 63.5t78.5 101t66.5 87.5q-27 132 -27 266q0 186 44.5 354.5t116 268.5t149.5 100q48 0 70 -37t22 -129q0 -159 -68.5 -383.5t-206.5 -433.5q18 -79 46 -148t72 -120.5t91 -51.5q46 0 94 70.5t82 170t52 204.5 q-131 12 -131 129q0 79 46.5 150t108.5 71q82 0 82 -217v-41q94 12 125 12t31 -18q0 -21 -48.5 -48.5t-111.5 -35.5q-16 -105 -42 -196t-65 -173t-97 -130t-128 -48q-55 0 -100 21.5t-72 51.5t-50 76t-34 79t-24 77q-1 5 -2 8q-14 -19 -34 -40.5t-34.5 -36t-40.5 -40 t-37 -36.5zM412 1321q-97 -70 -154 -247t-57 -384q0 -80 8 -143q97 188 150 392.5t53 344.5v37zM668 791q-43 -73 -43 -107q0 -42 53 -49v39q0 73 -10 117z" />
<glyph unicode="c" horiz-adv-x="747" d="M561 829q4 -10 4 -30q0 -23 -12.5 -37t-32.5 -14q-12 0 -26.5 10.5t-28 23t-40 23t-60.5 10.5q-57 0 -107 -36t-82.5 -91.5t-51 -120t-18.5 -123.5q0 -83 24.5 -147.5t65 -102t87.5 -56.5t98 -19q93 0 179.5 51t123.5 119q9 20 27 20q14 0 26.5 -13.5t12.5 -31.5 q0 -12 -7 -26q-56 -98 -150.5 -164t-219.5 -66q-21 0 -42.5 2t-60.5 12t-72 27t-70.5 51t-64 79.5t-44 117.5t-17.5 160q0 203 129 340q110 118 240 118q70 0 125.5 -32t64.5 -54z" />
<glyph unicode="d" horiz-adv-x="919" d="M156 33q-76 40 -115 123t-39 188q0 74 18.5 148.5t55.5 142t88.5 120.5t122 84t149.5 31q45 0 86 -8v12q13 374 160 545q15 15 33 15q36 0 58.5 -73t29 -150.5t6.5 -157.5q0 -344 -143 -701q72 -252 137 -252q6 0 11.5 1.5t12.5 5.5t12.5 7.5t15 11.5t15 13t18 16 t19.5 17q21 18 39 18q21 0 21 -20q0 -14 -13 -33q-89 -141 -168 -141q-104 0 -178 219l-4 10q-62 -119 -136.5 -173t-170.5 -54q-73 0 -141 35zM569 340q-43 178 -47 422q-44 12 -84 12q-75 0 -140.5 -39.5t-108 -101.5t-67 -137t-24.5 -148q0 -104 51 -178t148 -74 q165 0 272 244zM610 893q3 -37 10 -175t15 -206q90 322 90 559q0 124 -23 236q-10 -22 -19 -45t-16.5 -49.5t-13 -46t-11 -50.5t-8.5 -45.5t-8 -49t-6 -43.5t-5.5 -45.5t-4.5 -39.5z" />
<glyph unicode="e" horiz-adv-x="702" d="M475 557q-29 -61 -77 -117.5t-101.5 -97t-92.5 -65t-73 -41.5l8 -17q29 -54 80.5 -88.5t112.5 -34.5q177 0 305 178q16 19 29 19q11 0 18.5 -12t7.5 -29q0 -55 -56.5 -114.5t-139 -98.5t-154.5 -39q-156 0 -248 104.5t-92 282.5q0 121 44 236t130 193.5t191 78.5 q145 0 145 -176q0 -84 -37 -162zM395 604q37 84 37 139q0 62 -51 62q-35 0 -83 -33t-93 -86.5t-76 -133t-31 -161.5q0 -17 4 -53q75 42 156.5 111t136.5 155z" />
<glyph unicode="f" horiz-adv-x="542" d="M582 1192q6 -12 6 -23q0 -13 -10.5 -21.5t-24.5 -8.5q-33 0 -55 35q-53 79 -109 79q-58 0 -96.5 -88.5t-38.5 -232.5q0 -43 2 -66h31q35 0 70 -2.5t74 -9.5t63 -21.5t24 -35.5q0 -20 -15 -36t-36 -16q-1 0 -4 1.5t-4 1.5q-49 30 -121 30q-22 0 -76 -4q-4 -172 -4 -258 q0 -255 25 -448v-11q0 -24 -12.5 -39.5t-30.5 -15.5q-15 0 -28 14t-19 43q-62 285 -95 396q-43 143 -114 303q-7 14 -7 20q0 54 187 80q1 6 7.5 122t18.5 179q18 91 67 135.5t114 44.5q62 0 121 -40t90 -107zM170 508q0 25 1 85t1 89q0 58 -2 78q-17 0 -40.5 -5.5 t-35.5 -6.5q7 -15 14 -31t11.5 -27.5t10.5 -31.5t9 -28t9 -32t7 -28.5t8 -32t7 -29.5z" />
<glyph unicode="g" horiz-adv-x="772" d="M561 829l6 -22q4 -16 4 -23q0 -21 -13 -38t-28 -17q-9 0 -19.5 11.5t-20 25.5t-26.5 25.5t-36 11.5q-44 0 -98 -40.5t-100.5 -104t-78.5 -150.5t-32 -170q0 -57 16 -100.5t40.5 -67.5t50 -35.5t48.5 -11.5q46 0 94.5 27.5t84.5 66.5q46 49 74 102t41 120.5t17.5 115 t7.5 137.5q1 18 1 27q1 25 19.5 42t41.5 17q39 0 45 -41q31 -206 31 -377q0 -75 -2 -110l49 37q17 14 33 14q20 0 20 -22q0 -19 -18 -43l-94 -115q-35 -268 -133 -448t-207 -218q-2 -2 -8 -2q-25 0 -60.5 36.5t-40.5 61.5q-24 49 -24 101q0 112 102 239t285 277 q12 111 12 317q-4 -27 -10.5 -57.5t-27.5 -89t-49 -108.5t-78.5 -103.5t-112.5 -85.5q-55 -31 -113 -31q-60 0 -109 33.5t-77 83.5t-43 100.5t-15 91.5q0 84 29.5 184t80.5 191.5t132 153t172 61.5q52 0 88.5 -24t48.5 -56zM387 -442q167 195 221 471 q-123 -108 -187.5 -192.5t-64.5 -168.5q0 -53 31 -110z" />
<glyph unicode="h" horiz-adv-x="849" d="M-12 143q-26 -30 -60 -30q-15 0 -26 8.5t-11 21.5q0 27 37 52q116 154 136 185q64 98 84 214q21 124 22 485v115q0 31 16 46t39 15q18 0 31 -7t16 -19q-7 -97 -13 -332.5t-15 -388.5q105 221 311 364q15 9 45 9t47.5 -6t24.5 -21.5t8.5 -28t1.5 -40.5v-11q0 -104 -7 -208 t-20 -231.5t-18 -197.5q19 13 84.5 63.5t116.5 88t57 37.5q11 0 18 -7.5t7 -19.5q0 -33 -116 -143.5t-200 -155.5q-9 -6 -18 -6q-18 0 -30.5 15.5t-12.5 35.5q0 92 18.5 305t18.5 299q0 50 -7 101q-287 -199 -372 -715q-12 -39 -51 -39q-16 0 -27.5 9.5t-11.5 27.5v8 q28 209 43 340q-58 -124 -166 -238z" />
<glyph unicode="i" horiz-adv-x="397" d="M80 776q20 45 53 45q19 0 31 -14t12 -37q0 -14 -2 -22q-41 -139 -41 -330q0 -146 28 -234t83 -88q29 0 70.5 37t76.5 74t49 37q9 0 9 -15q0 -19 -18.5 -56.5t-47.5 -77.5t-74 -69.5t-90 -29.5q-47 0 -84 40.5t-58.5 108t-32.5 147.5t-11 167q0 205 47 317zM168 909 q-27 5 -27 43q0 58 34 103t69 45q32 0 32 -49q0 -48 -25.5 -96t-66.5 -48q-10 0 -16 2z" />
<glyph unicode="j" horiz-adv-x="507" d="M88 598q-12 -6 -22 -6q-18 0 -32 16t-14 37q0 44 133 104t187 60q28 0 35.5 -21.5t7.5 -72.5q0 -56 -4.5 -200t-5.5 -202q34 22 86 40t82 18q14 0 22 -10.5t8 -24.5q0 -32 -29 -49t-84.5 -37t-90.5 -45q-2 -127 -17 -242.5t-42.5 -210t-73 -151t-101.5 -56.5 q-34 0 -61 21t-42 53.5t-22.5 66t-7.5 62.5q0 123 81.5 265.5t201.5 240.5l6 451q-32 -11 -64 -28t-73 -41.5t-64 -37.5zM123 -340q4 -4 14 -4q38 0 74 103t54 215t18 171q-67 -62 -133 -187t-66 -212q0 -64 39 -86zM360 950q-15 -22 -45 -22q-32 0 -32 43q0 61 28 104 t58 43q22 0 37.5 -15.5t15.5 -37.5q0 -24 -12 -46.5t-30 -44t-20 -24.5z" />
<glyph unicode="k" horiz-adv-x="624" d="M90 1341q0 48 49 48q23 0 38.5 -12t15.5 -36q-13 -270 -50 -903q4 6 14 25t18.5 33.5t19.5 30.5t23 25t22 9q16 0 28 -12q-4 6 -4 24q0 20 7 38.5t18 21.5q243 250 307 250q24 0 45 -18.5t21 -39.5q0 -17 -19 -26q-76 -42 -158 -116.5t-133 -137.5q52 -129 125 -264.5 t144 -219.5q12 -15 12 -28q0 -19 -16.5 -33t-36.5 -14q-31 0 -96 81.5t-118 167t-104 177.5q-48 -85 -73 -133.5t-49.5 -115.5t-33.5 -130q-3 -19 -17 -30t-32 -11q-20 0 -34.5 13t-14.5 36q0 41 17 115q49 446 65 1185z" />
<glyph unicode="l" horiz-adv-x="491" d="M-29 135q-19 -16 -41 -16q-20 0 -20 20q0 10 64.5 125.5t86.5 141.5q-26 157 -26 305q0 120 23 249t58 230.5t80 167t87 65.5q35 0 59.5 -28.5t36.5 -76.5t17 -96t5 -102q0 -184 -55.5 -363t-183.5 -370q2 -8 14 -55t22.5 -79t27 -72.5t36.5 -62.5t43 -22q28 0 82 52.5 t72 52.5q20 0 20 -27q0 -12 -6 -27q-23 -48 -53.5 -82.5t-58.5 -49t-46 -20t-28 -5.5q-126 0 -201 309q-22 -27 -37 -47.5t-37 -55t-41 -61.5zM135 522q28 41 42.5 64t42 81t42 113.5t27 144.5t12.5 191q0 53 -6 93t-12 56.5t-11 16.5q-66 -94 -108.5 -279.5t-42.5 -343.5 q0 -88 14 -137z" />
<glyph unicode="m" horiz-adv-x="1073" d="M-2 805q-8 8 -8 22q0 19 16.5 35.5t36.5 16.5q27 0 51 -57t36 -116t20 -120q86 284 235 284q158 0 219 -241q36 110 94.5 174.5t139.5 64.5h22h14q187 0 187 -446q0 -87 -9.5 -221.5t-9.5 -163.5q0 -23 -15 -36t-36 -13q-17 0 -31 11.5t-14 31.5q0 57 13.5 207.5 t13.5 218.5q0 9 -1 26t-1 25q-3 37 -9.5 76t-19.5 87t-36 78.5t-52 30.5q-30 0 -72 -39q-48 -46 -80 -115.5t-47.5 -157.5t-22 -153t-10.5 -159.5t-6 -120.5q-1 -19 -17 -31t-36 -12q-43 0 -49 39q23 242 23 370q0 39 -3 82t-12.5 98t-25 97t-43.5 71t-64 29q-45 0 -86 -63 q-33 -52 -57 -117.5t-38 -144t-21.5 -138.5t-15.5 -152t-13 -132q-6 -37 -47 -37q-21 0 -36.5 13t-15.5 36q0 46 8.5 137.5t8.5 138.5q0 40 -4 138q-3 75 -6.5 121t-21 121.5t-46.5 105.5z" />
<glyph unicode="n" horiz-adv-x="706" d="M78 47q0 67 9 253t9 278q0 80 -6 145h-2h-8q-19 0 -35 11t-16 38q0 40 16.5 58t69.5 18q20 0 30.5 -6.5t18.5 -29.5t11 -60.5t5.5 -105.5t4.5 -159q1 -40 1 -61q116 274 279 387q18 12 39 12t37.5 -12.5t19.5 -30.5q15 -106 28 -309t13 -348q35 27 68.5 68t55.5 64.5 t42 23.5q14 0 23.5 -10t9.5 -25q0 -42 -61 -105t-154 -125q-22 -14 -45 -14q-35 0 -35 35q0 452 -23 663q-123 -111 -206 -293t-111 -350q0 -27 -19.5 -43t-42.5 -16q-32 0 -32 27q0 10 6 22z" />
<glyph unicode="o" horiz-adv-x="720" d="M551 836q2 -4 29 -50t41 -73q6 3 31.5 15.5t42 19t28.5 6.5t19.5 -8.5t7.5 -20.5q0 -46 -95 -107q27 -89 27 -180q0 -201 -96.5 -320.5t-251.5 -119.5q-51 0 -103.5 28t-97 79.5t-72.5 134.5t-28 182q0 59 2.5 95.5t14 91t40 104t74.5 96.5q84 84 190 84q55 0 117 -23 q10 13 25 13q17 0 26 -15l23 -30zM422 569q-29 20 -29 88q0 87 39 123q-42 23 -82 23q-65 0 -119.5 -55.5t-84 -141.5t-29.5 -178q0 -55 13.5 -109t40 -103t73.5 -79.5t108 -30.5q73 0 129 50t83.5 126.5t27.5 163.5q0 74 -21 138q-41 -33 -92 -33q-34 0 -57 18zM496 729 q-17 -34 -17 -55q0 -31 25 -31q15 0 35 14q-18 41 -43 72z" />
<glyph unicode="p" horiz-adv-x="632" d="M-6 600q-3 -17 -18.5 -27t-34.5 -10q-22 0 -37 15t-15 45q0 89 71.5 150.5t178.5 84.5q3 27 41 27q32 0 49 -17h21q191 0 297 -119t106 -311q0 -187 -119.5 -314.5t-310.5 -127.5q-27 0 -39 2q-3 -41 -5 -94t-3.5 -90t-4 -79t-7 -69.5t-12.5 -51t-21.5 -35t-32.5 -11.5 q-41 0 -41 67q0 48 3 94t10 133.5t12 162.5q-10 10 -10 18q0 13 12 25l8 94q8 156 23 349t18 253q-116 -35 -139 -164zM197 188l-9 -108q12 -2 37 -2q67 0 124.5 21.5t104.5 65t74 117.5t27 171q0 87 -30 160t-97 121t-160 48q-8 0 -18.5 -1t-13.5 -1q-5 -90 -19.5 -284 t-19.5 -308z" />
<glyph unicode="q" horiz-adv-x="681" d="M610 848q45 -6 45 -55q0 -17 -6 -29q23 -10 23 -39q0 -14 -2.5 -34.5t-5.5 -37.5t-10 -47t-10.5 -46t-13 -53t-12.5 -50q-32 -217 -32 -488q0 -56 4 -166q18 32 40 66t59.5 76.5t60.5 42.5q14 0 24 -11t10 -26q0 -9 -8 -25q-74 -106 -112.5 -182t-59.5 -166 q-4 -20 -18 -30.5t-31 -10.5q-20 0 -34.5 14t-14.5 39h-4q0 5 4 9q-17 167 -17 305q0 111 9 219q-103 -127 -238 -127q-114 0 -183 85t-69 257q0 226 144.5 371t365.5 145q46 0 92 -6zM506 301q18 207 53 447q-46 4 -63 4q-115 0 -209 -61.5t-143.5 -156t-49.5 -198.5 q0 -126 48.5 -188t109.5 -62q76 0 150.5 66.5t103.5 148.5z" />
<glyph unicode="r" horiz-adv-x="485" d="M76 838q14 32 43 32q39 0 39 -49q0 -10 -1 -22t-2 -23t-2 -20t-2 -15l-1 -6q34 82 96.5 127t132.5 45q135 0 135 -153q0 -82 -32 -143.5t-70 -61.5q-26 0 -44 21t-18 44q0 12 12.5 23.5t27.5 21t27.5 35t12.5 62.5q0 65 -70 65t-138 -79.5t-81 -159.5q-6 -33 -15 -228.5 t-9 -279.5v-25q0 -31 -15.5 -47t-38.5 -16q-20 0 -34.5 14t-14.5 39q0 272 37 631q-4 -3 -20.5 -13t-25 -15t-22.5 -12.5t-25.5 -10.5t-20.5 -3q-15 0 -25 9.5t-10 21.5q0 5 21 21.5t48.5 36.5t57 53t43.5 67z" />
<glyph unicode="s" horiz-adv-x="671" d="M334 621q16 -8 61.5 -26t86.5 -38.5t81 -48.5q115 -83 115 -232q0 -29 -10.5 -64t-36.5 -75.5t-63.5 -73t-99 -54t-136.5 -21.5q-134 0 -234 73t-100 193q0 27 7.5 67.5t28.5 80.5t50 40q20 0 36.5 -12.5t16.5 -30.5q0 -12 -12 -24q-23 -53 -23 -103q0 -83 62 -131.5 t153 -48.5q112 0 181 55.5t69 122.5q0 56 -40.5 108.5t-116.5 86.5q-13 6 -37 17q-60 27 -88 41t-68 38t-57 43.5t-30 48t-13 62.5q0 93 68 141.5t169 48.5q79 0 128.5 -33.5t49.5 -89.5q0 -43 -32 -73.5t-90 -30.5q-19 2 -19 14q0 5 21.5 34t21.5 40q0 22 -29.5 33.5 t-68.5 11.5q-43 0 -81 -21t-38 -59q0 -58 117 -110z" />
<glyph unicode="t" horiz-adv-x="497" d="M492 842q26 0 26 -35q0 -19 -9.5 -33t-25.5 -14l-290 -6q-7 -107 -7 -207q0 -103 16 -205t49 -175t75 -73q37 0 76.5 19t65.5 41.5t49.5 41.5t33.5 19q8 0 8 -12q0 -36 -40 -86t-102 -87.5t-116 -37.5q-59 0 -102 48.5t-65.5 132t-33 176.5t-10.5 200q0 103 6 205 l-157 -2q-16 0 -26.5 15t-10.5 34q0 13 6.5 23t19.5 10q62 0 176 6q21 247 58 401q13 57 49 57q59 0 69 -49q1 -6 1 -10q0 -17 -9.5 -34.5t-18.5 -26.5l-9 -9q-3 -28 -19 -136.5t-24 -190.5q114 4 168 4q57 0 123 -4z" />
<glyph unicode="u" horiz-adv-x="731" d="M109 829q11 31 47 31q21 0 36 -11.5t15 -31.5v-10q-35 -101 -60.5 -241t-25.5 -253q0 -209 88 -209q61 0 128.5 110t116.5 282t60 342q3 39 49 39q22 0 38.5 -12.5t16.5 -33.5v-8l-4 -20q-28 -137 -28 -381q0 -322 51 -322q24 0 47.5 24t43 47.5t32.5 23.5q20 0 20 -27 q0 -39 -55.5 -103.5t-116.5 -64.5q-104 0 -104 317v64q-17 -63 -41 -121.5t-62 -123t-92 -103.5t-116 -39q-44 0 -77 29t-50.5 79t-26 107.5t-8.5 124.5q0 131 24.5 273t53.5 222z" />
<glyph unicode="v" horiz-adv-x="720" d="M10 766q-2 6 -2 18q0 36 16.5 56t38.5 20q21 0 35 -13.5t24 -46t16 -64.5t16 -91.5t20 -103.5q34 -151 91 -284.5t83 -133.5q13 10 46.5 65t79.5 158t75 207q-86 78 -86 168q0 25 5.5 48.5t18.5 47t39.5 37.5t63.5 14q30 0 54 -17t24 -48q0 -101 -19 -209h10 q18 0 33.5 10t24 22.5t18 22.5t17.5 10q9 0 16.5 -9.5t7.5 -24.5q0 -37 -37.5 -81t-81.5 -44q-14 0 -26 6q-28 -112 -78 -228t-109.5 -198t-105.5 -82q-36 0 -62 33q-64 74 -159 347.5t-107 387.5zM545 733q3 -45 24 -82q15 79 17 133q-1 -1 -11 -4t-12.5 -5t-8.5 -7.5 t-7.5 -14t-1.5 -20.5z" />
<glyph unicode="w" horiz-adv-x="1265" d="M1323 725q13 16 29 16t16 -18q0 -5 -9.5 -21.5t-30.5 -40.5t-48 -47t-67.5 -43t-84.5 -28q-4 -111 -22.5 -206.5t-52.5 -173t-88.5 -121.5t-124.5 -44q-94 0 -160.5 67.5t-104.5 178.5q-32 -101 -99.5 -177.5t-156.5 -76.5q-38 0 -74.5 20t-64.5 53t-49.5 67.5 t-36.5 70.5q-41 90 -41 258q0 111 19 241q-12 -10 -39 -16t-43 -6q-39 0 -39 27q0 16 17.5 31t54.5 49t71 83q13 13 35 13q24 0 45 -14.5t21 -32.5l-13 -65t-13 -68t-9.5 -56t-9.5 -65t-4.5 -55.5t-2.5 -63.5q0 -20 3 -54.5t14 -91.5t28 -104t51 -82t78 -35q47 0 87 39.5 t64.5 100.5t39 124t16.5 119q-6 76 -6 144q0 12 -0.5 33.5t-0.5 34t0.5 30.5t4 28.5t9.5 21t16.5 15t25.5 4.5q52 0 52 -45q0 -134 -7 -237q7 -79 22 -148t38.5 -130t61 -96.5t83.5 -35.5q56 0 97 38.5t63.5 105.5t33 143t11.5 164q-54 11 -87.5 52t-33.5 101q0 69 40 131 t97 62q18 0 32 -8.5t22.5 -27.5t14 -35.5t8.5 -47.5t4 -48t2 -51.5t1 -45.5q63 17 117.5 44t77.5 52zM1022 772q-39 -45 -39 -76q0 -33 45 -67q0 8 -6 143z" />
<glyph unicode="x" horiz-adv-x="681" d="M43 788q-16 16 -16 39q0 21 15.5 36.5t35.5 15.5q16 0 43.5 -23t63 -66t63.5 -78.5t66.5 -88t50.5 -68.5q126 169 258 326q15 12 28 12q20 0 32.5 -16.5t12.5 -38.5q0 -15 -6 -27q-119 -131 -272 -326q44 -58 90.5 -123.5t102 -143.5t81.5 -114l-2 -2q19 -30 19 -45 q0 -23 -17.5 -40t-38.5 -17q-13 0 -28 12.5t-19 28.5h-4l-4 10q-59 87 -246 344q-132 -176 -243 -362q-20 -33 -50 -33q-16 0 -28.5 11t-12.5 28q0 11 11 33q23 44 114.5 182t120.5 217q1 2 4 7t5.5 9t5.5 7q-93 121 -236 294z" />
<glyph unicode="y" horiz-adv-x="731" d="M141 803q24 18 43 18q21 0 34 -15.5t13 -35.5q0 -17 -12 -29q-59 -56 -96 -167t-37 -218q0 -70 16.5 -123.5t42 -82t51.5 -42.5t50 -14q46 0 93.5 31t82.5 74q136 168 153 589q1 24 17 40t37 16q36 0 45 -45q35 -210 35 -418q0 -52 -4 -150l36 29q20 14 35 14t15 -16 q0 -18 -31 -63l-66 -86q-18 -160 -55 -285.5t-83 -200.5t-95.5 -113t-98.5 -38q-131 0 -131 161q0 111 99.5 238.5t277.5 278.5q8 81 8 190v63q-47 -176 -146 -287.5t-232 -111.5q-69 0 -120.5 34t-78.5 89t-40 114t-13 121q0 131 37.5 254t117.5 187zM385 -461 q155 169 205 477q-124 -113 -191 -200.5t-67 -163.5q0 -63 53 -113z" />
<glyph unicode="z" horiz-adv-x="638" d="M84 723q-21 0 -32 12.5t-11 30.5q0 20 13.5 35.5t35.5 15.5q161 -14 242 -14q120 0 209 31q16 4 26 4q22 0 39 -10t17 -23q0 -6 -2 -8q-32 -72 -78 -140.5t-108 -134.5t-114.5 -116.5t-132.5 -124t-127 -119.5q60 -1 126 -17.5t114.5 -36.5t109 -36.5t111.5 -16.5 q19 0 60.5 9.5t58.5 9.5q33 0 33 -29q0 -41 -59 -64.5t-119 -23.5q-34 0 -101 30.5t-155.5 61.5t-176.5 31q-43 0 -89 -19.5t-52 -19.5q-18 0 -29.5 13t-11.5 34q0 29 23 49q50 49 189 172.5t232 221t152 192.5q-61 -12 -145 -12q-52 0 -248 12z" />
<glyph unicode="{" horiz-adv-x="591" d="M444 1559q18 0 27.5 -11.5t9.5 -27.5t-10.5 -28.5t-26.5 -12.5q-80 0 -110.5 -46t-30.5 -126q0 -71 13.5 -186t13.5 -154q0 -214 -121 -332q36 -29 58.5 -69.5t32 -90.5t12.5 -89.5t3 -94.5q0 -42 -6 -129.5t-6 -126.5q0 -40 5.5 -71t13 -52.5t23.5 -37t30 -24.5 t38.5 -15.5t42.5 -9t50 -5.5q14 -1 24.5 -14t10.5 -27q0 -21 -13.5 -28t-46.5 -7q-66 0 -113.5 20.5t-74.5 52.5t-43 83t-20.5 99t-4.5 114q0 32 2 95t2 93q0 58 -4.5 100.5t-16 84t-35.5 68.5t-60 40q-37 11 -37 33q0 15 16 28q85 55 117.5 144t32.5 209q0 54 -7.5 160 t-7.5 153q0 110 52 174t165 64z" />
<glyph unicode="|" horiz-adv-x="319" d="M119 1432q0 26 11.5 39.5t27.5 13.5q21 0 39 -15.5t18 -37.5q-2 -20 -2 -152q0 -67 5 -275.5t5 -328.5q0 -131 -6 -305t-12 -297.5t-6 -132.5q0 -13 2 -46t2 -49q0 -55 -33 -55q-12 0 -21 4.5t-14.5 15t-8.5 21t-4.5 29.5t-2 32t-0.5 37.5v38.5v84v414q0 59 1 204t1 267 q0 118 -1 295.5t-1 198.5z" />
<glyph unicode="}" horiz-adv-x="571" d="M139 1563q112 0 165.5 -72t53.5 -184q0 -42 -5 -135t-5 -140q0 -125 33.5 -216t126.5 -150q16 -13 16 -35q0 -27 -32 -37q-46 -15 -74.5 -54t-39.5 -91.5t-14.5 -116.5t-4 -130.5t-4 -132t-18.5 -123.5t-43.5 -102.5t-83 -70t-132.5 -25.5q-17 0 -26 10t-9 23 q0 16 9.5 29t25.5 14q69 6 111 32.5t66 89.5t24 167q0 39 -1.5 116t-1.5 119q0 96 19.5 169.5t79.5 121.5q-129 126 -129 350q0 40 15 155.5t15 184.5q0 72 -30 113t-107 41q-16 0 -26.5 12.5t-10.5 28.5t9.5 27.5t27.5 11.5z" />
<glyph unicode="~" horiz-adv-x="806" d="M154 578q-17 -25 -39 -25q-19 0 -32 15.5t-13 35.5q0 57 73.5 102.5t137.5 45.5q40 0 74.5 -21t59 -51t47.5 -60.5t49 -51.5t54 -21q22 0 41 18.5t29.5 41t24.5 41t28 18.5q15 0 26 -12t11 -33q0 -66 -53.5 -114t-120.5 -48q-15 0 -39 4q-33 0 -61 19t-47.5 46t-38 54 t-40.5 46t-46 19q-66 0 -125 -69z" />
<glyph unicode="&#xa1;" horiz-adv-x="391" d="M158 1264v8q0 53 51 53q27 0 49.5 -14t22.5 -31v-4q-9 -49 -18 -449t-9 -485v-37q0 -24 -9 -33.5t-38 -9.5q-5 0 -8.5 0.5l-7 1t-5 2.5t-3 3.5t-2.5 6t-1.5 7.5t-0.5 10v12.5t-0.5 15.5t-0.5 19q-1 18 -4.5 397.5t-15.5 526.5zM147 96q6 15 25 25t41 10q27 0 47.5 -14.5 t20.5 -44.5q0 -33 -19 -61.5t-49 -28.5q-25 0 -47.5 30t-22.5 64q0 8 4 20z" />
<glyph unicode="&#xa2;" horiz-adv-x="821" d="M365 1243q0 26 11 39.5t27 13.5q21 0 39.5 -15.5t18.5 -37.5q-4 -40 -4 -65q0 -2 4 -134q48 -4 83 -17t51.5 -29t26 -31.5t10.5 -26.5l1 -10q0 -23 -12.5 -37t-32.5 -14q-17 0 -30.5 11.5t-36.5 27.5t-58 24l4 -74q2 -37 2 -120q0 -155 -14 -498q93 3 177.5 53t119.5 117 q9 20 26 20q14 0 26.5 -13.5t12.5 -31.5q0 -14 -6 -26q-53 -95 -146 -161t-214 -69q-7 -129 -7 -137q0 -14 2.5 -40.5t2.5 -37.5q0 -19 -7 -28t-26 -9q-25 0 -36.5 16.5t-13 36t-1.5 67.5v24v114q-37 5 -73 20t-77.5 48.5t-72.5 80.5t-51.5 123.5t-20.5 170.5q0 61 19 129.5 t54.5 133.5t94 115.5t129.5 69.5q0 46 -1 116.5t-1 90.5zM209 397q24 -48 66.5 -83.5t89.5 -51.5q-3 102 -3 213q0 95 2.5 237t2.5 220q-98 -46 -145.5 -146t-47.5 -211q0 -116 35 -178z" />
<glyph unicode="&#xa3;" horiz-adv-x="788" d="M719 1120q0 -18 -11 -32.5t-28 -14.5q-12 0 -29 17q-106 100 -221 100q-86 0 -140 -62.5t-54 -181.5q0 -88 20 -235q74 8 111 8q69 0 258 -27q23 0 36 -13t13 -32q0 -20 -14 -34.5t-39 -14.5q-193 27 -256 27q-23 0 -97 -4q19 -116 19 -177q0 -130 -15 -229q34 -8 93 -43 q19 -11 40 -25.5t30.5 -20t27 -13.5t39.5 -14t59 -13q27 -6 51 -6q32 0 59 12.5t42.5 27.5t35 27.5t37.5 12.5q20 0 32.5 -15t12.5 -36q0 -40 -45.5 -69.5t-97 -41.5t-92.5 -12q-59 0 -108.5 14t-81.5 35t-58 42t-50.5 38.5t-45.5 21.5q-40 -117 -117 -117q-32 0 -52 21.5 t-20 48.5q0 29 24 56.5t58 46.5q39 207 39 335q0 53 -2 82l-67 -10q-27 0 -40.5 12.5t-13.5 28.5q0 8 7.5 15t22.5 12.5t26.5 9t31 8t25.5 6.5q-29 166 -29 281q0 63 14.5 115.5t45.5 96.5t86 68.5t131 24.5q102 0 190 -47.5t107 -110.5z" />
<glyph unicode="&#xa4;" horiz-adv-x="1245" d="M188 1241q13 16 37 16q28 0 62 -24t65 -61.5t45 -56t25 -34.5q126 66 250 66q108 0 202 -55q6 0 36 41t71.5 82.5t73.5 41.5q20 0 40.5 -22.5t20.5 -52.5q0 -31 -31 -62.5t-61.5 -58t-30.5 -45.5q0 -7 4 -15q105 -180 105 -348q0 -176 -117 -303q-2 -2 -2 -4 q0 -9 22.5 -33t50 -49.5t50 -58t22.5 -55.5q0 -27 -28 -44.5t-49 -17.5q-31 0 -62.5 24.5t-52.5 53.5t-42 53.5t-32 24.5q-121 -39 -225 -39q-141 0 -244 67q-2 5 -14 -9.5t-30.5 -39.5t-40 -50t-48 -43.5t-49.5 -18.5q-18 0 -37.5 13.5t-19.5 35.5q0 31 34 78t67.5 83.5 t33.5 43.5q-109 133 -109 319q0 176 96 313q3 3 3 7q0 14 -27.5 47t-54.5 73.5t-27 71.5q0 24 18 45zM975 807q-34 80 -91.5 132.5t-117.5 73.5t-127 21q-87 0 -153 -29.5t-103.5 -79.5t-55.5 -107.5t-18 -121.5q0 -57 14.5 -113t44 -105.5t70 -87t95.5 -59.5t118 -22 q56 0 111 17q34 10 73 34.5t79.5 63.5t67 99t26.5 128q0 81 -33 156z" />
<glyph unicode="&#xa5;" horiz-adv-x="1085" d="M911 477q64 0 64 -47q0 -21 -9 -32t-47 -19t-114 -8q-15 0 -84.5 3t-116.5 3q-1 -74 3.5 -184.5t4.5 -126.5q0 -38 -18.5 -57t-46.5 -19q-26 0 -46 16t-20 43q0 2 1 6t1 6q6 27 6 316q-99 0 -188 -7.5t-90 -7.5q-26 0 -39.5 1t-30 6t-23.5 16.5t-7 30.5q0 25 13.5 36.5 t31 13t64.5 1.5h24q32 0 99 8t146 10v127q-99 0 -188 -7t-90 -7q-27 0 -40 1t-29.5 5.5t-23.5 16t-7 30.5q0 44 47.5 54.5t196.5 12.5q84 2 134 3q0 2 1.5 8t1.5 8q-108 94 -215.5 214t-165.5 200.5t-58 95.5q0 24 19.5 41t44.5 17q33 0 57 -37q44 -71 86 -127.5t95 -114 t83.5 -87.5t102.5 -99q34 53 91.5 124t137 164t123.5 148q21 27 55 27q27 0 47.5 -15t20.5 -35q0 -11 -6 -20q-57 -67 -144 -161.5t-136 -148.5t-87.5 -112t-38.5 -94q197 0 299 6q34 0 52 -16t18 -41q0 -16 -4.5 -25t-20 -18t-50.5 -13t-93 -4q-15 0 -84 3t-119 3v-131 q55 0 132.5 -3t109.5 -3q42 0 67 2z" />
<glyph unicode="&#xa6;" horiz-adv-x="385" d="M250 719v-10q0 -31 -14.5 -47.5t-34.5 -16.5q-15 0 -23.5 12.5t-9.5 24.5l-2 12q-1 0 -4 -6t-4 -6q-4 0 -4 59q0 12 1 83t1 108q0 79 -3 127.5t-5.5 65.5t-2.5 18q0 6 2 10q6 20 6 51.5t5.5 47.5t29.5 18q17 0 29 -6.5t18.5 -15.5t11 -30.5t6 -37.5t3.5 -52 q0 -43 -4 -126t-4 -115q0 -103 -2 -112v-1q0 -8 4 -55zM250 -203v-10q0 -30 -14.5 -46.5t-34.5 -16.5q-15 0 -23.5 12t-9.5 24l-2 13q-1 0 -4 -6.5t-4 -6.5q-4 0 -4 60q0 12 1 82.5t1 107.5q0 79 -3 127.5t-5.5 65.5t-2.5 18q0 6 2 10q6 20 6 51.5t5.5 47.5t29.5 18 q17 0 29 -6.5t18.5 -15t11 -30t6 -37.5t3.5 -52q0 -43 -4 -126.5t-4 -115.5q0 -103 -2 -111v-1q0 -9 4 -56z" />
<glyph unicode="&#xa7;" horiz-adv-x="860" d="M711 1151q12 -18 12 -35q0 -16 -11 -26.5t-24 -10.5q-15 0 -24 15q-44 59 -103 97t-125 38q-36 0 -84 -18t-88.5 -57t-40.5 -85q0 -61 62 -94q86 -44 284 -131q41 -19 79 -44.5t75 -61.5t59.5 -85t22.5 -102q0 -94 -56.5 -170t-136.5 -113q74 -46 123 -111.5t49 -146.5 q0 -72 -31 -133t-81.5 -100t-112.5 -60.5t-127 -21.5q-115 0 -209 67.5t-94 133.5q0 34 37 34q32 0 59 -24q98 -113 215 -113q39 0 93 24.5t99.5 75.5t45.5 111q0 35 -22.5 68.5t-52.5 56.5t-79.5 48t-82 38t-81.5 31q-133 26 -203.5 100.5t-70.5 165.5q0 54 21 101t55 80 t77.5 57.5t88 37t86.5 13.5q-144 52 -190 80q-90 55 -101 151q-2 16 -2 33q0 77 51 136t120.5 85.5t139.5 26.5q86 0 160 -42t119 -120zM344 354l96 -22q28 0 69 14.5t84 41t73 70.5t30 95q0 42 -47 79.5t-105.5 57t-103.5 19.5q-26 0 -56.5 -6.5t-63.5 -21t-60.5 -35 t-45 -53t-17.5 -71.5q0 -54 44 -98.5t103 -69.5z" />
<glyph unicode="&#xa8;" horiz-adv-x="649" d="M166 1341q28 -12 44.5 -33t16.5 -44t-18 -38.5t-53 -15.5q-72 0 -72 58q0 28 18 51.5t45 23.5q13 0 19 -2zM481 1346h8q31 0 49.5 -22t18.5 -52q0 -27 -17.5 -45.5t-50.5 -18.5q-39 0 -58 18t-19 44q0 28 19 50.5t50 25.5z" />
<glyph unicode="&#xa9;" horiz-adv-x="1095" d="M750 408q-99 -41 -195 -41q-127 0 -229.5 67.5t-156.5 173t-54 223.5q0 109 50.5 205.5t153.5 161.5q-14 14 -14 31q0 45 79.5 71.5t160.5 26.5q77 0 147 -18.5t130.5 -57t105.5 -94t70.5 -134.5t25.5 -173t-28 -178.5t-91 -155.5t-155 -108zM373 1208l-11 -12v-8 q0 -5 -2 -25t-2 -35q-168 -136 -168 -315q0 -150 111.5 -262.5t265.5 -112.5q158 0 266.5 116.5t108.5 303.5q0 85 -24.5 151.5t-65 107.5t-96.5 68t-113.5 37.5t-122.5 10.5q-99 0 -147 -25zM729 1032q14 -22 14 -39q0 -20 -32 -20q-11 0 -55 15.5t-99 15.5 q-69 0 -112.5 -58t-43.5 -129q0 -51 45 -102t117 -51q43 0 73.5 15.5t44.5 34.5t33 34.5t42 15.5q32 0 32 -23q0 -52 -79.5 -109t-155.5 -57q-80 0 -154.5 78.5t-74.5 180.5q0 86 67.5 168.5t169.5 82.5q54 0 104.5 -20t63.5 -33z" />
<glyph unicode="&#xaa;" horiz-adv-x="565" d="M158 1184q-13 -10 -29 -10q-19 0 -33 11.5t-14 28.5q0 36 68.5 71.5t117.5 35.5q85 0 137 -83t52 -200q0 -72 -15 -137q23 -12 37.5 -41t14.5 -59q0 -51 -33 -51q-31 0 -51.5 23t-38.5 61q-34 -32 -80 -51t-90 -19q-69 0 -98 35.5t-29 87.5q0 29 8 67t25 80t51.5 70.5 t79.5 28.5q76 0 139 -105q0 80 -32.5 144.5t-86.5 64.5q-40 0 -100 -53zM209 864q12 -6 27 -6q21 0 44.5 17.5t32 27.5t29.5 37q-46 82 -86 82q-82 0 -82 -109q0 -42 35 -49z" />
<glyph unicode="&#xab;" horiz-adv-x="931" d="M600 811q38 33 79.5 82t66.5 73.5t47 24.5q18 0 29.5 -16t11.5 -39q0 -32 -25 -51q-37 -26 -142.5 -136.5t-131.5 -146.5q35 -55 91.5 -114t101 -97t77.5 -76t33 -63q0 -21 -18.5 -36t-41.5 -15q-16 0 -28 12q-178 193 -308 338q-16 19 -16 47q0 12 11 31t25.5 37.5 t38 44t38 40t37 36.5t24.5 24zM231 791q36 35 85 94t79.5 90t50.5 31q21 0 34.5 -18t13.5 -40q0 -32 -23 -43q-23 -17 -81 -83.5t-116 -137t-69 -82.5q34 -54 87.5 -113t95 -98t73 -75.5t31.5 -57.5q0 -24 -16.5 -44.5t-35.5 -20.5q-6 0 -94 90t-175 191.5t-87 125.5 q0 53 147 191z" />
<glyph unicode="&#xac;" horiz-adv-x="1191" d="M1038 535q-5 -41 -20 -41q-8 0 -25 14t-20 16q-17 10 -17 160v98q0 78 -6 78q-40 0 -121 -1t-127 -1q-37 0 -127 1t-122 1q-28 0 -50.5 -0.5t-37 -1t-26 -1.5t-17.5 -2t-10 -2t-5.5 -1.5l-3 -1t-2.5 -0.5q-8 0 -27 4t-28 4q-6 0 -18.5 -1t-18.5 -1q-24 0 -36.5 6.5 t-12.5 26.5q0 37 26.5 47.5t97.5 14.5q14 1 21 1q16 0 251.5 -4t361.5 -4q24 0 62 1t52 1q19 -8 19 -153q0 -125 -13 -258z" />
<glyph unicode="&#xad;" d="M553 604h6q19 0 29 -12t10 -29q0 -15 -10 -27t-29 -12q-54 0 -116.5 -1t-104.5 -2t-47 -1h-80q-20 0 -50.5 -2t-41.5 -2q-60 0 -60 41q0 16 6.5 25t24 13t32.5 4.5t48 0.5q337 0 383 4z" />
<glyph unicode="&#xae;" horiz-adv-x="1030" d="M700 387q-89 -25 -163 -25q-135 0 -242.5 66.5t-163 168.5t-55.5 216q0 108 52 204t157 161q-23 20 -23 55q0 25 24.5 44t62 29.5t76.5 15.5t75 5q100 0 186.5 -28.5t154.5 -84t107 -146.5t39 -208q0 -105 -29.5 -200t-96.5 -171t-161 -102zM340 1186v-27q0 -1 1 -3t1 -3 q0 -3 -8 -18t-8 -31q-162 -113 -162 -285q0 -147 113 -260t270 -113q40 0 83 10.5t92.5 38.5t88.5 70.5t64.5 115t25.5 163.5q0 82 -20.5 148.5t-54.5 109.5t-80.5 72.5t-96.5 42t-104 12.5q-62 0 -119 -13.5t-86 -29.5zM700 680q21 -15 21 -43q0 -22 -12 -37.5t-33 -15.5 q-33 0 -240 186q8 -136 8 -176q0 -7 -15 -13t-34 -6q-30 0 -33 15q-10 148 -10 276q0 56 1 84t5 63t13 51t25 32t40.5 21t59.5 5q103 0 173 -51t70 -153q0 -76 -51 -113q-12 -9 -39 -13.5t-65.5 -6.5t-44.5 -3q21 -13 58.5 -38t65 -43t37.5 -21zM432 911l4 -65h45 q168 0 168 94q0 42 -42.5 71t-100.5 29q-40 0 -58 -24.5t-18 -77.5q0 -4 1 -13t1 -14z" />
<glyph unicode="&#xb0;" horiz-adv-x="417" d="M260 1079q-33 -10 -59 -10q-59 0 -95 38.5t-36 88.5q0 64 59 100q0 1 -1 5t-1 6q0 34 63 34t103.5 -36.5t40.5 -102.5q0 -43 -19 -77.5t-55 -45.5zM268 1239q-21 45 -75 45q-15 0 -31 -4q12 -12 12 -18q-43 -21 -43 -62q0 -26 19.5 -45.5t50.5 -19.5q69 0 69 67 q0 23 -2 37z" />
<glyph unicode="&#xb1;" horiz-adv-x="821" d="M471 449q0 -26 -13.5 -40t-33.5 -14q-22 0 -32 12.5t-11.5 29.5t-1.5 59q0 6 3 77.5t3 139.5q-83 0 -138 -2t-79 -4t-31 -2q-27 0 -40 6.5t-13 29.5q0 14 5.5 22.5t19.5 11.5t26 3.5t37 0.5t41 1h174v54q0 59 -2 118t-2 62v10q0 23 1 33t10 18t28 8q14 0 22 -2.5 t14.5 -11t9.5 -21t4.5 -37.5t2 -56t1.5 -79q1 -55 1 -88v-10q53 -2 137 -2q16 0 46 1t45 1q45 0 45 -30q0 -43 -88 -43q-131 0 -187 6q-1 -29 -3.5 -100.5t-2.5 -106.5q0 -37 2 -55zM705 248q45 0 45 -31q0 -43 -88 -43q-8 0 -125.5 4t-163.5 4q-77 0 -128.5 -2t-75.5 -4 t-32 -2q-27 0 -40 7t-13 30q0 14 5.5 22.5t19.5 11.5t26 3.5t37 0.5t41 1h166q58 0 134.5 -2t104.5 -2q56 0 87 2z" />
<glyph unicode="&#xb2;" horiz-adv-x="370" d="M129 1221q2 -2 2 -7q0 -7 -18 -13.5t-25 -6.5q-29 6 -29 37q0 35 34.5 65.5t84.5 30.5t84.5 -28.5t34.5 -81.5q0 -45 -22.5 -81t-71.5 -83t-66 -68q14 1 88 7.5t103 6.5q14 0 14 -32q0 -15 -7 -24.5t-22 -13t-24.5 -4.5t-30 0t-22.5 1h-25.5h-27h-26t-26 1t-23 2.5 t-20.5 5t-15 7.5t-10.5 10.5t-3.5 14.5q0 27 23 64.5t59 70.5q5 5 25 22t25 23t16 20t14.5 27.5t3.5 30.5q0 22 -14 32.5t-35 10.5t-37 -9.5t-16 -23.5q0 -5 6 -14z" />
<glyph unicode="&#xb3;" horiz-adv-x="352" d="M84 1247q-9 0 -15 12t-6 25q0 25 15 25q24 0 92 1t92 1q5 0 9.5 -14t4.5 -27t-13 -29.5t-41.5 -43.5t-37.5 -36q57 -4 91 -41t34 -82q0 -57 -45 -96t-108 -39q-30 0 -69.5 13.5t-39.5 37.5q0 13 8 23t21 10q10 0 35 -11t45 -11q46 0 69 20.5t23 50.5q0 32 -23 53t-55 21 q-11 0 -27 -9t-22 -9q-17 0 -30 14.5t-13 30.5q0 6 2 12.5t7 13.5t9.5 13.5t12.5 14.5t13.5 14t14.5 14t14 12.5t13.5 12t11.5 9.5q-10 -1 -29.5 -2.5t-35 -2.5t-27.5 -1z" />
<glyph unicode="&#xb4;" horiz-adv-x="319" d="M78 1282q3 4 7 15.5t20 30t59 61.5q41 41 72 41q14 0 24 -11.5t10 -23.5q0 -8 -20 -48.5t-56.5 -83t-70.5 -42.5q-19 0 -34 14t-15 31q0 10 4 16z" />
<glyph unicode="&#xb6;" horiz-adv-x="1132" d="M578 -274q-36 0 -49 16.5t-13 52.5q0 14 3 57t3 72l-6 666q-9 0 -24 2t-58 12t-82.5 25.5t-87.5 47.5t-82.5 73.5t-58 108t-23.5 147.5q0 78 51.5 141.5t132.5 102.5t186 66t205 37.5t197 10.5q258 0 258 -61q0 -35 -94 -35q-20 0 -49 2t-35 2q-8 0 -8 -2v-33 q0 -40 -3 -331t-3 -435q0 -151 13.5 -283.5t13.5 -306.5q0 -72 -4.5 -107t-12.5 -44t-24 -9q-15 0 -28.5 13t-16.5 33q-5 29 -13 279.5t-8 428.5q0 45 8 217.5t8 272.5q0 305 -102 305q-38 0 -65 -6t-44.5 -21t-27.5 -30t-14.5 -42.5t-5.5 -48.5t-1 -59q0 -20 4 -146.5 t7.5 -305.5t3.5 -326q0 -559 -51 -559z" />
<glyph unicode="&#xb7;" horiz-adv-x="288" d="M143 758h11q66 3 73 -150q0 -44 -29 -73t-63 -29q-20 0 -31.5 7t-15.5 15.5t-12 29.5t-15 36q-12 24 -12 51q0 41 25 74t69 39z" />
<glyph unicode="&#xb8;" horiz-adv-x="886" d="M479 6q1 -18 27.5 -52t57 -67t56 -78.5t25.5 -84.5q0 -53 -46 -97.5t-105 -44.5q-67 0 -125 41.5t-58 87.5q0 18 11 31.5t22 13.5q18 0 68 -42t77 -42q16 0 35 18.5t19 43.5q0 26 -25.5 61t-56.5 64.5t-56.5 71t-25.5 79.5q0 30 13 53t34 23q19 0 34.5 -21.5t18.5 -58.5z " />
<glyph unicode="&#xb9;" horiz-adv-x="366" d="M158 967h-21q-12 0 -12 20q0 14 14 25.5t47 11.5h2q-1 39 -2 76t-1.5 63.5t-0.5 67.5q-2 -1 -18 -11.5t-29 -17t-22 -6.5q-12 0 -21.5 9.5t-9.5 21.5q0 19 51.5 61.5t83.5 42.5q29 0 29 -26q0 -100 -4 -162t-4 -121h26q13 0 21 -11.5t8 -25.5q0 -11 -4.5 -18t-17 -9.5 t-20.5 -3t-28 -0.5h-12q-2 0 -6 -1t-10.5 1.5t-38.5 12.5z" />
<glyph unicode="&#xba;" horiz-adv-x="624" d="M436 1315q0 -3 7 -11.5t17 -20.5t15 -19q4 2 12 2q17 0 31 -20.5t14 -33.5q0 -10 -8 -10q-3 0 -10 5t-16 5q22 -60 22 -116q0 -89 -56.5 -140t-133.5 -51q-35 0 -69 10t-67.5 31.5t-54 64t-20.5 99.5q0 19 2.5 41t14 58.5t31 64.5t58 48.5t90.5 20.5q31 0 72 -12 q6 6 16 6q9 0 15 -6l14 -16h4zM389 1182q-27 8 -27 41q0 2 5 37q-28 14 -58 14q-49 0 -78.5 -43.5t-29.5 -102.5q0 -60 33 -102.5t96 -42.5q60 0 90.5 44.5t30.5 109.5q0 25 -7 57q-40 -16 -47 -16q-4 0 -8 4zM408 1255q-2 -4 -2 -12q0 -12 14 -12h6q-2 4 -5 8t-7 8.5 t-6 7.5z" />
<glyph unicode="&#xbb;" horiz-adv-x="905" d="M406 487q-18 -16 -66 -58.5t-76 -67.5t-63 -55.5t-55 -45t-25 -14.5q-20 0 -33.5 15.5t-13.5 35.5q0 21 18 33q33 24 166.5 150.5t153.5 150.5q-25 32 -90.5 83.5t-81.5 67.5q-137 131 -158 160q-8 11 -8 16q0 17 16 30t35 13q13 0 25 -8q294 -265 362 -329 q16 -19 16 -39q0 -12 -10 -28t-27.5 -33.5t-32 -31t-32.5 -28.5t-20 -17zM745 487q-39 -34 -105.5 -101t-110 -108.5t-56.5 -41.5q-19 0 -32 15.5t-13 35.5q0 22 18 32q32 24 167 152.5t155 153.5q-23 32 -95.5 86.5t-88.5 70.5q-10 9 -30 28t-32.5 31.5t-30.5 30t-30 29.5 t-23 24t-16.5 20.5t-5.5 12.5q0 17 16 30t35 13q13 0 25 -8q239 -216 360 -329q16 -19 16 -39q0 -18 -28.5 -50t-51 -52t-43.5 -36z" />
<glyph unicode="&#xbc;" horiz-adv-x="884" d="M567 1059q11 31 39 31q17 0 31 -13t14 -30q-65 -157 -190 -414q-61 -126 -121 -254t-91 -196t-59 -126t-43.5 -80t-27.5 -22q-14 0 -23.5 11t-9.5 24q1 10 33 89.5t95.5 222t133.5 284.5q100 204 219 473zM647 414q0 14 12.5 22t30.5 8q21 0 36 -9t15 -25l-18 -160l78 10 q9 0 16.5 -14t7.5 -31q0 -41 -45 -41h-65q-4 -45 -4 -98v-45q0 -22 -17 -34.5t-39 -12.5q-18 0 -30.5 8.5t-12.5 23.5q0 51 9 162q-58 4 -146 4q-23 0 -31 11.5t-8 23.5q0 111 25 213q24 12 47 12q17 0 28 -6.5t11 -17.5q-13 -92 -18.5 -117t-8.5 -47q62 -8 107 -8 q7 73 20 168zM139 707h-20q-13 0 -13 20q0 14 14.5 25.5t47.5 11.5h2q-1 39 -2 76t-1.5 63.5t-0.5 67.5q-1 0 -18 -11.5t-30 -17.5t-22 -6q-12 0 -21 9.5t-9 21.5q0 19 51.5 61.5t83.5 42.5q28 0 28 -27q0 -28 4 -282h15q13 0 20.5 -11t7.5 -26q0 -12 -5.5 -19t-17.5 -10 t-21 -3.5t-26 -0.5h-5h-4t-2.5 -0.5t-2 -0.5t-1.5 0.5t-2 0.5t-4 1t-6 2t-9 2.5t-13.5 4t-17.5 5.5z" />
<glyph unicode="&#xbd;" horiz-adv-x="792" d="M571 1069q11 31 39 31q17 0 31 -13t14 -30q0 -7 -204 -428q-61 -126 -121 -254t-91 -196t-59 -126t-43.5 -80t-27.5 -22q-14 0 -23.5 11t-9.5 24q1 10 33 89.5t95.5 222t133.5 284.5q183 373 233 487zM498 326q2 -2 2 -7q0 -7 -18 -13.5t-25 -6.5q-29 6 -29 37 q0 34 33 64t84 30q50 0 89 -26.5t42 -73.5q0 -42 -20.5 -83t-44.5 -67t-62 -63t-55 -58q19 1 90.5 8t99.5 7q14 0 14 -33q0 -15 -7 -24.5t-22 -13t-24.5 -4.5t-30 0t-22.5 1h-25.5h-27h-26t-25.5 1t-22.5 2.5t-20.5 5t-15 7.5t-10.5 10.5t-3.5 14.5q0 27 23 64.5t59 70.5 q94 86 94 146q0 38 -43 38q-19 0 -35 -9t-16 -21v-4zM147 735h-20q-12 0 -12 21q0 14 14 25.5t47 11.5h2q-1 39 -2 75.5t-1.5 63t-0.5 67.5q-3 -1 -14 -8t-19 -12t-19 -9.5t-18 -4.5q-12 0 -21 9t-9 21q0 19 51.5 62t83.5 43q29 0 29 -27q0 -28 4 -282h14q13 0 21 -11.5 t8 -25.5q0 -12 -5.5 -19.5t-20.5 -10t-22 -3t-28 -0.5q-4 0 -8 -1q-3 0 -26 7q-16 4 -28 8z" />
<glyph unicode="&#xbe;" horiz-adv-x="894" d="M600 1038q11 31 39 31q17 0 31 -13t14 -30q0 -6 -4 -14q-155 -295 -283 -569.5t-171 -365.5t-64 -91q-14 0 -23.5 10.5t-9.5 23.5q1 10 33 89.5t95.5 222t133.5 284.5q166 324 209 422zM678 438q0 14 12.5 22.5t30.5 8.5q20 0 35.5 -9.5t15.5 -25.5l-18 -149l77 10 q9 0 17 -14t8 -31q0 -41 -45 -41h-63q-3 -38 -4.5 -81.5t-2 -63t-5 -38.5t-16.5 -25.5t-34 -6.5q-18 0 -30.5 9t-12.5 24q0 69 8 186q-58 4 -145 4q-23 0 -31 11.5t-8 23.5q0 101 25 203q24 12 47 12q17 0 28 -7t11 -18q-13 -93 -18.5 -112.5t-8.5 -40.5q66 -8 106 -8 q2 21 9.5 73.5t11.5 83.5zM113 967q-9 0 -15 12t-6 25q0 24 14 24q24 0 92 1t93 1q5 0 9.5 -14t4.5 -27t-13 -29.5t-41 -42.5t-38 -36q57 -4 91 -41t34 -82q0 -57 -45.5 -96t-108.5 -39q-30 0 -69 13.5t-39 37.5q0 13 7.5 23t20.5 10q10 0 35 -11.5t45 -11.5q46 0 69 20.5 t23 51.5q0 32 -22.5 52.5t-54.5 20.5q-11 0 -27 -9t-22 -9q-17 0 -30.5 14.5t-13.5 30.5q0 6 2 12.5t7 13.5t9.5 13.5t12.5 15t13.5 14t15 14t14.5 12.5t14 12t11 10q-10 -1 -29.5 -2.5t-35 -2.5t-27.5 -1z" />
<glyph unicode="&#xbf;" horiz-adv-x="950" d="M745 72q11 55 60 55q24 0 41.5 -19.5t17.5 -50.5q0 -41 -21 -88.5t-64 -95.5t-122.5 -79.5t-181.5 -31.5q-84 0 -150 24t-105.5 62t-64.5 90.5t-34.5 104t-9.5 107.5q0 61 19.5 115.5t51 96t69.5 80.5t77 77t72 76.5t55 88t26 104.5q1 10 1 32t1.5 28.5t7 18t18 15 t32.5 3.5q24 0 31.5 -8t7.5 -37q0 -5 -1 -22t-1 -30q-1 -63 -21 -119.5t-51.5 -98.5t-69.5 -81.5t-76 -77t-69 -76t-50.5 -87.5t-19.5 -103q0 -72 24 -126.5t63.5 -84.5t84 -44.5t92.5 -14.5q227 0 260 197zM586 1049q-9 -21 -29 -34.5t-41 -13.5q-22 0 -40.5 18.5 t-18.5 53.5q0 84 71 84q28 0 46 -21t18 -53q0 -19 -6 -34z" />
<glyph unicode="&#xc0;" horiz-adv-x="1247" d="M827 1448q-17 -23 -41 -23q-16 0 -35 9t-45 25t-42 24q-10 4 -42.5 18.5t-44.5 20.5t-32 18t-27.5 22.5t-7.5 22.5q0 15 13.5 29t33.5 14q18 0 42.5 -8.5t57 -23.5t48.5 -21q67 -28 101 -51t34 -47q0 -13 -13 -29zM162 483q-32 0 -49 12t-17 29q0 18 17 30.5t49 12.5h33 q72 217 176 404.5t231 314.5q18 21 62 21q27 0 46 -10.5t19 -32.5q74 -96 132 -219t97.5 -245.5t76.5 -243.5t89.5 -247t116.5 -223q8 -16 8 -29q0 -23 -14 -41t-35 -18q-27 0 -58.5 45.5t-63.5 124.5t-54 140t-46 135q-8 24 -11 34q-107 -20 -260 -20q-84 0 -242.5 9.5 t-173.5 10.5q-86 -264 -119 -461q0 -20 -13 -30.5t-32 -10.5q-17 0 -30 10.5t-13 30.5q15 223 84 467h-6zM582 1130q-135 -224 -260 -563h618q-15 41 -41 158q-20 89 -52 167.5t-63 128t-61 86.5t-49.5 53t-26.5 16q-19 0 -65 -46z" />
<glyph unicode="&#xc1;" horiz-adv-x="1247" d="M469 1464q-2 6 -2 17q0 18 13 32.5t27.5 21.5t43 19.5t43.5 20.5q14 7 41.5 23.5t43 25t35.5 16t34 7.5t25 -11t11 -32q0 -31 -62 -73.5t-127.5 -70.5t-84.5 -28q-33 0 -41 32zM162 483q-32 0 -49 12t-17 29q0 18 17 30.5t49 12.5h33q72 217 176 404.5t231 314.5 q18 21 62 21q27 0 46 -10.5t19 -32.5q74 -96 132 -219t97.5 -245.5t76.5 -243.5t89.5 -247t116.5 -223q8 -16 8 -29q0 -23 -14 -41t-35 -18q-27 0 -58.5 45.5t-63.5 124.5t-54 140t-46 135q-8 24 -11 34q-107 -20 -260 -20q-84 0 -242.5 9.5t-173.5 10.5q-86 -264 -119 -461 q0 -20 -13 -30.5t-32 -10.5q-17 0 -30 10.5t-13 30.5q15 223 84 467h-6zM582 1130q-135 -224 -260 -563h618q-15 41 -41 158q-20 89 -52 167.5t-63 128t-61 86.5t-49.5 53t-26.5 16q-19 0 -65 -46z" />
<glyph unicode="&#xc2;" horiz-adv-x="1257" d="M346 1473q-2 6 -2 18q0 34 90 78.5t121 44.5q16 0 28.5 -12t12.5 -33q0 -15 -96 -71t-121 -56t-33 31zM668 1585q9 29 32 29q15 0 34.5 -9t46 -24t42.5 -22q51 -24 72 -41t20 -35q0 -14 -11 -27.5t-27 -13.5q-34 0 -97 45q-21 14 -46.5 28.5t-37.5 21.5t-21 16.5t-9 19.5 q0 8 2 12zM162 483q-32 0 -49 12t-17 29q0 18 17 30.5t49 12.5h33q72 217 176 404.5t231 314.5q18 21 62 21q27 0 46 -10.5t19 -32.5q74 -96 132 -219t97.5 -245.5t76.5 -243.5t89.5 -247t116.5 -223q8 -16 8 -29q0 -23 -14 -41t-35 -18q-27 0 -58.5 45.5t-63.5 124.5 t-54 140t-46 135q-8 24 -11 34q-107 -20 -260 -20q-84 0 -242.5 9.5t-173.5 10.5q-86 -264 -119 -461q0 -20 -13 -30.5t-32 -10.5q-17 0 -30 10.5t-13 30.5q15 223 84 467h-6zM582 1130q-135 -224 -260 -563h618q-15 41 -41 158q-20 89 -52 167.5t-63 128t-61 86.5t-49.5 53 t-26.5 16q-19 0 -65 -46z" />
<glyph unicode="&#xc3;" horiz-adv-x="1239" d="M403 1513q-16 -24 -36 -24q-15 0 -26 14t-11 33q0 53 66.5 94t125.5 41q36 0 67.5 -19t54 -46.5t43 -55t44.5 -46.5t49 -19q19 0 35.5 17t26.5 37t23 37t26 17t23 -11.5t10 -29.5q0 -60 -47 -103.5t-107 -43.5q-27 0 -39 4q-30 0 -55.5 17.5t-43.5 42t-34.5 49t-37 42 t-42.5 17.5q-58 0 -115 -64zM162 483q-32 0 -49 12t-17 29q0 18 17 30.5t49 12.5h33q72 217 176 404.5t231 314.5q18 21 62 21q27 0 46 -10.5t19 -32.5q74 -96 132 -219t97.5 -245.5t76.5 -243.5t89.5 -247t116.5 -223q8 -16 8 -29q0 -23 -14 -41t-35 -18q-27 0 -58.5 45.5 t-63.5 124.5t-54 140t-46 135q-8 24 -11 34q-107 -20 -260 -20q-84 0 -242.5 9.5t-173.5 10.5q-86 -264 -119 -461q0 -20 -13 -30.5t-32 -10.5q-17 0 -30 10.5t-13 30.5q15 223 84 467h-6zM582 1130q-135 -224 -260 -563h618q-15 41 -41 158q-20 89 -52 167.5t-63 128 t-61 86.5t-49.5 53t-26.5 16q-19 0 -65 -46z" />
<glyph unicode="&#xc4;" horiz-adv-x="1239" d="M858 1622h8q31 0 51.5 -34.5t20.5 -61.5q0 -29 -35 -53.5t-57 -24.5q-30 0 -56 28.5t-26 59.5q0 30 28.5 55.5t65.5 30.5zM500 1616h8q36 0 61 -28t25 -56q0 -29 -25 -51.5t-51 -22.5q-44 0 -64 20.5t-20 65.5q0 63 66 72zM162 483q-32 0 -49 12t-17 29q0 18 17 30.5 t49 12.5h33q72 217 176 404.5t231 314.5q18 21 62 21q27 0 46 -10.5t19 -32.5q74 -96 132 -219t97.5 -245.5t76.5 -243.5t89.5 -247t116.5 -223q8 -16 8 -29q0 -23 -14 -41t-35 -18q-27 0 -58.5 45.5t-63.5 124.5t-54 140t-46 135q-8 24 -11 34q-107 -20 -260 -20 q-84 0 -242.5 9.5t-173.5 10.5q-86 -264 -119 -461q0 -20 -13 -30.5t-32 -10.5q-17 0 -30 10.5t-13 30.5q15 223 84 467h-6zM582 1130q-135 -224 -260 -563h618q-15 41 -41 158q-20 89 -52 167.5t-63 128t-61 86.5t-49.5 53t-26.5 16q-19 0 -65 -46z" />
<glyph unicode="&#xc5;" horiz-adv-x="1247" d="M678 1237q-38 -12 -68 -12q-69 0 -111 44t-42 103q0 78 67 119q0 2 -1 5t-1 5q0 43 76 43q71 0 118.5 -41.5t47.5 -120.5q0 -50 -21.5 -91t-64.5 -54zM688 1423q-24 54 -88 54q-17 0 -37 -4q15 -20 15 -23q-50 -23 -50 -72q0 -30 22 -52.5t58 -22.5q84 0 84 79q0 9 -4 41 zM162 483q-32 0 -49 12t-17 29q0 18 17 30.5t49 12.5h33q72 217 176 404.5t231 314.5q18 21 62 21q27 0 46 -10.5t19 -32.5q74 -96 132 -219t97.5 -245.5t76.5 -243.5t89.5 -247t116.5 -223q8 -16 8 -29q0 -23 -14 -41t-35 -18q-27 0 -58.5 45.5t-63.5 124.5t-54 140 t-46 135q-8 24 -11 34q-107 -20 -260 -20q-84 0 -242.5 9.5t-173.5 10.5q-86 -264 -119 -461q0 -20 -13 -30.5t-32 -10.5q-17 0 -30 10.5t-13 30.5q15 223 84 467h-6zM582 1130q-135 -224 -260 -563h618q-15 41 -41 158q-20 89 -52 167.5t-63 128t-61 86.5t-49.5 53 t-26.5 16q-19 0 -65 -46z" />
<glyph unicode="&#xc6;" horiz-adv-x="1980" d="M1858 1268q45 -20 45 -51q0 -13 -11 -21t-30 -8q-1 0 -21 4.5t-53.5 11t-76 12.5t-99.5 10.5t-113 4.5q-86 0 -153 -11t-125 -36.5t-89.5 -74t-31.5 -118.5q0 -168 133 -219q83 29 182 29q95 0 191 -23.5t96 -56.5q0 -12 -11 -21.5t-34.5 -15t-48.5 -9t-66.5 -5t-73 -2 t-82.5 -0.5q-46 0 -69 2q-96 -29 -156.5 -97t-60.5 -180q0 -54 76 -198q31 -25 71.5 -41.5t89.5 -23t82.5 -8t83.5 -1.5q127 0 258.5 55.5t163.5 104.5q15 24 39 24q18 0 29.5 -11.5t11.5 -31.5q0 -21 -14 -41q-46 -66 -135 -114t-174.5 -67.5t-159.5 -19.5q-167 0 -275 35 q-2 -23 -15 -40t-32 -17q-51 0 -121 168q-58 70 -69 180l-43 131q-107 -20 -260 -20q-84 0 -242.5 9.5t-173.5 10.5q-86 -264 -119 -461q0 -20 -13 -30.5t-32 -10.5q-17 0 -30 10.5t-13 30.5q15 223 84 467h-6q-32 0 -49 12t-17 29q0 18 17 30.5t49 12.5h33 q72 217 176 404.5t231 314.5q18 21 62 21q27 0 46 -10.5t19 -32.5q33 -43 61.5 -88t55 -100.5t43.5 -93t41.5 -107.5t34 -97.5t35.5 -110.5t32 -102q27 90 103 152q-138 71 -138 256q0 83 26 146.5t69 103.5t104.5 65t126 35t139.5 10q113 0 223.5 -20t172.5 -45zM582 1130 q-135 -224 -260 -563h618q-15 41 -41 158q-20 89 -52 167.5t-63 128t-61 86.5t-49.5 53t-26.5 16q-19 0 -65 -46z" />
<glyph unicode="&#xc7;" horiz-adv-x="1103" d="M1028 1182q25 -17 25 -41q0 -19 -16 -34t-38 -15q-23 0 -41 18q-137 88 -286 88q-179 0 -321 -112t-175 -285q-22 -113 -22 -219q0 -128 36.5 -223t100.5 -150t143.5 -81t173.5 -26q219 0 424 115q6 2 15 2q28 0 28 -33q0 -77 -121.5 -136.5t-302.5 -63.5 q15 -24 45.5 -46.5t56.5 -38t46 -46.5t20 -74q0 -66 -49.5 -114t-118.5 -48q-59 0 -108 40.5t-49 72.5q0 17 10 27t24 10q9 0 29 -13.5t48.5 -27t58.5 -13.5q25 0 47 15.5t22 36.5q0 16 -28 36.5t-63 40.5t-70.5 60t-47.5 88q-238 31 -362 203q-129 177 -129 395 q0 122 37 235t88 189q84 128 222 203t294 75q188 0 354 -110z" />
<glyph unicode="&#xc8;" horiz-adv-x="1019" d="M858 1432q-26 -17 -49 -17q-18 0 -35 9t-39.5 27.5t-32.5 25.5q-9 5 -31 18t-38.5 23t-35 23t-28.5 25.5t-10 22.5q0 17 25 29t43 12q16 0 76 -28t118 -69.5t58 -70.5q0 -18 -21 -30zM893 1208q45 -17 45 -47q0 -13 -11 -22t-32 -9q-1 0 -21.5 4.5t-55 11t-78 13 t-102.5 11t-116 4.5q-407 0 -407 -236q0 -161 137 -211q85 27 186 27q97 0 196 -22.5t99 -55.5t-80.5 -42t-242.5 -9q-49 0 -72 2q-99 -29 -161 -95.5t-62 -175.5q0 -54 15.5 -96.5t37.5 -69.5t59.5 -46.5t69 -29.5t79.5 -15t77 -6t75 -1q134 0 268 53.5t167 102.5 q14 22 38 22q18 0 30.5 -11.5t12.5 -29.5q0 -19 -14 -39q-70 -95 -214.5 -145.5t-268.5 -50.5q-34 0 -59 0.5t-69 4.5t-77.5 10.5t-77 20t-76 32t-65.5 47.5t-54.5 65t-35 86t-13.5 109q0 205 130 303q-140 70 -140 246q0 354 477 354q115 0 229 -19.5t177 -44.5z" />
<glyph unicode="&#xc9;" horiz-adv-x="1011" d="M487 1430q-26 14 -26 30q0 12 46.5 53.5t104 79t82.5 37.5q15 0 26 -13.5t11 -33.5q0 -25 -18 -43q-37 -37 -97 -77t-102 -40q-13 0 -27 7zM893 1208q45 -17 45 -47q0 -13 -11 -22t-32 -9q-1 0 -21.5 4.5t-55 11t-78 13t-102.5 11t-116 4.5q-407 0 -407 -236 q0 -161 137 -211q85 27 186 27q97 0 196 -22.5t99 -55.5t-80.5 -42t-242.5 -9q-49 0 -72 2q-99 -29 -161 -95.5t-62 -175.5q0 -54 15.5 -96.5t37.5 -69.5t59.5 -46.5t69 -29.5t79.5 -15t77 -6t75 -1q134 0 268 53.5t167 102.5q14 22 38 22q18 0 30.5 -11.5t12.5 -29.5 q0 -19 -14 -39q-70 -95 -214.5 -145.5t-268.5 -50.5q-34 0 -59 0.5t-69 4.5t-77.5 10.5t-77 20t-76 32t-65.5 47.5t-54.5 65t-35 86t-13.5 109q0 205 130 303q-140 70 -140 246q0 354 477 354q115 0 229 -19.5t177 -44.5z" />
<glyph unicode="&#xca;" horiz-adv-x="1034" d="M360 1446q-20 6 -20 22q0 43 95 110t130 67q11 0 19 -8t8 -21q0 -42 -77 -108t-128 -66q-11 0 -27 4zM709 1612q9 20 28 20q48 0 116.5 -62.5t68.5 -107.5q0 -13 -7 -24t-18 -11q-15 0 -33 12t-46.5 40t-31.5 30q-10 8 -34.5 22.5t-37 26.5t-12.5 29q0 11 7 25zM893 1208 q45 -17 45 -47q0 -13 -11 -22t-32 -9q-1 0 -21.5 4.5t-55 11t-78 13t-102.5 11t-116 4.5q-407 0 -407 -236q0 -161 137 -211q85 27 186 27q97 0 196 -22.5t99 -55.5t-80.5 -42t-242.5 -9q-49 0 -72 2q-99 -29 -161 -95.5t-62 -175.5q0 -54 15.5 -96.5t37.5 -69.5t59.5 -46.5 t69 -29.5t79.5 -15t77 -6t75 -1q134 0 268 53.5t167 102.5q14 22 38 22q18 0 30.5 -11.5t12.5 -29.5q0 -19 -14 -39q-70 -95 -214.5 -145.5t-268.5 -50.5q-34 0 -59 0.5t-69 4.5t-77.5 10.5t-77 20t-76 32t-65.5 47.5t-54.5 65t-35 86t-13.5 109q0 205 130 303 q-140 70 -140 246q0 354 477 354q115 0 229 -19.5t177 -44.5z" />
<glyph unicode="&#xcb;" horiz-adv-x="1038" d="M920 1208q45 -17 45 -47q0 -13 -11 -22t-32 -9q-1 0 -21.5 4.5t-55 11t-78 13t-102.5 11t-116 4.5q-408 0 -408 -236q0 -161 138 -211q86 27 186 27q97 0 196 -22.5t99 -55.5t-80.5 -42t-243.5 -9q-48 0 -71 2q-100 -29 -162 -95.5t-62 -175.5q0 -42 9.5 -77.5t24 -61 t38.5 -45.5t47 -33t56.5 -22.5t59 -14t62.5 -7t59.5 -3t57.5 -0.5q134 0 267.5 53.5t166.5 102.5q14 22 39 22q18 0 30.5 -11.5t12.5 -29.5q0 -19 -14 -39q-70 -95 -215 -145.5t-269 -50.5q-45 0 -78.5 1.5t-92 9t-102 21.5t-94 42t-83 66t-54.5 98.5t-22 136.5 q0 205 129 303q-139 70 -139 246q0 354 477 354q115 0 229 -19.5t177 -44.5zM358 1513q31 -13 49.5 -37.5t18.5 -48.5q0 -25 -20 -41t-58 -16q-39 0 -58.5 17t-19.5 45q0 31 20.5 57.5t49.5 26.5q9 0 18 -3zM705 1518h8q33 0 53 -24.5t20 -57.5q0 -29 -18.5 -48.5 t-54.5 -19.5q-41 0 -62.5 19.5t-21.5 46.5q0 31 21 56t55 28z" />
<glyph unicode="&#xcc;" horiz-adv-x="450" d="M309 86q47 -3 68.5 -20t21.5 -37q0 -13 -7.5 -23t-18.5 -10q-7 0 -37 -0.5t-49.5 0t-52 1t-53.5 4t-43 8.5t-33 13.5t-11 20.5q0 37 80 51q4 0 4 154v338q0 127 7.5 328t7.5 233q0 30 -8.5 43t-18.5 13.5t-18.5 12.5t-8.5 41q0 19 42.5 27t78.5 8q58 0 98.5 -18t40.5 -43 q0 -32 -69 -57q-29 -11 -39 -156t-10 -426q0 -123 9 -314t19 -192zM229 1477q-10 9 -12.5 11t-8 9t-9.5 13.5t-20 28t-36 48.5q-39 53 -39 68q0 14 13.5 23.5t27.5 9.5q35 0 56 -37q20 -34 40 -55.5t30.5 -27.5t17 -16t6.5 -28q0 -20 -15 -37t-34 -17q-10 0 -17 7z" />
<glyph unicode="&#xcd;" horiz-adv-x="464" d="M305 88q47 -3 68.5 -20t21.5 -37q0 -13 -7.5 -23t-18.5 -10q-7 0 -37 -0.5t-49.5 0t-52 1t-53.5 4t-43 8.5t-33 13.5t-11 20.5q0 37 80 51q4 0 4 154v338q0 127 7 328t7 233q0 30 -8.5 43t-18 14t-18 13t-8.5 41q0 19 42 26.5t79 7.5q58 0 98.5 -18t40.5 -43 q0 -32 -69 -57q-29 -11 -39.5 -157t-10.5 -425q0 -121 9.5 -313t19.5 -193zM172 1493q2 4 6.5 15t20.5 29.5t59 61.5q41 41 72 41q14 0 24.5 -11.5t10.5 -22.5q0 -4 -13 -30.5t-32.5 -59t-48 -58.5t-54.5 -26q-19 0 -34 14t-15 31q0 10 4 16z" />
<glyph unicode="&#xce;" horiz-adv-x="534" d="M332 84q47 -3 68.5 -20t21.5 -37q0 -13 -8 -23t-19 -10q-7 0 -37 -0.5t-49.5 0t-51.5 1t-53.5 4t-43 8.5t-32.5 13.5t-11 20.5q0 37 80 51q4 0 4 154v338q0 127 7 328t7 233q0 30 -8.5 43t-18 13.5t-18 12.5t-8.5 41q0 19 42.5 27t78.5 8q58 0 98.5 -18t40.5 -43 q0 -32 -70 -58q-29 -11 -39 -155.5t-10 -425.5q0 -121 9.5 -313t19.5 -193zM389 1552q20 -24 51 -55.5t44.5 -48.5t13.5 -31q0 -17 -12.5 -29t-28.5 -12q-4 0 -37.5 35.5t-76.5 81.5t-62 63q-26 -24 -64.5 -72t-66.5 -79t-41 -31t-23 13.5t-10 31.5q0 10 6 19 q29 41 108.5 130t94.5 89q9 0 21.5 -8.5t25.5 -23.5t23 -27.5t21 -28t13 -17.5z" />
<glyph unicode="&#xcf;" horiz-adv-x="505" d="M332 72q46 -3 68 -20t22 -38q0 -13 -8 -22.5t-19 -9.5q-7 0 -37 -0.5t-49.5 0t-51.5 1t-53.5 4t-43 8.5t-32.5 13.5t-11 20.5q0 37 80 51q4 0 4 153v338q0 127 7 328.5t7 233.5q0 30 -8.5 43t-18 13.5t-18 12.5t-8.5 41q0 19 42.5 27t78.5 8q58 0 98.5 -18t40.5 -43 q0 -32 -70 -58q-29 -11 -39 -155.5t-10 -425.5q0 -121 9.5 -313t19.5 -193zM125 1513q27 -12 42 -32t15 -41q0 -22 -16.5 -35.5t-50.5 -13.5q-66 0 -66 53q0 26 17.5 49t42.5 23q7 0 16 -3zM418 1518h6q29 0 46 -21t17 -49q0 -25 -15.5 -42t-47.5 -17q-36 0 -54 16.5 t-18 40.5q0 26 18.5 47.5t47.5 24.5z" />
<glyph unicode="&#xd0;" horiz-adv-x="1275" d="M252 131q0 19 -1 63t-1 68q0 113 4 367q-12 0 -30 -2t-25 -2q-76 0 -76 47q0 13 3 21.5t12 14t17 9t26.5 4.5t31 1.5t39.5 0.5h4l6 465q-54 -12 -106.5 -32t-80.5 -34t-30 -14q-18 0 -34.5 23.5t-16.5 48.5q0 31 45.5 59t145.5 48t235 20q140 0 260 -30t206 -81.5 t152.5 -118t106.5 -142.5t60 -151.5t20 -148.5q0 -120 -39 -225t-104 -178.5t-148.5 -126t-174 -78t-179.5 -25.5q-129 0 -191 59q-1 0 -3.5 1t-4.5 1q-5 0 -30 -6t-40 -6q-57 0 -59 80zM608 727h6q22 0 35 -14t13 -33q0 -20 -12.5 -33.5t-35.5 -13.5q-80 0 -159 -2t-99 -2 v-215q0 -68 0.5 -100.5t6.5 -57.5t9.5 -30t21.5 -23.5t30 -32.5q35 -41 156 -41q71 0 145 16.5t148 54.5t131 93t93 138.5t36 184.5q0 109 -50 216t-136 190t-211 134.5t-265 51.5q-38 0 -104 -4l-9 -481q230 0 250 4z" />
<glyph unicode="&#xd1;" horiz-adv-x="1015" d="M154 70q-3 -34 -20.5 -52t-39.5 -18q-19 0 -34 12.5t-19 32.5q31 422 31 774q0 243 -15 404q0 31 24 50t60 19q58 0 88 -49q39 -66 194 -357t282.5 -521.5t144.5 -229.5q2 35 2 156q0 213 -9 506.5t-18 369.5q-2 10 -2 39q0 78 68 78q42 0 63 -26t21 -72q0 -56 -27 -56 q-7 0 -11.5 -300.5t-4.5 -483.5q0 -45 1 -120.5t1 -104.5q0 -67 -23 -99t-59 -32q-54 0 -84 51q-79 130 -228.5 401t-265.5 492t-106 221q-6 0 -6 -154q0 -56 1 -223.5t1 -261.5q0 -321 -10 -446zM313 1462q-16 -24 -39 -24q-17 0 -30 15t-13 34q0 54 71 97.5t132 43.5 q38 0 71.5 -20t57.5 -49t46 -58t47.5 -49t52.5 -20q21 0 38.5 18t27.5 39t23.5 39t26.5 18q14 0 25.5 -12t11.5 -31q0 -63 -51.5 -109t-116.5 -46q-17 0 -37 4q-32 0 -59 18t-46 44t-37 52t-39 44t-44 18q-63 0 -119 -66z" />
<glyph unicode="&#xd2;" horiz-adv-x="1001" d="M246 1245q50 0 65 -31q135 80 297 80q79 0 156 -24t149 -75.5t127 -125.5t88 -182t33 -236q0 -140 -48.5 -261.5t-131 -206t-194.5 -133t-236 -48.5q-98 0 -183.5 36t-147.5 98.5t-106.5 146.5t-66.5 181t-22 200q0 162 56 314.5t165 266.5zM1024 883q-117 321 -418 321 q-89 0 -174 -26t-139 -56q-69 -86 -106 -211t-37 -260q0 -111 25 -211.5t72.5 -182t124 -129.5t171.5 -48q97 0 191.5 41.5t169 113.5t120 177.5t45.5 224.5q0 121 -45 246zM618 1434q-10 9 -12.5 11t-8 9t-9.5 13.5t-20 28t-36 48.5q-38 51 -38 68q0 14 13.5 23.5t27.5 9.5 q34 0 55 -37q20 -34 40 -55.5t30.5 -27.5t17 -16t6.5 -28q0 -20 -15 -37t-34 -17q-10 0 -17 7z" />
<glyph unicode="&#xd3;" horiz-adv-x="1001" d="M246 1245q50 0 65 -31q135 80 297 80q79 0 156 -24t149 -75.5t127 -125.5t88 -182t33 -236q0 -140 -48.5 -261.5t-131 -206t-194.5 -133t-236 -48.5q-98 0 -183.5 36t-147.5 98.5t-106.5 146.5t-66.5 181t-22 200q0 162 56 314.5t165 266.5zM1024 883q-117 321 -418 321 q-89 0 -174 -26t-139 -56q-69 -86 -106 -211t-37 -260q0 -111 25 -211.5t72.5 -182t124 -129.5t171.5 -48q97 0 191.5 41.5t169 113.5t120 177.5t45.5 224.5q0 121 -45 246zM537 1485q2 4 6.5 15t20.5 29.5t59 61.5q41 41 71 41q14 0 24.5 -11.5t10.5 -23.5q0 -8 -20 -48.5 t-56.5 -83t-70.5 -42.5q-19 0 -34.5 14t-15.5 31q0 10 5 17z" />
<glyph unicode="&#xd4;" horiz-adv-x="1001" d="M246 1245q50 0 65 -31q135 80 297 80q79 0 156 -24t149 -75.5t127 -125.5t88 -182t33 -236q0 -140 -48.5 -261.5t-131 -206t-194.5 -133t-236 -48.5q-98 0 -183.5 36t-147.5 98.5t-106.5 146.5t-66.5 181t-22 200q0 162 56 314.5t165 266.5zM1024 883q-117 321 -418 321 q-89 0 -174 -26t-139 -56q-69 -86 -106 -211t-37 -260q0 -111 25 -211.5t72.5 -182t124 -129.5t171.5 -48q97 0 191.5 41.5t169 113.5t120 177.5t45.5 224.5q0 121 -45 246zM731 1581q21 -25 56 -60.5t49 -54t14 -34.5q0 -18 -13.5 -30.5t-29.5 -12.5q-5 0 -41.5 38.5 t-83.5 89t-68 68.5q-29 -27 -71.5 -79.5t-72.5 -87t-44 -34.5q-15 0 -26 16t-11 34q0 11 6 20q35 48 120.5 144t102.5 96q10 0 23.5 -9.5t28 -26t25 -29.5t23 -30t13.5 -18z" />
<glyph unicode="&#xd5;" horiz-adv-x="1191" d="M246 1245q50 0 65 -31q135 80 297 80q79 0 156 -24t149 -75.5t127 -125.5t88 -182t33 -236q0 -140 -48.5 -261.5t-131 -206t-194.5 -133t-236 -48.5q-98 0 -183.5 36t-147.5 98.5t-106.5 146.5t-66.5 181t-22 200q0 162 56 314.5t165 266.5zM1024 883q-117 321 -418 321 q-89 0 -174 -26t-139 -56q-69 -86 -106 -211t-37 -260q0 -111 25 -211.5t72.5 -182t124 -129.5t171.5 -48q97 0 191.5 41.5t169 113.5t120 177.5t45.5 224.5q0 121 -45 246zM352 1538q-17 -25 -39 -25q-18 0 -31.5 15.5t-13.5 36.5q0 57 73.5 102t137.5 45q34 0 64.5 -15 t51.5 -38t42.5 -49.5t39.5 -49.5t40.5 -38t46.5 -15q22 0 41 18.5t29.5 41t24.5 41t28 18.5q15 0 26 -12t11 -33q0 -66 -53 -114t-121 -48q-15 0 -39 4q-33 0 -61 19t-48 46.5t-38.5 54.5t-40.5 46t-46 19q-65 0 -125 -70z" />
<glyph unicode="&#xd6;" horiz-adv-x="1220" d="M246 1245q50 0 65 -31q135 80 297 80q79 0 156 -24t149 -75.5t127 -125.5t88 -182t33 -236q0 -140 -48.5 -261.5t-131 -206t-194.5 -133t-236 -48.5q-98 0 -183.5 36t-147.5 98.5t-106.5 146.5t-66.5 181t-22 200q0 162 56 314.5t165 266.5zM1024 883q-117 321 -418 321 q-89 0 -174 -26t-139 -56q-69 -86 -106 -211t-37 -260q0 -111 25 -211.5t72.5 -182t124 -129.5t171.5 -48q97 0 191.5 41.5t169 113.5t120 177.5t45.5 224.5q0 121 -45 246zM498 1597q28 -12 44.5 -33t16.5 -44t-18.5 -38.5t-53.5 -15.5q-71 0 -71 58q0 28 18 51.5t45 23.5 q13 0 19 -2zM813 1602h8q31 0 49.5 -22t18.5 -52q0 -27 -17.5 -45.5t-50.5 -18.5q-39 0 -58.5 18t-19.5 44q0 28 19.5 50.5t50.5 25.5z" />
<glyph unicode="&#xd7;" horiz-adv-x="1136" d="M264 1040q14 -12 85 -89.5t137.5 -142.5t88.5 -65q10 0 43.5 28t76.5 71.5t83 85.5t76 80t43 45q10 10 23 10q20 0 36.5 -24.5t16.5 -53.5v-8q-3 -23 -76.5 -100.5t-146 -150.5t-72.5 -85q0 -19 72 -97t144.5 -152t72.5 -85q0 -22 -30.5 -35.5t-59.5 -13.5q-3 0 -8 1 l-5 1q-19 3 -145 147t-139 144q-21 0 -88 -62t-142.5 -140t-97.5 -95q-24 -18 -43 -18q-25 0 -40 23.5t-15 53.5v11q2 16 52 63t109 95t107.5 95.5t48.5 65.5q0 22 -109 137.5t-169 169.5q-19 16 -19 35q0 23 24.5 42.5t47.5 19.5q11 0 18 -7z" />
<glyph unicode="&#xd8;" horiz-adv-x="1191" d="M856 1464q12 29 43 29q22 0 42 -15t20 -32l-12 -27q-39 -90 -83 -188q127 -71 211 -233.5t84 -346.5q0 -140 -49 -262t-131.5 -206t-195 -132.5t-236.5 -48.5q-129 0 -232 59q-13 -28 -30 -69t-25 -58t-21 -37t-27 -27t-34 -7q-18 0 -27.5 10t-9.5 25q0 23 9 45t36 74 t50 104q-101 91 -156 235.5t-55 307.5t55 314.5t164 266.5q50 0 65 -31q135 80 297 80q90 0 160 -22zM1024 883q-68 184 -197 262q-87 -191 -235.5 -494t-239.5 -510q83 -61 193 -61q97 0 191 41.5t168 113.5t119.5 177.5t45.5 224.5q0 121 -45 246zM293 1122 q-69 -88 -106 -212t-37 -259q0 -128 33.5 -244t97.5 -196q84 191 212 463t238 514q-66 16 -123 16q-159 0 -315 -82z" />
<glyph unicode="&#xd9;" horiz-adv-x="1173" d="M1055 1309q10 0 17 -2.5t16.5 -11t15.5 -28.5t8 -50q5 -61 9.5 -552.5t4.5 -609.5q0 -26 -15 -43.5t-42 -17.5q-25 0 -40 16t-15 35l4 145q-4 -8 -12.5 -20.5t-42.5 -44.5t-77 -56.5t-120 -44.5t-168 -20q-128 0 -227 36t-160 95.5t-99.5 143.5t-53.5 170.5t-15 187.5 q0 134 26.5 284t52 233.5t38.5 107.5q19 32 53 32q19 0 33 -12.5t14 -32.5q0 -10 -2 -16l-11 -31q-11 -32 -18.5 -56.5t-20.5 -70t-22.5 -90.5t-19 -98.5t-14.5 -112.5t-5 -117q0 -106 17.5 -192t50 -145t74 -101t94 -65.5t105.5 -34t112 -10.5q55 0 99 5t90.5 20.5 t81.5 41.5t67 69t52 101.5t32 142t12 187.5q0 114 -9 253.5t-17.5 232.5t-8.5 95q0 21 19.5 36.5t36.5 15.5zM662 1444q-11 9 -12.5 10.5t-8 9t-10.5 13.5t-20 28t-36 49q-38 51 -38 68q0 14 13.5 23.5t27.5 9.5q34 0 55 -37q20 -34 40 -55.5t30.5 -27.5t17 -16t6.5 -28 q0 -20 -15 -36.5t-34 -16.5q-10 0 -16 6z" />
<glyph unicode="&#xda;" horiz-adv-x="1183" d="M1055 1309q10 0 17 -2.5t16.5 -11t15.5 -28.5t8 -50q5 -61 9.5 -552.5t4.5 -609.5q0 -26 -15 -43.5t-42 -17.5q-25 0 -40 16t-15 35l4 145q-4 -8 -12.5 -20.5t-42.5 -44.5t-77 -56.5t-120 -44.5t-168 -20q-128 0 -227 36t-160 95.5t-99.5 143.5t-53.5 170.5t-15 187.5 q0 134 26.5 284t52 233.5t38.5 107.5q19 32 53 32q19 0 33 -12.5t14 -32.5q0 -10 -2 -16l-11 -31q-11 -32 -18.5 -56.5t-20.5 -70t-22.5 -90.5t-19 -98.5t-14.5 -112.5t-5 -117q0 -106 17.5 -192t50 -145t74 -101t94 -65.5t105.5 -34t112 -10.5q55 0 99 5t90.5 20.5 t81.5 41.5t67 69t52 101.5t32 142t12 187.5q0 114 -9 253.5t-17.5 232.5t-8.5 95q0 21 19.5 36.5t36.5 15.5zM528 1491q2 4 6.5 15t20.5 29.5t59 61.5q41 41 72 41q14 0 24.5 -11.5t10.5 -22.5q0 -4 -13 -30.5t-32.5 -59t-48 -58.5t-54.5 -26q-19 0 -34 14t-15 31q0 10 4 16 z" />
<glyph unicode="&#xdb;" horiz-adv-x="1187" d="M330 1432q13 -13 28 -13q24 0 83 42t87 55q58 27 58 51q0 14 -15.5 34.5t-31.5 20.5q-31 0 -119 -68q-11 -8 -41.5 -24.5t-49 -32t-18.5 -31.5q0 -15 19 -34zM717 1620q3 6 14 6q41 0 127 -58t86 -89q0 -15 -14 -33.5t-25 -18.5q-9 0 -22.5 6.5t-30.5 19t-29.5 23 t-30.5 26t-24 20.5q-57 46 -57 80q0 9 6 18zM1055 1309q10 0 17 -2.5t16.5 -11t15.5 -28.5t8 -50q5 -61 9.5 -552.5t4.5 -609.5q0 -26 -15 -43.5t-42 -17.5q-25 0 -40 16t-15 35l4 145q-4 -8 -12.5 -20.5t-42.5 -44.5t-77 -56.5t-120 -44.5t-168 -20q-128 0 -227 36 t-160 95.5t-99.5 143.5t-53.5 170.5t-15 187.5q0 134 26.5 284t52 233.5t38.5 107.5q19 32 53 32q19 0 33 -12.5t14 -32.5q0 -10 -2 -16l-11 -31q-11 -32 -18.5 -56.5t-20.5 -70t-22.5 -90.5t-19 -98.5t-14.5 -112.5t-5 -117q0 -106 17.5 -192t50 -145t74 -101t94 -65.5 t105.5 -34t112 -10.5q55 0 99 5t90.5 20.5t81.5 41.5t67 69t52 101.5t32 142t12 187.5q0 114 -9 253.5t-17.5 232.5t-8.5 95q0 21 19.5 36.5t36.5 15.5z" />
<glyph unicode="&#xdc;" horiz-adv-x="1173" d="M1055 1309q10 0 17 -2.5t16.5 -11t15.5 -28.5t8 -50q5 -61 9.5 -552.5t4.5 -609.5q0 -26 -15 -43.5t-42 -17.5q-25 0 -40 16t-15 35l4 145q-4 -8 -12.5 -20.5t-42.5 -44.5t-77 -56.5t-120 -44.5t-168 -20q-128 0 -227 36t-160 95.5t-99.5 143.5t-53.5 170.5t-15 187.5 q0 134 26.5 284t52 233.5t38.5 107.5q19 32 53 32q19 0 33 -12.5t14 -32.5q0 -10 -2 -16l-11 -31q-11 -32 -18.5 -56.5t-20.5 -70t-22.5 -90.5t-19 -98.5t-14.5 -112.5t-5 -117q0 -106 17.5 -192t50 -145t74 -101t94 -65.5t105.5 -34t112 -10.5q55 0 99 5t90.5 20.5 t81.5 41.5t67 69t52 101.5t32 142t12 187.5q0 114 -9 253.5t-17.5 232.5t-8.5 95q0 21 19.5 36.5t36.5 15.5zM487 1593q29 -12 45.5 -33.5t16.5 -43.5q0 -23 -18.5 -38.5t-53.5 -15.5q-71 0 -71 58q0 28 18 51.5t45 23.5q12 0 18 -2zM803 1597h8q31 0 49.5 -22t18.5 -51 q0 -27 -17.5 -45.5t-50.5 -18.5q-39 0 -58.5 18t-19.5 44q0 28 19.5 50t50.5 25z" />
<glyph unicode="&#xdd;" horiz-adv-x="1015" d="M1028 1282q20 29 53 29q25 0 45.5 -14.5t20.5 -34.5q0 -12 -6 -21q-78 -123 -247.5 -351t-234.5 -323q15 -12 15 -30q0 -23 -15 -43.5t-36 -20.5q-12 0 -21 6q-143 -213 -217 -426q-10 -30 -29 -45.5t-39 -15.5q-21 0 -35 14t-14 37q0 17 4 27q70 213 238 485 q-51 49 -107 117t-100 129.5t-92.5 138t-75 121t-58 100t-32.5 56.5q-8 13 -8 30q0 25 18 42.5t43 17.5q38 0 58 -39q52 -102 82.5 -158.5t87.5 -153.5t117 -174t124 -139q72 107 230 319.5t231 319.5zM520 1438q2 4 6.5 15t20.5 29.5t59 61.5q41 41 72 41q14 0 24.5 -11.5 t10.5 -23.5q0 -4 -13 -30.5t-32.5 -59t-48 -58.5t-54.5 -26q-19 0 -34 14t-15 31q0 11 4 17z" />
<glyph unicode="&#xde;" horiz-adv-x="1705" d="M338 1004q36 0 49 -23q77 45 176 45q73 0 145 -27.5t130.5 -76t94.5 -124t36 -163.5q0 -77 -30 -146t-86.5 -123.5t-146 -86t-200.5 -31.5q-144 0 -232 78q-2 -72 -4.5 -150.5t-4 -124.5t-1.5 -57v-60q0 -42 -8 -66t-33 -24q-72 0 -76 179v65v279q0 42 1.5 181t1.5 249 q0 106 -1.5 268.5t-1.5 185.5q0 27 14.5 40.5t37.5 13.5q15 0 27 -4t19.5 -9t13 -15.5t8 -18.5t3.5 -23t1 -24t-0.5 -26.5t-0.5 -25.5q0 -30 -1 -112.5t-1 -137.5q36 56 70 95zM856 684q-14 63 -44.5 109t-71 70t-83 35t-88.5 11q-100 0 -172 -37q-100 -126 -100 -258 q0 -107 67.5 -176t182.5 -69q9 0 24 1t47 6.5t62.5 15t65 29t59.5 45t42 66t17 89.5q0 17 -8 63z" />
<glyph unicode="&#xdf;" horiz-adv-x="1705" d="M135 33q-50 72 -79 214t-29 302q0 150 27 272t73.5 205t111 139t136.5 81.5t153 25.5q110 0 206 -50.5t153 -136.5t57 -186q0 -165 -158 -293q35 -18 75 -51.5t79.5 -81t65.5 -110.5t26 -127q0 -120 -105.5 -188t-256.5 -68q-38 0 -77.5 4.5t-79.5 14.5t-65.5 30 t-25.5 47q0 19 12 31t29 12q4 0 16 -4q73 -33 154 -33q73 0 128.5 15t85 37t48 50.5t24 51t5.5 43.5q0 80 -67 154t-167 134l-10 8q-136 -22 -191 -22q-43 0 -94 12.5t-94 43.5t-43 73q0 14 2.5 25t8.5 18.5t11 13.5t16 9.5t16.5 5.5t19.5 3t18.5 1h20h16.5q173 0 332 -99 q55 23 95 91.5t40 150.5q0 110 -107.5 183t-248.5 73q-373 0 -373 -582q0 -292 106 -485q9 -27 9 -33q0 -25 -15 -43t-37 -18q-28 0 -53 37zM403 668q47 -25 73 -34t56 -9q10 0 64 4q-56 27 -88.5 33t-104.5 6z" />
<glyph unicode="&#xe0;" horiz-adv-x="677" d="M115 682q-19 -16 -39 -16q-29 0 -29 30q0 65 100.5 124t176.5 59q119 0 199.5 -116.5t80.5 -275.5q0 -142 -49 -262l-4 -10q32 -113 82 -113q4 0 12 1t12 1q18 0 28.5 -11t10.5 -27q0 -25 -20 -45.5t-55 -20.5q-101 0 -138 145q-49 -67 -133 -114t-166 -47 q-161 0 -161 188q0 32 5.5 76t22 103.5t41.5 108.5t70 83.5t102 34.5q82 0 147.5 -69t94.5 -161q16 59 16 117q0 120 -61.5 216.5t-143.5 96.5q-93 0 -202 -96zM143 78q15 -6 35 -6q65 0 148 55.5t120 122.5q-18 53 -43 103t-62 91t-71 41q-43 0 -76.5 -37.5t-47.5 -77.5 t-19 -77q-18 -60 -18 -131q0 -74 34 -84zM313 950q-10 8 -12.5 10.5t-8 9.5t-10 14t-19.5 28.5t-36 48.5q-3 4 -9.5 13t-9.5 13t-8 11t-7 11t-3.5 9.5t-1.5 9.5q0 14 13.5 23.5t27.5 9.5q35 0 56 -37q20 -34 40 -55.5t30.5 -27.5t17 -16t6.5 -28q0 -20 -15 -36.5t-34 -16.5 q-11 0 -17 6z" />
<glyph unicode="&#xe1;" horiz-adv-x="677" d="M106 705q-20 -17 -38 -17q-13 0 -21 8.5t-8 22.5q0 65 100 123.5t176 58.5q119 0 200 -116.5t81 -274.5q0 -142 -49 -262l-4 -10q32 -113 82 -113q4 0 12 1t12 1q18 0 28.5 -11.5t10.5 -27.5q0 -24 -20 -44.5t-56 -20.5q-100 0 -137 145q-49 -67 -133 -114.5t-166 -47.5 q-162 0 -162 189q0 32 5.5 76t22 103.5t42 108t70.5 83t102 34.5q82 0 147.5 -69t94.5 -160q16 59 16 116q0 121 -61.5 217.5t-143.5 96.5q-94 0 -203 -96zM135 100q15 -6 35 -6q65 0 148 55.5t120 122.5q-18 53 -43 103t-62 91.5t-71 41.5q-33 0 -60.5 -21t-44 -54 t-25.5 -62.5t-13 -55.5q-19 -63 -19 -131q0 -74 35 -84zM305 1055q2 4 6.5 15t20.5 29.5t59 61.5q41 41 72 41q14 0 24.5 -11.5t10.5 -23.5q0 -4 -13 -30.5t-32.5 -59t-48 -58.5t-54.5 -26q-19 0 -34 14t-15 31q0 11 4 17z" />
<glyph unicode="&#xe2;" horiz-adv-x="681" d="M111 694q-19 -16 -39 -16q-13 0 -21 8.5t-8 22.5q0 65 100 123.5t176 58.5q119 0 200 -116.5t81 -274.5q0 -142 -49 -262l-4 -11q31 -112 82 -112q4 0 12 1t12 1q18 0 28.5 -11.5t10.5 -27.5q0 -25 -20.5 -45.5t-55.5 -20.5q-100 0 -137 146q-49 -67 -133 -114.5 t-166 -47.5q-162 0 -162 188q0 32 5.5 76t22 103.5t42 108.5t70.5 83.5t102 34.5q82 0 147.5 -69t94.5 -161q16 59 16 117q0 121 -61.5 217.5t-143.5 96.5q-92 0 -202 -97zM139 90q15 -6 35 -6q65 0 148 55.5t120 122.5q-18 53 -43 103t-62 91.5t-71 41.5q-33 0 -60.5 -21 t-44 -54t-25.5 -62.5t-13 -55.5q-19 -63 -19 -131q0 -74 35 -84zM430 1157q21 -25 56 -60.5t49 -54t14 -34.5q0 -18 -13.5 -30.5t-29.5 -12.5q-5 0 -41.5 38.5t-83.5 89t-68 68.5q-29 -27 -71.5 -79.5t-72.5 -86.5t-44 -34q-15 0 -26 15.5t-11 33.5q0 11 6 20 q35 48 120.5 144t102.5 96q10 0 23.5 -9.5t28 -26t25 -29.5t23 -30t13.5 -18z" />
<glyph unicode="&#xe3;" horiz-adv-x="673" d="M113 694q-19 -16 -39 -16q-13 0 -21 8.5t-8 22.5q0 44 51 88t115.5 69t110.5 25q119 0 199.5 -116t80.5 -275q0 -142 -49 -262l-4 -11q31 -112 82 -112q4 0 12 1t12 1q18 0 28.5 -11.5t10.5 -27.5q0 -25 -20.5 -45.5t-55.5 -20.5q-100 0 -137 146q-49 -67 -133 -114.5 t-166 -47.5q-162 0 -162 188q0 32 5.5 76t22 103.5t42 108.5t70.5 83.5t102 34.5q82 0 147.5 -69t94.5 -161q16 59 16 117q0 121 -61.5 217.5t-143.5 96.5q-92 0 -202 -97zM141 90q15 -6 35 -6q65 0 148 55.5t120 122.5q-18 53 -43 103t-62 91.5t-71 41.5q-33 0 -60.5 -21 t-44 -54t-25.5 -62.5t-13 -55.5q-19 -63 -19 -131q0 -74 35 -84zM119 1055q-15 -21 -35 -21q-15 0 -27 13t-12 30q0 49 64 87t120 38q42 0 78.5 -27t58.5 -59t51 -59t58 -27q19 0 35.5 15.5t25.5 34.5t21.5 34.5t24.5 15.5q13 0 22.5 -10t9.5 -28q0 -56 -46.5 -97 t-104.5 -41q-13 0 -33 4q-29 0 -53.5 16t-41.5 39t-33 46t-35 39t-40 16q-59 0 -108 -59z" />
<glyph unicode="&#xe4;" horiz-adv-x="669" d="M113 694q-19 -16 -39 -16q-13 0 -21 8.5t-8 22.5q0 44 51 88t115.5 69t110.5 25q119 0 199.5 -116t80.5 -275q0 -142 -49 -262l-4 -11q31 -112 82 -112q4 0 12 1t12 1q18 0 28.5 -11.5t10.5 -27.5q0 -25 -20.5 -45.5t-55.5 -20.5q-100 0 -137 146q-49 -67 -133 -114.5 t-166 -47.5q-162 0 -162 188q0 32 5.5 76t22 103.5t42 108.5t70.5 83.5t102 34.5q82 0 147.5 -69t94.5 -161q16 59 16 117q0 121 -61.5 217.5t-143.5 96.5q-92 0 -202 -97zM141 90q15 -6 35 -6q65 0 148 55.5t120 122.5q-18 53 -43 103t-62 91.5t-71 41.5q-33 0 -60.5 -21 t-44 -54t-25.5 -62.5t-13 -55.5q-19 -63 -19 -131q0 -74 35 -84zM190 1145q28 -12 45 -34t17 -44q0 -23 -18.5 -38t-53.5 -15q-71 0 -71 57q0 28 18.5 52t44.5 24q12 0 18 -2zM506 1149h8q31 0 49.5 -22t18.5 -52q0 -27 -17.5 -45t-50.5 -18q-39 0 -58.5 17.5t-19.5 43.5 q0 28 19.5 50.5t50.5 25.5z" />
<glyph unicode="&#xe5;" horiz-adv-x="665" d="M332 997q-38 -12 -68 -12q-67 0 -108 43t-41 102q0 75 65 117q0 2 -1 5t-1 5q0 41 74 41q72 0 118 -40.5t46 -118.5q0 -49 -21.5 -90t-62.5 -52zM342 1182q-26 51 -90 51q-13 0 -33 -4q14 -19 14 -23q-49 -22 -49 -71q0 -29 22.5 -51.5t57.5 -22.5q80 0 80 80q0 27 -2 41 zM92 694q-19 -16 -39 -16q-28 0 -28 31q0 65 100 123.5t176 58.5q119 0 200 -116.5t81 -274.5q0 -140 -50 -262l-4 -11q31 -112 82 -112q4 0 12.5 1t12.5 1q18 0 28.5 -11.5t10.5 -27.5q0 -25 -20.5 -45.5t-55.5 -20.5q-100 0 -137 146q-49 -67 -133 -114.5t-166 -47.5 q-162 0 -162 188q0 32 5.5 76t22 103.5t42 108.5t70.5 83.5t102 34.5q82 0 147 -69t94 -161q17 63 17 117q0 121 -61.5 217.5t-143.5 96.5q-93 0 -203 -97zM121 90q15 -6 35 -6q65 0 148 55.5t120 122.5q-18 53 -43 103t-62 91.5t-71 41.5q-33 0 -60.5 -21t-44 -53.5 t-26.5 -62.5t-13 -56q-18 -60 -18 -131q0 -74 35 -84z" />
<glyph unicode="&#xe6;" horiz-adv-x="1118" d="M987 551q-29 -61 -77 -117.5t-101 -97t-92.5 -65.5t-73.5 -42l8 -16q29 -54 80.5 -88.5t112.5 -34.5q95 0 167 50.5t136 138.5q11 16 29 16q17 0 30 -14.5t13 -34.5q0 -17 -13 -33q-59 -87 -153 -153t-199 -66q-112 0 -186 49q-20 -10 -56 -10q-31 0 -53.5 18t-31.5 36 t-27 61q-4 9 -6 14q-67 -65 -153 -114.5t-163 -49.5q-82 0 -116.5 53t-34.5 133q0 32 5.5 76t22 103.5t41.5 108.5t70 83.5t102 34.5q139 0 242 -230l4 27q0 43 6 86q0 83 -19 147.5t-48.5 100t-61 53t-61.5 17.5q-42 0 -91 -29.5t-89.5 -58.5t-63.5 -29q-22 0 -36.5 11.5 t-14.5 29.5q0 37 57 79t128 67.5t116 25.5q79 0 144 -54t100 -167q50 99 128.5 161t170.5 62q145 0 145 -176q0 -84 -37 -162zM147 90q8 -4 27 -4q56 0 136 61t136 125q-106 226 -174 226q-32 0 -58.5 -22t-43 -55t-26 -62.5t-13.5 -53.5q-18 -60 -18 -131q0 -74 34 -84z M907 598q37 84 37 139q0 62 -51 62q-35 0 -83 -33t-93 -86.5t-76 -133t-31 -161.5q0 -17 4 -53q75 42 156.5 111t136.5 155z" />
<glyph unicode="&#xe7;" horiz-adv-x="548" d="M561 829q4 -10 4 -30q0 -23 -12.5 -37t-32.5 -14q-12 0 -26.5 10.5t-28 23t-40 23t-60.5 10.5q-57 0 -107 -36t-82.5 -91.5t-51 -120t-18.5 -123.5q0 -83 24.5 -147.5t65 -102t87.5 -56.5t98 -19q93 0 179.5 51t123.5 119q9 20 27 20q14 0 26.5 -13.5t12.5 -31.5 q0 -12 -7 -26q-56 -98 -150.5 -164t-219.5 -66q-21 0 -42.5 2t-60.5 12t-72 27t-70.5 51t-64 79.5t-44 117.5t-17.5 160q0 203 129 340q110 118 240 118q70 0 125.5 -32t64.5 -54zM205 -201q6 27 31 27q13 0 26.5 -16.5t25.5 -36t35.5 -36t51.5 -16.5q23 0 37 12.5t14 24.5 q0 14 -16 37t-35 45.5t-35 59.5t-16 75q0 44 13.5 75.5t33.5 31.5q28 0 55 -59q0 -12 1 -30.5t12 -57t30 -54.5q43 -34 43 -100q0 -56 -44.5 -98.5t-105.5 -42.5q-65 0 -112 50.5t-47 98.5q0 2 1 5t1 5z" />
<glyph unicode="&#xe8;" horiz-adv-x="505" d="M475 557q-29 -61 -77 -117.5t-101.5 -97t-92.5 -65t-73 -41.5l8 -17q29 -54 80.5 -88.5t112.5 -34.5q177 0 305 178q16 19 29 19q11 0 18.5 -12t7.5 -29q0 -55 -56.5 -114.5t-139 -98.5t-154.5 -39q-156 0 -248 104.5t-92 282.5q0 121 44 236t130 193.5t191 78.5 q145 0 145 -176q0 -84 -37 -162zM395 604q37 84 37 139q0 62 -51 62q-35 0 -83 -33t-93 -86.5t-76 -133t-31 -161.5q0 -17 4 -53q75 42 156.5 111t136.5 155zM281 1225q-10 9 -12.5 11t-8 9t-9.5 13.5t-20 28t-36 48.5q-39 53 -39 68q0 14 13.5 23.5t27.5 9.5q34 0 55 -37 q20 -34 40 -55.5t30.5 -27.5t17 -16t6.5 -28q0 -20 -15 -36.5t-34 -16.5q-10 0 -16 6z" />
<glyph unicode="&#xe9;" horiz-adv-x="505" d="M475 557q-29 -61 -77 -117.5t-101.5 -97t-92.5 -65t-73 -41.5l8 -17q29 -54 80.5 -88.5t112.5 -34.5q177 0 305 178q16 19 29 19q11 0 18.5 -12t7.5 -29q0 -55 -56.5 -114.5t-139 -98.5t-154.5 -39q-156 0 -248 104.5t-92 282.5q0 121 44 236t130 193.5t191 78.5 q145 0 145 -176q0 -84 -37 -162zM395 604q37 84 37 139q0 62 -51 62q-35 0 -83 -33t-93 -86.5t-76 -133t-31 -161.5q0 -17 4 -53q75 42 156.5 111t136.5 155zM96 1282q3 4 7 15.5t20 30t59 61.5q41 41 72 41q14 0 24.5 -11.5t10.5 -23.5q0 -4 -13 -30.5t-32.5 -59t-48 -58.5 t-54.5 -26q-19 0 -34 14t-15 31q0 10 4 16z" />
<glyph unicode="&#xea;" horiz-adv-x="505" d="M475 557q-29 -61 -77 -117.5t-101.5 -97t-92.5 -65t-73 -41.5l8 -17q29 -54 80.5 -88.5t112.5 -34.5q177 0 305 178q16 19 29 19q11 0 18.5 -12t7.5 -29q0 -55 -56.5 -114.5t-139 -98.5t-154.5 -39q-156 0 -248 104.5t-92 282.5q0 121 44 236t130 193.5t191 78.5 q145 0 145 -176q0 -84 -37 -162zM395 604q37 84 37 139q0 62 -51 62q-35 0 -83 -33t-93 -86.5t-76 -133t-31 -161.5q0 -17 4 -53q75 42 156.5 111t136.5 155zM367 1262q20 -24 55.5 -60.5t49 -55t13.5 -34.5q0 -18 -13.5 -30.5t-29.5 -12.5q-5 0 -41.5 39t-83 89.5 t-67.5 68.5q-29 -27 -71.5 -79.5t-73 -87t-44.5 -34.5t-25 15.5t-11 33.5q0 12 6 21q35 47 120.5 143t102.5 96q10 0 23.5 -9t28 -26t25 -29.5t23.5 -29.5z" />
<glyph unicode="&#xeb;" horiz-adv-x="505" d="M475 557q-29 -61 -77 -117.5t-101.5 -97t-92.5 -65t-73 -41.5l8 -17q29 -54 80.5 -88.5t112.5 -34.5q177 0 305 178q16 19 29 19q11 0 18.5 -12t7.5 -29q0 -55 -56.5 -114.5t-139 -98.5t-154.5 -39q-156 0 -248 104.5t-92 282.5q0 121 44 236t130 193.5t191 78.5 q145 0 145 -176q0 -84 -37 -162zM395 604q37 84 37 139q0 62 -51 62q-35 0 -83 -33t-93 -86.5t-76 -133t-31 -161.5q0 -17 4 -53q75 42 156.5 111t136.5 155zM102 1341q29 -12 45.5 -33.5t16.5 -43.5q0 -23 -18.5 -38.5t-53.5 -15.5q-72 0 -72 58q0 28 18.5 51.5t45.5 23.5 q12 0 18 -2zM418 1346h8q31 0 49.5 -22t18.5 -52q0 -27 -17.5 -45.5t-50.5 -18.5q-39 0 -58.5 18t-19.5 44q0 28 19.5 50.5t50.5 25.5z" />
<glyph unicode="&#xec;" horiz-adv-x="389" d="M160 639q27 49 63 49q15 0 25 -11.5t10 -31.5q0 -22 -8 -41q-43 -105 -43 -246q0 -88 16 -161.5t37 -94.5q9 3 41 3t61 11.5t54 45.5q18 24 43 24q24 0 24 -24q0 -14 -20 -40.5t-51 -53.5t-75 -47.5t-85 -20.5q-63 0 -102 95.5t-39 234.5q0 163 49 309zM362 977 q31 0 31 -35q0 -43 -38.5 -98.5t-73.5 -55.5q-33 0 -33 41q0 46 36 97t78 51zM223 1225q-10 9 -12.5 11t-8 9t-9.5 13.5t-20 28t-36 48.5q-39 53 -39 68q0 14 13.5 23.5t27.5 9.5q35 0 56 -37q20 -34 40 -55.5t30.5 -27.5t17 -16t6.5 -28q0 -20 -15 -36.5t-34 -16.5 q-11 0 -17 6z" />
<glyph unicode="&#xed;" horiz-adv-x="389" d="M160 639q27 49 63 49q15 0 25 -11.5t10 -31.5q0 -22 -8 -41q-43 -105 -43 -246q0 -88 16 -161.5t37 -94.5q9 3 41 3t61 11.5t54 45.5q18 24 43 24q24 0 24 -24q0 -14 -20 -40.5t-51 -53.5t-75 -47.5t-85 -20.5q-63 0 -102 95.5t-39 234.5q0 163 49 309zM362 977 q31 0 31 -35q0 -43 -38.5 -98.5t-73.5 -55.5q-33 0 -33 41q0 46 36 97t78 51zM39 1282q3 4 7 15.5t20 30t59 61.5q41 41 72 41q14 0 24 -11.5t10 -23.5q0 -8 -20 -48.5t-56.5 -83t-70.5 -42.5q-19 0 -34 14t-15 31q0 10 4 16z" />
<glyph unicode="&#xee;" horiz-adv-x="389" d="M160 639q27 49 63 49q15 0 25 -11.5t10 -31.5q0 -22 -8 -41q-43 -105 -43 -246q0 -88 16 -161.5t37 -94.5q9 3 41 3t61 11.5t54 45.5q18 24 43 24q24 0 24 -24q0 -14 -20 -40.5t-51 -53.5t-75 -47.5t-85 -20.5q-63 0 -102 95.5t-39 234.5q0 163 49 309zM362 977 q31 0 31 -35q0 -43 -38.5 -98.5t-73.5 -55.5q-33 0 -33 41q0 46 36 97t78 51zM309 1262q21 -24 56 -60.5t49 -55t14 -34.5q0 -18 -13.5 -30.5t-29.5 -12.5q-5 0 -41.5 39t-83 89.5t-67.5 68.5q-29 -27 -71.5 -79.5t-73 -87t-44.5 -34.5q-15 0 -26 15.5t-11 33.5q0 12 6 21 q34 47 120.5 143t103.5 96q10 0 23.5 -9.5t28 -25.5t25 -29t22.5 -30t13 -18z" />
<glyph unicode="&#xef;" horiz-adv-x="389" d="M160 639q27 49 63 49q15 0 25 -11.5t10 -31.5q0 -22 -8 -41q-43 -105 -43 -246q0 -88 16 -161.5t37 -94.5q9 3 41 3t61 11.5t54 45.5q18 24 43 24q24 0 24 -24q0 -14 -20 -40.5t-51 -53.5t-75 -47.5t-85 -20.5q-63 0 -102 95.5t-39 234.5q0 163 49 309zM362 977 q31 0 31 -35q0 -43 -38.5 -98.5t-73.5 -55.5q-33 0 -33 41q0 46 36 97t78 51zM45 1341q28 -12 44.5 -33t16.5 -44t-18 -38.5t-53 -15.5q-72 0 -72 58q0 28 18.5 51.5t45.5 23.5q12 0 18 -2zM360 1346h9q31 0 49 -22t18 -52q0 -27 -17 -45.5t-50 -18.5q-39 0 -58.5 18 t-19.5 44q0 28 19 50.5t50 25.5z" />
<glyph unicode="&#xf0;" horiz-adv-x="694" d="M207 1032h-4q-11 0 -23 13t-12 34q0 23 9.5 47.5t16.5 37t3 12.5q0 6 2 14q-7 2 -31.5 5t-39 6.5t-28.5 14.5t-14 29q0 17 12.5 29t38.5 12q15 0 88 -10q21 57 38.5 82.5t43.5 25.5q29 0 29 -32q0 -17 -6 -35l-23 -62q92 -29 164 -84t118.5 -124.5t76.5 -158t42.5 -180 t12.5 -194.5q0 -161 -35 -369q-46 -43 -84 -43h-8q-91 -88 -209 -88q-70 0 -137 31.5t-119.5 86t-84.5 135t-32 171.5q0 130 84.5 204.5t216.5 74.5q54 0 100 -14t75.5 -36.5t53 -49.5t35.5 -54t20 -49.5t11 -36.5l2 -14q8 40 8 104q0 58 -8 117.5t-31 133t-60 136 t-100.5 120.5t-146.5 91l-10 -37q-7 -29 -25.5 -61t-29.5 -35zM475 532q-64 64 -170 64q-85 0 -142 -44t-57 -126q0 -128 90 -215.5t201 -87.5q116 0 183 94q0 106 -23 178.5t-82 136.5z" />
<glyph unicode="&#xf1;" horiz-adv-x="716" d="M80 47q0 69 9 258t9 283q0 80 -6 147h-2h-8q-19 0 -36 11t-17 38q0 41 17 59.5t71 18.5q20 0 31.5 -7.5t19.5 -29.5t11 -62.5t5.5 -107.5t4.5 -162q1 -40 1 -61q120 282 285 393q18 15 39 15t38.5 -13.5t20.5 -31.5q15 -108 28 -314t13 -354q35 27 69.5 69t57 65.5 t43.5 23.5q14 0 23.5 -10t9.5 -25q0 -43 -61.5 -106t-157.5 -128q-22 -14 -47 -14q-35 0 -35 35q0 470 -22 676q-126 -114 -211 -300t-113 -356q0 -27 -20.5 -43t-43.5 -16q-32 0 -32 27q0 10 6 22zM180 1057q-11 -19 -30 -19q-13 0 -24 12t-11 27q0 46 58 81.5t110 35.5 q39 0 72 -25.5t53 -55.5t46.5 -55.5t53.5 -25.5q17 0 32 14.5t23.5 32.5t19.5 32.5t23 14.5t20.5 -9t8.5 -25q0 -53 -42 -91t-97 -38q-11 0 -31 4q-32 0 -58.5 22.5t-42.5 50t-38 50t-45 22.5q-52 0 -101 -55z" />
<glyph unicode="&#xf2;" horiz-adv-x="716" d="M551 836q2 -4 29 -50t41 -73q6 3 31.5 15.5t42 19t28.5 6.5t19.5 -8.5t7.5 -20.5q0 -46 -95 -107q27 -89 27 -180q0 -201 -96.5 -320.5t-251.5 -119.5q-51 0 -103.5 28t-97 79.5t-72.5 134.5t-28 182q0 59 2.5 95.5t14 91t40 104t74.5 96.5q84 84 190 84q55 0 117 -23 q10 13 25 13q17 0 26 -15l23 -30zM422 569q-29 20 -29 88q0 87 39 123q-42 23 -82 23q-65 0 -119.5 -55.5t-84 -141.5t-29.5 -178q0 -55 13.5 -109t40 -103t73.5 -79.5t108 -30.5q73 0 129 50t83.5 126.5t27.5 163.5q0 74 -21 138q-41 -33 -92 -33q-34 0 -57 18zM496 729 q-17 -34 -17 -55q0 -31 25 -31q15 0 35 14q-18 41 -43 72zM375 1001q-10 8 -12.5 10.5t-8 9.5t-10 14t-19.5 28.5t-36 48.5q-39 53 -39 68q0 14 13.5 23t27.5 9q35 0 55 -36q20 -34 40 -55.5t30.5 -27.5t17 -16t6.5 -28q0 -20 -15 -37t-34 -17q-10 0 -16 6z" />
<glyph unicode="&#xf3;" horiz-adv-x="712" d="M551 836q2 -4 29 -50t41 -73q6 3 31.5 15.5t42 19t28.5 6.5t19.5 -8.5t7.5 -20.5q0 -46 -95 -107q27 -89 27 -180q0 -201 -96.5 -320.5t-251.5 -119.5q-51 0 -103.5 28t-97 79.5t-72.5 134.5t-28 182q0 59 2.5 95.5t14 91t40 104t74.5 96.5q84 84 190 84q55 0 117 -23 q10 13 25 13q17 0 26 -15l23 -30zM422 569q-29 20 -29 88q0 87 39 123q-42 23 -82 23q-65 0 -119.5 -55.5t-84 -141.5t-29.5 -178q0 -55 13.5 -109t40 -103t73.5 -79.5t108 -30.5q73 0 129 50t83.5 126.5t27.5 163.5q0 74 -21 138q-41 -33 -92 -33q-34 0 -57 18zM496 729 q-17 -34 -17 -55q0 -31 25 -31q15 0 35 14q-18 41 -43 72zM262 1059q2 4 6.5 15t20.5 29.5t59 61.5q41 41 72 41q14 0 24.5 -11.5t10.5 -23.5q0 -4 -13 -30.5t-32.5 -59t-48 -58.5t-54.5 -26q-19 0 -34 14t-15 31q0 11 4 17z" />
<glyph unicode="&#xf4;" horiz-adv-x="727" d="M551 836q2 -4 29 -50t41 -73q6 3 31.5 15.5t42 19t28.5 6.5t19.5 -8.5t7.5 -20.5q0 -46 -95 -107q27 -89 27 -180q0 -201 -96.5 -320.5t-251.5 -119.5q-51 0 -103.5 28t-97 79.5t-72.5 134.5t-28 182q0 59 2.5 95.5t14 91t40 104t74.5 96.5q84 84 190 84q55 0 117 -23 q10 13 25 13q17 0 26 -15l23 -30zM422 569q-29 20 -29 88q0 87 39 123q-42 23 -82 23q-65 0 -119.5 -55.5t-84 -141.5t-29.5 -178q0 -55 13.5 -109t40 -103t73.5 -79.5t108 -30.5q73 0 129 50t83.5 126.5t27.5 163.5q0 74 -21 138q-41 -33 -92 -33q-34 0 -57 18zM496 729 q-17 -34 -17 -55q0 -31 25 -31q15 0 35 14q-18 41 -43 72zM446 1145q21 -24 56 -60.5t49 -55t14 -34.5q0 -18 -13.5 -30.5t-29.5 -12.5q-5 0 -41.5 39t-83 89.5t-67.5 68.5q-29 -27 -71.5 -79.5t-73 -87t-44.5 -34.5q-15 0 -26 15.5t-11 33.5q0 11 7 21q35 47 120.5 143 t102.5 96q10 0 23.5 -9.5t28 -25.5t25 -29t22.5 -30t13 -18z" />
<glyph unicode="&#xf5;" horiz-adv-x="772" d="M551 836q2 -4 29 -50t41 -73q6 3 31.5 15.5t42 19t28.5 6.5t19.5 -8.5t7.5 -20.5q0 -46 -95 -107q27 -89 27 -180q0 -201 -96.5 -320.5t-251.5 -119.5q-51 0 -103.5 28t-97 79.5t-72.5 134.5t-28 182q0 59 2.5 95.5t14 91t40 104t74.5 96.5q84 84 190 84q55 0 117 -23 q10 13 25 13q17 0 26 -15l23 -30zM422 569q-29 20 -29 88q0 87 39 123q-42 23 -82 23q-65 0 -119.5 -55.5t-84 -141.5t-29.5 -178q0 -55 13.5 -109t40 -103t73.5 -79.5t108 -30.5q73 0 129 50t83.5 126.5t27.5 163.5q0 74 -21 138q-41 -33 -92 -33q-34 0 -57 18zM496 729 q-17 -34 -17 -55q0 -31 25 -31q15 0 35 14q-18 41 -43 72zM162 1073q-14 -20 -33 -20q-15 0 -27 13t-12 28q0 44 63 79t117 35q42 0 78.5 -25t58.5 -54.5t51 -54.5t58 -25q19 0 34.5 14.5t24.5 31.5t21.5 31.5t24.5 14.5q13 0 22.5 -9.5t9.5 -25.5q0 -52 -45.5 -89.5 t-103.5 -37.5q-11 0 -35 4q-34 0 -63 22.5t-46.5 49t-41.5 49t-48 22.5q-55 0 -108 -53z" />
<glyph unicode="&#xf6;" horiz-adv-x="624" d="M551 836q2 -4 29 -50t41 -73q6 3 31.5 15.5t42 19t28.5 6.5t19.5 -8.5t7.5 -20.5q0 -46 -95 -107q27 -89 27 -180q0 -201 -96.5 -320.5t-251.5 -119.5q-51 0 -103.5 28t-97 79.5t-72.5 134.5t-28 182q0 59 2.5 95.5t14 91t40 104t74.5 96.5q84 84 190 84q55 0 117 -23 q10 13 25 13q17 0 26 -15l23 -30zM422 569q-29 20 -29 88q0 87 39 123q-42 23 -82 23q-65 0 -119.5 -55.5t-84 -141.5t-29.5 -178q0 -55 13.5 -109t40 -103t73.5 -79.5t108 -30.5q73 0 129 50t83.5 126.5t27.5 163.5q0 74 -21 138q-41 -33 -92 -33q-34 0 -57 18zM496 729 q-17 -34 -17 -55q0 -31 25 -31q15 0 35 14q-18 41 -43 72zM193 1133q28 -12 44.5 -33.5t16.5 -44.5t-18.5 -38.5t-53.5 -15.5q-71 0 -71 58q0 28 18.5 52t44.5 24q13 0 19 -2zM508 1137h8q31 0 49.5 -22t18.5 -52q0 -27 -17.5 -45.5t-50.5 -18.5q-39 0 -58.5 18t-19.5 44 q0 28 19.5 50.5t50.5 25.5z" />
<glyph unicode="&#xf7;" horiz-adv-x="720" d="M371 768q34 -11 52.5 -36.5t18.5 -53.5q0 -26 -17 -45t-48 -19q-42 0 -65 20.5t-23 51.5q0 32 19.5 58t47.5 26q9 0 15 -2zM393 8q-24 -4 -33 -4q-37 0 -57 21t-20 61q0 36 24.5 61t52.5 25q26 0 55 -26t29 -72q0 -26 -14.5 -44.5t-36.5 -21.5zM612 418h9q24 0 37.5 -12 t13.5 -27q0 -16 -7.5 -22t-61 -11.5t-171.5 -5.5q-22 0 -85.5 1t-88.5 1q-108 0 -122 -8h-1q-98 0 -98 35q0 31 26.5 42t86.5 11q25 0 40 -4t56 -4q6 0 25.5 1t33.5 1q49 0 111.5 -1t83.5 -1q30 0 112 4z" />
<glyph unicode="&#xf8;" horiz-adv-x="774" d="M567 993q12 21 39 21q28 0 54 -16t26 -35q-18 -44 -65 -132q9 -20 34.5 -62.5t34.5 -59.5q45 18 68 18q20 0 32.5 -14.5t12.5 -36.5q0 -23 -12.5 -40.5t-30.5 -17.5q-6 0 -18 8.5t-19 8.5h-4q26 -89 26 -191q0 -204 -95.5 -323t-250.5 -119q-104 0 -184 88l-86 -168 q-17 -33 -53 -33q-23 0 -42.5 11t-19.5 28q0 21 31 78l105 182q-52 99 -52 234q-1 58 2 97t14 92.5t40 104t75 97.5q84 84 191 84q46 0 92 -14zM516 573q-13 5 -20 19q-40 -76 -116 -203.5t-118 -208.5q29 -31 70 -50t84 -19q72 0 127 51t81.5 129t26.5 166q0 79 -20 143 q-68 -31 -96 -31q-15 0 -19 4zM260 389q61 105 209 404q-21 8 -49 8q-66 0 -123.5 -56.5t-90 -144t-32.5 -180.5q0 -74 25 -141q9 16 30 54.5t31 55.5zM569 721q-2 -8 -2 -21q0 -28 27 -28h6q-7 15 -31 49z" />
<glyph unicode="&#xf9;" horiz-adv-x="864" d="M141 840q10 30 47 30q21 0 36.5 -12t15.5 -31v-10q-35 -101 -60.5 -241t-25.5 -252q0 -209 88 -209q61 0 128.5 110t116.5 281.5t60 341.5q3 39 49 39q22 0 38.5 -12t16.5 -33v-8l-4 -21q-29 -142 -29 -381q0 -321 52 -321q24 0 47.5 23.5t43 47t32.5 23.5q20 0 20 -27 q0 -39 -55.5 -103.5t-116.5 -64.5q-104 0 -104 318v63q-13 -49 -30 -95t-46 -101.5t-61.5 -95.5t-78.5 -67.5t-96 -27.5q-44 0 -77 29t-50.5 79t-26 107.5t-8.5 124.5q0 131 24.5 273.5t53.5 222.5zM326 950q-10 8 -12.5 10.5t-8 9.5t-10 14t-19.5 28.5t-36 48.5 q-3 4 -9.5 13t-9.5 13t-8 11t-7 11t-3.5 9.5t-1.5 9.5q0 14 13.5 23.5t27.5 9.5q34 0 55 -37q20 -34 40 -55.5t30.5 -27.5t17 -16t6.5 -28q0 -20 -15 -36.5t-34 -16.5q-10 0 -16 6z" />
<glyph unicode="&#xfa;" horiz-adv-x="837" d="M145 831q11 31 48 31q21 0 36 -11.5t15 -31.5v-10q-35 -101 -60.5 -241t-25.5 -253q0 -209 88 -209q61 0 128.5 110t116.5 282t60 342q3 39 49 39q22 0 38.5 -12t16.5 -33v-9l-4 -20q-28 -137 -28 -381q0 -322 51 -322q24 0 47.5 24t43 47.5t32.5 23.5q20 0 20 -27 q0 -39 -55.5 -103.5t-116.5 -64.5q-104 0 -104 317v64q-13 -49 -30 -95t-46 -101.5t-61.5 -95.5t-78.5 -67.5t-96 -27.5q-44 0 -76.5 29t-50.5 79t-26 107.5t-8 124.5q0 131 24.5 273.5t52.5 221.5zM236 1032q3 4 7 15.5t20 30t59 61.5q41 41 71 41q14 0 24.5 -11.5 t10.5 -23.5q0 -8 -20 -48.5t-56.5 -83t-70.5 -42.5q-19 0 -34.5 14t-15.5 31q0 8 5 16z" />
<glyph unicode="&#xfb;" horiz-adv-x="858" d="M127 831q11 31 47 31q21 0 36 -11.5t15 -31.5v-10q-35 -101 -60.5 -241t-25.5 -253q0 -209 88 -209q61 0 128.5 110t116.5 282t60 342q3 39 50 39q22 0 38.5 -12t16.5 -33v-9l-4 -20q-29 -142 -29 -381q0 -322 51 -322q24 0 47.5 24t43 47.5t32.5 23.5q9 0 15 -7.5 t6 -19.5q0 -39 -55.5 -103.5t-116.5 -64.5q-105 0 -105 317v64q-17 -63 -41 -121.5t-62 -123t-92 -103.5t-116 -39q-44 0 -77 29t-50.5 79t-26 107.5t-8.5 124.5q0 131 24.5 273t53.5 222zM467 1135q21 -24 56 -60.5t49 -55t14 -34.5q0 -18 -13.5 -30.5t-29.5 -12.5 q-5 0 -41.5 39t-83.5 89.5t-68 68.5q-29 -27 -71.5 -79.5t-72.5 -87t-44 -34.5q-15 0 -26 15.5t-11 33.5q0 12 6 21q35 47 120.5 143t102.5 96q10 0 23.5 -9t28 -26t25 -29.5t23.5 -30.5z" />
<glyph unicode="&#xfc;" horiz-adv-x="837" d="M113 840q10 30 47 30q21 0 36 -11.5t15 -31.5v-10q-35 -101 -60.5 -241t-25.5 -252q0 -209 88 -209q61 0 128.5 110t116.5 281.5t60 341.5q3 39 49 39q22 0 39 -12t17 -33v-8l-5 -21q-28 -137 -28 -381q0 -321 51 -321q24 0 47.5 23.5t43 47t32.5 23.5q20 0 20 -27 q0 -39 -55.5 -103.5t-116.5 -64.5q-104 0 -104 318v63q-17 -63 -41 -121.5t-62 -123t-92 -103.5t-116 -39q-44 0 -77 29t-50.5 79t-26 107.5t-8.5 124.5q0 131 24.5 273.5t53.5 222.5zM190 1112q28 -12 45 -34t17 -44q0 -23 -18.5 -38t-53.5 -15q-71 0 -71 57q0 28 18.5 52 t44.5 24q12 0 18 -2zM506 1116h8q31 0 49.5 -22t18.5 -52q0 -27 -17.5 -45t-50.5 -18q-39 0 -58.5 17.5t-19.5 43.5q0 28 19.5 50.5t50.5 25.5z" />
<glyph unicode="&#xfd;" horiz-adv-x="813" d="M170 780q25 19 43 19q21 0 34 -15.5t13 -35.5q0 -17 -12 -29q-59 -56 -96 -167t-37 -218q0 -132 51.5 -197t107.5 -65q46 0 94.5 30.5t82.5 73.5q136 168 153 590q1 24 16.5 39.5t36.5 15.5q36 0 45 -45q35 -210 35 -418q0 -51 -4 -149l37 29q20 14 35 14q14 0 14 -16 q0 -19 -31 -64l-65 -86q-18 -160 -55 -285.5t-83 -200.5t-95.5 -113t-98.5 -38q-131 0 -131 162q0 111 99.5 237.5t277.5 278.5q8 81 8 190v64q-47 -175 -146.5 -287t-232.5 -112q-69 0 -120.5 34t-78.5 89t-40 114t-13 121q0 130 38 253t118 187zM414 -483q154 167 204 477 q-124 -113 -191 -201t-67 -164q0 -61 54 -112zM424 1106q2 4 6.5 15t20.5 29.5t59 61.5q41 41 72 41q14 0 24 -11t10 -23q0 -8 -20 -48.5t-56.5 -83.5t-70.5 -43q-19 0 -34 14.5t-15 31.5q0 10 4 16z" />
<glyph unicode="&#xfe;" horiz-adv-x="999" d="M289 911q36 0 49 -22q95 59 221 59q58 0 116 -17.5t112 -56.5t95 -94t66 -136t25 -177q0 -209 -133.5 -347t-323.5 -138q-184 0 -297 159q-1 -61 -2.5 -125t-2.5 -101t-1 -44v-59q0 -42 -8 -66.5t-33 -24.5q-72 0 -76 179v84v413q0 59 1 204t1 267q0 118 -1 295.5 t-1 198.5q0 53 51 53q15 0 26 -3.5t18.5 -7t12.5 -13.5l8 -16t4 -21.5t1.5 -21.5t0 -26t-0.5 -26v-256q0 -129 2 -201q33 51 70 88zM831 621q-90 215 -280 215q-103 0 -203 -56q-54 -67 -83 -159.5t-29 -188.5q0 -94 27.5 -171t88 -127t144.5 -50q85 0 171.5 40.5t148 120 t61.5 175.5q0 88 -46 201z" />
<glyph unicode="&#xff;" horiz-adv-x="813" d="M205 807q24 18 43 18q21 0 34 -15.5t13 -35.5q0 -17 -12 -29q-59 -56 -96 -167t-37 -218q0 -132 51.5 -197t107.5 -65q46 0 93.5 31t82.5 74q137 169 154 590q1 24 16.5 39.5t36.5 15.5q36 0 45 -45q35 -210 35 -418q0 -51 -4 -149l37 28q21 15 35 15t14 -17 q0 -18 -31 -63l-65 -86q-18 -160 -55 -285.5t-83 -200.5t-95.5 -113t-98.5 -38q-131 0 -131 162q0 111 99.5 237.5t277.5 278.5q8 81 8 190v64q-47 -176 -146.5 -288t-232.5 -112q-69 0 -120.5 34t-78.5 89.5t-40 114.5t-13 121q0 130 38 253t118 187zM449 -457 q154 167 204 477q-124 -113 -191 -200.5t-67 -163.5q0 -62 54 -113zM260 1157q28 -12 45 -34t17 -44q0 -23 -18.5 -38t-53.5 -15q-72 0 -72 57q0 28 18.5 52t45.5 24q12 0 18 -2zM575 1161h9q31 0 49 -22t18 -52q0 -27 -17 -45t-50 -18q-39 0 -58.5 17.5t-19.5 43.5 q0 28 19 50.5t50 25.5z" />
<glyph unicode="&#x152;" horiz-adv-x="1832" d="M1710 1208q39 -17 39 -47q0 -13 -10 -22t-27 -9q-1 0 -18.5 4.5t-47.5 11t-67 13t-87 11t-99 4.5q-351 0 -351 -234q0 -162 119 -213q73 27 158 27q86 0 170 -22.5t84 -55.5t-69.5 -42t-207.5 -9q-41 0 -61 2q-86 -29 -139.5 -96t-53.5 -177q0 -47 9 -85t27.5 -64.5 t39 -46.5t51.5 -32t55.5 -19t60.5 -10t58 -4t56 -1q112 0 226 53.5t144 102.5q11 22 35 22q14 0 24.5 -10.5t10.5 -28.5q0 -24 -12 -41q-41 -65 -119.5 -111.5t-154 -65.5t-140.5 -19q-402 0 -444 285q-49 -90 -125 -154t-158 -93.5t-166 -29.5q-108 0 -197.5 55t-147 148 t-89 211.5t-31.5 247.5q0 161 49 312.5t146 264.5q44 0 59 -31q119 80 262 80q117 0 223 -62t173 -186q18 64 58 110.5t95 71.5t114.5 36.5t127.5 11.5q99 0 197 -19.5t151 -44.5zM940 879q-101 319 -371 319q-80 0 -154.5 -25t-121.5 -55q-62 -86 -94.5 -210t-32.5 -259 q0 -110 22 -210.5t64 -181.5t110 -129t152 -48q86 0 170 41.5t149.5 113t105.5 177t40 223.5q0 120 -39 244zM1061 678v-16q4 2 12 10z" />
<glyph unicode="&#x153;" horiz-adv-x="1255" d="M1028 551q-29 -61 -77 -117.5t-101 -97t-92.5 -65.5t-73.5 -42l8 -16q29 -54 80.5 -88.5t112.5 -34.5q95 0 167 50.5t136 138.5q11 16 29 16q17 0 30 -14.5t13 -34.5q0 -17 -13 -33q-59 -87 -153 -153t-199 -66q-101 0 -186.5 48.5t-114.5 137.5q-86 -176 -291 -176 q-50 0 -102.5 28t-97 79.5t-73 134.5t-28.5 182q0 59 2.5 95.5t14 91t40 104t74.5 96.5q84 84 191 84q57 0 116 -22q9 12 25 12q18 0 27 -15l22 -30l6 -2q1 -2 30 -52t44 -79q34 15 63 18q48 71 118 115.5t145 44.5q145 0 145 -176q0 -84 -37 -162zM420 575q-27 11 -27 58 q0 24 9.5 76t11.5 67q-50 29 -90 29q-66 0 -123.5 -57t-90 -144.5t-32.5 -179.5q0 -52 14 -104.5t41.5 -100t76 -77t109.5 -29.5q72 0 127 51t82 129t27 166q0 79 -20 143q-68 -31 -97 -31q-14 0 -18 4zM948 598q37 84 37 139q0 62 -51 62q-35 0 -83 -33t-93 -86.5t-76 -133 t-31 -161.5q0 -17 4 -53q75 42 156.5 111t136.5 155zM473 723q-2 -8 -2 -21q0 -28 27 -28h6q-7 15 -31 49z" />
<glyph unicode="&#x178;" horiz-adv-x="1146" d="M1028 1282q20 29 53 29q25 0 45.5 -14.5t20.5 -34.5q0 -12 -6 -21q-78 -123 -247.5 -351t-234.5 -323q15 -12 15 -30q0 -23 -15 -43.5t-36 -20.5q-12 0 -21 6q-143 -213 -217 -426q-10 -30 -29 -45.5t-39 -15.5q-21 0 -35 14t-14 37q0 17 4 27q70 213 238 485 q-51 49 -107 117t-100 129.5t-92.5 138t-75 121t-58 100t-32.5 56.5q-8 13 -8 30q0 25 18 42.5t43 17.5q38 0 58 -39q52 -102 82.5 -158.5t87.5 -153.5t117 -174t124 -139q72 107 230 319.5t231 319.5zM442 1575q28 -12 45 -34t17 -44q0 -23 -18.5 -38t-53.5 -15 q-72 0 -72 57q0 28 18.5 52t45.5 24q12 0 18 -2zM758 1579h8q31 0 49.5 -22t18.5 -52q0 -27 -17.5 -45t-50.5 -18q-39 0 -58.5 17.5t-19.5 43.5q0 28 19.5 50.5t50.5 25.5z" />
<glyph unicode="&#x2c6;" horiz-adv-x="595" d="M416 1262q21 -24 56 -60.5t49 -55t14 -34.5q0 -18 -13.5 -30.5t-29.5 -12.5q-5 0 -41.5 39t-83.5 89.5t-68 68.5q-29 -27 -71.5 -79.5t-72.5 -87t-44 -34.5q-15 0 -26 15.5t-11 33.5q0 12 6 21q35 47 120.5 143t102.5 96q10 0 23.5 -9t28 -26t25 -29.5t23.5 -29.5z" />
<glyph unicode="&#x2dc;" horiz-adv-x="765" d="M125 1198q-16 -24 -39 -24q-19 0 -32 15.5t-13 35.5q0 57 73.5 102t137.5 45q34 0 64.5 -15t51.5 -38t42.5 -49.5t39.5 -49.5t40.5 -38t46.5 -15q22 0 40.5 18.5t29 41t24.5 41t28 18.5q15 0 26 -12t11 -33q0 -66 -53 -114t-121 -48q-15 0 -39 4q-40 0 -74 29t-54 63.5 t-48 63.5t-57 29q-65 0 -125 -70z" />
<glyph unicode="&#x2000;" horiz-adv-x="856" />
<glyph unicode="&#x2001;" horiz-adv-x="1712" />
<glyph unicode="&#x2002;" horiz-adv-x="856" />
<glyph unicode="&#x2003;" horiz-adv-x="1712" />
<glyph unicode="&#x2004;" horiz-adv-x="570" />
<glyph unicode="&#x2005;" horiz-adv-x="428" />
<glyph unicode="&#x2006;" horiz-adv-x="285" />
<glyph unicode="&#x2007;" horiz-adv-x="285" />
<glyph unicode="&#x2008;" horiz-adv-x="214" />
<glyph unicode="&#x2009;" horiz-adv-x="342" />
<glyph unicode="&#x200a;" horiz-adv-x="95" />
<glyph unicode="&#x2010;" d="M553 604h6q19 0 29 -12t10 -29q0 -15 -10 -27t-29 -12q-54 0 -116.5 -1t-104.5 -2t-47 -1h-80q-20 0 -50.5 -2t-41.5 -2q-60 0 -60 41q0 16 6.5 25t24 13t32.5 4.5t48 0.5q337 0 383 4z" />
<glyph unicode="&#x2011;" d="M553 604h6q19 0 29 -12t10 -29q0 -15 -10 -27t-29 -12q-54 0 -116.5 -1t-104.5 -2t-47 -1h-80q-20 0 -50.5 -2t-41.5 -2q-60 0 -60 41q0 16 6.5 25t24 13t32.5 4.5t48 0.5q337 0 383 4z" />
<glyph unicode="&#x2012;" d="M553 604h6q19 0 29 -12t10 -29q0 -15 -10 -27t-29 -12q-54 0 -116.5 -1t-104.5 -2t-47 -1h-80q-20 0 -50.5 -2t-41.5 -2q-60 0 -60 41q0 16 6.5 25t24 13t32.5 4.5t48 0.5q337 0 383 4z" />
<glyph unicode="&#x2013;" d="M600 600h10q31 0 47.5 -14.5t16.5 -34.5q0 -15 -5.5 -23t-36.5 -16t-91 -8q-15 0 -86 1t-109 1q-80 0 -136 -2.5t-81.5 -5t-30.5 -2.5q-10 0 -14 2q-20 6 -51.5 6t-47.5 5.5t-18 29.5q0 15 3 25t13.5 17t18.5 11t29.5 7t33.5 4t44 3q29 0 83 -5t115 -5q11 0 39 1t47 1 q51 0 81.5 -0.5t41.5 -1t14 -0.5q21 0 70 4z" />
<glyph unicode="&#x2014;" horiz-adv-x="1036" d="M965 602h6q30 0 45.5 -15t15.5 -36q0 -32 -21.5 -37.5t-148.5 -5.5h-47q-66 0 -263 3t-302 3q-28 0 -50.5 -0.5t-37 -1t-26 -1.5t-17.5 -2t-10 -2t-5.5 -1.5l-3 -1t-2.5 -0.5q-4 0 -8 2q-18 6 -50 6t-48.5 5.5t-16.5 29.5q0 15 3 25t13 17t18 11t29 7t33.5 4t43.5 3 q30 0 63 -5t94 -5q8 0 30.5 1t37.5 1q71 0 250.5 -4t253.5 -4q59 0 121 4z" />
<glyph unicode="&#x2018;" horiz-adv-x="335" d="M127 1182q0 32 39 32q34 0 56 -19.5t22 -51.5q0 -38 -30.5 -68.5t-70.5 -30.5q-37 0 -60.5 44t-23.5 88q0 71 45.5 122.5t128.5 57.5q39 0 39 -31q0 -12 -9.5 -22t-26.5 -13q-35 -6 -57.5 -16t-30.5 -22.5t-11 -24t-4.5 -25t-5.5 -20.5z" />
<glyph unicode="&#x2019;" horiz-adv-x="368" d="M221 1210q0 -32 -39 -32q-33 0 -55.5 19.5t-22.5 51.5q0 37 31 68t72 31q38 0 64 -47.5t26 -94.5q0 -136 -150 -182q-36 0 -36 23q0 28 36 45q50 24 65 44.5t15 47.5q0 17 -6 26z" />
<glyph unicode="&#x201a;" horiz-adv-x="401" d="M231 27q0 -29 -32 -29q-30 0 -52 20t-22 50q0 38 25 61t57 23q44 0 70 -37t26 -84q0 -56 -41.5 -107t-109.5 -51q-14 0 -22.5 8t-8.5 19q0 27 33 30q38 11 60 35t22 45q0 7 -5 17z" />
<glyph unicode="&#x201c;" horiz-adv-x="567" d="M131 1186q0 33 39 33q33 0 60.5 -28t27.5 -61q0 -36 -35.5 -57.5t-79.5 -21.5q-38 0 -63 48.5t-25 96.5q0 64 48.5 113t142.5 49q16 0 24.5 -8.5t8.5 -20.5q0 -13 -9.5 -23.5t-27.5 -13.5q-117 -20 -117 -82q0 -15 6 -24zM369 1194q0 29 37 29q40 0 74.5 -30t21.5 -58 q-14 -28 -49.5 -56t-69.5 -28t-62 53.5t-28 95.5q0 56 49 98.5t139 42.5q43 0 43 -30q0 -13 -9.5 -23.5t-27.5 -11.5q-66 -5 -95.5 -24t-29.5 -40q0 -11 7 -18z" />
<glyph unicode="&#x201d;" horiz-adv-x="565" d="M432 1194q0 -33 -39 -33q-33 0 -61.5 25t-28.5 57q0 40 32.5 65t72.5 25q37 0 66.5 -48t29.5 -89q0 -61 -43 -106.5t-123 -51.5q-41 3 -41 29q0 14 12.5 26.5t32.5 16.5q96 20 96 61q0 14 -6 23zM195 1192q0 -29 -35 -29q-36 0 -68.5 36t-32.5 71q0 31 39 54.5t78 23.5 q31 0 59.5 -51t28.5 -95q0 -57 -44 -102t-126 -51q-41 0 -41 28q0 12 10 22t29 13q50 7 77.5 27t27.5 41q0 8 -2 12z" />
<glyph unicode="&#x201e;" horiz-adv-x="565" d="M197 25q0 -29 -31 -29q-29 0 -47.5 18.5t-18.5 46.5q0 36 24 59t54 23q38 0 62 -41.5t24 -85.5q0 -52 -40 -101.5t-111 -49.5q-11 0 -18 7t-7 17q0 13 8.5 23t24.5 10q38 11 59 37t21 49q0 9 -4 17zM422 16v-4q0 -24 -35 -24q-30 0 -46.5 16.5t-16.5 46.5q0 33 19 55.5 t48 22.5q44 0 71 -41.5t27 -85.5q0 -49 -34 -99t-90 -50q-15 0 -25 10t-10 22q0 9 7 16.5t19 8.5q76 40 76 80q0 16 -10 26z" />
<glyph unicode="&#x2022;" horiz-adv-x="579" d="M299 446q-11 2 -31 4t-31.5 4t-24 5t-18.5 8t-6 12q0 1 1 3t1 3q-49 16 -78.5 74t-29.5 117q0 72 62 128t145 56q94 0 164.5 -64.5t70.5 -123.5q0 -79 -63.5 -153.5t-134.5 -74.5q-17 0 -27 2zM295 543q25 0 63 43h-14q-43 0 -74.5 27t-31.5 59q0 27 35 48t75 21 q25 0 47 -14q-6 28 -42.5 44.5t-78.5 16.5q-48 0 -72 -30.5t-24 -79.5q0 -45 28 -82t89 -53zM336 653q4 8 4 11q0 12 -45 12q28 -4 41 -23z" />
<glyph unicode="&#x2026;" horiz-adv-x="899" d="M168 113h10q27 0 43.5 -18.5t16.5 -43.5t-19.5 -43t-56.5 -18q-38 0 -57 13.5t-19 35.5q0 25 23 47.5t59 26.5zM467 113q27 -10 41 -29.5t14 -40.5q0 -25 -20 -41t-58 -16q-69 0 -69 51q0 29 21.5 54.5t49.5 25.5q9 0 21 -4zM772 121q26 -6 40.5 -24.5t14.5 -41.5 q0 -28 -22.5 -48.5t-63.5 -20.5q-69 0 -69 55q0 30 23.5 56t56.5 26q14 0 20 -2z" />
<glyph unicode="&#x202f;" horiz-adv-x="342" />
<glyph unicode="&#x2039;" horiz-adv-x="755" d="M283 295q-5 7 -42.5 53t-63 89.5t-25.5 76.5q0 25 14 53q39 64 183.5 240t168.5 190q30 17 53 17q27 0 27 -19q0 -22 -8 -40.5t-15 -28t-34 -41.5q-229 -283 -297 -369q18 -21 153.5 -206.5t169.5 -233.5q19 -28 19 -47q0 -16 -12 -25.5t-27 -9.5q-18 0 -29 8 q-26 17 -110 122.5t-125 170.5z" />
<glyph unicode="&#x203a;" horiz-adv-x="761" d="M580 395q-32 -26 -162.5 -172.5t-143.5 -156.5q-12 -9 -26 -9q-21 0 -38 19.5t-17 40.5q0 18 14 26q35 21 362 377q-40 51 -106.5 110t-120 99.5t-93.5 76t-40 50.5q0 18 25.5 35.5t48.5 17.5q10 0 18 -4q15 -13 185.5 -169t203.5 -183q15 -15 15 -31q0 -21 -45.5 -62 t-79.5 -65z" />
<glyph unicode="&#x205f;" horiz-adv-x="428" />
<glyph unicode="&#x20ac;" horiz-adv-x="1216" d="M827 618q54 0 54 -45q0 -23 -16 -42t-38 -19h-82q-32 0 -205.5 -2t-260.5 -2q12 -103 53 -179.5t104 -121.5t137.5 -66.5t161.5 -21.5q219 0 418 110q6 2 14 2q29 0 29 -32q0 -79 -129.5 -141t-316.5 -62q-106 0 -201 31t-175.5 92t-136.5 161t-77 228h-37 q-100 0 -100 41q0 35 31.5 47t97.5 14q0 41 8 111q-24 0 -38 1t-30.5 6t-24.5 15.5t-8 28.5t5 29t12 17.5t26 10t34.5 4t49.5 1.5q61 219 210.5 341.5t332.5 122.5q184 0 371 -124q24 -16 24 -41q0 -19 -16 -34.5t-37 -15.5q-22 0 -41 19q-143 92 -287 92 q-161 0 -285 -106.5t-159 -262.5q14 -2 49 -2q20 0 84.5 2t104.5 2h118q19 0 56.5 1t54.5 1q53 0 53 -45q0 -24 -15.5 -43.5t-37.5 -19.5q-6 0 -104 1t-224 1q-34 0 -86 -1t-71 -1q-9 -61 -9 -113q18 0 555 10z" />
<glyph unicode="&#x2122;" horiz-adv-x="1200" d="M666 756q-1 -10 -16.5 -17.5t-33.5 -7.5q-34 0 -34 23q0 63 2 251t2 255q6 10 31 17t53 7q46 0 65 -16q25 -30 48.5 -89.5t42.5 -121t28 -80.5q13 18 52 145.5t63 151.5q13 10 53 10q77 0 82 -43q0 -70 -3 -214t-3 -218v-55q0 -29 -43 -29q-14 0 -26 6.5t-13 16.5 q-4 59 -4 186v156q0 63 -2 86q-13 -27 -43 -117t-57.5 -154.5t-47.5 -64.5q-40 0 -61 34q-17 43 -48 128.5t-48.5 128.5t-24.5 43q-3 0 -4.5 -74t-3.5 -181.5t-6 -162.5zM233 1257q0 21 33 21q28 0 43 -12l23 -17h182q18 0 18 -37q0 -16 -5.5 -27.5t-12 -17t-19.5 -8.5 t-20.5 -3t-22.5 0.5t-18 0.5q-19 0 -56.5 3t-45.5 3q6 -210 6 -213q0 -140 -12.5 -184.5t-57.5 -44.5q-24 0 -44.5 11t-20.5 24q0 7 12 16q27 22 27 209q0 66 -4 180q-10 0 -29.5 -1t-28.5 -1t-33.5 -2t-36 -0.5t-27 7t-22 21.5t-6.5 42q0 10 12.5 15.5t35.5 7t43.5 1.5 t48.5 -1t38 -1v8z" />
<glyph unicode="&#x25fc;" horiz-adv-x="890" d="M0 891h891v-891h-891v891z" />
</font>
</defs>
</svg>
